<?xml version="1.0" encoding="utf-8"?>
<!-- Generator: Adobe Illustrator 24.0.1, SVG Export Plug-In . SVG Version: 6.00 Build 0)  -->
<svg version="1.1" id="Слой_1" xmlns="http://www.w3.org/2000/svg" xmlns:xlink="http://www.w3.org/1999/xlink" x="0px" y="0px"
	 viewBox="0 0 20 20" style="enable-background:new 0 0 20 20;" xml:space="preserve">
<style type="text/css">
	.st0{fill:#FFFFFF;}
</style>
<g>
	<path class="st0" d="M0.221072,8.776862V8.128424l1.130247-1.226491c0.118411-0.131438,0.157686-0.210378,0.157686-0.328594
		c0-0.184129-0.104995-0.293596-0.280374-0.293596c-0.188407,0-0.280374,0.096439-0.289124,0.302345H0.221072
		c0.00875-0.192879,0.021971-0.271625,0.070191-0.385563c0.148937-0.354843,0.499307-0.565026,0.94184-0.565026
		c0.591469,0,0.994337,0.376619,0.994337,0.937368c0,0.289124-0.078746,0.44681-0.385369,0.771126L1.097193,8.128424H2.22744
		v0.648438H0.221072z"/>
	<path class="st0" d="M4.759169,6.665306c0.551999,0,0.880593,0.385563,0.880593,1.033807
		c0,0.411812-0.07894,0.635217-0.289124,0.836845C5.166703,8.711143,4.921327,8.803111,4.627731,8.803111
		c-0.297873,0-0.565026-0.096245-0.740211-0.271625c-0.105189-0.104995-0.179657-0.227683-0.2236-0.376619
		C3.637672,8.058428,3.628922,7.992709,3.615895,7.826273H4.33433c0.030526,0.232155,0.118216,0.328594,0.293402,0.328594
		c0.205906,0,0.293596-0.13591,0.293596-0.442533c0-0.306623-0.091968-0.442533-0.293596-0.442533
		c-0.153214,0-0.232155,0.061441-0.293402,0.223405H3.67267v-1.83546h1.901373v0.648244H4.32558v0.482003
		C4.448268,6.704776,4.592733,6.665306,4.759169,6.665306z"/>
	<path class="st0" d="M7.050189,8.803111c-0.591469,0-1.003281-0.39859-1.003281-0.97256V6.603864
		c0-0.573775,0.411812-0.972366,1.003281-0.972366c0.591275,0,1.003087,0.398591,1.003087,0.972366v1.226686
		C8.053275,8.404521,7.641463,8.803111,7.050189,8.803111z M7.050189,8.154867c0.175185,0,0.284652-0.122688,0.284652-0.319845
		V6.603864c0-0.196962-0.113939-0.324122-0.284652-0.324122c-0.17538,0-0.284846,0.12716-0.284846,0.324122v1.231158
		C6.765342,8.032179,6.874809,8.154867,7.050189,8.154867z"/>
	<path class="st0" d="M9.485673,8.803111c-0.59147,0-1.003282-0.39859-1.003282-0.97256V6.603864
		c0-0.573775,0.411812-0.972366,1.003282-0.972366c0.591274,0,1.003086,0.398591,1.003086,0.972366v1.226686
		C10.488759,8.404521,10.076947,8.803111,9.485673,8.803111z M9.485673,8.154867c0.175185,0,0.284652-0.122688,0.284652-0.319845
		V6.603864c0-0.196962-0.113938-0.324122-0.284652-0.324122c-0.17538,0-0.284846,0.12716-0.284846,0.324122v1.231158
		C9.200827,8.032179,9.310293,8.154867,9.485673,8.154867z"/>
	<path class="st0" d="M12.893426,8.803111c-0.591372,0-1.003184-0.39859-1.003184-0.97256V6.603864
		c0-0.573775,0.411812-0.972366,1.003184-0.972366c0.591469,0,1.003281,0.398591,1.003281,0.972366v1.226686
		C13.896707,8.404521,13.484895,8.803111,12.893426,8.803111z M12.893426,8.154867c0.17538,0,0.284652-0.122688,0.284652-0.319845
		V6.603864c0-0.196962-0.113938-0.324122-0.284652-0.324122c-0.17538,0-0.284652,0.12716-0.284652,0.324122v1.231158
		C12.608774,8.032179,12.718046,8.154867,12.893426,8.154867z"/>
	<path class="st0" d="M15.32891,8.803111c-0.591469,0-1.003281-0.39859-1.003281-0.97256V6.603864
		c0-0.573775,0.411812-0.972366,1.003281-0.972366s1.003282,0.398591,1.003282,0.972366v1.226686
		C16.332191,8.404521,15.920379,8.803111,15.32891,8.803111z M15.32891,8.154867c0.17538,0,0.284652-0.122688,0.284652-0.319845
		V6.603864c0-0.196962-0.113938-0.324122-0.284652-0.324122c-0.17538,0-0.284652,0.12716-0.284652,0.324122v1.231158
		C15.044258,8.032179,15.15353,8.154867,15.32891,8.154867z"/>
	<path class="st0" d="M17.764395,8.803111c-0.591469,0-1.003283-0.39859-1.003283-0.97256V6.603864
		c0-0.573775,0.411814-0.972366,1.003283-0.972366s1.003281,0.398591,1.003281,0.972366v1.226686
		C18.767675,8.404521,18.355864,8.803111,17.764395,8.803111z M17.764395,8.154867c0.175379,0,0.284651-0.122688,0.284651-0.319845
		V6.603864c0-0.196962-0.113937-0.324122-0.284651-0.324122c-0.175381,0-0.284653,0.12716-0.284653,0.324122v1.231158
		C17.479742,8.032179,17.589014,8.154867,17.764395,8.154867z"/>
	<path class="st0" d="M0.733601,11.798663C0.655438,12.007874,0.53275,12.09712,0.312456,12.09712H0.17013v-0.326455h0.083801
		c0.105967,0,0.145048-0.027804,0.181213-0.131049l0.061441-0.178588L0,10.111265h0.382063l0.301373,0.898092l0.289902-0.898092
		h0.382063L0.733601,11.798663z"/>
	<path class="st0" d="M2.420124,11.528205c-0.080885,0.036165-0.17013,0.052886-0.270458,0.052886
		c-0.415701,0-0.652716-0.273472-0.652716-0.755863c0-0.45731,0.242654-0.730684,0.652716-0.730684
		c0.100328,0,0.192296,0.016722,0.270458,0.050164c0.078162,0.033442,0.119966,0.061441,0.206295,0.145048l-0.245376,0.245376
		c-0.083607-0.086523-0.142132-0.114327-0.234293-0.114327c-0.189573,0-0.287179,0.142326-0.287179,0.415506
		c0,0.279014,0.097606,0.418423,0.287179,0.418423c0.094884,0,0.14777-0.027998,0.234293-0.114327l0.245376,0.242654
		C2.54009,11.466666,2.498286,11.494568,2.420124,11.528205z"/>
	<path class="st0" d="M3.526455,10.431888v1.132483H3.161113v-1.132483H2.734524v-0.320622h1.210354v0.320622H3.526455z"/>
	<path class="st0" d="M4.923077,11.56437v-0.125507c-0.064164,0.061344-0.094884,0.083704-0.150687,0.106064
		c-0.055803,0.022165-0.122688,0.033442-0.206295,0.033442c-0.309539,0-0.490946-0.167505-0.490946-0.451962
		c0-0.262097,0.189768-0.423867,0.496585-0.423867h0.342982v-0.072524c0-0.161769-0.080884-0.228654-0.276097-0.228654
		c-0.128326,0-0.186852,0.025082-0.273375,0.119771l-0.231377-0.225739c0.083607-0.083801,0.122688-0.114327,0.195212-0.147964
		c0.083607-0.036164,0.183935-0.052886,0.320622-0.052886c0.418423,0,0.627634,0.172853,0.627634,0.513112v0.956715H4.923077z
		 M4.627342,10.950638c-0.128132,0-0.203573,0.05872-0.203573,0.164686c0,0.111411,0.07544,0.167213,0.228849,0.167213
		c0.186852,0,0.262097-0.072524,0.262097-0.253736v-0.078163H4.627342z"/>
	<path class="st0" d="M6.495079,11.56437v-0.583012H6.029408v0.583012H5.664066v-1.453105h0.365342v0.549471h0.465671v-0.549471
		H6.86042v1.453105H6.495079z"/>
	<path class="st0" d="M8.26793,11.402503c-0.111605,0.117147-0.267735,0.178588-0.451865,0.178588
		s-0.337344-0.06144-0.448949-0.178588c-0.122688-0.128326-0.164492-0.276096-0.164492-0.566193
		c0-0.287179,0.044526-0.434949,0.164492-0.563276c0.111605-0.117244,0.26482-0.178491,0.448949-0.178491
		s0.34026,0.061247,0.451865,0.178491c0.119967,0.12541,0.164492,0.276097,0.164492,0.557833
		C8.432422,11.126407,8.390618,11.274177,8.26793,11.402503z M7.816065,10.420804c-0.248098,0-0.251015,0.251015-0.251015,0.437866
		c0,0.278819,0.07544,0.396063,0.251015,0.396063c0.242654,0,0.253737-0.228655,0.253737-0.418423
		C8.069802,10.649459,8.055997,10.420804,7.816065,10.420804z"/>
	<path class="st0" d="M9.516394,11.56437H8.774627v-1.453105h0.716684c0.273375,0,0.448949,0.156131,0.448949,0.398785
		c0,0.136687-0.058524,0.234293-0.183935,0.306817c0.13941,0.072524,0.206295,0.172853,0.206295,0.328983
		C9.96262,11.402503,9.789768,11.56437,9.516394,11.56437z M9.13433,10.379001v0.30954h0.270458
		c0.114522,0,0.175769-0.055802,0.175769-0.156131c0-0.097606-0.061247-0.153409-0.175769-0.153409H9.13433z M9.42151,10.958999
		H9.13433v0.337538h0.28718c0.114521,0,0.181407-0.066885,0.181407-0.17013C9.602917,11.02044,9.536031,10.958999,9.42151,10.958999
		z"/>
	<path class="st0" d="M11.15003,11.56437v-1.132483h-0.34026l-0.016722,0.566193
		c-0.011277,0.384979-0.181407,0.56629-0.457504,0.56629h-0.19249v-0.320914h0.053081
		c0.111606,0,0.231571-0.063969,0.237016-0.312262l0.02236-0.819929h1.056945v1.453105H11.15003z"/>
	<path class="st0" d="M12.203281,10.950638c0.011277,0.217572,0.119966,0.323539,0.331996,0.323539
		c0.058331,0,0.119772-0.011083,0.167213-0.030721c0.052887-0.022165,0.083607-0.044525,0.147771-0.105967l0.220489,0.21485
		c-0.108884,0.103244-0.159048,0.136687-0.251209,0.175865c-0.083607,0.033442-0.183935,0.052886-0.298263,0.052886
		c-0.446324,0-0.674978-0.253834-0.674978-0.747502c0-0.454588,0.242654-0.739045,0.63298-0.739045
		c0.38498,0,0.633079,0.273375,0.633079,0.694325v0.161769H12.203281z M12.47928,10.395722
		c-0.167116,0-0.267639,0.111606-0.275999,0.306817h0.552096C12.744489,10.504412,12.646883,10.395722,12.47928,10.395722z"/>
	<path class="st0" d="M14.274687,11.56437v-0.583012h-0.465864v0.583012h-0.365148v-1.453105h0.365148v0.549471h0.465864v-0.549471
		h0.365148v1.453105H14.274687z"/>
	<path class="st0" d="M15.871771,11.56437v-0.583012h-0.465476v0.583012h-0.365537v-1.453105h0.365537v0.549471h0.465476v-0.549471
		h0.365536v1.453105H15.871771z"/>
	<path class="st0" d="M17.332361,11.56437h-0.694519v-1.453105h0.365536v0.524389h0.328983
		c0.287374,0,0.485308,0.189573,0.485308,0.462948C17.817669,11.371782,17.619736,11.56437,17.332361,11.56437z
		 M16.992102,10.920112v0.359704h0.273375c0.117048,0,0.19249-0.069802,0.19249-0.181213
		c0-0.108883-0.075441-0.178491-0.19249-0.178491H16.992102z M17.987604,11.56437v-1.453105h0.365538v1.453105H17.987604z"/>
	<path class="st0" d="M19.564856,11.56437l-0.267542-0.435242l-0.264818,0.435242h-0.435144l0.502029-0.741864l-0.482586-0.711241
		h0.435144l0.245375,0.415506l0.248098-0.415506h0.435144l-0.482586,0.711241L20,11.56437H19.564856z"/>
	<path class="st0" d="M1.196549,14.190011c-0.111605,0.117049-0.267736,0.178491-0.451865,0.178491
		S0.40734,14.30706,0.295735,14.190011c-0.122688-0.128326-0.164491-0.276096-0.164491-0.566193
		c0-0.28718,0.044525-0.43495,0.164491-0.563276c0.111605-0.117244,0.26482-0.178491,0.448949-0.178491
		s0.34026,0.061247,0.451865,0.178491c0.119966,0.12541,0.164491,0.276096,0.164491,0.557832
		C1.36104,13.913915,1.319237,14.061685,1.196549,14.190011z M0.744683,13.208312c-0.248098,0-0.251015,0.251015-0.251015,0.437866
		c0,0.278819,0.075246,0.396063,0.251015,0.396063c0.242654,0,0.253737-0.228655,0.253737-0.418423
		C0.99842,13.436967,0.984615,13.208312,0.744683,13.208312z"/>
	<path class="st0" d="M2.584421,14.35178l-0.365342-0.591274l-0.150492,0.172852v0.418423h-0.36262v-1.453008h0.36262v0.610719
		l0.490752-0.610719h0.440783l-0.53275,0.599636l0.557832,0.853372H2.584421z"/>
	<path class="st0" d="M4.265306,14.190011C4.1537,14.30706,3.99757,14.368502,3.81344,14.368502
		s-0.337344-0.061441-0.448949-0.178491C3.241803,14.061685,3.2,13.913915,3.2,13.623818
		c0-0.28718,0.044525-0.43495,0.164491-0.563276c0.111605-0.117244,0.26482-0.178491,0.448949-0.178491
		s0.34026,0.061247,0.451865,0.178491c0.119966,0.12541,0.164492,0.276096,0.164492,0.557832
		C4.429797,13.913915,4.387994,14.061685,4.265306,14.190011z M3.81344,13.208312c-0.248098,0-0.251015,0.251015-0.251015,0.437866
		c0,0.278819,0.07544,0.396063,0.251015,0.396063c0.242654,0,0.253736-0.228655,0.253736-0.418423
		C4.067177,13.436967,4.053372,13.208312,3.81344,13.208312z"/>
	<path class="st0" d="M5.603014,14.35178v-0.582913h-0.46567v0.582913H4.772001v-1.453008h0.365342v0.549472h0.46567v-0.549472
		h0.365342v1.453008H5.603014z"/>
</g>
</svg>
