<?xml version="1.0" encoding="utf-8"?>
<!-- Generator: Adobe Illustrator 24.0.1, SVG Export Plug-In . SVG Version: 6.00 Build 0)  -->
<svg version="1.1" id="Слой_1" xmlns="http://www.w3.org/2000/svg" xmlns:xlink="http://www.w3.org/1999/xlink" x="0px" y="0px"
	 viewBox="0 0 20 20" style="enable-background:new 0 0 20 20;" xml:space="preserve">
<style type="text/css">
	.st0{fill:#FFFFFF;}
</style>
<g>
	<path class="st0" d="M0.344914,7.689123V6.677436l1.763399-1.913559c0.184743-0.205068,0.24602-0.328229,0.24602-0.512669
		c0-0.287277-0.163811-0.458065-0.437437-0.458065c-0.293647,0-0.437437,0.150464-0.451088,0.471716H0.344914
		c0.013651-0.300928,0.034279-0.423786,0.109511-0.601552c0.232369-0.553622,0.779014-0.881548,1.469448-0.881548
		c0.922804,0,1.551354,0.587597,1.551354,1.462471c0,0.451088-0.122859,0.697108-0.601248,1.203103L1.711829,6.677436h1.763399
		v1.011687H0.344914z"/>
	<path class="st0" d="M5.908129,4.394694c0.861223,0,1.373892,0.601552,1.373892,1.612935
		c0,0.642505-0.123162,0.991059-0.451088,1.305637C6.54396,7.586589,6.161127,7.730075,5.703062,7.730075
		c-0.464739,0-0.881548-0.15016-1.15487-0.423786C4.384077,7.142478,4.267892,6.951061,4.199334,6.718692
		C4.158381,6.568228,4.144731,6.465694,4.124405,6.206023H5.2453c0.047626,0.362205,0.18444,0.512669,0.457762,0.512669
		c0.321252,0,0.458065-0.212045,0.458065-0.690434S6.01764,5.337823,5.703062,5.337823
		c-0.239043,0-0.362205,0.09586-0.457762,0.348554H4.212985V2.822712h2.966502v1.011383H5.231649v0.752016
		C5.423066,4.456275,5.648458,4.394694,5.908129,4.394694z"/>
	<path class="st0" d="M11.546273,7.689123V5.009897h-0.621877l-0.034279,1.285009
		c-0.027302,0.915826-0.444111,1.394217-1.161847,1.394217H9.15402V6.691087h0.109511
		c0.259671,0,0.499018-0.170789,0.512669-0.567273l0.054604-2.111953h2.836364v3.677261H11.546273z"/>
	<path class="st0" d="M14.450587,6.212697c0.020325,0.369182,0.259671,0.57425,0.683457,0.57425
		c0.143487,0,0.286973-0.027302,0.396484-0.068255c0.116184-0.04793,0.18444-0.09586,0.327926-0.239347l0.669806,0.669806
		c-0.266346,0.252997-0.396484,0.348554-0.621877,0.437437c-0.225696,0.095556-0.485367,0.143486-0.806619,0.143486
		c-1.168824,0-1.749748-0.621876-1.749748-1.879583c0-1.155173,0.635831-1.879584,1.654191-1.879584
		c0.984082,0,1.647214,0.697108,1.647214,1.74277v0.499018H14.450587z M14.997231,4.893712
		c-0.334903,0-0.546644,0.218719-0.546644,0.573946h1.093593C15.537203,5.105453,15.332135,4.893712,14.997231,4.893712z"/>
	<path class="st0" d="M19.049894,5.009897v2.679226h-1.121046V5.009897h-0.950106V4.011861H20v0.998035H19.049894z"/>
	<path class="st0" d="M1.144556,12.403704c-0.121948,0.326409-0.313365,0.46565-0.657066,0.46565H0.265435v-0.509333h0.130746
		c0.165328,0,0.226302-0.04338,0.282726-0.20446l0.09586-0.278631L0,9.771044h0.596091l0.470199,1.401194l0.452301-1.401194
		h0.596091L1.144556,12.403704z"/>
	<path class="st0" d="M3.775851,11.981738c-0.126195,0.056424-0.265435,0.082512-0.421966,0.082512
		c-0.648572,0-1.018361-0.426667-1.018361-1.17929c0-0.71349,0.378586-1.140005,1.018361-1.140005
		c0.156531,0,0.300017,0.026089,0.421966,0.078265s0.18717,0.09586,0.321859,0.226302l-0.382833,0.382833
		c-0.130442-0.134993-0.221752-0.178372-0.365542-0.178372c-0.29577,0-0.448054,0.222055-0.448054,0.648268
		c0,0.435314,0.152284,0.652819,0.448054,0.652819c0.148037,0,0.230549-0.043683,0.365542-0.178372l0.382833,0.378587
		C3.963021,11.885726,3.8978,11.929257,3.775851,11.981738z"/>
	<path class="st0" d="M5.828347,12.038162v-1.766888H5.101813v1.766888H4.53181V9.771044H6.39835v2.267118H5.828347z"/>
	<path class="st0" d="M7.471921,11.080624c0.017594,0.339454,0.18717,0.504782,0.517826,0.504782
		c0.09131,0,0.18717-0.017291,0.261188-0.04793c0.082513-0.034582,0.130443-0.069468,0.23055-0.165328l0.3437,0.335206
		c-0.169576,0.161081-0.248144,0.213259-0.391631,0.274384c-0.130442,0.052176-0.287276,0.082512-0.465649,0.082512
		c-0.696198,0-1.052943-0.396029-1.052943-1.166245c0-0.709242,0.378586-1.153049,0.987721-1.153049
		c0.600642,0,0.987722,0.426516,0.987722,1.083278v0.252391H7.471921z M7.902684,10.21485
		c-0.260885,0-0.417719,0.174126-0.430763,0.478693h0.861526C8.316155,10.384426,8.163872,10.21485,7.902684,10.21485z"/>
	<path class="st0" d="M9.407018,12.038162V9.771044h0.570004v1.766432H10.5992V9.771044h0.565756v1.766432h0.62218V9.771044
		h0.565453v2.267118H9.407018z"/>
	<path class="st0" d="M14.278282,12.038162v-0.909608h-0.726534v0.909608h-0.570003V9.771044h0.570003v0.857279h0.726534V9.771044
		h0.570003v2.267118H14.278282z"/>
	<path class="st0" d="M17.044268,11.78562c-0.174126,0.182771-0.417719,0.27863-0.704996,0.27863s-0.52632-0.09586-0.700445-0.27863
		c-0.191417-0.200214-0.256638-0.430763-0.256638-0.883368c0-0.448054,0.069468-0.678603,0.256638-0.878818
		c0.174126-0.182922,0.413168-0.278479,0.700445-0.278479s0.53087,0.095556,0.704996,0.278479
		c0.187168,0.195664,0.256638,0.430763,0.256638,0.870324C17.300905,11.354856,17.235683,11.585405,17.044268,11.78562z
		 M16.339272,10.253983c-0.38708,0-0.39163,0.39163-0.39163,0.683154c0,0.43501,0.117701,0.617932,0.39163,0.617932
		c0.378586,0,0.395878-0.356745,0.395878-0.652819C16.735149,10.610728,16.713612,10.253983,16.339272,10.253983z"/>
	<path class="st0" d="M19.200964,12.038162v-1.383751l-0.796152,1.383751h-0.570004V9.771044h0.570004v1.348713l0.796152-1.348713
		h0.570307v2.267118H19.200964z M18.800688,9.518653c-0.430763,0-0.665861-0.2351-0.704994-0.644022h0.383137
		c0.030334,0.156531,0.130442,0.248144,0.326105,0.248144c0.195816,0,0.291676-0.091613,0.32201-0.248144h0.382833
		C19.466703,9.283553,19.2313,9.518653,18.800688,9.518653z"/>
	<path class="st0" d="M1.405441,14.093994c0.226302,0,0.430763,0.074018,0.561509,0.204461
		c0.09131,0.09131,0.160778,0.230549,0.191417,0.382833c0.030335,0.165328,0.039133,0.278479,0.039133,0.578799
		c0,0.53087-0.060974,0.778711-0.230549,0.948589c-0.130746,0.130442-0.335207,0.20446-0.561509,0.20446
		c-0.234796,0-0.378586-0.06522-0.539364-0.226301v1.031404H0.300321v-3.098158h0.548161v0.213258
		C1.022607,14.159216,1.1576,14.093994,1.405441,14.093994z M1.24891,14.603023c-0.39163,0-0.382833,0.391631-0.382833,0.683154
		c0,0.443808,0.108601,0.617933,0.382833,0.617933c0.282726,0,0.382833-0.174126,0.382833-0.657065
		C1.631743,14.772598,1.531636,14.603023,1.24891,14.603023z"/>
	<path class="st0" d="M3.897496,16.387051v-0.195663c-0.100107,0.095556-0.148037,0.130442-0.2351,0.165327
		c-0.087063,0.034582-0.191417,0.052177-0.321859,0.052177c-0.48294,0-0.76597-0.261189-0.76597-0.704996
		c0-0.408921,0.296074-0.661312,0.774767-0.661312h0.535117v-0.113152c0-0.252391-0.126195-0.356745-0.430763-0.356745
		c-0.200214,0-0.291523,0.039133-0.426516,0.186867l-0.360992-0.352195c0.130442-0.130746,0.191417-0.178372,0.304568-0.230852
		c0.130442-0.056424,0.286973-0.082513,0.500231-0.082513c0.652818,0,0.979228,0.269682,0.979228,0.800552v1.492504H3.897496z
		 M3.436095,15.429664c-0.19991,0-0.317612,0.091613-0.317612,0.256941c0,0.173822,0.117702,0.260885,0.357048,0.260885
		c0.291524,0,0.408922-0.113152,0.408922-0.395878v-0.121948H3.436095z"/>
	<path class="st0" d="M6.880987,15.264336c0,0.665862-0.213258,1.148802-0.939792,1.148802
		c-0.731084,0-0.935544-0.504781-0.935544-1.140005v-0.208708c0-0.787811-0.013044-1.305636,0.395877-1.605654
		c0.330656-0.239347,0.979228-0.226303,1.270751-0.248144v0.504782c-0.239347,0.021841-0.731084-0.004247-1.005316,0.191417
		c-0.213258,0.152284-0.213258,0.395877-0.221752,0.513578h0.013044c0.09131-0.134993,0.291523-0.28303,0.583047-0.28303
		C6.698367,14.137374,6.880987,14.594226,6.880987,15.264336z M5.571406,15.299221c0,0.43501,0.117398,0.604889,0.369789,0.604889
		c0.352498,0,0.374036-0.339454,0.374036-0.639774c0-0.300017-0.021538-0.626427-0.374036-0.626427
		C5.5799,14.637909,5.571406,14.9989,5.571406,15.299221z"/>
	<path class="st0" d="M8.985659,16.134659c-0.174125,0.182619-0.417719,0.278479-0.704995,0.278479
		c-0.287277,0-0.52632-0.09586-0.700445-0.278479c-0.191417-0.200213-0.256638-0.430763-0.256638-0.883368
		c0-0.448054,0.069468-0.678604,0.256638-0.878818c0.174125-0.182922,0.413168-0.27848,0.700445-0.27848
		c0.287276,0,0.53087,0.095557,0.704995,0.27848c0.18717,0.195663,0.256639,0.430763,0.256639,0.870323
		C9.242297,15.703896,9.177075,15.934445,8.985659,16.134659z M8.280663,14.603023c-0.38708,0-0.391631,0.391631-0.391631,0.683154
		c0,0.43501,0.117399,0.617933,0.391631,0.617933c0.378586,0,0.395877-0.356745,0.395877-0.652819
		C8.67654,14.959767,8.655003,14.603023,8.280663,14.603023z"/>
	<path class="st0" d="M10.746327,14.620315v1.766736h-0.570003v-1.766736h-0.66556v-0.500232h1.888381v0.500232H10.746327z"/>
	<path class="st0" d="M12.842506,16.387051h-1.083279v-2.266968h0.570003v0.818147h0.513276
		c0.448358,0,0.757172,0.295771,0.757172,0.722286C13.599678,16.086729,13.290864,16.387051,12.842506,16.387051z
		 M12.311636,15.382037v0.561205h0.426517c0.182922,0,0.300321-0.108904,0.300321-0.282726
		c0-0.169878-0.117398-0.278479-0.300321-0.278479H12.311636z M13.865113,16.387051v-2.266968h0.570004v2.266968H13.865113z"/>
</g>
</svg>
