<?xml version="1.0" encoding="utf-8"?>
<!-- Generator: Adobe Illustrator 24.0.1, SVG Export Plug-In . SVG Version: 6.00 Build 0)  -->
<svg version="1.1" id="Слой_1" xmlns="http://www.w3.org/2000/svg" xmlns:xlink="http://www.w3.org/1999/xlink" x="0px" y="0px"
	 viewBox="0 0 20 20" style="enable-background:new 0 0 20 20;" xml:space="preserve">
<style type="text/css">
	.st0{fill:#FFFFFF;}
</style>
<g>
	<path class="st0" d="M18.771132,20H0.062063V5.324719c0.00497-0.011926,0.015901-0.011926,0.015901-0.011926l1.145838,0.011926
		c0,0,10.922731-0.000993,16.384596,0.001987c0.13913,0,1.162733-0.013913,1.162733-0.013913s-0.002981,0.66087-0.000996,1.197515
		c0.001989,0.972919,0.000996,1.819628,0.000996,2.792547c0,0.032795-8.722486-0.006957-8.722486-0.006957l0.011926,6.686212
		c0,0,8.709564,0.006957,8.709564,0.019876c0,1.030558,0.002981,1.81267-0.000994,2.844223
		C18.767155,19.271551,18.771132,20,18.771132,20"/>
	<path class="st0" d="M13.702908,13.4719c0.448198,0.000994,0.814906-0.359752,0.817888-0.805963
		c0.002981-0.446212-0.362733-0.815901-0.807951-0.817888c-0.449193-0.001987-0.813912,0.359751-0.8159,0.80795
		C12.89595,13.108173,13.252721,13.469913,13.702908,13.4719 M15.470858,15.033142c-1.101119,0-2.20323-0.015901-3.304348,0.005962
		h-1.151801c0,0,0.003975-1.144844,0.002981-1.262112c-0.002981-0.743354-0.003975-1.486708-0.000994-2.230062
		c0.001987-0.401491-0.001987-1.267081-0.001987-1.267081s0.826832,0.005963,1.067328,0.005963
		c2.23702,0.001987,4.474037,0.008944,6.710062-0.003976c0.588324-0.003975,1.145838,0,1.145838,0
		s-0.00795,1.057391-0.006956,1.216398c0.008945,0.777143,0.00795,1.554285,0.002981,2.330434
		c-0.001987,0.342857,0.003975,1.210435,0.003975,1.210435s-0.788073-0.004969-1.071302-0.004969
		C17.734709,15.032148,16.602783,15.033142,15.470858,15.033142"/>
	<path class="st0" d="M7.321392,4.344446c0.202733-0.055652,0.405466-0.11031,0.608199-0.165962
		c2.134658-0.594285,4.270311-1.188572,6.404969-1.784843c0.257391-0.072546,1.490684-0.458137,1.490684-0.458137
		s0.23354,0.804968,0.280249,0.978883c0.12323,0.458135,0.258385,0.913291,0.388569,1.370434
		C16.501019,4.306683,16.504,4.32954,16.510956,4.35836H7.324373C7.32338,4.353391,7.322386,4.349415,7.321392,4.344446"/>
	<path class="st0" d="M12.743604,1.86236c-0.316026,0.089441-0.626087,0.178882-0.93615,0.266337
		C9.534659,2.769689,7.261864,3.40969,4.989069,4.048696C4.919504,4.068572,3.784597,4.359752,3.71205,4.359752
		c0,0-0.58236,0.018882-0.612174,0c0.030807-0.015901,0.673789-0.345838,0.704597-0.360744
		c2.167453-1.076273,4.3359-2.151554,6.503354-3.227827c0.174906-0.08646,1.352547-0.683726,1.528447-0.771179
		C11.836274,0.000001,12.734658,1.839504,12.743604,1.86236"/>
</g>
</svg>
