<?xml version="1.0" encoding="utf-8"?>
<!-- Generator: Adobe Illustrator 24.0.1, SVG Export Plug-In . SVG Version: 6.00 Build 0)  -->
<svg version="1.1" id="Слой_1" xmlns="http://www.w3.org/2000/svg" xmlns:xlink="http://www.w3.org/1999/xlink" x="0px" y="0px"
	 viewBox="0 0 20 20" style="enable-background:new 0 0 20 20;" xml:space="preserve">
<style type="text/css">
	.st0{fill:#E20613;}
</style>
<g>
	<path class="st0" d="M11.439526,4.151706c0.185951,0,0.366453,0.007269,0.546348-0.002423
		c0.125987-0.006662,0.21442,0.035131,0.302249,0.127199c0.399767,0.417939,0.80862,0.827397,1.210811,1.243519
		c0.066022,0.068446,0.133255,0.096308,0.22714,0.095096c0.366453-0.004846,0.732906-0.003028,1.09936-0.002423
		c0.039371,0,0.078136,0.003634,0.139918,0.007269c-0.038159,0.04361-0.05936,0.072079-0.084193,0.097519
		c-0.891603,0.909167-1.783205,1.81773-2.672991,2.728715c-0.062993,0.064811-0.124775,0.095702-0.216238,0.092068
		c-0.180501-0.007269-0.361001-0.002423-0.53908-0.002423C11.418324,8.442543,11.405604,4.397018,11.439526,4.151706"/>
	<path class="st0" d="M5.906381,13.641154c0.031497-0.20594,0.054513-0.396739,0.09025-0.58572
		c0.140524-0.747443,0.312546-1.487013,0.523332-2.217497c0.036343-0.127199,0.035737-0.126594,0.169598-0.116902
		c0.160513,0.010903,0.321631,0.013326,0.480933,0.031497c0.316179,0.035737,0.566337,0.297402,0.573,0.623879
		c0.010297,0.533629,0.010297,1.067863,0.000606,1.601493c-0.006057,0.312545-0.213815,0.545137-0.514852,0.605708
		c-0.112662,0.023017-0.228353,0.035737-0.343437,0.041188c-0.287712,0.012114-0.576029,0.018171-0.864346,0.026045
		C5.993603,13.651452,5.96574,13.646606,5.906381,13.641154"/>
	<path class="st0" d="M15.001696,7.066192c0.033313-0.041188,0.053907-0.070867,0.078741-0.096307
		c0.422785-0.430053,0.846174-0.8595,1.268959-1.290159c0.038765-0.039977,0.076319-0.070261,0.137495-0.069656
		c0.419756,0.001818,0.840118,0.001212,1.259874,0.001818c0.018776,0,0.037554,0.005452,0.076923,0.011508
		c-0.038765,0.043612-0.062994,0.074503-0.090855,0.102971c-0.416727,0.425208-0.833454,0.849203-1.248972,1.275017
		c-0.045427,0.046034-0.088432,0.078742-0.1593,0.077531c-0.403401-0.003029-0.806804-0.001817-1.210206-0.002424
		C15.08286,7.076489,15.051969,7.071038,15.001696,7.066192"/>
	<path class="st0" d="M17.982992,7.077215c0.408247,0,0.815887-0.001816,1.224136,0.000607
		c0.075106,0,0.130833-0.019382,0.184134-0.076925c0.162329-0.173232,0.330715-0.340408,0.497286-0.5094
		C19.920046,6.459394,19.952753,6.428503,20,6.382469c-0.000608,0.024229-0.000608-0.022412,0-0.035737
		c-0.243494-0.237438-0.476694-0.465789-0.721399-0.704439c-0.502737,0.454281-0.947933,0.939454-1.413723,1.404032
		c0.00424,0.007874,0.00848,0.016354,0.01272,0.024228C17.912729,7.072976,17.947861,7.077215,17.982992,7.077215"/>
	<path class="st0" d="M3.517771,2.713936C3.338481,2.737559,3.054404,2.744827,2.78547,2.814484
		C1.545585,3.134904,0.662462,3.886587,0.18577,5.111936C0.079771,5.384503,0.036766,5.67161,0.01496,5.961744
		c-0.054514,0.709284,0.03392,1.391916,0.365242,2.030333C0.667914,8.5463,1.068892,8.994524,1.569208,9.354315
		c0.117507,0.084799,0.236832,0.168387,0.346465,0.263483c0.180501,0.157484,0.322237,0.439744,0.185952,0.763799
		c-0.090856,0.216237-0.178078,0.434293-0.268329,0.651135c-0.523332,1.248365-0.85526,2.550637-1.05151,3.890464
		c-0.036342,0.249552-0.062388,0.50092-0.076925,0.75229c-0.037554,0.652348,0.236832,1.133886,0.786815,1.459757
		c0.160513,0.095097,0.324054,0.140524,0.513035,0.139919c0.849203-0.003029,1.6978,0.010902,2.546397,0.010902
		c0.201096,0,0.407036-0.009691,0.601469-0.054514c0.65901-0.150822,1.072103-0.918859,0.65053-1.618453
		c-0.076925-0.127805-0.175655-0.2441-0.278019-0.353127c-0.280443-0.300431-0.410065-0.654165-0.391288-1.066652
		c0.004846-0.104788,0.009691-0.21018,0.022411-0.314362c0.159907-1.288342,0.441561-2.548215,0.857077-3.776591
		c0.007874-0.023623,0.018171-0.046034,0.031497-0.078742c0.18353-0.004846,0.367665-0.010902,0.552406-0.013326
		C7.574199,9.998182,8.5506,9.986069,9.527001,9.976377c0.0848-0.000606,0.159302-0.022411,0.236226-0.056331
		c0.431265-0.191404,0.72261-0.519698,0.903111-0.955808c0.01696-0.041188,0.022412-0.089645,0.022412-0.134467
		c0.000605-1.656611,0.000605-3.313829-0.001212-4.971047c0-0.048456-0.007874-0.101153-0.02665-0.14537
		C10.482203,3.291782,10.20176,2.96894,9.783822,2.781169C9.748085,2.764816,2.408719,2.713936,3.517771,2.713936"/>
</g>
</svg>
