<?xml version="1.0" encoding="utf-8"?>
<!-- Generator: Adobe Illustrator 24.0.1, SVG Export Plug-In . SVG Version: 6.00 Build 0)  -->
<svg version="1.1" id="Слой_1" xmlns="http://www.w3.org/2000/svg" xmlns:xlink="http://www.w3.org/1999/xlink" x="0px" y="0px"
	 viewBox="0 0 20 20" style="enable-background:new 0 0 20 20;" xml:space="preserve">
<style type="text/css">
	.st0{fill:#E10E17;}
</style>
<g>
	<path class="st0" d="M16.5599,9.99869c-0.000654-3.620882-2.928538-6.552695-6.548765-6.55859
		C6.383703,3.43355,3.44403,6.366018,3.4401,9.992795C3.43617,13.619572,6.370603,16.55859,9.99738,16.5599
		S16.561211,13.625466,16.5599,9.99869 M6.9195,19.511364c-0.032751-0.053055-0.061571-0.097595-0.087116-0.143446
		c-0.492566-0.899981-0.987096-1.798651-1.475077-2.701252C5.2977,16.556625,5.223685,16.503571,5.101199,16.4813
		c-0.998231-0.182749-1.995808-0.370735-2.993384-0.557412c-0.062226-0.01179-0.123796-0.026855-0.197812-0.043231
		c0.04847-0.379249,0.094976-0.745399,0.142136-1.112203c0.090391-0.703478,0.178162-1.406956,0.274448-2.109124
		c0.01703-0.125761-0.018995-0.209602-0.103491-0.298683c-0.715268-0.750639-1.425951-1.505862-2.137945-2.259121
		C0.059606,10.074016,0.036026,10.04454,0,10.00262c0.209602-0.224012,0.417895-0.446715,0.626187-0.668762
		C1.160674,8.767276,1.693195,8.19873,2.232266,7.636078c0.083841-0.087771,0.105456-0.171613,0.089736-0.287549
		C2.18576,6.326063,2.054104,5.303596,1.921137,4.280474c-0.005895-0.046505-0.007205-0.09432-0.01179-0.156547
		c0.381869-0.072706,0.755224-0.144756,1.128578-0.214842c0.696928-0.131657,1.393201-0.265279,2.090784-0.391694
		C5.23875,3.49774,5.293116,3.438789,5.342242,3.349054c0.48929-0.901946,0.981201-1.802581,1.472456-2.703217
		c0.025546-0.046505,0.054366-0.091701,0.089736-0.151962c0.061571,0.026856,0.119211,0.050435,0.175542,0.077291
		c0.922905,0.435581,1.846466,0.869195,2.767407,1.310015c0.109386,0.0524,0.193227,0.048471,0.299338-0.00262
		c0.920285-0.44082,1.843191-0.8764,2.765442-1.313946c0.053056-0.02489,0.106111-0.04847,0.167681-0.07598
		c0.032752,0.053055,0.061571,0.097596,0.087117,0.143447c0.493221,0.899981,0.987097,1.798651,1.475732,2.701252
		c0.059606,0.110041,0.134277,0.162441,0.256107,0.184712c0.998232,0.182747,1.995809,0.370734,2.99404,0.557411
		c0.061571,0.01179,0.12314,0.026855,0.196503,0.042576c-0.058296,0.459815-0.113972,0.90653-0.170958,1.353246
		c-0.080566,0.623567-0.158512,1.247134-0.244974,1.869391c-0.017683,0.125761,0.018997,0.209602,0.103493,0.298683
		c0.715267,0.750639,1.426605,1.505207,2.138599,2.259121C19.94105,9.925329,19.963976,9.954804,20,9.996725
		c-0.210257,0.224012-0.417894,0.446715-0.626841,0.668762c-0.533833,0.566582-1.066353,1.135128-1.605425,1.69778
		c-0.083841,0.087771-0.105457,0.171612-0.090391,0.287549c0.136896,1.027706,0.269207,2.056068,0.402176,3.083776
		c0.005239,0.04192,0.005239,0.084496,0.007858,0.141481c-0.379248,0.07205-0.752604,0.144101-1.126612,0.214843
		c-0.696274,0.131657-1.393202,0.264622-2.090785,0.391039c-0.110042,0.01965-0.163753,0.0786-0.212877,0.168991
		c-0.48667,0.896706-0.976617,1.792101-1.465907,2.688152c-0.027511,0.05109-0.056986,0.10218-0.093666,0.167027
		c-0.05895-0.025545-0.112006-0.045851-0.163752-0.070086c-0.927491-0.4382-1.856292-0.87509-2.781162-1.317875
		c-0.109385-0.052401-0.193227-0.048471-0.299994,0.002619c-0.920285,0.440821-1.843191,0.8764-2.765441,1.313946
		C7.034781,19.45962,6.981071,19.4832,6.9195,19.511364"/>
	<path class="st0" d="M13.470492,8.068449c-0.325539-0.264624-0.639287-0.520076-0.960241-0.781424
		C11.5749,8.436563,10.653959,9.56776,9.723849,10.710749c-0.658282-0.548241-1.304775-1.086657-1.961748-1.634244
		c-0.267898,0.320954-0.524661,0.628808-0.792559,0.950417c0.978582,0.816139,1.945373,1.622454,2.923954,2.439248
		C11.08954,10.995677,12.273793,9.539596,13.470492,8.068449 M15.321544,9.993515
		c0.001964,2.939674-2.381608,5.327177-5.319317,5.327831c-2.939018,0.000655-5.323901-2.384227-5.323245-5.323245
		c0.000655-2.939019,2.386192-5.321282,5.326521-5.319317C12.936661,4.680094,15.319578,7.063012,15.321544,9.993515"/>
</g>
</svg>
