<?xml version="1.0" encoding="utf-8"?>
<!-- Generator: Adobe Illustrator 24.0.1, SVG Export Plug-In . SVG Version: 6.00 Build 0)  -->
<svg version="1.1" id="Слой_1" xmlns="http://www.w3.org/2000/svg" xmlns:xlink="http://www.w3.org/1999/xlink" x="0px" y="0px"
	 viewBox="0 0 20 20" style="enable-background:new 0 0 20 20;" xml:space="preserve">
<style type="text/css">
	.st0{fill:#E20613;}
</style>
<g>
	<path class="st0" d="M6.439405,8.479671c0.182013,1.184417,1.097395,2.691675,2.600667,3.221773
		c0.617119,0.215227,1.292031,0.219213,1.90915-0.003986c1.478029-0.534747,2.421976-2.03802,2.608639-3.217787
		c0.198622-0.016606,0.459684-0.294276,0.741341-1.29203c0.38462-1.362443-0.025243-1.56505-0.372663-1.5325
		c0.065764-0.186,0.115585-0.376648,0.1488-0.558662c0.587891-3.531994-1.151202-3.652229-1.151202-3.652229
		s-0.289628-0.554676-1.047574-0.973175c-0.509505-0.302249-1.217631-0.534083-2.148956-0.455697
		C9.424693,0.027998,9.13905,0.089777,8.870016,0.176798C8.526582,0.293047,8.211712,0.462439,7.92607,0.661725
		C7.577985,0.880938,7.247172,1.154622,6.956881,1.464843C6.497197,1.937148,6.087335,2.545632,5.909307,3.303578
		C5.760507,3.870876,5.793722,4.462752,5.917943,5.100464c0.033214,0.186664,0.082371,0.372663,0.148799,0.559327
		C5.718657,5.626576,5.308795,5.829182,5.694079,7.191628C5.979721,8.185395,6.240784,8.463065,6.439405,8.479671"/>
	<path class="st0" d="M16.488413,17.669031h-3.755856v-2.360198h3.755856V17.669031z M16.829191,13.113378
		c-2.116406-0.538733-3.834907-1.747728-3.834907-1.747728l-1.341187,4.244769l-0.253092,0.799131l-0.003985-0.012621
		l-0.219213,0.678898l-0.708126-2.008128c1.739093-2.426626-0.35207-2.401383-0.467655-2.397398
		c-0.11625-0.003985-2.207413-0.029228-0.46832,2.397398L8.82458,17.075827l-0.219213-0.678898L8.601381,16.40955
		l-0.253093-0.799131l-1.345837-4.244769c0,0-1.7185,1.208995-3.834242,1.747728
		c-1.577672,0.401892-1.652072,2.22402-1.590293,3.12213c0,0,0.091006,1.221617,0.182678,1.760349
		c0,0,3.08028,1.999493,8.240432,2.004143c5.159486,0,8.239768-2.004143,8.239768-2.004143
		c0.091669-0.538733,0.182676-1.760349,0.182676-1.760349C18.481262,15.337398,18.406864,13.515269,16.829191,13.113378"/>
</g>
</svg>
