<?xml version="1.0" encoding="utf-8"?>
<!-- Generator: Adobe Illustrator 24.0.1, SVG Export Plug-In . SVG Version: 6.00 Build 0)  -->
<svg version="1.1" id="Слой_1" xmlns="http://www.w3.org/2000/svg" xmlns:xlink="http://www.w3.org/1999/xlink" x="0px" y="0px"
	 viewBox="0 0 20 20" style="enable-background:new 0 0 20 20;" xml:space="preserve">
<style type="text/css">
	.st0{fill:#FFFFFF;}
</style>
<g>
	<path class="st0" d="M11.662796,15.143111h1.115455v-1.11909h-1.115455V15.143111z M9.954615,15.141294h1.119091v-1.114545
		H9.954615V15.141294z M8.806434,14.025839H7.684615v1.114545h1.121819V14.025839z M7.10007,14.026749H5.975525v1.112727H7.10007
		V14.026749z M4.829162,14.025839H3.70189v1.114545h1.127273V14.025839z M3.12189,14.025839H1.996436v1.113636H3.12189V14.025839z
		 M3.410072,8.902205c-0.277273,0-0.553637-0.00091-0.830909,0c-0.33,0.001818-0.58,0.237272-0.586363,0.565454
		c-0.007273,0.379091-0.007273,0.758183,0,1.137273c0.005455,0.328181,0.253636,0.568181,0.581818,0.569091
		c0.560909,0.002727,1.122727,0.002727,1.683636,0.000909c0.325455-0.000909,0.572727-0.251819,0.574545-0.576363
		c0.000909-0.368183,0.000909-0.736364,0-1.104546C4.83098,9.145841,4.589162,8.903113,4.240981,8.902205
		C3.963708,8.901296,3.687344,8.902205,3.410072,8.902205 M8.52007,17.988565c-2.451818,0-4.902726,0-7.354543,0
		c-0.568182,0-1.02-0.360909-1.138181-0.911818c-0.02-0.091818-0.025454-0.187273-0.025454-0.281818
		c-0.000909-2.455454-0.000909-4.909999-0.000909-7.365452c0-0.546364-0.002727-1.093637,0.000909-1.640909
		c0.002728-0.556363,0.349091-0.997273,0.884545-1.12909c0.087273-0.020909,0.18-0.031818,0.27-0.031818
		c4.909999-0.000909,9.819997-0.000909,14.729996,0c0.663636,0,1.161817,0.499091,1.161817,1.162726
		c0,1.875454-0.001818,3.749999-0.001818,5.625453c0,1.138182,0.002728,2.276363,0.001818,3.414544
		c-0.000908,0.585455-0.380909,1.039091-0.956362,1.144547c-0.067272,0.011818-0.138183,0.012726-0.207274,0.012726
		C13.430069,17.988565,10.974615,17.988565,8.52007,17.988565z"/>
	<path class="st0" d="M19.681522,7.582205c-0.253637-0.043636-0.503637-0.085454-0.753637-0.12909
		c-0.232727-0.040909-0.465456-0.086364-0.699091-0.123637c-0.063637-0.01-0.091818-0.033636-0.109091-0.096364
		c-0.27-0.966363-0.901817-1.542727-1.887272-1.713636c-0.252728-0.043636-0.516364-0.03-0.774545-0.030909
		c-1.04-0.001818-2.079091,0.001818-3.11909,0.002728c-1.47,0-2.939999,0.006363-4.409999-0.005455
		c-0.273636-0.002728-0.547272-0.073637-0.81909-0.12C6.463344,5.254933,5.818799,5.140388,5.173345,5.026752
		C4.420617,4.894024,3.668799,4.761297,2.901526,4.624934c0.025455-0.151819,0.049092-0.301819,0.075455-0.45
		c0.070908-0.405454,0.145454-0.81,0.213637-1.215454c0.108181-0.645455,0.718181-1.048181,1.389999-0.926364
		C5.605162,2.21857,6.631526,2.394934,7.65698,2.576753c1.139091,0.201818,2.27909,0.405454,3.41909,0.606363
		c1.429998,0.251818,2.860908,0.500908,4.291816,0.752726c1.233637,0.217273,2.466362,0.435455,3.699091,0.653636
		c0.582726,0.102727,1.038181,0.681818,0.911818,1.351818c-0.1,0.53-0.189091,1.060908-0.282728,1.591817
		C19.693338,7.546751,19.688793,7.559478,19.681522,7.582205"/>
	<path class="st0" d="M18.188885,15.299657V9.626931c0.366364,0.064546,0.726364,0.128181,1.099998,0.194546
		c-0.035454,0.207273-0.068182,0.406363-0.103636,0.605454c-0.194544,1.110909-0.390909,2.221817-0.586365,3.332726
		c-0.065453,0.371818-0.123636,0.746363-0.201818,1.116363c-0.031816,0.151818-0.109089,0.293636-0.165453,0.440001
		C18.217066,15.310566,18.203428,15.305112,18.188885,15.299657"/>
</g>
</svg>
