<?xml version="1.0" encoding="utf-8"?>
<!-- Generator: Adobe Illustrator 24.0.1, SVG Export Plug-In . SVG Version: 6.00 Build 0)  -->
<svg version="1.1" id="Слой_1" xmlns="http://www.w3.org/2000/svg" xmlns:xlink="http://www.w3.org/1999/xlink" x="0px" y="0px"
	 viewBox="0 0 20 20" style="enable-background:new 0 0 20 20;" xml:space="preserve">
<style type="text/css">
	.st0{fill:#E20613;}
	.st1{fill:#FFFFFF;}
</style>
<g>
	<path class="st0" d="M3.013546,19.012564c-0.492504-0.000658-1.036297,0.003288-1.036297,0.003288
		c-0.004603-2.509865-0.003288-6.084955-0.003288-8.594819v-0.416228H0.013809C0.009206,9.994284,0.004603,9.983106,0,9.972585
		c3.323908-2.991846,6.647817-5.983692,9.986192-8.988689C13.31536,3.981002,16.643215,6.976136,20,9.997572h-2.001579v0.775249
		c0,2.411888,0.028276,8.239742,0.028276,8.239742c-0.503025,0.005917-2.051553,0.00263-2.55392,0.00263
		C14.373356,19.015852,4.615334,19.014536,3.013546,19.012564"/>
	<path class="st1" d="M13.50605,11.227385c-0.325487-0.264335-0.639137-0.519464-0.960679-0.781168
		c-0.935035,1.149395-1.855602,2.281036-2.786034,3.423856c-0.658206-0.548395-1.304576-1.086927-1.961467-1.634665
		c-0.26828,0.321541-0.524724,0.629274-0.793004,0.950815c0.978433,0.816017,1.945687,1.622172,2.924777,2.438848
		C11.125066,14.154791,12.30931,12.698321,13.50605,11.227385"/>
</g>
</svg>
