<?xml version="1.0" encoding="utf-8"?>
<!-- Generator: Adobe Illustrator 24.0.1, SVG Export Plug-In . SVG Version: 6.00 Build 0)  -->
<svg version="1.1" id="Слой_1" xmlns="http://www.w3.org/2000/svg" xmlns:xlink="http://www.w3.org/1999/xlink" x="0px" y="0px"
	 viewBox="0 0 20 20" style="enable-background:new 0 0 20 20;" xml:space="preserve">
<style type="text/css">
	.st0{fill:#E20613;}
</style>
<g>
	<path class="st0" d="M17.640507,14.886914h-3.775189v-3.17065h3.775189V14.886914z M11.887596,14.886914h-3.77519v-3.17065h3.77519
		V14.886914z M6.134683,14.886914h-3.77519v-3.169799h3.77519V14.886914z M19.61738,3.38449
		c-0.079075,0-0.198114,0.023809-0.318001,0.137744l-4.415442,4.180767V3.796871c0-0.270384-0.19216-0.41238-0.382619-0.41238
		c-0.078226,0-0.198112,0.023809-0.318001,0.137744l-4.358473,4.1272V3.796871c0-0.270384-0.193011-0.41238-0.38262-0.41238
		c-0.079076,0-0.198112,0.023809-0.318,0.137744l-3.87127,3.664654V1.842955c0-0.322251-0.276338-0.584134-0.616445-0.584134
		H0.616445C0.277187,1.258821,0,1.520704,0,1.842955v16.314939c0,0.321402,0.277187,0.583284,0.616445,0.583284h18.767113
		C19.723663,18.741179,20,18.479296,20,18.157894V3.796871C20,3.526487,19.80699,3.38449,19.61738,3.38449"/>
</g>
</svg>
