<?xml version="1.0" encoding="utf-8"?>
<!-- Generator: Adobe Illustrator 24.0.1, SVG Export Plug-In . SVG Version: 6.00 Build 0)  -->
<svg version="1.1" id="Слой_1" xmlns="http://www.w3.org/2000/svg" xmlns:xlink="http://www.w3.org/1999/xlink" x="0px" y="0px"
	 viewBox="0 0 20 20" style="enable-background:new 0 0 20 20;" xml:space="preserve">
<style type="text/css">
	.st0{fill:#FFFFFF;}
</style>
<g>
	<path class="st0" d="M2.767672,6.681306c0.074383,0.142928,0.114495,0.314543,0.114495,0.509006
		c0,0.755004-0.537693,1.247002-1.355657,1.247002c-0.417613,0-0.783692-0.137343-1.023851-0.377502
		C0.239652,7.796804,0.188116,7.522118,0.170853,7.161879h0.938043C1.120575,7.44215,1.263503,7.590917,1.52651,7.590917
		c0.257422,0,0.417613-0.160191,0.417613-0.423452c0-0.257422-0.1772-0.440462-0.434623-0.440462H1.377743V5.914878h0.131758
		c0.234321,0,0.388926-0.148767,0.388926-0.388926c0-0.22315-0.154606-0.383341-0.371917-0.383341
		c-0.22315,0-0.360239,0.142928-0.371663,0.383341H0.216804c0.011424-0.245998,0.034272-0.349069,0.091393-0.491997
		c0.194463-0.46331,0.652188-0.737741,1.218314-0.737741c0.760843,0,1.30996,0.509006,1.30996,1.212475
		c0,0.228735-0.062959,0.423452-0.183039,0.577805c-0.062959,0.079968-0.108656,0.12008-0.24016,0.211726
		C2.613321,6.446732,2.682119,6.521115,2.767672,6.681306z"/>
	<path class="st0" d="M4.70088,8.437314c-0.772267,0-1.30996-0.520431-1.30996-1.26985V5.566063
		c0-0.749419,0.537693-1.269849,1.30996-1.269849c0.772014,0,1.309707,0.52043,1.309707,1.269849v1.601401
		C6.010586,7.916883,5.472893,8.437314,4.70088,8.437314z M4.70088,7.590917c0.228735,0,0.371663-0.160191,0.371663-0.417614
		v-1.60724c0-0.257422-0.148767-0.423452-0.371663-0.423452c-0.228989,0-0.371917,0.16603-0.371917,0.423452v1.60724
		C4.328963,7.430726,4.47189,7.590917,4.70088,7.590917z"/>
	<path class="st0" d="M7.880834,8.437314c-0.772267,0-1.30996-0.520431-1.30996-1.26985V5.566063
		c0-0.749419,0.537693-1.269849,1.30996-1.269849c0.772014,0,1.309707,0.52043,1.309707,1.269849v1.601401
		C9.190541,7.916883,8.652848,8.437314,7.880834,8.437314z M7.880834,7.590917c0.228735,0,0.371664-0.160191,0.371664-0.417614
		v-1.60724c0-0.257422-0.148767-0.423452-0.371664-0.423452c-0.228989,0-0.371917,0.16603-0.371917,0.423452v1.60724
		C7.508917,7.430726,7.651845,7.590917,7.880834,7.590917z"/>
	<path class="st0" d="M12.330384,8.437314c-0.772267,0-1.30996-0.520431-1.30996-1.26985V5.566063
		c0-0.749419,0.537693-1.269849,1.30996-1.269849c0.772014,0,1.309707,0.52043,1.309707,1.269849v1.601401
		C13.640091,7.916883,13.102398,8.437314,12.330384,8.437314z M12.330384,7.590917c0.228735,0,0.371663-0.160191,0.371663-0.417614
		v-1.60724c0-0.257422-0.148767-0.423452-0.371663-0.423452c-0.22899,0-0.371917,0.16603-0.371917,0.423452v1.60724
		C11.958467,7.430726,12.101395,7.590917,12.330384,7.590917z"/>
	<path class="st0" d="M15.510339,8.437314c-0.772267,0-1.30996-0.520431-1.30996-1.26985V5.566063
		c0-0.749419,0.537693-1.269849,1.30996-1.269849c0.772014,0,1.309707,0.52043,1.309707,1.269849v1.601401
		C16.820045,7.916883,16.282352,8.437314,15.510339,8.437314z M15.510339,7.590917c0.228735,0,0.371663-0.160191,0.371663-0.417614
		v-1.60724c0-0.257422-0.148767-0.423452-0.371663-0.423452c-0.22899,0-0.371917,0.16603-0.371917,0.423452v1.60724
		C15.138422,7.430726,15.281349,7.590917,15.510339,7.590917z"/>
	<path class="st0" d="M18.690294,8.437314c-0.772268,0-1.309961-0.520431-1.309961-1.26985V5.566063
		c0-0.749419,0.537693-1.269849,1.309961-1.269849C19.462307,4.296214,20,4.816644,20,5.566063v1.601401
		C20,7.916883,19.462307,8.437314,18.690294,8.437314z M18.690294,7.590917c0.228735,0,0.371662-0.160191,0.371662-0.417614
		v-1.60724c0-0.257422-0.148767-0.423452-0.371662-0.423452c-0.228991,0-0.371918,0.16603-0.371918,0.423452v1.60724
		C18.318377,7.430726,18.461304,7.590917,18.690294,7.590917z"/>
	<path class="st0" d="M1.551135,12.5086v-0.466103H0.447824V12.5086H0v-0.884985h0.203856
		c0.123634-0.338407,0.19294-0.622485,0.19294-1.299807V10.14534H1.7588v1.478275h0.24016V12.5086H1.551135z M1.285335,10.563969
		H0.862898c0,0.05839,0,0.21858-0.003554,0.266054c-0.014724,0.35313-0.083777,0.571457-0.163999,0.793592h0.58999V10.563969z"/>
	<path class="st0" d="M3.658242,11.831279c-0.14572,0.153083-0.349577,0.233051-0.58999,0.233051
		s-0.440462-0.079968-0.586182-0.233051c-0.160191-0.167553-0.214772-0.360493-0.214772-0.739264
		c0-0.374963,0.058136-0.567904,0.214772-0.735456c0.14572-0.153083,0.345769-0.233051,0.586182-0.233051
		s0.444269,0.079968,0.58999,0.233051c0.156637,0.163745,0.214773,0.360494,0.214773,0.728349
		C3.873015,11.470786,3.818433,11.663726,3.658242,11.831279z M3.068253,10.549498c-0.323936,0-0.327744,0.327744-0.327744,0.571712
		c0,0.364047,0.098247,0.51713,0.327744,0.51713c0.316828,0,0.331298-0.298549,0.331298-0.546325
		C3.399551,10.848047,3.381526,10.549498,3.068253,10.549498z"/>
	<path class="st0" d="M5.288331,12.042498H4.319823V10.14534h0.935759c0.356939,0,0.586182,0.203856,0.586182,0.520683
		c0,0.17847-0.076415,0.305912-0.24016,0.400604c0.182024,0.094693,0.269354,0.225689,0.269354,0.429545
		C5.870959,11.831279,5.64527,12.042498,5.288331,12.042498z M4.78948,10.494916v0.404159h0.353131
		c0.149529,0,0.229497-0.07286,0.229497-0.203856c0-0.127441-0.079968-0.200302-0.229497-0.200302H4.78948z M5.164697,11.252206
		H4.78948v0.440715h0.375217c0.149274,0,0.236605-0.087331,0.236605-0.222135
		C5.401302,11.332428,5.313972,11.252206,5.164697,11.252206z"/>
	<path class="st0" d="M7.636105,11.831279c-0.14572,0.153083-0.349576,0.233051-0.58999,0.233051
		c-0.240414,0-0.440462-0.079968-0.586182-0.233051c-0.160191-0.167553-0.214773-0.360493-0.214773-0.739264
		c0-0.374963,0.058136-0.567904,0.214773-0.735456c0.14572-0.153083,0.345768-0.233051,0.586182-0.233051
		c0.240413,0,0.444269,0.079968,0.58999,0.233051c0.156637,0.163745,0.214773,0.360494,0.214773,0.728349
		C7.850878,11.470786,7.796296,11.663726,7.636105,11.831279z M7.046115,10.549498c-0.323936,0-0.327744,0.327744-0.327744,0.571712
		c0,0.364047,0.098501,0.51713,0.327744,0.51713c0.316827,0,0.331298-0.298549,0.331298-0.546325
		C7.377413,10.848047,7.359389,10.549498,7.046115,10.549498z"/>
	<path class="st0" d="M9.397444,12.042498v-1.478529h-0.44427l-0.021832,0.739264
		c-0.014724,0.502659-0.236859,0.739264-0.597352,0.739264H8.08266v-0.418882h0.069305
		c0.14572,0,0.302358-0.083523,0.309466-0.407713l0.029195-1.070562h1.380028v1.897158H9.397444z"/>
	<path class="st0" d="M11.31161,12.042498h-0.913925V10.14534h0.477018v0.684683h0.436907
		c0.374964,0,0.629848,0.247521,0.629848,0.60446C11.941458,11.791168,11.68302,12.042498,11.31161,12.042498z M10.859979,11.201432
		v0.469656h0.364302c0.152828,0,0.247521-0.091139,0.247521-0.236606c0-0.142166-0.094693-0.23305-0.247521-0.23305H10.859979z"/>
	<path class="st0" d="M13.408055,12.042498v-0.761097H12.80004v0.761097h-0.477018V10.14534h0.477018v0.717431h0.608015V10.14534
		h0.477018v1.897158H13.408055z"/>
	<path class="st0" d="M15.31486,12.042498h-0.906564V10.14534h0.477018v0.684683h0.429545
		c0.375217,0,0.633656,0.247521,0.633656,0.60446C15.948516,11.791168,15.690078,12.042498,15.31486,12.042498z M14.87059,11.201432
		v0.469656h0.356939c0.153083,0,0.251329-0.091139,0.251329-0.236606c0-0.142166-0.098247-0.23305-0.251329-0.23305H14.87059z
		 M16.17065,12.042498V10.14534h0.477018v1.897158H16.17065z"/>
	<path class="st0" d="M18.23003,12.042498l-0.349577-0.568157l-0.345768,0.568157h-0.568157l0.655487-0.968508l-0.629847-0.92865
		h0.567904l0.320381,0.542517l0.32419-0.542517H18.7728l-0.6301,0.92865l0.655487,0.968508H18.23003z"/>
	<path class="st0" d="M1.343471,15.681953L0.866453,14.90994l-0.196494,0.225689v0.546325H0.196494v-1.897158h0.473464v0.7974
		l0.640764-0.7974h0.575519l-0.695599,0.78293l0.728348,1.114227H1.343471z"/>
	<path class="st0" d="M3.32339,15.681953v-1.478529h-0.44427l-0.021833,0.739264
		c-0.014724,0.50266-0.236859,0.739264-0.597352,0.739264h-0.25133v-0.418882h0.069306
		c0.14572,0,0.302357-0.083523,0.309466-0.407713l0.029195-1.070562h1.380028v1.897158H3.32339z"/>
	<path class="st0" d="M5.467054,15.681953V14.52406L4.80065,15.681953H4.323631v-1.897158H4.80065v1.128698l0.666404-1.128698
		h0.477018v1.897158H5.467054z"/>
	<path class="st0" d="M6.842259,14.880745c0.014724,0.284079,0.156637,0.422438,0.433353,0.422438
		c0.076414,0,0.156637-0.014471,0.21858-0.040112c0.069052-0.028941,0.109164-0.058136,0.19294-0.138358l0.287632,0.280524
		c-0.141912,0.134804-0.207664,0.17847-0.327744,0.229497c-0.109163,0.043666-0.240413,0.069053-0.389688,0.069053
		c-0.582628,0-0.881177-0.331299-0.881177-0.97587c0-0.593544,0.316828-0.964953,0.826595-0.964953
		c0.502659,0,0.826595,0.356938,0.826595,0.906564v0.211218H6.842259z M7.202752,14.156205
		c-0.218327,0-0.349577,0.14572-0.360493,0.400604h0.720986C7.548774,14.298118,7.421332,14.156205,7.202752,14.156205z"/>
	<path class="st0" d="M9.546718,15.681953v-0.761097H8.938704v0.761097H8.461685v-1.897158h0.477018v0.717432h0.608014v-0.717432
		h0.477019v1.897158H9.546718z"/>
	<path class="st0" d="M11.35883,14.203424v1.478529h-0.477019v-1.478529h-0.556987v-0.418629h1.580331v0.418629H11.35883z"/>
	<path class="st0" d="M13.521027,15.470736c-0.14572,0.153083-0.349577,0.233051-0.58999,0.233051
		c-0.240414,0-0.440462-0.079968-0.586183-0.233051c-0.160191-0.167553-0.214772-0.360494-0.214772-0.739264
		c0-0.374964,0.058136-0.567904,0.214772-0.735456c0.14572-0.153083,0.345769-0.233051,0.586183-0.233051
		c0.240413,0,0.444269,0.079968,0.58999,0.233051c0.156637,0.163745,0.214772,0.360493,0.214772,0.728348
		C13.735799,15.110242,13.681217,15.303183,13.521027,15.470736z M12.931037,14.188954
		c-0.323936,0-0.327744,0.327744-0.327744,0.571712c0,0.364047,0.098248,0.51713,0.327744,0.51713
		c0.316828,0,0.331298-0.29855,0.331298-0.546325C13.262335,14.487503,13.24431,14.188954,12.931037,14.188954z"/>
	<path class="st0" d="M15.151115,15.681953h-0.968508v-1.897158h0.935759c0.356938,0,0.586182,0.203856,0.586182,0.520684
		c0,0.178469-0.076414,0.305911-0.240159,0.400604c0.182023,0.094692,0.269354,0.225689,0.269354,0.429544
		C15.733743,15.470736,15.508054,15.681953,15.151115,15.681953z M14.652264,14.134373v0.404159h0.353131
		c0.149529,0,0.229497-0.072861,0.229497-0.203856c0-0.127442-0.079968-0.200302-0.229497-0.200302H14.652264z M15.027481,14.891662
		h-0.375217v0.440716h0.375217c0.149275,0,0.236606-0.087331,0.236606-0.222136
		C15.264087,14.971884,15.176756,14.891662,15.027481,14.891662z"/>
</g>
</svg>
