<svg xmlns="http://www.w3.org/2000/svg" xmlns:xlink="http://www.w3.org/1999/xlink" version="1.1" style="" xml:space="preserve" width="275" height="120"><rect id="backgroundrect" width="100%" height="100%" x="0" y="0" fill="none" stroke="none" class="" style=""/>
<style type="text/css">
	.st0{fill-rule:evenodd;clip-rule:evenodd;fill:#FFFFFF;}
	.st1{fill:#FFFFFF;}
	.st2{fill:#FFFFFF;}
</style>

<g class="currentLayer" style=""><title>Layer 1</title><g id="svg_1" class="">
	<polygon class="st0" points="41.130279541015625,75.38081693649292 46.441551208496094,74.02438688278198 46.545310974121094,73.30426359176636 43.36515808105469,74.1351580619812 39.5409049987793,74.33543729782104 36.56393814086914,74.02438688278198 34.11867141723633,73.08979368209839 32.95728302001953,74.33543729782104 33.386680603027344,75.27713346481323 37.73829650878906,75.69471311569214 " id="svg_2"/>
	<path class="st0" d="M67.70371482665826,110.60832699275781 l-0.7147070628733861,-5.9499196311378615 L65.06822997447685,80.82324205173494 l-2.283867693784693,-10.9140758017025 l-4.612439536087936,0.505636264537813 l-7.772396678151756,-0.583763669914247 l0.19885638478947446,-1.1164016263618506 l6.942416482845678,-0.9374481821708721 l7.237829463062157,-2.5083603596038877 l-0.26226342852285367,-0.95734982760239 L60.83477302917144,64.64527516279985 L59.9385073722689,59.83736035593034 l30.406610455181884,-9.813313103473687 L74.10722600493347,1.6293639742679886 L1.0820922207698929,25.20033494104959 l2.1167284726527225,6.310650401641846 L2.4077468855364366,31.513849565986646 L1.7045671359063188,31.92148367383195 L2.4077468855364366,35.1925880416565 l1.8674383872000992,2.501260313125616 l1.0418099231657618,0.12499040154457146 l12.005867265247998,35.77190329855537 l20.76818049428455,-6.7026993695850425 l0.8227773297528683,1.3166686570453692 l3.5259800315668848,0.9346108529911078 l0.691638794596031,3.1546394008770036 l6.497175714048339,-0.6207161845397969 l-3.2464324540745433,4.04946041006279 L43.0103955014009,76.63601653528977 l-4.335770376458705,0.1548294226341254 l-0.015851760933344942,0.8124308865108507 l3.9452877560145803,0.16760412747192405 l-0.11527313243267172,0.49287500675773815 l-4.243538228721743,0.07101391184043902 l-3.5749677024030633,0.7599066790409107 l-4.3228106751793005,1.3095686105670952 v0.004276164356231704 l-0.10807026687948246,0.4857615132217408 l-0.1253680576397933,0.549661931526186 l1.4510227224063377,1.0254995161476168 l2.275232440195354,-1.4459217758884448 l3.1397945752312038,-1.433160518108368 l3.151321888474471,-0.21446712364006057 l-2.067740801816538,1.518374522905352 L29.602506826373585,86.24904916102221 L28.81000063045125,90.48742728504945 l-2.848733326286413,6.107572935894012 l-2.7233652686466243,10.891363721206682 l2.7435551190608636,0.1264157896633152 l-1.618175585329121,1.7924927946090699 l-3.5144254347419768,3.4969477022991176 l-4.694576758617769,2.7285155886611996 l0.2074916383788092,2.7072288962841036 l5.7594276664792385,0.032662903211593756 l5.639816444565679,-2.4629093044967654 l1.5951073170517673,-3.011159294961936 l3.1470110825752133,-0.40764755490303173 l0.5259319615002125,-3.8960563755474094 l4.654237983161749,-0.5340767916240706 L39.578093647397935,100.88307867031862 l2.0173207429442126,-1.7058802958087922 l-0.7248019880805086,-1.8052809465045931 l5.080734931371803,-12.990664584846497 c0.40779405299524885,-1.038287668043139 1.6801365992355357,-3.4259203434009557 2.7075135077132813,-3.607724563829422 l4.940961142625632,12.152630500429161 l-0.40345596351435187,2.0268615636806535 l3.6325906268285797,11.993578701669712 l0.07925880466672457,1.8379572967739106 l2.3933839904911363,0.0028507762374878056 L59.271355592195526,109.52173749337007 l-1.2665720687232442,1.435997847288132 l0.8789678661422378,4.562223615194325 l6.043286049870849,0.017023975078582807 l6.135490914026157,2.8336312388896987 h5.33290343468755 l0.038892745629058985,-2.9060570917911575 l-2.9005994149857055,-0.5042377705345156 L67.70371482665826,110.60832699275781 zM84.31045338937844,36.093110603317285 l4.4034882260913335,13.118478868513078 l-29.00888620951098,9.36305182264331 L59.06817475971599,55.15440905648996 l7.7104629478269695,-6.709812863121046 l1.551890123732632,0.15197864639663758 l0.19596432513554188,-0.18606693772697536 l0.14840904233550753,0.014200092956542981 l2.002901370047013,-1.9018846091938078 l0.15274713181640565,-0.9402586172351887 l1.041782639584121,-0.3352217020015723 l0.1397737887461724,-0.14345321179962175 l0.2507361152795866,-0.08237667561721848 l1.35303373894316,-1.394782615364078 V43.446311390300764 l6.0130285578311256,-6.212661692007065 l3.731998356537086,-0.5851890580329917 L84.31045338937844,36.093110603317285 zM18.144180119285377,71.99000430341725 c-3.801162235996687,-11.330275685317993 -7.603797785401985,-22.66478719381905 -11.407865722843443,-33.99788676125908 l0.11527313243267172,0.014226987071990977 l1.6613927786482567,-0.06677808865737948 l5.121087348618653,5.157376943000798 v0.23861803931236347 l1.1354471753572284,1.1448152593326613 L18.018839345227214,47.163427768714925 L18.30414375844579,47.24155517409135 L18.44536357701892,47.35803358809664 l1.5071996170048874,0.4118968251438153 L20.158622444366475,48.92042033093263 l2.1858923521123272,1.293970023607259 l0.08644802842909366,-0.011376210834503237 L22.701875148810895,50.36351822469903 l2.0173071011533925,-0.2968572463150033 l3.6916732228718807,1.9217459134521548 l5.494285820093274,6.170061413137436 l1.8127075224285156,4.93293210252953 l1.6772308977907806,2.684503368730551 L18.144180119285377,71.99000430341725 zM48.22660705741043,44.59114009669115 l0.02304098469571396,-1.9260086307506605 l3.6470099997257788,-1.4544606575431853 L51.885117086797855,40.96210194636919 l0.099421371499327,-0.03976294968986531 L51.9456457126681,39.99341624910547 L51.10557059215495,38.732136022825244 L50.863497014046324,37.665448168869034 l0.6441107953776364,-0.75563051468468 l-0.07925880466672457,-0.16050408099365301 l0.16572047488663846,-0.19174159608650274 L51.318846349841614,35.98799495308877 L48.892299165866,34.86875599754716 L48.496046067904835,34.167088525508895 l0.038892745629058985,-1.4700861386184718 L47.300070266677345,31.655863942609805 L45.30581779201048,29.96706141011049 L43.96575739613757,29.5494630324917 l-0.521621155600955,-0.8607461649131797 L41.45851901945909,28.732755981624614 L40.40807384270399,30.202842120243083 L36.8172543793676,31.95416002410127 L35.320149687569824,36.343077959348676 l0.2348707125554214,0.14772937615585374 L35.48441049083867,36.69673557748987 l0.8717650005890487,0.5454261083431255 l0.22334339931215447,1.7740434314117461 L36.69767044103566,39.10854606263544 L36.72504951521228,39.332937114875804 l3.482749196456926,2.7555172805709898 l0.1901938476184983,1.9842612848110242 L37.34178123641329,44.07982917379381 l-0.8833059556231363,1.3692197586307528 L34.493047910126876,44.892260060304665 l-3.8890835778343993,-1.1107269680023222 L26.61833780082189,43.525864183795946 L26.281153657113222,42.578478625967044 L25.99584924389464,42.375374266103755 l-0.024500656313500454,-0.06817658266067521 L24.054908887754063,40.93085098421863 L23.17163021571255,41.00330373123553 L22.71628087991728,41.05726677388191 L19.71624645164143,38.82872623845676 L16.341581163854787,36.99786898816111 L13.63406765614151,34.95538194340516 v0.014226987071990977 L11.59225989867463,33.43275815025904 L10.896283014597707,31.749603382003805 L9.75361933189648,30.238342352634447 L8.040360464548925,26.407652124683395 L6.97984764616834,26.450265850610748 L6.701732456712152,28.40324927915575 l0.5605411848116542,1.440233670471194 L6.599419025558891,31.513849565986646 L4.5590572979189705,31.50673607245065 C3.9452312781626935,29.67587882215502 3.33282400465174,27.843623077856073 2.716119567032358,26.01277927461816 C26.240801239866364,18.435133647163415 49.76263177841891,10.824811669439331 73.2815702573175,3.2300882786750975 l9.023116985941629,26.884702507591246 L81.7528222374093,30.316469758010875 L80.44299204999444,29.5494630324917 l0.4164293065845843,-1.8478812253742283 L80.53811625738533,25.66335747966005 L79.9703858488113,25.33383733013345 L78.03375629856995,30.050850026788723 L77.33490099662995,33.26656596384814 L73.61586234137226,35.14287426925089 V35.003656880634324 L67.89389503248591,38.55033180239679 L67.58267121670855,38.867063800027864 L67.56537342594822,38.87700117568589 L65.84634408108363,40.625481750364315 L64.91405045462434,40.18090857495118 L63.09270767860647,41.443627636407875 l-0.04323083510995713,0.12922622472763104 L62.83622836939148,41.72058323729138 L62.57396494086862,42.52025286602211 L58.130124297530436,45.054176082359334 L55.29005350841501,45.10247791370394 L52.00039021923052,46.221730316303265 L50.885105610705885,44.947661938127546 L48.22660705741043,44.59114009669115 z" id="svg_3"/>
	<path class="st0" d="M269.5345829702011,65.23488830282402 c2.167175815106691,0 3.9236655175641912,1.7314028113689424 3.9236655175641912,3.859117307979596 c0,2.1319772139091566 -1.7564760606666847,3.867656189634323 -3.9236655175641912,3.867656189634323 c-2.158540561517357,0 -3.9150166221840386,-1.735678975725174 -3.9150166221840386,-3.867656189634323 C265.61956634801703,66.96629111419297 267.3760424086837,65.23488830282402 269.5345829702011,65.23488830282402 M269.5345829702011,64.77040003492166 C271.95680570648653,64.77040003492166 273.91790862945976,66.70779832356453 273.91790862945976,69.09400561080362 c0,2.387632675357822 -1.961102922973206,4.320768246702206 -4.3833256592587455,4.320768246702206 c-2.417898288595457,0 -4.386204077121851,-1.93313557134438 -4.386204077121851,-4.320768246702206 C265.1483788930792,66.70779832356453 267.11668468160565,64.77040003492166 269.5345829702011,64.77040003492166 " id="svg_4"/>
	<path class="st1" d="M268.25949842400587,66.78874961106304 h1.188786577465127 c1.0460934454833806,0 1.3717502759487907,0.5141751461925518 1.3717502759487907,0.9814604021015165 c0,0.5269632980880754 -0.6498403475222194,0.9729484145622256 -1.5907828693616897,0.9729484145622256 h-0.9697539840522265 V66.78874961106304 zM267.6053336287936,66.36405118696597 v5.198551833751683 h0.6541647952122968 v-2.397583498073584 h0.8832923138323153 c0.6440971535868165,0 0.8271154192337667,0.23294338095283623 0.9783892376415647,0.4701494792041793 l1.1412449364559094,1.9274340188694028 h0.73053154022509 l-1.2118139203700196,-2.018336129083639 c-0.13690901267388114,-0.23010605177307183 -0.27523677159308696,-0.5113243699550623 -0.7492890026031878,-0.5596262012996697 v-0.01136276377677923 c0.8645757768266775,-0.07101391184043902 1.5043484827234175,-0.583763669914247 1.5043484827234175,-1.2115664538745918 c0,-0.5582142602386495 -0.34150859139875844,-1.3976468386592866 -2.138377994684753,-1.3976468386592866 H267.6053336287936 z" id="svg_5"/>
	<path class="st0" d="M150.07789526304526,80.92409498466493 h2.494278675399069 l-0.9625374767082171,-11.825947680082345 l-0.19454557889021654,-0.11222914376449644 L150.07789526304526,80.92409498466493 zM147.4078557547157,64.62256308230403 h9.500115843768969 l3.8314333698272405,27.052279740947725 h-6.867523051241468 l-0.7953982555762554,-6.655822926359181 h-3.7478501174704295 l-1.1311363694579673,6.655822926359181 H142.36889198683608 L147.4078557547157,64.62256308230403 zM129.89620263971287,91.67484282325172 H122.98398908174363 v-27.052279740947725 H129.89620263971287 v10.026354838994989 h3.6714697306668187 v-10.026354838994989 h6.916524363868494 v27.052279740947725 h-6.916524363868494 v-12.838699385507605 H129.89620263971287 V91.67484282325172 zM109.89741914770079,91.67484282325172 H102.98385505244033 v-27.052279740947725 h6.913564095260458 v12.266271585254678 H109.9853268477477 l4.371798346015473,-12.266271585254678 h6.585083414095221 l-4.623939565749566,11.935339494667053 l4.657102759234046,15.11694024628067 H114.15249833145663 L109.9853268477477,77.95125980421639 H109.89741914770079 V91.67484282325172 zM89.88717655139959,70.55116912694935 v15.205031921430587 c0,1.414684260795596 0.619582855482496,2.126275661434174 1.8371808951603747,2.126275661434174 c1.2161792934325586,0 1.8343161190880881,-0.7115914006385836 1.8343161190880881,-2.126275661434174 v-15.205031921430587 c0,-1.4232096953926088 -0.6181368256555314,-2.134814543088919 -1.8343161190880881,-2.134814543088919 C90.50675940688208,68.41635458386044 89.88717655139959,69.12795943155675 89.88717655139959,70.55116912694935 M100.47519792951655,71.99425357365801 v12.310310699300766 c0,5.272403074771898 -2.9135727580559383,7.907179224039086 -8.750840482956585,7.907179224039086 c-5.8328750682564685,0 -8.756542751519554,-2.634776149267206 -8.756542751519554,-7.907179224039086 v-12.310310699300766 c0,-1.960083475023275 0.3991315158242738,-3.525347888212204 1.188772935674306,-4.699975274518979 c0.7824249125060225,-1.1817543269004844 1.8256672237079283,-2.007000259422307 3.1254024859156497,-2.492748325586319 c1.30404606810698,-0.4729733613262195 2.7809881930721363,-0.7187048941745784 4.442367329929575,-0.7187048941745784 c1.665730868129156,0 3.157106007782339,0.24571808579063445 4.449624762646054,0.7187048941745784 c1.2968295607629698,0.4857480661640184 2.337220737683401,1.3109939986858428 3.1224967844708984,2.492748325586319 C100.07890390618294,68.4689056854458 100.47519792951655,70.03417009863475 100.47519792951655,71.99425357365801 " id="svg_6"/>
	<path class="st0" d="M254.08805143317716,80.89400046947861 h2.494237750026607 l-0.9654022527805105,-11.821698409841561 l-0.20176208623422678,-0.11080375564575248 L254.08805143317716,80.89400046947861 zM251.41510622340286,64.5967178373585 h9.502953336259615 l3.8256901758918302,27.055103623069765 h-6.864576424424271 l-0.7925607630856043,-6.658646808481221 h-3.7535933114058335 l-1.1355017425205085,6.658646808481221 h-5.825699486284915 L251.41510622340286,64.5967178373585 zM233.56770135272743,68.69020391440966 h-4.835782935400085 v-4.093486077051167 h16.609616980583304 v4.093486077051167 h-4.855945502232684 v22.961630993076326 h-6.917902184741359 V68.69020391440966 zM220.27361249672418,81.11271686335945 h6.877590692866967 v3.5750616606178327 c0,5.001122132247937 -2.9308569070254333,7.49100623453904 -8.791151974830976,7.49100623453904 c-5.812739785005503,0 -8.71043349854645,-2.6290880438499538 -8.71043349854645,-7.904315000743867 v-12.310324146358472 c0,-5.276652345012677 2.897693713540959,-7.907165776981354 8.71043349854645,-7.907165776981354 c2.8141513865566163,0 4.989976097043461,0.5169990283145913 6.504392221392347,1.5652509661312126 c1.5245110495560188,1.046813102640152 2.286759753438618,2.9330587837009485 2.286759753438618,5.660148984243397 v2.9586081933765485 h-6.92080788618611 v-3.7227775897159576 c0,-0.6448536531543745 -0.11381346081488525,-1.1391406009731326 -0.3515762330242386,-1.4899608899345422 c-0.23922244382714009,-0.35083373601913526 -0.7060445257024092,-0.5255379099693293 -1.394804902435327,-0.5255379099693293 c-1.2723834716127511,0 -1.9135612819639873,0.6746657801284821 -1.9135612819639873,2.015485352846146 v15.202181145193098 c0,1.3436569018974371 0.5907304678972771,2.012661470724106 1.7896119705695197,2.012661470724106 c1.244990755645319,0 1.8703440886448508,-0.669004568826677 1.8703440886448508,-2.012661470724106 L220.27361249672418,81.11271686335945 zM196.56449381199792,70.52388504682733 v15.203619980369567 c0,1.4203589191551247 0.6037174527583307,2.120601003074652 1.827072328162437,2.120601003074652 c1.2248009052310747,0 1.8429786562590649,-0.7002286368618039 1.8429786562590649,-2.120601003074652 v-15.203619980369567 c0,-1.4260470245723724 -0.6181913928188131,-2.1376249781532373 -1.8429786562590649,-2.1376249781532373 C197.16821126475622,68.3862600686741 196.56449381199792,69.09783802225495 196.56449381199792,70.52388504682733 M207.14240662311693,71.96414561141397 v12.310324146358472 c0,5.275226956893925 -2.906369892502756,7.904315000743867 -8.750840482956585,7.904315000743867 c-5.82999665039335,0 -8.747893856139374,-2.6290880438499538 -8.747893856139374,-7.904315000743867 v-12.310324146358472 c0,-1.962947698318486 0.40056390386041946,-3.528171770334244 1.182988816366441,-4.695726004278187 c0.7824794796693046,-1.1831662679615025 1.8213564178086736,-2.012661470724106 3.1254024859156497,-2.4898975493488344 c1.302640963652472,-0.4829241840419784 2.7824478646899276,-0.7215422233543426 4.439516195648103,-0.7215422233543426 c1.6714877038553775,0 3.1556463361645477,0.23861803931236347 4.445313956746797,0.7215422233543426 c1.3026000382800125,0.47723607862472534 2.3415179017918413,1.3067447284450573 3.129713291814909,2.4898975493488344 C206.7547751369543,68.43597384107971 207.14240662311693,70.00119791309551 207.14240662311693,71.96414561141397 M176.75885079442156,68.46862329723359 v8.847464735389742 h1.0748912659053194 c0.7997499868479739,0 1.3804264549105891,-0.13210389508056689 1.7464220608320233,-0.4204357067985535 c0.3587654567866074,-0.2769690479412088 0.587920258988267,-0.711604847696307 0.6974229139038955,-1.3109939986858428 c0.10228614757161829,-0.5922756574535393 0.14555790805403648,-1.4814354553375266 0.14555790805403648,-2.667439052478797 c0,-1.1945290317382842 -0.04327176048241837,-2.0851007706832942 -0.14555790805403648,-2.6844899216728266 c-0.10948901312480748,-0.5979906569862384 -0.3386438153264668,-1.0425638323993707 -0.6974229139038955,-1.3337464203548492 c-0.3732121132654492,-0.2840690944194803 -0.9466720739840556,-0.4303596353988654 -1.7464220608320233,-0.4303596353988654 H176.75885079442156 zM176.75885079442156,91.65182146042827 h-6.920821527976932 v-27.055103623069765 h8.458292278812374 c2.998574756658071,0 5.2565366896747605,0.4204088126831057 6.775263619922892,1.2541667327442214 c1.5086456468318534,0.8366086962986022 2.27235402233224,2.3492951137867024 2.27235402233224,4.5508608514175615 v4.94145753712655 c0,1.9174966432113694 -0.7852896885783118,3.3634184190998075 -2.3443826778641297,4.35625503203584 c-1.5677555264567968,0.9999366594142917 -3.468343465350547,1.4999117126503014 -5.697466652572826,1.4999117126503014 h-2.543225420862789 V91.65182146042827 z" id="svg_7"/>
	<g id="svg_8">
		<path class="st2" d="M123.95146488672881,106.94650491570474 c0,0.7616547965450312 -0.23979539904159883,1.3657235236225151 -0.7260570328359875,1.8122061812324564 c-0.4795907980831961,0.43335832927131696 -1.1323777724226287,0.6565929345474264 -1.971661669068221,0.6565929345474264 H117.6434735277783 v-8.798369527639409 h3.4704033757644326 c0.4129779335070145,0 0.7793418677806041,0.05252420746994041 1.1123925488706925,0.17071039780616812 c0.3263934871697171,0.10506186199760482 0.6128165272355599,0.27577225980377285 0.8459547323567874,0.48588253674125886 s0.4129779335070145,0.459620433006288 0.546203662659379,0.7485170211486818 c0.1265548934411714,0.2888965881423963 0.19316775801735256,0.61719305541611 0.19316775801735256,0.9717650734825167 c0,0.892965315219883 -0.3996635456662701,1.5232961460323362 -1.2056478309191823,1.9172545961723326 c0.4462911866905157,0.19697250154113816 0.7793418677806041,0.4727447613449112 1.0058092371906378,0.7879169002799995 C123.83822438112841,106.0272774967499 123.95146488672881,106.44749805062487 123.95146488672881,106.94650491570474 zM122.45939401574381,103.08573361962512 c0,-0.4070827784786235 -0.13322572915236391,-0.7091171420173656 -0.3930063517458978,-0.9323651943511996 s-0.6128165272355599,-0.3282964672737134 -1.0657649078464488,-0.3282964672737134 H118.99566147569055 v2.508185547853473 h2.004974922251722 c0.4529483806108883,0 0.8059842852529119,-0.10506186199760482 1.0657649078464488,-0.3282964672737134 S122.45939401574381,103.47967862270737 122.45939401574381,103.08573361962512 zM122.58594890918502,106.86771860449984 c0,-0.4070827784786235 -0.13322572915236391,-0.7353926928100607 -0.3996635456662701,-0.9717650734825167 c-0.2597806225935339,-0.23637238067245603 -0.6194737211559324,-0.354558571008684 -1.0724221017668192,-0.354558571008684 H118.99566147569055 v2.6657716173210257 h2.118201786061329 c0.4529483806108883,0 0.8126414791732857,-0.10506186199760482 1.0724221017668192,-0.3414342426700606 C122.45273682182344,107.6162356256485 122.58594890918502,107.28793915837481 122.58594890918502,106.86771860449984 z" id="svg_9"/>
		<path class="st2" d="M136.88718389787928,109.41530403148462 l-2.511208137807227,-4.3335295044822795 l-1.505398900616588,1.7728063021011353 v2.5607232023811415 H131.51838891154318 v-8.798369527639409 h1.3521879479122934 v4.425453591083536 l3.6369287163094794,-4.425453591083536 h1.6652534054504406 l-2.8908864599215627,3.4536885176010133 l3.1972947235393345,5.3446810100383875 H136.88718389787928 z" id="svg_10"/>
		<path class="st2" d="M146.1926450284314,109.41530403148462 l-0.6261309150763046,-1.7596685267047882 h-3.5236882107090506 l-0.6261309150763046,1.7596685267047882 h-1.432115200329213 l3.2705647820358954,-8.798369527639409 h1.092407325318754 l3.257250394195144,8.798369527639409 H146.1926450284314 zM143.83463420153768,102.61297541122248 l-1.4054727828569051,3.9001711752109527 h2.7709887604007566 L143.83463420153768,102.61297541122248 z" id="svg_11"/>
		<path class="st2" d="M159.09506442818918,109.41530403148462 l-2.3180403797898776,-4.189067763353353 l-1.1989906369988115,1.5626960251636537 v2.6263851852474276 h-1.3588451418326641 v-2.6263851852474276 l-1.1989906369988115,-1.5626960251636537 l-2.3047123501583164,4.189067763353353 h-1.5919833469538887 l3.0041269655219907,-5.252756923437127 L149.436567392995,100.61693450384521 h1.631953794057762 l3.150667082515094,4.399178040290837 v-4.399178040290837 h1.3588451418326641 v4.399178040290837 l3.1573242764354688,-4.399178040290837 h1.6252966001373892 l-2.6910615079838403,3.5456126042022706 l3.0241121890739198,5.252756923437127 H159.09506442818918 z" id="svg_12"/>
		<path class="st2" d="M169.1931818143627,111.51640680085946 v-2.1011027693748523 h-5.4220798212807235 v2.1011027693748523 h-1.3055603068880481 v-3.3092402235298213 h0.8792543437494651 c0.19982495193772493,-0.4464826576099419 0.35969309856239773,-0.892965315219883 0.4929188277147619,-1.3657235236225151 c0.13322572915236391,-0.4464826576099419 0.23979539904159883,-0.9455029697475424 0.3330506810900891,-1.4839097139587403 c0.07992725241692601,-0.5515445196075456 0.13322572915236391,-1.1556132466850304 0.1731825344654162,-1.8384682849674272 c0.03997044710387323,-0.6697307099437734 0.05328483494461731,-1.4576341631660465 0.05328483494461731,-2.363737253782275 v-0.5384067442111985 h5.075701110559072 v7.590232073484421 h1.052436878214881 v3.3092402235298213 H169.1931818143627 zM168.1141025186755,101.82507195800021 h-2.411295661838364 v0.4202205538749709 c0,0.7616547965450312 -0.01332802963156458,1.4313720594310777 -0.05328483494461731,1.9829165790386254 c-0.05328483494461731,0.5646688479461683 -0.10658331168005514,1.076813488422394 -0.19982495193772493,1.5364339214286822 c-0.07992725241692601,0.4464826576099419 -0.1731825344654162,0.8667032114849099 -0.29308023398621597,1.2606616616249124 c-0.11989769952079926,0.3808206747436539 -0.25312342867316273,0.7879169002799995 -0.4129779335070145,1.1818753504200015 h3.3704772580047493 V101.82507195800021 z" id="svg_13"/>
		<path class="st2" d="M179.49113779426474,105.01611254413606 c0,0.3808206747436539 0,0.7353926928100607 -0.01332802963156458,1.0636891600837735 s-0.03997044710387323,0.6303308308124562 -0.09325528204849069,0.9323651943511996 c-0.05328483494461731,0.2888965881423963 -0.13322572915236391,0.5646688479461683 -0.25312342867316273,0.8273033323535951 c-0.11989769952079926,0.24951015606880292 -0.29308023398621597,0.48588253674125886 -0.5062332155555056,0.7091171420173656 c-0.6128165272355599,0.6303308308124562 -1.3988155889365324,0.9455029697475424 -2.358010826893744,0.9455029697475424 c-0.9458672083256491,0 -1.7185518821858776,-0.3151721389350905 -2.3446827972621795,-0.9455029697475424 c-0.21315298156928958,-0.2232480523338325 -0.38633551603470595,-0.459620433006288 -0.4929188277147619,-0.7222549174137147 c-0.11989769952079926,-0.24951015606880292 -0.21315298156928958,-0.5384067442111985 -0.2664378165139066,-0.8273033323535951 c-0.05328483494461731,-0.3020343635387438 -0.07992725241692601,-0.6040687270774857 -0.09325528204849069,-0.9323651943511996 c0,-0.3151721389350905 -0.01332802963156458,-0.643468606208804 -0.01332802963156458,-0.9848894018211385 v-0.4727447613449112 c0,-0.354558571008684 0.01332802963156458,-0.6959928136787445 0.03997044710387323,-0.9980271772174838 c0.01332802963156458,-0.2888965881423963 0.05328483494461731,-0.5778066233425156 0.11989769952079926,-0.8273033323535951 c0.05328483494461731,-0.2626344844074255 0.13322572915236391,-0.48588253674125886 0.25312342867316273,-0.6959928136787445 c0.10658331168005514,-0.2101102769374854 0.2664378165139066,-0.4070827784786235 0.4529483806108883,-0.6040687270774857 c0.306408263617781,-0.3020343635387438 0.666101362180178,-0.5384067442111985 1.0657649078464488,-0.6959928136787445 s0.8259695088048491,-0.23637238067245603 1.2789178894157378,-0.23637238067245603 c0.4662764102424529,0 0.9058967612217761,0.07878631120491054 1.3055603068880481,0.23637238067245603 c0.38633551603470595,0.1575860694675453 0.7460422563879243,0.3939584501400003 1.052436878214881,0.6959928136787445 c0.34637871072165394,0.3414342426700606 0.5861741097632508,0.7616547965450312 0.6927437796524862,1.2475238862285671 c0.11989769952079926,0.48588253674125886 0.1731825344654162,1.0505513846874277 0.1731825344654162,1.667744440103535 V105.01611254413606 zM178.11896462280055,104.93732623293114 c0,-0.3282964672737134 0,-0.6303308308124562 0,-0.9061030906162275 c-0.01332802963156458,-0.27577225980377285 -0.03997044710387323,-0.5121446404762269 -0.06661286457618207,-0.7353926928100607 c-0.03997044710387323,-0.2101102769374854 -0.09325528204849069,-0.3939584501400003 -0.15986814662467258,-0.5646688479461683 c-0.06661286457618207,-0.1575860694675453 -0.1731825344654162,-0.3151721389350905 -0.29308023398621597,-0.4464826576099419 c-0.34637871072165394,-0.354558571008684 -0.7993270913325399,-0.5384067442111985 -1.332202724360356,-0.5384067442111985 c-0.25312342867316273,0 -0.4929188277147619,0.03939987913131734 -0.7193861971247941,0.1313239657325751 s-0.4263059631385795,0.2232480523338325 -0.6128165272355599,0.4070827784786235 c-0.13322572915236391,0.1444482940711984 -0.22648101120085395,0.3020343635387438 -0.306408263617781,0.48588253674125886 c-0.06661286457618207,0.18384817320251523 -0.11989769952079926,0.3808206747436539 -0.14654011699310784,0.6040687270774857 s-0.03997044710387323,0.4727447613449112 -0.05328483494461731,0.7353926928100607 c0,0.2626344844074255 0,0.5384067442111985 0,0.853578883146286 c0,0.27577225980377285 0,0.5515445196075456 0,0.8273033323535951 c0,0.2626344844074255 0.01332802963156458,0.5252824158725751 0.03997044710387323,0.7616547965450312 s0.07992725241692601,0.4727447613449112 0.14654011699310784,0.6828550382823965 c0.07992725241692601,0.19697250154113816 0.18651056409698114,0.36769634640503024 0.3197362932493452,0.5121446404762269 c0.37302112819396227,0.354558571008684 0.8126414791732857,0.5384067442111985 1.332202724360356,0.5384067442111985 c0.546203662659379,0 0.9858376554295224,-0.18384817320251523 1.332202724360356,-0.5384067442111985 c0.13322572915236391,-0.1313239657325751 0.23979539904159883,-0.27577225980377285 0.306408263617781,-0.459620433006288 c0.06661286457618207,-0.17071039780616812 0.11989769952079926,-0.36769634640503024 0.15986814662467258,-0.5909309516811376 c0.026642417472308708,-0.2232480523338325 0.05328483494461731,-0.4727447613449112 0.05328483494461731,-0.774779124883654 C178.11896462280055,105.63331904660988 178.11896462280055,105.3050225793362 178.11896462280055,104.93732623293114 z" id="svg_14"/>
		<path class="st2" d="M189.2828469168205,109.41530403148462 v-5.8830877542495825 l-2.0516025632759685,4.2809918499546145 h-0.9991520432702651 l-2.1048873982205887,-4.2809918499546145 v5.8830877542495825 h-1.345530753991921 v-8.798369527639409 h1.332202724360356 l2.6111206137760927,5.476004975770951 l2.5711638084630377,-5.476004975770951 h1.3588451418326641 v8.798369527639409 H189.2828469168205 z" id="svg_15"/>
		<path class="st2" d="M204.47000708497544,111.51640680085946 v-2.1011027693748523 h-5.4220798212807235 v2.1011027693748523 h-1.3055603068880481 v-3.3092402235298213 h0.8792543437494651 c0.19982495193772493,-0.4464826576099419 0.35969309856239773,-0.892965315219883 0.4929188277147619,-1.3657235236225151 c0.13322572915236391,-0.4464826576099419 0.23979539904159883,-0.9455029697475424 0.3330506810900891,-1.4839097139587403 c0.07992725241692601,-0.5515445196075456 0.13322572915236391,-1.1556132466850304 0.1731825344654162,-1.8384682849674272 c0.03997044710387323,-0.6697307099437734 0.05328483494461731,-1.4576341631660465 0.05328483494461731,-2.363737253782275 v-0.5384067442111985 h5.075701110559072 v7.590232073484421 h1.052436878214881 v3.3092402235298213 H204.47000708497544 zM203.39091414749743,101.82507195800021 H200.9796184856591 v0.4202205538749709 c0,0.7616547965450312 -0.01332802963156458,1.4313720594310777 -0.05328483494461731,1.9829165790386254 c-0.05328483494461731,0.5646688479461683 -0.10658331168005514,1.076813488422394 -0.19982495193772493,1.5364339214286822 c-0.07992725241692601,0.4464826576099419 -0.1731825344654162,0.8667032114849099 -0.29308023398621597,1.2606616616249124 c-0.11989769952079926,0.3808206747436539 -0.25312342867316273,0.7879169002799995 -0.4129779335070145,1.1818753504200015 h3.3704772580047493 V101.82507195800021 z" id="svg_16"/>
		<path class="st2" d="M214.7679630648775,105.01611254413606 c0,0.3808206747436539 0,0.7353926928100607 -0.01332802963156458,1.0636891600837735 s-0.03997044710387323,0.6303308308124562 -0.09325528204849069,0.9323651943511996 c-0.05328483494461731,0.2888965881423963 -0.13322572915236391,0.5646688479461683 -0.25312342867316273,0.8273033323535951 c-0.11989769952079926,0.24951015606880292 -0.29308023398621597,0.48588253674125886 -0.5062332155555056,0.7091171420173656 c-0.6128165272355599,0.6303308308124562 -1.3988155889365324,0.9455029697475424 -2.358010826893744,0.9455029697475424 c-0.9458672083256491,0 -1.7185518821858776,-0.3151721389350905 -2.3446827972621795,-0.9455029697475424 c-0.21315298156928958,-0.2232480523338325 -0.38633551603470595,-0.459620433006288 -0.4929188277147619,-0.7222549174137147 c-0.11989769952079926,-0.24951015606880292 -0.21315298156928958,-0.5384067442111985 -0.2664378165139066,-0.8273033323535951 c-0.05328483494461731,-0.3020343635387438 -0.07992725241692601,-0.6040687270774857 -0.09325528204849069,-0.9323651943511996 c0,-0.3151721389350905 -0.01332802963156458,-0.643468606208804 -0.01332802963156458,-0.9848894018211385 v-0.4727447613449112 c0,-0.354558571008684 0.01332802963156458,-0.6959928136787445 0.03997044710387323,-0.9980271772174838 c0.01332802963156458,-0.2888965881423963 0.05328483494461731,-0.5778066233425156 0.11989769952079926,-0.8273033323535951 c0.05328483494461731,-0.2626344844074255 0.13322572915236391,-0.48588253674125886 0.25312342867316273,-0.6959928136787445 c0.10658331168005514,-0.2101102769374854 0.2664378165139066,-0.4070827784786235 0.4529483806108883,-0.6040687270774857 c0.306408263617781,-0.3020343635387438 0.666101362180178,-0.5384067442111985 1.0657649078464488,-0.6959928136787445 s0.8259695088048491,-0.23637238067245603 1.2789178894157378,-0.23637238067245603 c0.4662764102424529,0 0.9058967612217761,0.07878631120491054 1.3055603068880481,0.23637238067245603 c0.38633551603470595,0.1575860694675453 0.7460422563879243,0.3939584501400003 1.052436878214881,0.6959928136787445 c0.34637871072165394,0.3414342426700606 0.5861741097632508,0.7616547965450312 0.6927437796524862,1.2475238862285671 c0.11989769952079926,0.48588253674125886 0.1731825344654162,1.0505513846874277 0.1731825344654162,1.667744440103535 V105.01611254413606 zM213.39578989341328,104.93732623293114 c0,-0.3282964672737134 0,-0.6303308308124562 0,-0.9061030906162275 c-0.01332802963156458,-0.27577225980377285 -0.03997044710387323,-0.5121446404762269 -0.06661286457618207,-0.7353926928100607 c-0.03997044710387323,-0.2101102769374854 -0.09325528204849069,-0.3939584501400003 -0.15986814662467258,-0.5646688479461683 c-0.06661286457618207,-0.1575860694675453 -0.1731825344654162,-0.3151721389350905 -0.29308023398621597,-0.4464826576099419 c-0.34637871072165394,-0.354558571008684 -0.7993270913325399,-0.5384067442111985 -1.332202724360356,-0.5384067442111985 c-0.25312342867316273,0 -0.4929188277147619,0.03939987913131734 -0.7193861971247941,0.1313239657325751 s-0.4263059631385795,0.2232480523338325 -0.6128165272355599,0.4070827784786235 c-0.13322572915236391,0.1444482940711984 -0.22648101120085395,0.3020343635387438 -0.306408263617781,0.48588253674125886 c-0.06661286457618207,0.18384817320251523 -0.11989769952079926,0.3808206747436539 -0.14654011699310784,0.6040687270774857 s-0.03997044710387323,0.4727447613449112 -0.05328483494461731,0.7353926928100607 c0,0.2626344844074255 0,0.5384067442111985 0,0.853578883146286 c0,0.27577225980377285 0,0.5515445196075456 0,0.8273033323535951 c0,0.2626344844074255 0.01332802963156458,0.5252824158725751 0.03997044710387323,0.7616547965450312 s0.07992725241692601,0.4727447613449112 0.14654011699310784,0.6828550382823965 c0.07992725241692601,0.19697250154113816 0.18651056409698114,0.36769634640503024 0.3197362932493452,0.5121446404762269 c0.37302112819396227,0.354558571008684 0.8126414791732857,0.5384067442111985 1.332202724360356,0.5384067442111985 c0.546203662659379,0 0.9858376554295224,-0.18384817320251523 1.332202724360356,-0.5384067442111985 c0.13322572915236391,-0.1313239657325751 0.23979539904159883,-0.27577225980377285 0.306408263617781,-0.459620433006288 c0.06661286457618207,-0.17071039780616812 0.11989769952079926,-0.36769634640503024 0.15986814662467258,-0.5909309516811376 c0.026642417472308708,-0.2232480523338325 0.05328483494461731,-0.4727447613449112 0.05328483494461731,-0.774779124883654 C213.39578989341328,105.63331904660988 213.39578989341328,105.3050225793362 213.39578989341328,104.93732623293114 z" id="svg_17"/>
		<path class="st2" d="M224.55967218743322,109.41530403148462 v-5.8830877542495825 l-2.0516025632759685,4.2809918499546145 h-0.9991520432702651 l-2.1048873982205887,-4.2809918499546145 v5.8830877542495825 h-1.345530753991921 v-8.798369527639409 h1.332202724360356 l2.6111206137760927,5.476004975770951 l2.5711638084630377,-5.476004975770951 h1.3588451418326641 v8.798369527639409 H224.55967218743322 z" id="svg_18"/>
		<path class="st2" d="M229.52880362810302,109.41530403148462 v-8.798369527639409 h5.71516005526693 v1.2081374541549712 h-4.369642943065844 v2.5607232023811415 h3.7168559687264024 v1.1949996787586235 h-3.7168559687264024 v2.6263851852474276 h4.369642943065844 v1.2081374541549712 H229.52880362810302 z" id="svg_19"/>
	</g>
</g></g></svg>