<?xml version="1.0" encoding="utf-8"?>
<!-- Generator: Adobe Illustrator 24.0.1, SVG Export Plug-In . SVG Version: 6.00 Build 0)  -->
<svg version="1.1" id="Слой_1" xmlns="http://www.w3.org/2000/svg" xmlns:xlink="http://www.w3.org/1999/xlink" x="0px" y="0px"
	 viewBox="0 0 20 20" style="enable-background:new 0 0 20 20;" xml:space="preserve">
<style type="text/css">
	.st0{fill-rule:evenodd;clip-rule:evenodd;fill:#FFFFFF;}
	.st1{fill:#FFFFFF;}
	.st2{fill:#FFFFFF;}
</style>
<g>
	<polygon class="st0" points="2.935699,11.143806 3.325037,11.042934 3.332643,10.989382 3.099525,11.051172 2.819191,11.066066
		2.600967,11.042934 2.421719,10.973432 2.336584,11.066066 2.368061,11.136096 2.687053,11.16715 	"/>
	<path class="st0" d="M4.883642,13.763525l-0.052391-0.44247L4.69045,11.548536l-0.167417-0.811633l-0.338111,0.037602
		l-0.569749-0.043412l0.014577-0.083022l0.508908-0.069714l0.530563-0.186536l-0.019225-0.071194L4.38012,10.34545L4.31442,9.987906
		l2.228931-0.729774L5.353046,5.659227L0,7.412099l0.155165,0.469296L0.097176,7.881608L0.04563,7.911922L0.097176,8.15518
		l0.136891,0.186008l0.076369,0.009295l0.88008,2.660203l1.522394-0.498451l0.060313,0.097915l0.258469,0.069503l0.0507,0.234597
		l0.47627-0.04616l-0.237977,0.301141L3.073519,11.23715l-0.31783,0.011514l-0.001162,0.060417l0.289206,0.012464l-0.00845,0.036653
		l-0.311069,0.005281l-0.26206,0.056511l-0.31688,0.097387v0.000318l-0.007922,0.036124l-0.00919,0.040876l0.106366,0.076262
		l0.166784-0.107527l0.23016-0.106578l0.231005-0.015949l-0.151574,0.112915L2.090665,11.95203L2.032571,12.26722
		l-0.208824,0.454194l-0.199634,0.809944l0.201114,0.009401l-0.118619,0.1333l-0.257622,0.260053l-0.344132,0.202908
		l0.01521,0.201325l0.42219,0.002429l0.413422-0.183156l0.116928-0.223927l0.230689-0.030315l0.038553-0.289733l0.341175-0.039717
		L2.821917,13.0403l0.147878-0.126859l-0.053131-0.134251l0.372439-0.96606c0.029893-0.077213,0.123161-0.254771,0.198472-0.268291
		l0.362193,0.903739l-0.029575,0.150729l0.266284,0.891911l0.00581,0.136681l0.175445,0.000212L4.265515,13.68272
		l-0.092845,0.106789l0.064432,0.339273l0.442998,0.001266l0.449757,0.210725h0.390924l0.002851-0.216111l-0.212626-0.037498
		L4.883642,13.763525z M6.100985,8.222148l0.322794,0.975565l-2.126472,0.69629L4.250621,9.639655l0.565209-0.49898
		l0.11376,0.011302l0.014365-0.013837l0.010879,0.001056l0.146821-0.141435l0.011197-0.069923l0.076367-0.024929l0.010246-0.010668
		l0.01838-0.006126l0.099183-0.103724V8.768974l0.44078-0.462009l0.273571-0.043518L6.100985,8.222148z M1.250722,10.891646
		c-0.278641-0.842584-0.55739-1.685483-0.836244-2.528277l0.00845,0.001058l0.121787-0.004966l0.375397,0.383532v0.017745
		l0.083233,0.085135L1.241534,9.0454L1.262448,9.05121L1.2728,9.059872l0.110484,0.030631L1.398389,9.17606l0.160235,0.096227
		l0.006337-0.000846L1.58482,9.283377l0.147877-0.022076l0.270615,0.142912l0.402754,0.458841l0.132879,0.366841l0.122948,0.199635
		L1.250722,10.891646z M3.455889,8.85411l0.001689-0.143229l0.267341-0.108162L3.724073,8.584234l0.007288-0.002957
		L3.72851,8.512197L3.666929,8.418401L3.649184,8.339076l0.047216-0.056193l-0.00581-0.011936l0.012148-0.014259L3.682563,8.214331
		L3.504687,8.131098L3.47564,8.078918l0.002851-0.109324L3.38797,7.892169L3.241783,7.76658L3.143551,7.735525l-0.038237-0.06401
		L2.95976,7.67479L2.882758,7.784114L2.619536,7.914352L2.509792,8.240737l0.017217,0.010986L2.521833,8.267037l0.063904,0.040561
		l0.016372,0.131928L2.61077,8.446393L2.612777,8.46308l0.2553,0.204916l0.013942,0.147561L2.657986,8.816086l-0.06475,0.101823
		L2.449162,8.876503l-0.285086-0.0826L1.871913,8.77489L1.847196,8.704437L1.826282,8.689333l-0.001796-0.00507L1.684003,8.58191
		L1.619255,8.587298L1.585876,8.591311L1.365961,8.425584L1.118584,8.289431L0.920112,8.13754v0.001058L0.770439,8.024309
		L0.719421,7.89914L0.635659,7.786754L0.51007,7.501882L0.43233,7.505051L0.411943,7.650286l0.04109,0.107104L0.404443,7.881608
		L0.254876,7.881079C0.20988,7.744926,0.164988,7.608669,0.119781,7.472517C1.844238,6.909,3.568486,6.343053,5.292522,5.778266
		l0.661432,1.9993L5.9135,7.792564L5.817484,7.735525l0.030526-0.137419L5.824457,7.446532L5.78284,7.422027L5.640877,7.772811
		L5.589648,8.01195L5.317027,8.151483V8.14113L4.897583,8.404881L4.874769,8.428435L4.873501,8.429174L4.747489,8.559201
		L4.679148,8.52614L4.545636,8.620043l-0.003169,0.00961L4.526835,8.640639L4.50761,8.700107L4.181858,8.888544L3.973669,8.892136
		L3.732523,8.97537L3.650768,8.880623L3.455889,8.85411z"/>
	<path class="st0" d="M19.678684,10.389297c0.158863,0,0.287621,0.128757,0.287621,0.286986
		c0,0.158546-0.128757,0.287621-0.287621,0.287621c-0.15823,0-0.286987-0.129075-0.286987-0.287621
		C19.391697,10.518054,19.520454,10.389297,19.678684,10.389297 M19.678684,10.354755
		C19.856243,10.354755,20,10.498831,20,10.676283c0,0.177558-0.143757,0.321317-0.321316,0.321317
		c-0.177242,0-0.321527-0.143759-0.321527-0.321317C19.357157,10.498831,19.501442,10.354755,19.678684,10.354755"/>
	<path class="st1" d="M19.585215,10.504851h0.087143c0.076683,0,0.100555,0.038237,0.100555,0.072987
		c0,0.039188-0.047636,0.072354-0.116611,0.072354h-0.071087V10.504851z M19.537262,10.473268v0.386594h0.047953v-0.178298h0.064749
		c0.047215,0,0.060631,0.017323,0.07172,0.034963l0.083658,0.143335h0.053551l-0.088831-0.150095
		c-0.010036-0.017112-0.020176-0.038025-0.054926-0.041617v-0.000845c0.063377-0.005281,0.110275-0.043412,0.110275-0.090099
		c0-0.041512-0.025034-0.103937-0.156752-0.103937H19.537262z"/>
	<path class="st0" d="M10.922012,11.556036h0.182841l-0.070558-0.879445l-0.014261-0.008346L10.922012,11.556036z
		 M10.726287,10.343761h0.696398l0.28086,2.011762h-0.503418l-0.058306-0.494965h-0.274733l-0.082917,0.494965H10.35691
		L10.726287,10.343761z M9.44261,12.355523H8.935916v-2.011762H9.44261v0.745617h0.269134v-0.745617h0.50701v2.011762h-0.50701
		v-0.954759H9.44261V12.355523z M7.976616,12.355523H7.469823v-2.011762h0.506793v0.91219H7.98306l0.320471-0.91219h0.482714
		l-0.338954,0.88758l0.341385,1.124182H8.288531L7.98306,11.334959H7.976616V12.355523z M6.509782,10.784646v1.130733
		c0,0.105204,0.045418,0.158122,0.134673,0.158122c0.089151,0,0.134463-0.052918,0.134463-0.158122v-1.130733
		c0-0.105838-0.045312-0.158757-0.134463-0.158757C6.5552,10.625889,6.509782,10.678808,6.509782,10.784646 M7.285928,10.891962
		v0.915465c0,0.392086-0.213577,0.588023-0.641473,0.588023c-0.427574,0-0.641891-0.195937-0.641891-0.588023v-0.915465
		c0-0.145763,0.029258-0.262165,0.087142-0.349517c0.057355-0.087882,0.133829-0.149252,0.229105-0.185375
		c0.095592-0.035173,0.203858-0.053447,0.325644-0.053447c0.122105,0,0.231429,0.018273,0.326176,0.053447
		c0.095063,0.036123,0.171328,0.097493,0.228892,0.185375C7.256878,10.629797,7.285928,10.746199,7.285928,10.891962"/>
	<path class="st0" d="M18.546389,11.553798h0.182838l-0.070768-0.879129l-0.01479-0.00824L18.546389,11.553798z
		 M18.350451,10.341839h0.696606l0.280439,2.011972h-0.503202l-0.058098-0.495175h-0.275154l-0.083237,0.495175h-0.427048
		L18.350451,10.341839z M17.042162,10.646254h-0.354483v-0.304415h1.217554v0.304415h-0.355961v1.707558h-0.507111V10.646254z
		 M16.06765,11.570063h0.504156v0.265862c0,0.371912-0.214844,0.557074-0.644428,0.557074
		c-0.426098,0-0.638511-0.195514-0.638511-0.58781v-0.915466c0-0.392402,0.212413-0.588022,0.638511-0.588022
		c0.206289,0,0.365786,0.038447,0.476799,0.116401c0.111753,0.077847,0.167629,0.218119,0.167629,0.420921v0.220019h-0.507324
		v-0.276847c0-0.047955-0.008343-0.084713-0.025772-0.110802c-0.017536-0.02609-0.051756-0.039082-0.102245-0.039082
		c-0.093271,0-0.140272,0.050172-0.140272,0.149883v1.130521c0,0.099922,0.043303,0.149673,0.131186,0.149673
		c0.091263,0,0.137104-0.049751,0.137104-0.149673L16.06765,11.570063z M14.329673,10.782617v1.130628
		c0,0.105626,0.044255,0.1577,0.133932,0.1577c0.089783,0,0.135098-0.052073,0.135098-0.1577v-1.130628
		c0-0.106049-0.045316-0.158966-0.135098-0.158966C14.373928,10.623651,14.329673,10.676568,14.329673,10.782617
		 M15.105078,10.889723v0.915466c0,0.392296-0.213049,0.58781-0.641473,0.58781c-0.427363,0-0.641257-0.195514-0.641257-0.58781
		v-0.915466c0-0.145976,0.029363-0.262375,0.086718-0.349201c0.057359-0.087987,0.133513-0.149673,0.229105-0.185163
		c0.095489-0.035913,0.203965-0.053658,0.325435-0.053658c0.122527,0,0.231322,0.017745,0.32586,0.053658
		c0.095486,0.03549,0.171643,0.097177,0.229421,0.185163C15.076663,10.627348,15.105078,10.743747,15.105078,10.889723
		 M12.877837,10.629776v0.657948h0.078794c0.058625,0,0.101191-0.009824,0.12802-0.031266
		c0.026299-0.020597,0.043097-0.052919,0.051124-0.097493c0.007498-0.044045,0.01067-0.110168,0.01067-0.198366
		c0-0.088832-0.003172-0.15506-0.01067-0.199634c-0.008026-0.04447-0.024824-0.077531-0.051124-0.099185
		c-0.027358-0.021125-0.069395-0.032004-0.12802-0.032004H12.877837z M12.877837,12.353811h-0.507325v-2.011972h0.620028
		c0.219808,0,0.385326,0.031264,0.496655,0.093267c0.11059,0.062215,0.166573,0.174707,0.166573,0.338428v0.367475
		c0,0.142596-0.057565,0.250123-0.171853,0.323956c-0.114923,0.074361-0.254244,0.111542-0.417648,0.111542h-0.186429V12.353811z"/>
	<g>
		<path class="st2" d="M9.006836,13.491211c0,0.056641-0.017578,0.101563-0.053223,0.134766
			c-0.035156,0.032227-0.083008,0.048828-0.144531,0.048828H8.544434v-0.654297h0.254395
			c0.030273,0,0.057129,0.003906,0.081543,0.012695c0.023926,0.007813,0.044922,0.020508,0.062012,0.036133
			s0.030273,0.03418,0.040039,0.055664c0.009277,0.021484,0.01416,0.045898,0.01416,0.072266
			c0,0.066406-0.029297,0.113281-0.088379,0.142578c0.032715,0.014648,0.057129,0.035156,0.07373,0.058594
			C8.998535,13.422852,9.006836,13.454102,9.006836,13.491211z M8.897461,13.204102c0-0.030273-0.009766-0.052734-0.028809-0.069336
			s-0.044922-0.024414-0.078125-0.024414H8.643555v0.186523h0.146973c0.033203,0,0.059082-0.007813,0.078125-0.024414
			S8.897461,13.233398,8.897461,13.204102z M8.906738,13.485352c0-0.030273-0.009766-0.054688-0.029297-0.072266
			c-0.019043-0.017578-0.04541-0.026367-0.078613-0.026367H8.643555v0.198242h0.155273
			c0.033203,0,0.05957-0.007813,0.078613-0.025391C8.896973,13.541016,8.906738,13.516602,8.906738,13.485352z"/>
		<path class="st2" d="M9.955078,13.674805l-0.184082-0.322266l-0.110352,0.131836v0.19043H9.561523v-0.654297h0.099121v0.329102
			l0.266602-0.329102h0.12207l-0.211914,0.256836l0.234375,0.397461H9.955078z"/>
		<path class="st2" d="M10.637207,13.674805l-0.045898-0.130859h-0.258301l-0.045898,0.130859h-0.10498l0.239746-0.654297h0.080078
			l0.23877,0.654297H10.637207z M10.464355,13.168945l-0.103027,0.290039h0.203125L10.464355,13.168945z"/>
		<path class="st2" d="M11.583008,13.674805l-0.169922-0.311523l-0.087891,0.116211v0.195313h-0.099609v-0.195313
			l-0.087891-0.116211l-0.168945,0.311523h-0.116699l0.220215-0.390625L10.875,13.020508h0.119629l0.230957,0.327148v-0.327148
			h0.099609v0.327148l0.231445-0.327148h0.119141l-0.197266,0.263672l0.22168,0.390625H11.583008z"/>
		<path class="st2" d="M12.323242,13.831055v-0.15625h-0.397461v0.15625h-0.095703v-0.246094h0.064453
			c0.014648-0.033203,0.026367-0.066406,0.036133-0.101563c0.009766-0.033203,0.017578-0.070313,0.024414-0.110352
			c0.005859-0.041016,0.009766-0.085938,0.012695-0.136719c0.00293-0.049805,0.003906-0.108398,0.003906-0.175781v-0.040039h0.37207
			v0.564453h0.077148v0.246094H12.323242z M12.244141,13.110352h-0.176758v0.03125c0,0.056641-0.000977,0.106445-0.003906,0.147461
			c-0.003906,0.041992-0.007813,0.080078-0.014648,0.114258c-0.005859,0.033203-0.012695,0.064453-0.021484,0.09375
			c-0.008789,0.02832-0.018555,0.058594-0.030273,0.087891h0.24707V13.110352z"/>
		<path class="st2" d="M13.078125,13.347656c0,0.02832,0,0.054688-0.000977,0.079102s-0.00293,0.046875-0.006836,0.069336
			c-0.003906,0.021484-0.009766,0.041992-0.018555,0.061523c-0.008789,0.018555-0.021484,0.036133-0.037109,0.052734
			c-0.044922,0.046875-0.102539,0.070313-0.172852,0.070313c-0.069336,0-0.125977-0.023438-0.171875-0.070313
			c-0.015625-0.016602-0.02832-0.03418-0.036133-0.053711c-0.008789-0.018555-0.015625-0.040039-0.019531-0.061523
			c-0.003906-0.022461-0.005859-0.044922-0.006836-0.069336c0-0.023438-0.000977-0.047852-0.000977-0.073242v-0.035156
			c0-0.026367,0.000977-0.051758,0.00293-0.074219c0.000977-0.021484,0.003906-0.042969,0.008789-0.061523
			c0.003906-0.019531,0.009766-0.036133,0.018555-0.051758c0.007813-0.015625,0.019531-0.030273,0.033203-0.044922
			c0.022461-0.022461,0.048828-0.040039,0.078125-0.051758s0.060547-0.017578,0.09375-0.017578
			c0.03418,0,0.066406,0.005859,0.095703,0.017578c0.02832,0.011719,0.054688,0.029297,0.077148,0.051758
			c0.025391,0.025391,0.042969,0.056641,0.050781,0.092773c0.008789,0.036133,0.012695,0.078125,0.012695,0.124023V13.347656z
			 M12.977539,13.341797c0-0.024414,0-0.046875,0-0.067383c-0.000977-0.020508-0.00293-0.038086-0.004883-0.054688
			c-0.00293-0.015625-0.006836-0.029297-0.011719-0.041992c-0.004883-0.011719-0.012695-0.023438-0.021484-0.033203
			c-0.025391-0.026367-0.058594-0.040039-0.097656-0.040039c-0.018555,0-0.036133,0.00293-0.052734,0.009766
			s-0.03125,0.016602-0.044922,0.030273c-0.009766,0.010742-0.016602,0.022461-0.022461,0.036133
			c-0.004883,0.013672-0.008789,0.02832-0.010742,0.044922s-0.00293,0.035156-0.003906,0.054688c0,0.019531,0,0.040039,0,0.063477
			c0,0.020508,0,0.041016,0,0.061523c0,0.019531,0.000977,0.039063,0.00293,0.056641s0.005859,0.035156,0.010742,0.050781
			c0.005859,0.014648,0.013672,0.027344,0.023438,0.038086c0.027344,0.026367,0.05957,0.040039,0.097656,0.040039
			c0.040039,0,0.072266-0.013672,0.097656-0.040039c0.009766-0.009766,0.017578-0.020508,0.022461-0.03418
			c0.004883-0.012695,0.008789-0.027344,0.011719-0.043945c0.001953-0.016602,0.003906-0.035156,0.003906-0.057617
			C12.977539,13.393555,12.977539,13.369141,12.977539,13.341797z"/>
		<path class="st2" d="M13.795898,13.674805v-0.4375l-0.150391,0.318359h-0.073242l-0.154297-0.318359v0.4375h-0.098633v-0.654297
			h0.097656l0.191406,0.407227l0.188477-0.407227h0.099609v0.654297H13.795898z"/>
		<path class="st2" d="M14.90918,13.831055v-0.15625h-0.397461v0.15625h-0.095703v-0.246094h0.064453
			c0.014648-0.033203,0.026367-0.066406,0.036133-0.101563c0.009766-0.033203,0.017578-0.070313,0.024414-0.110352
			c0.005859-0.041016,0.009766-0.085938,0.012695-0.136719c0.00293-0.049805,0.003906-0.108398,0.003906-0.175781v-0.040039h0.37207
			v0.564453h0.077148v0.246094H14.90918z M14.830078,13.110352H14.65332v0.03125c0,0.056641-0.000977,0.106445-0.003906,0.147461
			c-0.003906,0.041992-0.007813,0.080078-0.014648,0.114258c-0.005859,0.033203-0.012695,0.064453-0.021484,0.09375
			c-0.008789,0.02832-0.018555,0.058594-0.030273,0.087891h0.24707V13.110352z"/>
		<path class="st2" d="M15.664063,13.347656c0,0.02832,0,0.054688-0.000977,0.079102s-0.00293,0.046875-0.006836,0.069336
			c-0.003906,0.021484-0.009766,0.041992-0.018555,0.061523c-0.008789,0.018555-0.021484,0.036133-0.037109,0.052734
			c-0.044922,0.046875-0.102539,0.070313-0.172852,0.070313c-0.069336,0-0.125977-0.023438-0.171875-0.070313
			c-0.015625-0.016602-0.02832-0.03418-0.036133-0.053711c-0.008789-0.018555-0.015625-0.040039-0.019531-0.061523
			c-0.003906-0.022461-0.005859-0.044922-0.006836-0.069336c0-0.023438-0.000977-0.047852-0.000977-0.073242v-0.035156
			c0-0.026367,0.000977-0.051758,0.00293-0.074219c0.000977-0.021484,0.003906-0.042969,0.008789-0.061523
			c0.003906-0.019531,0.009766-0.036133,0.018555-0.051758c0.007813-0.015625,0.019531-0.030273,0.033203-0.044922
			c0.022461-0.022461,0.048828-0.040039,0.078125-0.051758s0.060547-0.017578,0.09375-0.017578
			c0.03418,0,0.066406,0.005859,0.095703,0.017578c0.02832,0.011719,0.054688,0.029297,0.077148,0.051758
			c0.025391,0.025391,0.042969,0.056641,0.050781,0.092773c0.008789,0.036133,0.012695,0.078125,0.012695,0.124023V13.347656z
			 M15.563477,13.341797c0-0.024414,0-0.046875,0-0.067383c-0.000977-0.020508-0.00293-0.038086-0.004883-0.054688
			c-0.00293-0.015625-0.006836-0.029297-0.011719-0.041992c-0.004883-0.011719-0.012695-0.023438-0.021484-0.033203
			c-0.025391-0.026367-0.058594-0.040039-0.097656-0.040039c-0.018555,0-0.036133,0.00293-0.052734,0.009766
			s-0.03125,0.016602-0.044922,0.030273c-0.009766,0.010742-0.016602,0.022461-0.022461,0.036133
			c-0.004883,0.013672-0.008789,0.02832-0.010742,0.044922s-0.00293,0.035156-0.003906,0.054688c0,0.019531,0,0.040039,0,0.063477
			c0,0.020508,0,0.041016,0,0.061523c0,0.019531,0.000977,0.039063,0.00293,0.056641s0.005859,0.035156,0.010742,0.050781
			c0.005859,0.014648,0.013672,0.027344,0.023438,0.038086c0.027344,0.026367,0.05957,0.040039,0.097656,0.040039
			c0.040039,0,0.072266-0.013672,0.097656-0.040039c0.009766-0.009766,0.017578-0.020508,0.022461-0.03418
			c0.004883-0.012695,0.008789-0.027344,0.011719-0.043945c0.001953-0.016602,0.003906-0.035156,0.003906-0.057617
			C15.563477,13.393555,15.563477,13.369141,15.563477,13.341797z"/>
		<path class="st2" d="M16.381836,13.674805v-0.4375l-0.150391,0.318359h-0.073242l-0.154297-0.318359v0.4375h-0.098633v-0.654297
			h0.097656l0.191406,0.407227l0.188477-0.407227h0.099609v0.654297H16.381836z"/>
		<path class="st2" d="M16.746094,13.674805v-0.654297h0.418945v0.089844h-0.320313v0.19043h0.272461v0.088867h-0.272461v0.195313
			h0.320313v0.089844H16.746094z"/>
	</g>
</g>
</svg>
