<?xml version="1.0" encoding="utf-8"?>
<!-- Generator: Adobe Illustrator 24.0.1, SVG Export Plug-In . SVG Version: 6.00 Build 0)  -->
<svg version="1.1" id="Слой_1" xmlns="http://www.w3.org/2000/svg" xmlns:xlink="http://www.w3.org/1999/xlink" x="0px" y="0px"
	 viewBox="0 0 20 20" style="enable-background:new 0 0 20 20;" xml:space="preserve">
<style type="text/css">
	.st0{fill:#FFFFFF;}
</style>
<g>
	<path class="st0" d="M15.35,15.93256c0.072727,0.005454,0.135454,0.015454,0.198182,0.015454
		c0.649089,0.000909,1.298181,0.000909,1.948182,0c0.202726,0,0.208181-0.005454,0.209089-0.206364
		c0.00091-0.526363,0.00091-1.052727-0.000908-1.578181c0-0.062728-0.01-0.124545-0.016363-0.184546H15.35V15.93256z
		 M2.344545,13.97256c-0.005455,0.074546-0.013636,0.130909-0.013636,0.188182C2.33,14.687105,2.329091,15.21256,2.33,15.738923
		c0.000909,0.202727,0.007273,0.209091,0.207273,0.209091c0.65,0.000909,1.299091,0.000909,1.948182,0
		c0.062727,0,0.126364-0.00909,0.194545-0.014545V13.97256H2.344545z M15.359092,10.30347
		C15.350909,10.349833,15.34,10.380742,15.34,10.411652c-0.00091,0.571817-0.002728,1.143636,0,1.715454
		c0.000909,0.141818,0.015455,0.151817,0.182728,0.152727c0.662727,0.000909,1.325455,0.000909,1.98818,0
		c0.188183-0.00091,0.193638-0.006364,0.194546-0.201818c0.00091-0.532727,0.00091-1.065454-0.000908-1.598182
		c0-0.056363-0.01091-0.112726-0.017273-0.176363H15.359092z M2.341818,10.302561
		c-0.004545,0.08-0.010909,0.137273-0.010909,0.194545C2.33,11.02347,2.329091,11.549833,2.33,12.076196
		c0.000909,0.20091,0.004546,0.203637,0.212727,0.203637c0.649091,0.000909,1.299091,0.000909,1.949091,0
		c0.202727,0,0.205455-0.001819,0.205455-0.209091c0.000909-0.526362,0.000909-1.052727,0-1.57909
		C4.696363,10.429833,4.686364,10.368014,4.68,10.302561H2.341818z M15.350909,6.632561
		c-0.004545,0.077273-0.011819,0.134545-0.011819,0.191818c-0.000909,0.526364-0.000909,1.052727,0,1.579092
		c0,0.205454,0.001819,0.207273,0.206365,0.207273c0.650001,0.000909,1.3,0.000909,1.95,0
		c0.207272,0,0.209091-0.001819,0.209999-0.204546c0.00091-0.526363,0.00091-1.053636-0.000908-1.58
		c0-0.061818-0.01091-0.124546-0.017273-0.193636H15.350909z M2.342727,6.632561
		C2.337273,6.711651,2.330909,6.769834,2.330909,6.827106C2.33,7.353469,2.329091,7.879833,2.33,8.406197
		c0.000909,0.202727,0.003636,0.204546,0.210909,0.204546c0.65,0.000909,1.3,0.000909,1.95,0
		c0.204545,0,0.206364-0.001819,0.206364-0.207273c0.000909-0.526364,0.000909-1.053637,0-1.58
		C4.696363,6.761651,4.686364,6.699833,4.68,6.632561H2.342727z M6.899091,2.20347V18.09347h1.515454v-0.237274v-3.788181
		c0-0.363636,0.003637-0.728181-0.000909-1.092727c-0.002728-0.286364,0.117272-0.428182,0.421818-0.422728
		c0.754546,0.011818,1.51,0.017273,2.264546-0.000909c0.491818-0.011818,0.523636,0.16,0.522727,0.537272
		c-0.003636,1.588181-0.001819,3.176364-0.001819,4.763637v0.24h1.520909V2.205287
		C11.056363,1.798925,8.981818,1.799833,6.899091,2.20347 M0,18.808014V4.435288
		c0.082727-0.133636,0.195455-0.205454,0.355455-0.239091c0.955455-0.205455,1.922727-0.324546,2.899091-0.326363
		c0.583637-0.000911,1.168182,0.048181,1.751818,0.08909c0.316364,0.022727,0.63,0.076364,0.968182,0.119092V3.865287
		c0-0.702726-0.000909-1.405454,0-2.108182C5.975454,1.538924,6.06,1.436197,6.272727,1.389833
		c0.928182-0.201818,1.866363-0.340001,2.813636-0.384546c1.564545-0.072727,3.117272,0.035454,4.649091,0.381818
		c0.251818,0.056364,0.325455,0.141818,0.326364,0.400001c0,0.689999,0,1.38,0,2.07v0.217271
		c0.049091,0,0.08091,0.004546,0.110909-0.000909c0.853636-0.154545,1.715453-0.217273,2.58091-0.207273
		c0.982727,0.01091,1.957272,0.119092,2.91818,0.330909C19.933636,4.254378,20,4.318924,20,4.581651
		c-0.004545,4.685455-0.003635,9.371819-0.003635,14.05818c0,0.039091,0.001816,0.078182,0,0.117273
		c-0.006365,0.145454-0.075455,0.225454-0.221819,0.247272c-0.057274,0.008183-0.116364,0.009092-0.175455,0.009092
		c-6.384545,0-12.77,0-19.154545,0.002726C0.254545,19.016195,0.101818,18.977106,0,18.808014"/>
	<path class="st0" d="M9.407819,6.707105C9.416,6.708923,9.420546,6.709833,9.426,6.709833
		c0.334546,0,0.669091,0.006363,1.002728-0.001818c0.391819-0.008183,0.727273-0.339091,0.751819-0.728182
		c0.03-0.471818-0.325455-0.852727-0.80091-0.855454c-0.307272-0.001818-0.614545,0-0.921818,0
		c-0.016363,0-0.031818,0.001818-0.049999,0.002728V6.707105z M9.407819,7.853468v0.416364h0.060908c0.36,0,0.72,0,1.08,0
		c0.151818,0,0.218183,0.065454,0.218183,0.215455c0,0.241817,0,0.482727,0,0.723636
		c0,0.134546-0.071819,0.206364-0.208182,0.206364c-0.362727,0.00091-0.726363,0-1.08909,0H9.404181v0.061818
		c0,0.17,0,0.339091,0,0.509091c-0.000909,0.135453-0.073636,0.207273-0.207273,0.207273c-0.244545,0-0.489091,0-0.733636,0
		c-0.13091,0-0.203637-0.071819-0.203637-0.204546c-0.000909-0.169999-0.000909-0.34-0.000909-0.50909V9.418923
		c-0.021818-0.000909-0.04-0.002727-0.057273-0.002727c-0.107272-0.00091-0.213636,0-0.320909-0.00091
		c-0.13-0.00091-0.206364-0.075455-0.207273-0.204546c-0.000909-0.246364-0.000909-0.492727,0-0.738181
		c0.000908-0.127273,0.076363-0.201818,0.203636-0.202727c0.111818-0.000909,0.223636-0.000909,0.336364,0
		c0.034546,0.000909,0.047273-0.00909,0.046363-0.045455C8.257818,8.102559,8.258727,7.981651,8.258727,7.853468H7.964182
		c-0.033636,0-0.068182,0-0.101819,0c-0.108181-0.001818-0.187272-0.073636-0.188182-0.18
		c-0.002728-0.261817-0.002728-0.522727,0.00091-0.784545C7.676,6.783468,7.757818,6.711651,7.864182,6.710741
		c0.12909-0.000908,0.257273,0,0.394545,0V6.643469V4.189833c0-0.109092,0.045454-0.176364,0.136364-0.201818
		c0.019091-0.005455,0.04-0.006364,0.059999-0.006364c0.651818,0,1.303637-0.001819,1.955455,0
		c0.907273,0.002728,1.706364,0.665454,1.88,1.556363c0.190001,0.971818-0.371818,1.926364-1.311818,2.226364
		c-0.198182,0.063636-0.402727,0.090909-0.611818,0.09c-0.3-0.002728-0.6-0.000909-0.900909-0.000909H9.407819z"/>
</g>
</svg>
