<?xml version="1.0" encoding="utf-8"?>
<!-- Generator: Adobe Illustrator 24.0.1, SVG Export Plug-In . SVG Version: 6.00 Build 0)  -->
<svg version="1.1" id="Слой_1" xmlns="http://www.w3.org/2000/svg" xmlns:xlink="http://www.w3.org/1999/xlink" x="0px" y="0px"
	 viewBox="0 0 20 20" style="enable-background:new 0 0 20 20;" xml:space="preserve">
<style type="text/css">
	.st0{fill:#E20613;}
</style>
<g>
	<path class="st0" d="M18.264847,18.9445c-0.307693,0.309345-0.808935,0.309345-1.11828,0
		c-0.309347-0.310175-0.309347-0.810589,0-1.117453c0.309345-0.310173,0.810587-0.310173,1.11828,0
		C18.574194,18.133911,18.574194,18.634325,18.264847,18.9445 M19.033251,9.86923h-1.92556
		c-0.531843,0-0.964434,0.431763-0.964434,0.963607v8.15302c0,0.533497,0.43259,0.966085,0.964434,0.966085h1.92556
		c0.534325,0,0.966087-0.432589,0.966087-0.966085v-8.15302C19.999338,10.300993,19.567575,9.86923,19.033251,9.86923"/>
	<path class="st0" d="M12.372539,4.167991c0.085195-1.229942,0.413566-1.851116,0.527709-3.064516
		c0.064516-0.691479-0.660876-1.055417-1.978495-1.055417c-1.316791,0-1.827957,1.180314-1.977668,1.581473
		c-0.32837,0.890819,0,3.824647,0,5.274606c0,1.143093-2.043838,1.770058-4.383787,1.775021
		C1.341935,8.682466,0.000331,7.914062,0.000331,9.933913c0,0.69727,0.430108,1.264681,0.963606,1.264681
		c-0.533498,0-0.963606,0.567411-0.963606,1.265509c0,0.695617,0.430108,1.26551,0.963606,1.263027
		c-0.533498,0.002482-0.963606,0.567411-0.963606,1.265509c0,0.699752,0.431762,1.26551,0.963606,1.26551
		c-0.531844,0-0.963606,0.56493-0.963606,1.264681c0,0.698097,0.431762,1.265509,0.963606,1.265509h6.56493h7.093464
		c0.266336,0,0.482217-0.214228,0.482217-0.482216V10.98685c0-0.076923-0.019023-0.153848-0.056244-0.222498
		C15.048304,10.764352,12.141769,7.563359,12.372539,4.167991"/>
</g>
</svg>
