<?xml version="1.0" encoding="utf-8"?>
<!-- Generator: Adobe Illustrator 24.0.1, SVG Export Plug-In . SVG Version: 6.00 Build 0)  -->
<svg version="1.1" id="Слой_1" xmlns="http://www.w3.org/2000/svg" xmlns:xlink="http://www.w3.org/1999/xlink" x="0px" y="0px"
	 viewBox="0 0 20 20" style="enable-background:new 0 0 20 20;" xml:space="preserve">
<style type="text/css">
	.st0{fill:#FFFFFF;}
</style>
<g>
	<path class="st0" d="M20,3.017043c-0.022728,0.099808-0.039528,0.201589-0.070162,0.29843
		c-0.127474,0.408118-0.391319,0.719395-0.714453,0.984226c-0.560297,0.458514-1.212494,0.742122-1.893351,0.963474
		c-0.581047,0.190718-1.18186,0.288548-1.790578,0.34685c-0.650221,0.062255-1.299454,0.073124-1.948688,0.01581
		c-1.081067-0.094865-2.129524-0.315229-3.104856-0.810306c-0.460491-0.234199-0.87355-0.53164-1.190755-0.945686
		C9.039125,3.547695,8.882993,3.19195,8.922521,2.773952c0.03755-0.383414,0.216411-0.70556,0.46642-0.990156
		c0.377483-0.430847,0.853786-0.722357,1.369615-0.953592c0.736193-0.331039,1.513889-0.514841,2.312338-0.624529
		c0.789554-0.107711,1.582073-0.111663,2.373604-0.034586c1.021777,0.098818,2.015883,0.307324,2.941806,0.773745
		c0.462469,0.23321,0.888372,0.517804,1.217436,0.927899c0.199612,0.25001,0.341911,0.527688,0.380449,0.850822
		C19.985176,2.735412,19.99407,2.746284,20,2.758141V3.017043z"/>
	<path class="st0" d="M19.943377,5.459129c-0.016798,0.090912-0.028658,0.182813-0.052374,0.271749
		c-0.133406,0.505947-0.455551,0.87849-0.863667,1.180873c-0.564251,0.418987-1.20558,0.675914-1.871611,0.87849
		c-0.585991,0.177872-1.187791,0.278666-1.797497,0.317205c-0.46642,0.029645-0.933828,0.030634-1.401237,0.039527
		c-0.112652,0.002965-0.225304-0.009882-0.337956-0.022728c-0.031622-0.002965-0.940745-1.072174-1.393332-1.56231
		c-0.033598-0.035574-0.062255-0.075102-0.111664-0.136368c0.173919,0.027669,0.321157,0.049409,0.468396,0.074113
		c0.864656,0.14625,1.733265,0.192694,2.608791,0.138345c0.955568-0.059291,1.884457-0.246057,2.775793-0.600813
		c0.597847-0.237163,1.158144-0.543497,1.663103-0.94371c0.074114-0.05929,0.14131-0.129451,0.224318-0.207517
		c0.031622,0.117593,0.060278,0.225305,0.088936,0.334004V5.459129z"/>
	<path class="st0" d="M19.943377,8.031159c-0.061268,0.190719-0.101782,0.392307-0.188744,0.571167
		C19.534269,9.05096,19.16568,9.364212,18.750645,9.62608c-0.650223,0.409106-1.36665,0.647257-2.110748,0.815247
		c-0.690737,0.156133-1.39432,0.2174-2.099879,0.250998c-0.027669,0.001976-0.075102-0.025693-0.084983-0.050398
		c-0.175897-0.464444-0.347839-0.929876-0.519782-1.395308c-0.004941-0.013835-0.004941-0.030634-0.008894-0.055338
		c0.137358-0.00593,0.268785-0.017788,0.400212-0.018775c0.60773-0.003954,1.213483-0.036564,1.815285-0.125499
		c1.164072-0.172932,2.26688-0.509901,3.219484-1.234235c0.166012-0.125499,0.321156-0.264832,0.491123-0.406142
		c0.031622,0.107712,0.061268,0.20653,0.090914,0.305347V8.031159z"/>
	<path class="st0" d="M14.734788,13.200419c-0.039529-0.473337-0.077079-0.925923-0.116606-1.378509
		c-0.007906-0.083007,0.006918-0.122535,0.105735-0.129452c0.340921-0.023716,0.681844-0.052373,1.020788-0.092889
		c1.141346-0.136368,2.24613-0.396259,3.236284-1.009917c0.26582-0.165027,0.503971-0.376496,0.754969-0.567215
		c0.035574-0.026681,0.072138-0.052374,0.12451-0.090913c0.0168,0.060279,0.033598,0.102771,0.041504,0.146251
		c0.126488,0.647257-0.122536,1.16111-0.575121,1.600849c-0.476301,0.461479-1.053398,0.75398-1.669033,0.977308
		c-0.660101,0.240128-1.342934,0.385389-2.040587,0.460491C15.324729,13.148046,15.03124,13.17275,14.734788,13.200419"/>
	<path class="st0" d="M7.396179,12.713346v0.97632H6.420847H1.830759v-0.97632h4.590089v-4.13355h0.975332V12.713346z
		 M6.775604,6.142948c-3.347949-0.001976-6.664275,2.683893-6.772975,6.708743
		c-0.107711,3.93789,3.109797,7.013103,6.857958,7.029901c3.757055,0.017788,6.847088-3.039637,6.882663-6.8293
		C13.778823,9.333776,10.729305,6.08761,6.775604,6.142948"/>
</g>
</svg>
