<?xml version="1.0" encoding="utf-8"?>
<!-- Generator: Adobe Illustrator 24.0.1, SVG Export Plug-In . SVG Version: 6.00 Build 0)  -->
<svg version="1.1" id="Слой_1" xmlns="http://www.w3.org/2000/svg" xmlns:xlink="http://www.w3.org/1999/xlink" x="0px" y="0px"
	 viewBox="0 0 20 20" style="enable-background:new 0 0 20 20;" xml:space="preserve">
<style type="text/css">
	.st0{fill:#FFFFFF;}
</style>
<g>
	<path class="st0" d="M9.655897,15.198999h0.966001c0.266,0,0.530999,0,0.796,0.001c0.122,0,0.125999-0.007,0.103999-0.129999
		c-0.011-0.068001-0.018-0.137-0.03-0.205001c-0.122-0.738999-0.243-1.478-0.372-2.217c-0.021-0.117999,0.015-0.191,0.091-0.276999
		c0.095-0.105,0.184-0.225,0.236-0.355c0.144-0.356,0.124001-0.708-0.075-1.046c-0.151-0.257-0.367-0.434-0.643999-0.528
		c-0.339001-0.114-1.352-0.085-1.666,0.096c-0.26,0.15-0.448,0.365-0.537,0.649c-0.146,0.467-0.051001,0.884,0.304999,1.232
		C8.880898,12.469,8.898897,12.52,8.885898,12.594c-0.063001,0.351001-0.122001,0.702001-0.18,1.054
		c-0.078,0.475-0.152,0.950001-0.23,1.425c-0.02,0.124001-0.021,0.125999,0.109,0.125999
		C8.941897,15.198999,9.298897,15.198999,9.655897,15.198999 M9.056897,20c-0.147-0.054001-0.297-0.099001-0.439-0.163
		c-0.342999-0.152-0.687-0.303999-1.022-0.472c-0.405-0.202999-0.783-0.454-1.125-0.747999
		c-0.329-0.283001-0.647-0.581001-0.945-0.896c-0.257-0.272001-0.49-0.57-0.713-0.872c-0.174-0.236-0.32-0.492001-0.47-0.745001
		c-0.251-0.422999-0.451999-0.87-0.623999-1.33c-0.196-0.522-0.341-1.058-0.448-1.605c-0.17-0.874001-0.206-1.756001-0.145-2.64
		c0.046-0.677,0.173-1.342,0.353-1.998c0.055-0.2,0.159-0.307,0.334-0.388c0.424-0.196,0.839-0.413,1.267-0.601
		c0.266-0.116,0.546-0.2,0.822-0.290999c0.596-0.195001,1.21-0.317,1.829999-0.399c0.66-0.088,3.103-0.098001,3.768-0.067
		c0.812,0.039001,1.608,0.177,2.387,0.401c0.790999,0.227,1.545,0.545,2.272,0.936c0.223,0.12,0.334999,0.264,0.381001,0.502
		c0.071999,0.369,0.188999,0.731,0.241999,1.102c0.062,0.443,0.086,0.892,0.110001,1.34c0.032,0.6-0.016001,1.198999-0.107,1.792
		c-0.059999,0.393001-0.166,0.780001-0.264,1.167001C16.394897,14.524,16.202898,15,15.985897,15.467
		c-0.312,0.674001-0.695,1.304-1.175,1.870999c-0.259,0.306002-0.534,0.601-0.827,0.874001c-0.291,0.27-0.604,0.521-0.926001,0.753
		c-0.42,0.302999-0.875999,0.548-1.356999,0.740999c-0.227,0.092001-0.459001,0.172001-0.689,0.258001
		c-0.026999,0.01-0.052999,0.024-0.079,0.035999H9.056897z"/>
	<path class="st0" d="M10.390197,0c0.173,0.031,0.347,0.059,0.519,0.095001C11.098197,0.135,11.289196,0.17,11.472197,0.229
		c0.526,0.171001,1.012,0.418001,1.456,0.754002c0.294,0.223,0.563999,0.470999,0.796,0.751999
		c0.47,0.57,0.803,1.214001,0.98,1.934999c0.092,0.375,0.131,0.754,0.132999,1.138c0.001,0.526999,0,1.054999,0,1.582
		c0,0.029-0.003,0.058-0.006,0.105c-0.146-0.059999-0.278-0.122-0.416-0.17c-0.401-0.139999-0.802-0.280999-1.208-0.408
		c-0.221-0.068999-0.448999-0.115-0.675-0.167c-0.072-0.016-0.092-0.051-0.092-0.122c0.001-0.295-0.000999-0.589-0.007999-0.884
		c-0.011001-0.474-0.150001-0.909999-0.425-1.296c-0.337-0.473-0.785-0.794998-1.351-0.949999
		c-0.551-0.15-1.087-0.103001-1.603,0.124001c-0.363,0.158998-0.668,0.400999-0.915,0.719
		c-0.224,0.286999-0.383,0.601999-0.453,0.956999c-0.04,0.204-0.054,0.415-0.063,0.624c-0.011,0.232-0.007,0.465,0,0.697001
		c0.003,0.09-0.034,0.12-0.113,0.136c-0.614,0.122-1.208,0.313-1.792,0.537c-0.158,0.061001-0.312,0.132-0.48,0.203
		c-0.006-0.038-0.014-0.061999-0.014-0.085999c0.004-0.655-0.001-1.31,0.018-1.965c0.013-0.473999,0.137-0.928999,0.307-1.372
		c0.187-0.487,0.454-0.928999,0.784-1.329c0.228-0.276999,0.489-0.523998,0.778-0.743c0.313-0.234999,0.646-0.434,1.003001-0.591999
		c0.323999-0.143,0.660999-0.247,1.009999-0.311001c0.186-0.033998,0.373-0.064999,0.559-0.097H10.390197z"/>
</g>
</svg>
