<svg width="46" height="43" viewBox="0 0 46 43" fill="none" xmlns="http://www.w3.org/2000/svg">
<path d="M0.770813 42.4674V37.2674H3.87081V37.9674H1.57081V39.4674H2.67081C3.17081 39.4674 3.47081 39.5674 3.77081 39.8674C4.07081 40.1674 4.17081 40.5674 4.17081 41.0674C4.17081 41.5674 4.07081 41.8674 3.77081 42.1674C3.47081 42.4674 3.07081 42.5674 2.67081 42.5674H0.770813V42.4674ZM1.47081 41.8674H2.57081C2.87081 41.8674 3.07081 41.7674 3.27081 41.6674C3.47081 41.5674 3.47081 41.2674 3.47081 40.9674C3.47081 40.6674 3.37081 40.4674 3.17081 40.2674C2.97081 40.0674 2.77081 39.9674 2.47081 39.9674H1.47081V41.8674Z" fill="black"/>
<path d="M4.87079 40.6674C4.87079 40.0674 5.07079 39.5674 5.37079 39.2674C5.67079 38.9674 6.17079 38.7674 6.67079 38.7674C7.17079 38.7674 7.57079 38.9674 7.87079 39.2674C8.17079 39.5674 8.27079 39.9674 8.27079 40.4674C8.27079 40.5674 8.27079 40.6674 8.27079 40.7674H5.57079C5.57079 41.1674 5.77079 41.4674 5.97079 41.6674C6.17079 41.8674 6.47079 41.9674 6.87079 41.9674C7.27079 41.9674 7.67079 41.8674 7.97079 41.5674L8.27079 42.0674C8.07079 42.2674 7.87079 42.3674 7.57079 42.4674C7.27079 42.5674 7.07079 42.5674 6.77079 42.5674C6.17079 42.5674 5.67079 42.3674 5.37079 41.9674C4.97079 41.6674 4.87079 41.1674 4.87079 40.6674ZM5.57079 40.2674H7.57079C7.57079 39.9674 7.47079 39.7674 7.27079 39.5674C7.07079 39.3674 6.87079 39.2674 6.67079 39.2674C6.37079 39.2674 6.17079 39.3674 5.97079 39.5674C5.77079 39.6674 5.67079 39.9674 5.57079 40.2674Z" fill="black"/>
<path d="M8.77081 42.0674L9.07081 41.5674C9.37081 41.8674 9.67081 41.9674 10.0708 41.9674C10.2708 41.9674 10.4708 41.8674 10.6708 41.7674C10.7708 41.6674 10.8708 41.4674 10.8708 41.2674C10.8708 40.8674 10.5708 40.6674 10.0708 40.6674H9.57081V40.1674H9.97081C10.4708 40.1674 10.6708 39.9674 10.6708 39.6674C10.6708 39.4674 10.5708 39.3674 10.4708 39.2674C10.3708 39.1674 10.1708 39.1674 9.97081 39.1674C9.67081 39.1674 9.37081 39.2674 9.07081 39.4674L8.77081 38.9674C9.17081 38.6674 9.57081 38.5674 10.0708 38.5674C10.4708 38.5674 10.7708 38.6674 10.9708 38.8674C11.1708 39.0674 11.3708 39.2674 11.3708 39.5674C11.3708 39.9674 11.1708 40.2674 10.8708 40.3674C11.2708 40.4674 11.5708 40.7674 11.5708 41.2674C11.5708 41.6674 11.4708 41.9674 11.1708 42.1674C10.8708 42.3674 10.5708 42.4674 10.1708 42.4674C9.67081 42.5674 9.17081 42.3674 8.77081 42.0674Z" fill="black"/>
<path d="M12.4708 42.4674V38.7674H13.1708V40.2674H15.0708V38.7674H15.7708V42.4674H15.0708V40.8674H13.1708V42.4674H12.4708Z" fill="black"/>
<path d="M16.5708 41.4674C16.5708 41.1674 16.6708 40.9674 16.7708 40.7674C16.9708 40.5674 17.1708 40.4674 17.3708 40.3674C17.6708 40.2674 17.8708 40.2674 18.0708 40.1674C18.2708 40.0674 18.4708 40.1674 18.7708 40.1674H18.9708V40.0674C18.9708 39.5674 18.6708 39.2674 18.1708 39.2674C17.7708 39.2674 17.4708 39.3674 17.1708 39.6674L16.8708 39.1674C17.0708 39.0674 17.2708 38.9674 17.4708 38.8674C17.7708 38.7674 17.9708 38.7674 18.2708 38.7674C18.7708 38.7674 19.0708 38.8674 19.3708 39.1674C19.6708 39.4674 19.7708 39.7674 19.7708 40.2674V42.6674H19.0708V42.2674V41.9674C18.9708 42.1674 18.7708 42.3674 18.5708 42.4674C18.3708 42.5674 18.0708 42.6674 17.8708 42.6674C17.5708 42.6674 17.2708 42.5674 16.9708 42.3674C16.6708 42.0674 16.5708 41.8674 16.5708 41.4674ZM17.2708 41.4674C17.2708 41.6674 17.3708 41.7674 17.4708 41.8674C17.5708 41.9674 17.7708 42.0674 17.9708 42.0674C18.2708 42.0674 18.4708 41.9674 18.6708 41.6674C18.8708 41.3674 18.9708 41.1674 18.9708 40.8674V40.7674H18.7708C17.7708 40.6674 17.2708 40.9674 17.2708 41.4674Z" fill="black"/>
<path d="M20.3708 42.5674V41.9674C20.6708 41.9674 20.8708 41.7674 20.9708 41.4674C21.0708 41.1674 21.1708 40.6674 21.1708 40.0674V38.9674H23.6708V42.6674H22.9708V39.5674H21.8708V39.9674C21.8708 40.8674 21.7708 41.4674 21.4708 41.8674C21.2708 42.2674 20.8708 42.4674 20.3708 42.5674Z" fill="black"/>
<path d="M24.7708 42.4674V38.7674H25.4708V40.9674C25.4708 41.2674 25.4708 41.3674 25.4708 41.4674C25.4708 41.3674 25.5708 41.2674 25.7708 40.9674L27.3708 38.7674H28.0708V42.4674H27.3708V40.2674C27.3708 40.1674 27.3708 40.0674 27.3708 39.9674C27.3708 39.8674 27.3708 39.7674 27.3708 39.7674C27.3708 39.7674 27.2708 39.9674 27.0708 40.2674L25.4708 42.4674H24.7708Z" fill="black"/>
<path d="M30.1708 41.1674C29.7708 41.1674 29.4708 41.0674 29.2708 40.8674C29.0708 40.6674 28.9708 40.3674 28.9708 39.9674V38.7674H29.6708V39.8674C29.6708 40.0674 29.7708 40.2674 29.8708 40.3674C29.9708 40.4674 30.1708 40.5674 30.4708 40.5674C30.7708 40.5674 31.0708 40.4674 31.2708 40.2674V38.7674H31.9708V42.4674H31.2708V41.1674V40.9674C30.9708 41.1674 30.5708 41.1674 30.1708 41.1674Z" fill="black"/>
<path d="M33.0708 42.4674V38.7674H33.7708V40.2674H35.6708V38.7674H36.3708V42.4674H35.6708V40.8674H33.7708V42.4674H33.0708Z" fill="black"/>
<path d="M37.4708 42.4674V38.7674H38.1708V40.0674H38.8708C39.2708 40.0674 39.5708 40.1674 39.8708 40.3674C40.0708 40.5674 40.2708 40.8674 40.2708 41.2674C40.2708 41.6674 40.1708 41.9674 39.9708 42.1674C39.7708 42.3674 39.3708 42.4674 38.9708 42.4674H37.4708ZM38.1708 41.9674H38.7708C38.9708 41.9674 39.1708 41.8674 39.3708 41.7674C39.4708 41.6674 39.5708 41.4674 39.5708 41.2674C39.5708 41.0674 39.4708 40.8674 39.3708 40.7674C39.2708 40.6674 39.0708 40.5674 38.7708 40.5674H38.1708V41.9674ZM40.8708 42.4674V38.7674H41.5708V42.4674H40.8708Z" fill="black"/>
<path d="M42.3708 40.6674C42.3708 40.0674 42.5708 39.5674 42.8708 39.2674C43.1708 38.9674 43.6708 38.7674 44.1708 38.7674C44.6708 38.7674 45.0708 38.9674 45.3708 39.2674C45.6708 39.5674 45.7708 39.9674 45.7708 40.4674C45.7708 40.5674 45.7708 40.6674 45.7708 40.7674H43.0708C43.0708 41.1674 43.2708 41.4674 43.4708 41.6674C43.6708 41.8674 43.9708 41.9674 44.3708 41.9674C44.7708 41.9674 45.1708 41.8674 45.4708 41.5674L45.7708 42.0674C45.5708 42.2674 45.3708 42.3674 45.0708 42.4674C44.7708 42.5674 44.5708 42.5674 44.2708 42.5674C43.6708 42.5674 43.1708 42.3674 42.8708 41.9674C42.5708 41.6674 42.3708 41.1674 42.3708 40.6674ZM43.1708 40.2674H45.1708C45.1708 39.9674 45.0708 39.7674 44.8708 39.5674C44.6708 39.3674 44.4708 39.2674 44.2708 39.2674C43.9708 39.2674 43.7708 39.3674 43.5708 39.5674C43.3708 39.6674 43.2708 39.9674 43.1708 40.2674Z" fill="black"/>
<path d="M39.5708 16.8674C39.5708 25.9674 32.1708 33.3674 23.0708 33.3674C13.9708 33.3674 6.5708 25.9674 6.5708 16.8674C6.5708 7.7674 13.9708 0.367401 23.0708 0.367401C32.2708 0.367401 39.5708 7.7674 39.5708 16.8674Z" fill="#BFD6B2"/>
<path d="M30.1708 20.2674C30.1708 21.1674 30.1708 21.9674 30.1708 22.8674C30.1708 24.2674 29.2708 25.1674 27.8708 25.1674C23.7708 25.1674 19.7708 25.1674 15.6708 25.1674C14.2708 25.1674 13.3708 24.2674 13.3708 22.8674C13.3708 20.1674 13.3708 17.5674 13.3708 14.8674C13.3708 13.9674 13.6708 13.2674 14.4708 12.8674C14.5708 12.8674 14.5708 12.6674 14.5708 12.5674C14.4708 12.0674 14.4708 11.6674 14.5708 11.1674C14.8708 10.3674 15.3708 9.86739 16.1708 9.76739C18.4708 9.36739 20.8708 8.96739 23.1708 8.56739C25.0708 8.26739 26.8708 7.86738 28.7708 7.56738C30.0708 7.36738 31.0708 8.16739 31.2708 9.46739C31.5708 11.4674 31.9708 13.5674 32.3708 15.5674C32.4708 16.2674 32.6708 16.9674 32.7708 17.7674C32.9708 18.7674 32.1708 19.8674 31.1708 20.0674C30.8708 20.0674 30.5708 20.1674 30.1708 20.2674ZM29.0708 18.9674C24.2708 18.9674 19.3708 18.9674 14.5708 18.9674C14.5708 20.3674 14.5708 21.7674 14.5708 23.1674C14.5708 23.6674 14.9708 23.9674 15.4708 23.9674C19.6708 23.9674 23.8708 23.9674 28.0708 23.9674C28.5708 23.9674 28.9708 23.5674 28.9708 23.0674C29.0708 21.7674 29.0708 20.3674 29.0708 18.9674ZM15.7708 12.6674C15.9708 12.6674 16.0708 12.6674 16.1708 12.6674C20.0708 12.6674 23.9708 12.6674 27.7708 12.6674C29.1708 12.6674 30.0708 13.5674 30.0708 14.9674C30.0708 16.2674 30.0708 17.4674 30.0708 18.7674C30.0708 18.8674 30.0708 18.9674 30.0708 19.0674C30.2708 19.0674 30.4708 18.9674 30.6708 18.9674C31.3708 18.8674 31.6708 18.3674 31.5708 17.6674C31.4708 17.3674 31.4708 17.1674 31.4708 16.8674C31.0708 14.4674 30.5708 11.9674 30.1708 9.56739C30.0708 8.96739 29.5708 8.56738 28.9708 8.66738C28.1708 8.76738 27.3708 8.96739 26.5708 9.06739C24.1708 9.46739 21.7708 9.86738 19.3708 10.3674C18.3708 10.5674 17.3708 10.7674 16.3708 10.8674C15.8708 10.9674 15.5708 11.3674 15.5708 11.8674C15.6708 12.1674 15.7708 12.3674 15.7708 12.6674ZM29.0708 16.3674C24.2708 16.3674 19.4708 16.3674 14.5708 16.3674C14.5708 16.8674 14.5708 17.2674 14.5708 17.7674C19.3708 17.7674 24.1708 17.7674 29.0708 17.7674C29.0708 17.3674 29.0708 16.8674 29.0708 16.3674ZM14.5708 15.1674C19.3708 15.1674 24.1708 15.1674 28.9708 15.1674C29.0708 14.1674 28.6708 13.7674 27.6708 13.7674C23.6708 13.7674 19.6708 13.7674 15.6708 13.7674C15.5708 13.7674 15.4708 13.7674 15.2708 13.7674C14.8708 13.8674 14.4708 14.0674 14.3708 14.4674C14.5708 14.7674 14.5708 14.9674 14.5708 15.1674Z" fill="#1E332E"/>
<path d="M21.3708 25.2674C19.4708 25.2674 17.5708 25.2674 15.6708 25.2674C14.1708 25.2674 13.2708 24.3674 13.2708 22.8674C13.2708 21.9674 13.2708 21.1674 13.2708 20.2674C13.2708 18.4674 13.2708 16.6674 13.2708 14.8674C13.2708 13.8674 13.6708 13.2674 14.4708 12.7674C14.4708 12.7674 14.5708 12.6674 14.5708 12.5674C14.4708 12.1674 14.4708 11.6674 14.5708 11.1674C14.8708 10.3674 15.4708 9.76739 16.2708 9.66739C17.8708 9.36739 19.5708 9.06739 21.1708 8.76739C21.8708 8.66739 22.5708 8.56739 23.2708 8.36739C23.8708 8.26739 24.4708 8.16739 24.9708 8.06739C26.2708 7.86739 27.5708 7.56739 28.8708 7.36739C30.1708 7.16739 31.2708 7.96739 31.4708 9.36739C31.6708 10.7674 31.9708 12.1674 32.1708 13.4674C32.2708 14.1674 32.3708 14.7674 32.5708 15.4674L32.6708 15.8674C32.7708 16.4674 32.8708 16.9674 32.9708 17.5674C33.1708 18.6674 32.3708 19.7674 31.2708 19.9674C31.0708 19.9674 30.8708 20.0674 30.5708 20.0674H30.2708V20.7674C30.2708 21.3674 30.2708 21.9674 30.2708 22.5674C30.2708 24.0674 29.3708 24.9674 27.8708 24.9674C25.6708 25.2674 23.5708 25.2674 21.3708 25.2674ZM29.3708 7.56739C29.2708 7.56739 29.0708 7.56739 28.9708 7.56739C27.6708 7.76739 26.3708 7.96739 25.0708 8.26739C24.4708 8.36739 23.8708 8.46739 23.3708 8.56739C22.6708 8.66739 21.9708 8.76739 21.2708 8.96739C19.6708 9.26739 17.9708 9.56739 16.3708 9.86739C15.5708 9.96739 15.0708 10.4674 14.7708 11.2674C14.6708 11.6674 14.6708 12.1674 14.7708 12.5674C14.7708 12.6674 14.7708 12.8674 14.6708 12.9674C13.9708 13.3674 13.5708 14.0674 13.5708 14.8674C13.5708 16.6674 13.5708 18.4674 13.5708 20.2674C13.5708 21.1674 13.5708 21.9674 13.5708 22.8674C13.5708 24.1674 14.3708 25.0674 15.7708 25.0674C19.8708 25.0674 23.8708 25.0674 27.9708 25.0674C29.3708 25.0674 30.1708 24.2674 30.1708 22.8674C30.1708 22.2674 30.1708 21.6674 30.1708 21.0674V20.1674L30.5708 20.0674C30.7708 20.0674 31.0708 19.9674 31.2708 19.9674C32.2708 19.7674 32.9708 18.7674 32.8708 17.7674C32.7708 17.1674 32.6708 16.6674 32.5708 16.0674L32.4708 15.6674C32.3708 14.9674 32.2708 14.3674 32.0708 13.6674C31.8708 12.2674 31.5708 10.8674 31.3708 9.56739C31.1708 8.26739 30.3708 7.56739 29.3708 7.56739ZM21.8708 24.0674C19.7708 24.0674 17.5708 24.0674 15.4708 24.0674C14.8708 24.0674 14.4708 23.6674 14.4708 23.1674C14.4708 22.1674 14.4708 21.1674 14.4708 20.1674C14.4708 19.7674 14.4708 19.3674 14.4708 18.9674V18.8674H29.1708V18.9674C29.1708 19.3674 29.1708 19.7674 29.1708 20.1674C29.1708 21.1674 29.1708 22.0674 29.1708 23.0674C29.1708 23.5674 28.6708 24.0674 28.1708 24.0674C26.0708 24.0674 23.9708 24.0674 21.8708 24.0674ZM14.6708 19.0674C14.6708 19.4674 14.6708 19.7674 14.6708 20.1674C14.6708 21.1674 14.6708 22.1674 14.6708 23.1674C14.6708 23.5674 15.0708 23.8674 15.4708 23.8674C19.6708 23.8674 23.8708 23.8674 28.0708 23.8674C28.5708 23.8674 28.8708 23.5674 28.8708 23.0674C28.8708 22.0674 28.8708 21.0674 28.8708 20.1674C28.8708 19.7674 28.8708 19.4674 28.8708 19.0674H14.6708ZM30.0708 19.1674V17.5674C30.0708 16.6674 30.0708 15.7674 30.0708 14.9674C30.0708 13.5674 29.2708 12.7674 27.8708 12.7674C25.0708 12.7674 22.2708 12.7674 19.4708 12.7674H15.6708V12.6674C15.6708 12.5674 15.6708 12.4674 15.6708 12.4674C15.6708 12.2674 15.5708 12.1674 15.5708 11.9674C15.4708 11.4674 15.8708 10.8674 16.3708 10.8674C16.9708 10.7674 17.6708 10.6674 18.2708 10.5674L26.8708 9.06739C27.5708 8.96739 28.2708 8.86739 28.8708 8.66739C29.5708 8.56739 30.0708 8.86739 30.1708 9.56739C30.4708 11.0674 30.6708 12.5674 30.9708 14.1674L31.4708 16.8674C31.4708 17.1674 31.5708 17.3674 31.5708 17.6674C31.6708 18.0674 31.5708 18.3674 31.4708 18.6674C31.2708 18.8674 31.0708 19.0674 30.6708 19.1674C30.5708 19.1674 30.3708 19.1674 30.2708 19.2674L30.0708 19.1674ZM22.7708 12.5674C24.4708 12.5674 26.1708 12.5674 27.8708 12.5674C29.3708 12.5674 30.2708 13.4674 30.2708 14.9674C30.2708 15.8674 30.2708 16.7674 30.2708 17.5674V18.9674H30.3708C30.4708 18.9674 30.6708 18.9674 30.7708 18.8674C31.0708 18.7674 31.3708 18.6674 31.4708 18.4674C31.5708 18.2674 31.6708 17.9674 31.5708 17.6674C31.4708 17.3674 31.4708 17.1674 31.4708 16.8674L30.9708 14.1674C30.6708 12.6674 30.4708 11.1674 30.1708 9.56739C30.0708 8.96739 29.6708 8.66739 29.0708 8.76739C28.3708 8.86739 27.6708 8.96739 27.0708 9.16739L18.4708 10.6674C17.8708 10.7674 17.1708 10.8674 16.5708 10.9674C16.1708 11.0674 15.8708 11.4674 15.8708 11.8674C15.8708 11.9674 15.8708 12.1674 15.9708 12.2674C15.9708 12.3674 15.9708 12.3674 15.9708 12.4674H19.5708C20.5708 12.5674 21.6708 12.5674 22.7708 12.5674ZM29.1708 17.8674H14.5708V16.2674H29.1708V17.8674ZM14.6708 17.6674H28.9708V16.4674H14.6708V17.6674ZM29.0708 15.2674H14.4708V15.1674C14.4708 15.0674 14.4708 14.9674 14.4708 14.9674C14.4708 14.7674 14.4708 14.6674 14.4708 14.4674C14.5708 14.0674 14.8708 13.7674 15.3708 13.6674C15.4708 13.6674 15.5708 13.6674 15.6708 13.6674H15.7708H27.7708C28.2708 13.6674 28.6708 13.7674 28.8708 14.0674C29.0708 14.2674 29.1708 14.6674 29.0708 15.2674ZM14.6708 15.1674H28.9708C28.9708 14.6674 28.9708 14.3674 28.7708 14.1674C28.5708 13.9674 28.2708 13.8674 27.7708 13.8674H15.7708H15.6708C15.5708 13.8674 15.4708 13.8674 15.3708 13.8674C14.9708 13.9674 14.6708 14.1674 14.5708 14.4674C14.5708 14.5674 14.5708 14.7674 14.5708 14.9674C14.6708 15.0674 14.6708 15.0674 14.6708 15.1674Z" fill="#1D322B"/>
<path d="M17.5708 22.8674C17.1708 22.8674 16.7708 22.8674 16.3708 22.8674C15.9708 22.8674 15.7708 22.6674 15.7708 22.3674C15.7708 22.0674 15.9708 21.7674 16.3708 21.7674C17.1708 21.7674 18.0708 21.7674 18.8708 21.7674C19.2708 21.7674 19.4708 22.0674 19.4708 22.3674C19.4708 22.6674 19.1708 22.8674 18.8708 22.9674C18.4708 22.8674 17.9708 22.8674 17.5708 22.8674Z" fill="#1E332E"/>
<path d="M16.8708 22.9674C16.6708 22.9674 16.5708 22.9674 16.3708 22.9674C15.9708 22.9674 15.6708 22.6674 15.6708 22.3674C15.6708 22.1674 15.7708 21.9674 15.8708 21.8674C15.9708 21.7674 16.1708 21.6674 16.3708 21.6674C17.1708 21.6674 18.0708 21.6674 18.9708 21.6674C19.1708 21.6674 19.3708 21.7674 19.4708 21.8674C19.5708 21.9674 19.6708 22.1674 19.6708 22.3674C19.6708 22.7674 19.3708 22.9674 18.9708 22.9674C18.6708 22.9674 18.3708 22.9674 18.0708 22.9674H17.6708H17.2708C17.0708 22.9674 16.9708 22.9674 16.8708 22.9674ZM17.5708 21.7674C17.1708 21.7674 16.6708 21.7674 16.2708 21.7674C16.0708 21.7674 15.9708 21.8674 15.8708 21.9674C15.7708 22.0674 15.7708 22.1674 15.7708 22.2674C15.7708 22.5674 15.9708 22.6674 16.2708 22.7674C16.5708 22.7674 16.8708 22.7674 17.1708 22.7674H17.5708H17.9708C18.2708 22.7674 18.5708 22.7674 18.8708 22.7674C19.1708 22.7674 19.3708 22.5674 19.3708 22.2674C19.3708 22.1674 19.3708 22.0674 19.2708 21.9674C19.1708 21.8674 19.0708 21.7674 18.8708 21.7674C18.4708 21.7674 17.9708 21.7674 17.5708 21.7674Z" fill="#1D322B"/>
</svg>
