<svg width="85" height="43" viewBox="0 0 85 43" fill="none" xmlns="http://www.w3.org/2000/svg">
<path d="M21.5587 42.7044C33.1711 42.7044 42.5848 33.1914 42.5848 21.4566C42.5848 9.72171 33.1711 0.20874 21.5587 0.20874C9.9463 0.20874 0.532593 9.72171 0.532593 21.4566C0.532593 33.1914 9.9463 42.7044 21.5587 42.7044Z" fill="#C0D7B4"/>
<path d="M21.5587 38.341C20.2446 38.341 16.6777 36.6336 13.6739 33.5982C10.7641 30.7525 7.38489 25.82 7.38489 18.3263V11.0224C7.38489 10.7378 7.57263 10.5481 7.76036 10.4532L8.2297 10.3584C12.6414 9.12524 16.8654 7.32297 20.9017 4.85671L21.1833 4.667C21.371 4.57214 21.5587 4.57214 21.7465 4.667L22.0281 4.85671C25.9705 7.13326 30.3822 9.03039 34.7001 10.3584L35.1694 10.4532C35.451 10.5481 35.5449 10.7378 35.5449 11.0224V18.3263C35.5449 25.82 32.1657 30.7525 29.2558 33.5982C26.3459 36.6336 22.779 38.341 21.5587 38.341ZM8.41743 11.4967V18.3263C8.41743 25.4405 11.6089 30.0885 14.331 32.7445C17.4286 35.8747 20.714 37.1079 21.4649 37.1079C22.2158 37.1079 25.5011 35.7799 28.5987 32.6496C31.3209 29.9936 34.5123 25.2508 34.5123 18.2314V11.4018H34.4185C30.0067 10.0738 25.5012 8.17668 21.4649 5.80527H21.371C17.3348 8.36639 13.0169 10.1687 8.41743 11.4967Z" fill="#1E332E"/>
<path d="M16.5838 11.5915C16.6777 11.5915 16.7715 11.5915 16.8654 11.4967C17.2409 11.3069 17.4286 10.9275 17.2409 10.5481C17.0532 10.1687 16.6777 9.97895 16.3022 10.1687C15.9268 10.3584 15.739 10.7378 15.9267 11.1172C16.0206 11.4018 16.3022 11.5915 16.5838 11.5915Z" fill="#1E332E"/>
<path d="M23.2483 33.3136C22.8729 33.5033 22.779 33.9776 22.9667 34.357C23.0606 34.5467 23.3422 34.7364 23.6238 34.7364C23.7177 34.7364 23.9054 34.7364 23.9993 34.6416C24.3747 34.4519 24.4686 33.9776 24.2809 33.693C24.0931 33.2187 23.6238 33.1239 23.2483 33.3136Z" fill="#1E332E"/>
<path d="M19.2121 28.1913C18.6489 28.1913 18.0857 28.0016 17.6164 27.5273L13.3924 23.2588C13.0169 22.8794 12.7353 22.3102 12.7353 21.6462C12.7353 21.0771 12.923 20.508 13.3924 20.0337C14.2372 19.18 15.739 19.18 16.49 20.0337L19.1182 22.6897L26.3459 15.3857C27.1907 14.532 28.6926 14.532 29.4436 15.3857C30.2884 16.2394 30.2884 17.6623 29.4436 18.516L20.7139 27.3376C20.4324 27.9068 19.8691 28.1913 19.2121 28.1913ZM15.082 20.508C14.8004 20.508 14.5188 20.6028 14.331 20.7925C14.1433 20.9823 14.0494 21.2668 14.0494 21.5514C14.0494 21.836 14.1433 22.1205 14.331 22.3102L18.555 26.5788C18.9305 26.9582 19.6814 26.9582 20.1507 26.5788L28.8804 17.7571C29.3497 17.2829 29.3497 16.6189 28.8804 16.1446C28.411 15.6703 27.7539 15.6703 27.2846 16.1446L19.6814 23.8279C19.4937 24.0177 19.1182 24.0177 18.9305 23.8279L15.9267 20.7925C15.6451 20.6977 15.3636 20.508 15.082 20.508Z" fill="#1E332E"/>
<path d="M25.0318 33.5982C24.8441 33.5982 24.6564 33.5033 24.5625 33.3136C24.3748 33.029 24.4687 32.7445 24.7503 32.5547C26.7215 31.2268 29.4436 27.6222 29.4436 27.5274C29.6313 27.2428 30.0068 27.2428 30.1945 27.4325C30.4761 27.6222 30.4761 28.0016 30.2884 28.1914C30.1945 28.3811 27.4724 32.0805 25.3134 33.5033C25.2196 33.5982 25.1257 33.5982 25.0318 33.5982Z" fill="#1E332E"/>
<path d="M10.6702 16.7137C10.3886 16.7137 10.1071 16.4292 10.1071 16.1446V13.1092C10.1071 12.8246 10.2948 12.6349 10.4825 12.5401L14.6126 11.0224C14.8942 10.9275 15.1759 11.1172 15.3636 11.4018C15.4575 11.6864 15.3636 11.9709 14.9881 12.1606L11.2335 13.4886V16.1446C11.2335 16.4292 11.0457 16.7137 10.6702 16.7137Z" fill="#1E332E"/>
<path d="M51.1266 15.6703V11.0223H53.661V11.5915H51.7837V15.6703H51.1266Z" fill="black"/>
<path d="M54.0366 14.7218C54.0366 14.4372 54.1304 14.2475 54.2243 14.0578C54.3182 13.8681 54.5059 13.7732 54.7875 13.6783C54.9752 13.5835 55.2568 13.5835 55.4446 13.4886C55.6323 13.4886 55.82 13.4886 56.1016 13.4886H56.2894C56.2894 13.0144 56.0078 12.7298 55.5384 12.7298C55.2568 12.7298 54.8814 12.8246 54.5998 13.0144L54.3182 12.5401C54.412 12.4452 54.5998 12.3504 54.8814 12.2555C55.0691 12.1606 55.3507 12.1606 55.5384 12.1606C55.9139 12.1606 56.2894 12.2555 56.4771 12.5401C56.6648 12.7298 56.8526 13.1092 56.8526 13.4886V15.5755H56.2894V15.196V14.9115C56.1955 15.1012 56.0078 15.2909 55.82 15.3858C55.6323 15.4806 55.4446 15.5755 55.163 15.5755C54.8814 15.5755 54.5998 15.4806 54.412 15.2909C54.1304 15.2909 54.0366 15.0063 54.0366 14.7218ZM54.6936 14.6269C54.6936 14.8166 54.7875 14.9115 54.8814 15.0063C54.9752 15.1012 55.163 15.196 55.3507 15.196C55.6323 15.196 55.82 15.1012 56.0078 14.8166C56.1955 14.6269 56.2894 14.3423 56.2894 14.0578V13.9629H56.1016C55.163 13.9629 54.6936 14.2475 54.6936 14.6269Z" fill="black"/>
<path d="M57.7912 16.9983V12.3504H58.3544V12.5401V12.8246C58.4483 12.6349 58.636 12.4452 58.8237 12.3504C59.0115 12.2555 59.1992 12.1606 59.4808 12.1606C59.9501 12.1606 60.3256 12.3504 60.5133 12.6349C60.7949 12.9195 60.8888 13.3938 60.8888 13.8681C60.8888 14.4372 60.7949 14.8166 60.5133 15.1012C60.2317 15.3858 59.8563 15.5755 59.3869 15.5755C58.9176 15.5755 58.636 15.3858 58.3544 15.0063C58.3544 15.1012 58.3544 15.196 58.3544 15.2909V16.8086H57.7912V16.9983ZM58.3544 13.9629C58.3544 14.2475 58.4483 14.5321 58.636 14.8166C58.8237 15.1012 59.0115 15.196 59.2931 15.196C59.5747 15.196 59.7624 15.1012 59.9501 14.9115C60.1379 14.7218 60.2317 14.4372 60.2317 14.0578C60.2317 13.6783 60.1379 13.3938 59.9501 13.2041C59.7624 13.0144 59.5747 12.9195 59.2931 12.9195C59.0115 12.9195 58.8237 13.0144 58.636 13.2041C58.4483 13.2989 58.3544 13.5835 58.3544 13.9629Z" fill="black"/>
<path d="M61.452 14.7218C61.452 14.4372 61.5459 14.2475 61.6398 14.0578C61.7336 13.8681 61.9214 13.7732 62.203 13.6783C62.3907 13.5835 62.6723 13.5835 62.86 13.4886C63.0478 13.4886 63.2355 13.4886 63.5171 13.4886H63.7048C63.7048 13.0144 63.4232 12.7298 62.9539 12.7298C62.6723 12.7298 62.2968 12.8246 62.0152 13.0144L61.7336 12.5401C61.8275 12.4452 62.0152 12.3504 62.2968 12.2555C62.4846 12.1606 62.7662 12.1606 62.9539 12.1606C63.3294 12.1606 63.7048 12.2555 63.8926 12.5401C64.0803 12.7298 64.268 13.1092 64.268 13.4886V15.5755H63.7048V15.196V14.9115C63.611 15.1012 63.4232 15.2909 63.2355 15.3858C63.0478 15.4806 62.86 15.5755 62.5784 15.5755C62.2968 15.5755 62.0152 15.4806 61.8275 15.2909C61.5459 15.2909 61.452 15.0063 61.452 14.7218ZM62.1091 14.6269C62.1091 14.8166 62.203 14.9115 62.2968 15.0063C62.3907 15.1012 62.5784 15.196 62.7662 15.196C63.0478 15.196 63.2355 15.1012 63.4232 14.8166C63.611 14.6269 63.7048 14.3423 63.7048 14.0578V13.9629H63.5171C62.4846 13.9629 62.1091 14.2475 62.1091 14.6269Z" fill="black"/>
<path d="M65.2067 15.6703V12.3503H65.8637V13.6783H67.5533V12.3503H68.2104V15.6703H67.5533V14.2475H65.8637V15.6703H65.2067Z" fill="black"/>
<path d="M69.9 15.6703V12.8246H68.7736V12.2555H71.6835V12.8246H70.5571V15.6703H69.9Z" fill="black"/>
<path d="M72.3405 15.6703V12.3503H72.9976V14.3423C72.9976 14.532 72.9976 14.7217 72.9976 14.8166C72.9976 14.7217 73.0914 14.6269 73.2792 14.3423L74.6872 12.3503H75.3443V15.6703H74.6872V13.6783C74.6872 13.5835 74.6872 13.4886 74.6872 13.3938C74.6872 13.2989 74.6872 13.204 74.6872 13.204C74.6872 13.204 74.5933 13.3938 74.4056 13.6783L72.9976 15.6703H72.3405Z" fill="black"/>
<path d="M75.9075 15.6703L76.6584 14.532L76.8461 14.3423C76.6584 14.2475 76.4707 14.1526 76.3768 13.9629C76.2829 13.7732 76.1891 13.5835 76.1891 13.2989C76.1891 12.9195 76.2829 12.7298 76.4706 12.5401C76.6584 12.3503 76.94 12.2555 77.3155 12.2555H78.6296V15.5755H77.9725V14.4372H77.4093L76.5645 15.6703H75.9075ZM77.4093 13.9629H77.9725V12.7298H77.4093C76.94 12.7298 76.7523 12.9195 76.7523 13.2989C76.7523 13.4886 76.8461 13.6783 76.94 13.7732C77.1277 13.8681 77.2216 13.9629 77.4093 13.9629Z" fill="black"/>
<path d="M51.0328 23.6382V20.3183H51.6899V21.6463H53.3795V20.3183H54.0366V23.6382H53.3795V22.2154H51.6899V23.6382H51.0328Z" fill="black"/>
<path d="M54.6936 22.6897C54.6936 22.4051 54.7875 22.2154 54.8813 22.0257C54.9752 21.836 55.1629 21.7411 55.4445 21.6463C55.6323 21.5514 55.9139 21.5514 56.1016 21.4566C56.2893 21.4566 56.4771 21.4566 56.7587 21.4566H56.9464V21.3617C56.9464 20.8874 56.6648 20.6029 56.1955 20.6029C55.9139 20.6029 55.5384 20.6977 55.2568 20.8874L54.9752 20.4131C55.0691 20.3183 55.2568 20.2234 55.5384 20.1286C55.7261 20.0337 56.0077 20.0337 56.1955 20.0337C56.5709 20.0337 56.9464 20.1286 57.1341 20.4131C57.3219 20.6029 57.5096 20.9823 57.5096 21.3617V23.4485H56.9464V23.0691V22.7846C56.8525 22.9743 56.6648 23.164 56.4771 23.2588C56.2893 23.3537 56.1016 23.4485 55.82 23.4485C55.5384 23.4485 55.2568 23.3537 55.0691 23.164C54.8813 22.9743 54.6936 22.9743 54.6936 22.6897ZM55.3507 22.5948C55.3507 22.7846 55.4445 22.8794 55.5384 22.9743C55.6323 23.0691 55.82 23.164 56.0077 23.164C56.2893 23.164 56.4771 23.0691 56.6648 22.7846C56.8525 22.5948 56.9464 22.3103 56.9464 22.0257V21.9308H56.7587C55.82 21.9308 55.3507 22.2154 55.3507 22.5948Z" fill="black"/>
<path d="M60.1379 23.6382V20.3183H60.795V22.3102C60.795 22.5 60.795 22.6897 60.795 22.7845C60.795 22.6897 60.8888 22.5948 61.0765 22.3102L62.4845 20.3183H63.1416V23.6382H62.4845V21.6463C62.4845 21.5514 62.4845 21.4565 62.4845 21.3617C62.4845 21.2668 62.4845 21.172 62.4845 21.172C62.4845 21.172 62.3907 21.3617 62.203 21.6463L60.795 23.6382H60.1379Z" fill="black"/>
<path d="M63.7048 23.164L63.9864 22.7845C64.268 23.0691 64.5496 23.164 64.8312 23.164C65.0189 23.164 65.2067 23.0691 65.3005 22.9743C65.3944 22.8794 65.4883 22.7845 65.4883 22.5948C65.4883 22.2154 65.3005 22.1206 64.8312 22.1206H64.4558V21.6463H64.8312C65.2067 21.6463 65.4883 21.4566 65.4883 21.172C65.4883 20.9823 65.3944 20.8874 65.3005 20.7926C65.2067 20.6977 65.0189 20.6977 64.8312 20.6977C64.5496 20.6977 64.268 20.7926 63.9864 20.9823L63.7048 20.508C63.9864 20.2234 64.4557 20.1286 64.8312 20.1286C65.1128 20.1286 65.3944 20.2234 65.676 20.4131C65.8637 20.6029 65.9576 20.7926 65.9576 21.0771C65.9576 21.4566 65.7699 21.7411 65.4883 21.836C65.8638 21.9308 66.0515 22.2154 66.0515 22.5948C66.0515 22.9743 65.9576 23.164 65.676 23.3537C65.3944 23.5434 65.1128 23.6383 64.7373 23.6383C64.4557 23.6383 64.0803 23.5434 63.7048 23.164Z" fill="black"/>
<path d="M66.5208 23.0691H66.8963C67.2717 22.5948 67.4595 21.836 67.4595 20.8874V20.2234H69.7123V23.0691H70.1816V24.3971H69.6184V23.6382H67.1779V24.3971H66.6147V23.0691H66.5208ZM67.6472 23.0691H69.1491V20.7926H68.1165V20.9823C68.1165 21.836 67.9288 22.5948 67.6472 23.0691Z" fill="black"/>
<path d="M70.6509 21.9308C70.6509 21.3617 70.8387 20.9823 71.1203 20.6977C71.4019 20.4131 71.8712 20.2234 72.3405 20.2234C72.8099 20.2234 73.1853 20.4131 73.3731 20.6977C73.5608 20.9823 73.7485 21.3617 73.7485 21.836C73.7485 21.9308 73.7485 22.0257 73.7485 22.1205H71.308C71.308 22.5 71.4019 22.7845 71.6835 22.9743C71.8712 23.164 72.1528 23.2588 72.4344 23.2588C72.8099 23.2588 73.0915 23.164 73.3731 22.8794L73.6547 23.3537C73.4669 23.5434 73.2792 23.6382 73.0915 23.7331C72.8099 23.828 72.6221 23.828 72.4344 23.828C71.8712 23.828 71.4957 23.6382 71.1203 23.3537C70.8387 22.8794 70.6509 22.4051 70.6509 21.9308ZM71.308 21.5514H73.0915C73.0915 21.2668 72.9976 21.0771 72.8099 20.8874C72.6221 20.6977 72.4344 20.6977 72.2467 20.6977C71.9651 20.6977 71.7773 20.7926 71.5896 20.8874C71.4957 21.0771 71.4019 21.2668 71.308 21.5514Z" fill="black"/>
<path d="M74.124 23.6382V23.0691C74.4056 23.0691 74.5934 22.8794 74.6872 22.5948C74.7811 22.3103 74.875 21.836 74.875 21.2668V20.2234H77.1278V23.5434H76.4707V20.6977H75.532V21.172C75.532 21.9308 75.4382 22.5 75.2504 22.8794C74.9688 23.3537 74.6872 23.6382 74.124 23.6382Z" fill="black"/>
<path d="M78.1603 23.6382V20.3183H78.8173V22.3102C78.8173 22.5 78.8173 22.6897 78.8173 22.7845C78.8173 22.6897 78.9112 22.5948 79.0989 22.3102L80.5069 20.3183H81.164V23.6382H80.5069V21.6463C80.5069 21.5514 80.5069 21.4565 80.5069 21.3617C80.5069 21.2668 80.5069 21.172 80.5069 21.172C80.5069 21.172 80.4131 21.3617 80.2253 21.6463L78.8173 23.6382H78.1603Z" fill="black"/>
<path d="M81.7272 23.6382L82.4781 22.5L82.6658 22.3103C82.4781 22.2154 82.2904 22.1205 82.1965 21.9308C82.1026 21.7411 82.0088 21.5514 82.0088 21.2668C82.0088 20.8874 82.1026 20.6977 82.2904 20.508C82.4781 20.3183 82.7597 20.2234 83.1352 20.2234H84.4493V23.5434H83.7922V22.3103H83.229L82.3843 23.5434H81.7272V23.6382ZM83.229 21.9308H83.7922V20.6977H83.229C82.7597 20.6977 82.572 20.8874 82.572 21.2668C82.572 21.4566 82.6658 21.6463 82.7597 21.7411C82.8536 21.836 83.0413 21.9308 83.229 21.9308Z" fill="black"/>
<path d="M51.0328 31.6062V28.2862H51.6899V30.2782C51.6899 30.4679 51.6899 30.6576 51.6899 30.7525C51.6899 30.6576 51.7838 30.5627 51.9715 30.2782L53.3795 28.2862H54.0366V31.6062H53.3795V29.6142C53.3795 29.5193 53.3795 29.4245 53.3795 29.3296C53.3795 29.2348 53.3795 29.1399 53.3795 29.1399C53.3795 29.1399 53.2856 29.3296 53.0979 29.6142L51.6899 31.6062H51.0328Z" fill="black"/>
<path d="M56.4771 31.6062L56.7587 28.2862H57.5096L58.3544 30.1833L58.5422 30.6576C58.6361 30.4679 58.636 30.373 58.7299 30.1833L59.5747 28.2862H60.2318L60.5134 31.6062H59.8563L59.6686 29.6142V29.045C59.5747 29.2348 59.5747 29.3296 59.4809 29.5193L58.7299 31.2267H58.1667L57.4158 29.5193L57.228 29.045V29.6142L57.0403 31.6062H56.4771Z" fill="black"/>
<path d="M61.1704 29.8987C61.1704 29.4244 61.3581 28.9502 61.7336 28.6656C62.1091 28.2862 62.4845 28.1913 63.0477 28.1913C63.5171 28.1913 63.9864 28.381 64.3619 28.6656C64.7373 29.045 64.9251 29.4244 64.9251 29.8987C64.9251 30.373 64.7373 30.8473 64.3619 31.1319C63.9864 31.5113 63.6109 31.6061 63.0477 31.6061C62.4845 31.6061 62.1091 31.4164 61.7336 31.1319C61.3581 30.8473 61.1704 30.373 61.1704 29.8987ZM61.8275 29.8987C61.8275 30.2782 61.9213 30.5627 62.2029 30.7524C62.3907 30.9421 62.6723 31.1319 63.0477 31.1319C63.3293 31.1319 63.6109 31.037 63.8925 30.7524C64.0803 30.5627 64.268 30.2782 64.268 29.8987C64.268 29.5193 64.1741 29.2347 63.8925 29.045C63.7048 28.8553 63.4232 28.6656 63.0477 28.6656C62.7661 28.6656 62.4845 28.7605 62.2029 29.045C61.9213 29.2347 61.8275 29.5193 61.8275 29.8987Z" fill="black"/>
<path d="M65.5822 31.6062V28.2862H66.2392V29.6142H67.9288V28.2862H68.5859V31.6062H67.9288V30.1833H66.2392V31.6062H65.5822Z" fill="black"/>
<path d="M70.2755 31.6061V28.7605H69.149V28.1913H72.0589V28.7605H70.9325V31.6061H70.2755Z" fill="black"/>
<path d="M72.4344 30.6576C72.4344 30.373 72.5283 30.1833 72.6221 29.9936C72.716 29.8039 72.9037 29.709 73.1853 29.6142C73.373 29.5193 73.6547 29.5193 73.8424 29.4245C74.0301 29.4245 74.2179 29.4245 74.4995 29.4245H74.6872V29.3296C74.6872 28.8553 74.4056 28.5708 73.9363 28.5708C73.6547 28.5708 73.2792 28.6656 72.9976 28.8553L72.716 28.381C72.8098 28.2862 72.9976 28.1913 73.2792 28.0965C73.4669 28.0016 73.7485 28.0016 73.9363 28.0016C74.3117 28.0016 74.6872 28.0965 74.8749 28.381C75.0627 28.5708 75.2504 28.9502 75.2504 29.3296V31.4164H74.6872V31.037V30.7525C74.5933 30.9422 74.4056 31.1319 74.2178 31.2267C74.0301 31.3216 73.8424 31.4164 73.5608 31.4164C73.2792 31.4164 72.9976 31.3216 72.8098 31.1319C72.6221 30.9422 72.4344 30.9422 72.4344 30.6576ZM73.0915 30.5627C73.0915 30.7525 73.1853 30.8473 73.2792 30.9422C73.373 31.037 73.5608 31.1319 73.7485 31.1319C74.0301 31.1319 74.2179 31.037 74.4056 30.7525C74.5933 30.5627 74.6872 30.2782 74.6872 29.9936V29.8987H74.4995C73.5608 29.8987 73.0915 30.1833 73.0915 30.5627Z" fill="black"/>
<path d="M75.8136 31.6062L76.8461 29.8987L75.9075 28.2862H76.5645L77.4093 29.6142H77.8786V28.2862H78.4419V29.6142H78.9112L79.756 28.2862H80.4131L79.4744 29.8987L80.5069 31.6062H79.756L78.9112 30.1833H78.4419V31.6062H77.8786V30.1833H77.4093L76.5645 31.6062H75.8136Z" fill="black"/>
</svg>
