<svg width="154" height="103" viewBox="0 0 154 103" fill="none" xmlns="http://www.w3.org/2000/svg">
<path d="M33.2986 0.365753C14.9236 0.365753 0.0486221 15.3926 0.0486221 33.9551V37.54V44.857V67.0535V79.9196L22.0208 67.0535H120.75C139.125 67.0535 154 52.0266 154 33.4641V0.365753H33.2986Z" fill="#00AC4D"/>
<path fill-rule="evenodd" clip-rule="evenodd" d="M127.799 42.9909V47.0668H131.979L132.028 38.4239C132.076 34.2989 128.722 30.9105 124.59 30.9105C124.542 30.9105 124.444 30.9105 124.396 30.9105C120.264 30.9105 116.91 34.2498 116.91 38.3748V38.4239V47.0668H121.09V42.9909H127.799ZM121.09 39.406V38.0801C121.139 36.0667 122.646 34.4462 124.493 34.4462C126.34 34.4953 127.847 36.1159 127.847 38.1293V39.4552L121.09 39.406ZM63.0486 46.8212H61.4445C57.75 46.8212 54.7361 43.7275 54.7361 39.8971V38.7676H58.2361V39.0623C58.2361 41.3703 60.0833 43.2855 62.3195 43.2855H63.0486V46.8212ZM68.6389 43.2855H72.7222C75.0069 43.2855 76.8056 41.4194 76.8542 39.0623V34.2498H72.7708C70.5347 34.2498 68.6875 36.1159 68.6389 38.473V43.2855ZM72.0417 20.5488H73.6944C77.3889 20.5488 80.4028 23.6917 80.4028 27.473V28.6024H76.9028V28.3569C76.9028 26.0489 75.0556 24.1337 72.8194 24.1337H72.0903L72.0417 20.5488ZM66.4514 24.0355H62.3681C60.1319 24.0355 58.2361 25.9506 58.2361 28.2587V33.0712H62.3195C64.6042 33.0712 66.4028 31.156 66.4514 28.848V24.0355ZM61.4931 20.4997L70 20.5488V20.7944V29.7319C70 30.1739 69.9514 30.6158 69.8542 31.0087C70.4861 30.8123 71.1667 30.6649 71.8958 30.6649H76.9028H80.4028V39.8971C80.4028 43.6784 77.3889 46.8212 73.6944 46.7721L65.1875 46.723V46.5266V37.5891C65.1875 37.1471 65.2361 36.7051 65.2847 36.3123C64.6528 36.5087 63.9722 36.656 63.2431 36.656L54.7361 36.6069V27.3748C54.7847 23.5935 57.7986 20.4997 61.4931 20.4997ZM41.6597 20.4506L37.4306 20.4015L37.382 36.5087H41.6111V30.4194H43.8958C46.2292 30.4194 48.3195 32.8748 48.3195 35.2319V36.5087H52.6458V34.1025C52.6945 31.6962 51.382 29.3882 48.8542 28.4551C51.3333 28.0132 52.7431 25.4596 52.7917 22.9551L52.8403 20.4015H48.5139V21.8747C48.4653 24.9194 46.9097 26.7364 44.2847 26.7364H41.6597V20.4506ZM86.7708 30.7141H82.5417L82.4931 46.8704H86.7222V40.781H88.9583C91.2917 40.781 93.3819 43.2364 93.3819 45.5936V46.9686H97.7083L97.6597 44.5132C97.7083 42.1069 96.3958 39.7498 93.8681 38.8659C96.3958 38.4239 97.8055 35.8212 97.8542 33.3658V30.7632H93.5278L93.4792 32.2855C93.4305 35.3792 91.875 37.1962 89.25 37.1962H86.6736L86.7708 30.7141ZM114.819 30.8123H110.59V36.9016H104.125V32.0399V30.8123V30.7632H99.8958L99.8472 46.9686H104.076V41.0757H110.493V46.9686H114.722V40.5355L114.771 30.8123H114.819ZM22.5556 30.223H30.8195C30.1875 32.0891 29.0208 32.8257 26.9792 32.8257H22.0695V36.4596H27.7083C32.132 36.4596 35.3403 32.531 35.3889 28.1114C35.4375 23.8881 31.7917 20.4015 27.757 20.4015H22.2639V24.0355H27.5139C28.8264 24.0355 30.2847 24.8703 30.9167 26.6381L22.6042 26.589V30.223H22.5556Z" fill="white"/>
<path fill-rule="evenodd" clip-rule="evenodd" d="M63.0486 46.8212H61.4445C57.75 46.8212 54.7361 43.7274 54.7361 39.8971V38.7676H58.2361V39.0623C58.2361 41.3703 60.0834 43.2855 62.3195 43.2855H63.0486V46.8212Z" fill="white"/>
<path fill-rule="evenodd" clip-rule="evenodd" d="M72.0417 20.5488H73.6945C77.3889 20.5488 80.4028 23.6917 80.4028 27.4729V28.6024H76.9028V28.3569C76.9028 26.0488 75.0556 24.1336 72.8195 24.1336H72.0903L72.0417 20.5488Z" fill="white"/>
<path fill-rule="evenodd" clip-rule="evenodd" d="M76.8542 30.714H71.8472C71.1181 30.714 70.4375 30.8123 69.8056 31.0578C69.9028 30.6158 69.9514 30.223 69.9514 29.781V20.8435V20.4997H61.4931C57.7986 20.4997 54.7847 23.5935 54.7847 27.3747V36.6069L63.2917 36.656C64.0209 36.656 64.7014 36.5578 65.3334 36.3123C65.2847 36.7051 65.2361 37.1471 65.2361 37.5891V46.5266V46.8212L73.7431 46.8703C77.4375 46.8703 80.4514 43.7766 80.4514 39.9953V30.7632L76.8542 30.714ZM66.4514 28.848C66.4514 31.156 64.6042 33.0712 62.3195 33.0712H58.2361V28.2587C58.2361 25.9506 60.0834 24.0355 62.3681 24.0355H66.4514V28.848ZM76.8542 39.0623C76.8542 41.4194 75.007 43.2855 72.7222 43.2855H68.6389V38.473C68.6389 36.1158 70.4861 34.2498 72.7709 34.2498H76.8542V39.0623Z" fill="white"/>
<path d="M5.39583 93.7679H5.88194V93.5715C5.88194 92.0982 5.00694 91.5581 3.88889 91.5581C3.01389 91.5581 2.09028 91.9018 1.36111 92.442L0.680556 91.2143C1.40972 90.625 2.77083 90.1339 4.03472 90.1339C6.27083 90.1339 7.58333 91.4107 7.58333 93.6697V99.4152H5.97917V98.4822C5.97917 98.0893 6.02778 97.7456 6.02778 97.7456H5.97917C5.44444 98.7768 4.375 99.6117 3.01389 99.6117C1.45833 99.6117 0 98.6295 0 96.9108C0.0486111 94.1116 3.54861 93.7679 5.39583 93.7679ZM3.45139 98.2366C4.95833 98.2366 5.88194 96.7143 5.88194 95.3393V94.9956H5.44444C4.18056 94.9956 1.79861 95.0938 1.79861 96.7634C1.75 97.5 2.33333 98.2366 3.45139 98.2366Z" fill="#1E332E"/>
<path d="M10.1111 90.3303H11.7153V91.1161C11.7153 91.5089 11.6667 91.8036 11.6667 91.8036H11.7153C12.2986 90.7232 13.4167 90.0848 14.7292 90.0848C17.1597 90.0848 18.6667 92 18.6667 94.8482C18.6667 97.7455 16.9653 99.6116 14.5833 99.6116C13.4653 99.6116 12.3958 99.0223 11.8125 98.0893H11.7639C11.7639 98.0893 11.8125 98.4331 11.8125 98.875V103H10.1111V90.3303ZM14.3403 98.1384C15.75 98.1384 16.9167 96.9598 16.9167 94.8973C16.9167 92.933 15.8472 91.6562 14.3889 91.6562C13.0278 91.6562 11.8125 92.6384 11.8125 94.8973C11.8125 96.5179 12.6875 98.1384 14.3403 98.1384Z" fill="#1E332E"/>
<path d="M22.6042 94.75L19.6875 90.3303H21.6805L23.3333 93.0803C23.4792 93.3259 23.625 93.6205 23.625 93.6205H23.6736C23.6736 93.6205 23.868 93.3259 23.9653 93.0803L25.618 90.3303H27.6111L24.6944 94.75L27.7569 99.4152H25.8125L23.9167 96.3705C23.7708 96.1741 23.625 95.8794 23.625 95.8794H23.5764C23.5764 95.8794 23.4305 96.125 23.3333 96.3705L21.4375 99.4152H19.493L22.6042 94.75Z" fill="#1E332E"/>
<path d="M29.4097 90.3303H31.0625V95.7321C31.0625 96.2232 31.0139 96.8616 31.0139 96.9598H31.0625C31.1111 96.8125 31.5486 96.1741 31.8403 95.7321L35.7292 90.3303H37.3819V99.4152H35.7292V94.0134C35.7292 93.5714 35.7778 92.933 35.7778 92.8348H35.7292C35.6806 92.9821 35.2431 93.6205 34.9514 94.0134L31.0625 99.4152H29.4097V90.3303Z" fill="#1E332E"/>
<path d="M42.1944 91.8527H39.0833V90.3795H47.0555V91.8527H43.8958V99.4643H42.1944V91.8527Z" fill="#1E332E"/>
<path d="M52.3541 90.1339C54.8819 90.1339 56.243 92.0491 56.243 94.4063C56.243 94.6518 56.1944 94.8973 56.1944 95.1429H49.6319C49.7291 97.1072 51.0903 98.1384 52.743 98.1384C53.7153 98.1384 54.6875 97.7456 55.368 97.0581L56.0972 98.3349C55.2222 99.1206 53.8611 99.6117 52.5972 99.6117C49.7778 99.6117 47.8333 97.5491 47.8333 94.8482C47.8333 92 49.7778 90.1339 52.3541 90.1339ZM54.493 93.8661C54.4444 92.2947 53.4722 91.4598 52.3055 91.4598C50.993 91.4598 49.9236 92.3438 49.6805 93.8661H54.493Z" fill="#1E332E"/>
<path d="M58.3333 90.3303H60.0347V94.0134H61.2986L63.7291 90.3303H65.6736L62.6597 94.6518V94.7009L66.0139 99.4152H63.9722L61.2986 95.4866H59.9861V99.4152H58.2847V90.3303H58.3333Z" fill="#1E332E"/>
<path d="M69.7569 91.8527H66.6458V90.3795H74.618V91.8527H71.4583V99.4643H69.7569V91.8527Z" fill="#1E332E"/>
<path d="M80.257 90.1339C82.9306 90.1339 85.1181 92.1473 85.1181 94.8482C85.1181 97.5982 82.9306 99.6117 80.3056 99.6117C77.632 99.6117 75.4445 97.5982 75.4445 94.8482C75.3958 92.0982 77.5833 90.1339 80.257 90.1339ZM80.257 98.1384C81.9583 98.1384 83.3681 96.7634 83.3681 94.8973C83.3681 93.0313 81.9583 91.6563 80.257 91.6563C78.5556 91.6563 77.1458 92.9822 77.1458 94.8973C77.1458 96.7634 78.5556 98.1384 80.257 98.1384Z" fill="#1E332E"/>
<path d="M87.1597 90.3303H88.7639V91.1161C88.7639 91.5089 88.7153 91.8036 88.7153 91.8036H88.7639C89.3472 90.7232 90.4653 90.0848 91.7778 90.0848C94.2083 90.0848 95.7153 92 95.7153 94.8482C95.7153 97.7455 94.0139 99.6116 91.6319 99.6116C90.5139 99.6116 89.4445 99.0223 88.8611 98.0893H88.8125C88.8125 98.0893 88.8611 98.4331 88.8611 98.875V103H87.1597V90.3303ZM91.3889 98.1384C92.7986 98.1384 93.9653 96.9598 93.9653 94.8973C93.9653 92.933 92.8958 91.6562 91.4375 91.6562C90.0764 91.6562 88.8611 92.6384 88.8611 94.8973C88.8125 96.5179 89.7361 98.1384 91.3889 98.1384Z" fill="#1E332E"/>
<path d="M97.8055 90.3303H99.5069V93.6205H101.257C103.104 93.6205 104.514 94.5044 104.514 96.5669C104.514 98.2857 103.493 99.4152 101.208 99.4152H97.7569V90.3303H97.8055ZM101.062 98.1875C102.326 98.1875 102.861 97.5 102.861 96.5669C102.861 95.5848 102.326 94.8973 101.062 94.8973H99.5555V98.1875H101.062ZM105.972 90.3303H107.674V99.4152H105.972V90.3303Z" fill="#1E332E"/>
<path d="M119.049 90.1339C121.722 90.1339 123.91 92.1473 123.91 94.8482C123.91 97.5982 121.722 99.6117 119.097 99.6117C116.424 99.6117 114.236 97.5982 114.236 94.8482C114.188 92.0982 116.375 90.1339 119.049 90.1339ZM119.049 98.1384C120.75 98.1384 122.16 96.7634 122.16 94.8973C122.16 93.0313 120.75 91.6563 119.049 91.6563C117.347 91.6563 115.938 92.9822 115.938 94.8973C115.938 96.7634 117.347 98.1384 119.049 98.1384Z" fill="#1E332E"/>
<path d="M125.951 90.3303H127.653V94.0134H128.917L131.347 90.3303H133.292L130.326 94.6518V94.7009L133.681 99.4152H131.639L128.965 95.4866H127.653V99.4152H125.951V90.3303Z" fill="#1E332E"/>
<path d="M139.076 90.1339C141.75 90.1339 143.937 92.1473 143.937 94.8482C143.937 97.5982 141.75 99.6117 139.125 99.6117C136.451 99.6117 134.264 97.5982 134.264 94.8482C134.264 92.0982 136.451 90.1339 139.076 90.1339ZM139.125 98.1384C140.826 98.1384 142.236 96.7634 142.236 94.8973C142.236 93.0313 140.826 91.6563 139.125 91.6563C137.424 91.6563 136.014 92.9822 136.014 94.8973C136.014 96.7634 137.424 98.1384 139.125 98.1384Z" fill="#1E332E"/>
<path d="M146.028 90.3303H147.729V94.0134H152.299V90.3303H154V99.4152H152.299V95.5357H147.729V99.4152H146.028V90.3303Z" fill="#1E332E"/>
</svg>
