<svg width="56" height="55" viewBox="0 0 56 55" fill="none" xmlns="http://www.w3.org/2000/svg">
<path d="M27.9231 0.200012C43.0231 0.200012 55.3231 12.5 55.3231 27.6C55.3231 42.7 43.0231 55 27.9231 55C12.8231 55 0.523071 42.7 0.523071 27.6C0.523071 12.5 12.8231 0.200012 27.9231 0.200012Z" fill="#BAD1AE"/>
<path d="M43.323 32.3C43.223 28.4 40.023 25.3 36.123 25.2H33.323V23.1C34.123 22.1 34.623 20.8 34.723 19.5V16.2C35.223 16 35.623 15.7 36.023 15.5L36.223 15.4V13.7C36.223 10 33.123 6.90002 29.323 6.90002H26.723C22.923 6.90002 19.823 9.90002 19.823 13.7V18.1H20.323C20.623 18.1 20.923 18.1 21.223 18.1V19.5C21.323 20.9 21.823 22.2 22.723 23.2V25.1H20.223H20.123C20.123 25.1 20.123 25.1 20.023 25.1C16.023 25.1 12.823 28.2 12.623 32V42.3C12.623 43.3 13.423 44.1 14.423 44.1H33.423C34.023 44.1 34.523 43.6 34.523 43C34.523 42.4 34.023 42 33.423 42H31.523L30.123 31.6L31.123 29.9L31.623 30.3C31.923 30.6 32.423 30.6 32.823 30.4C33.223 30.2 33.523 29.8 33.523 29.4V27.2H36.023H36.123C39.023 27.2 41.423 29.5 41.423 32.3V32.4V42.9C41.423 43.5 41.923 44 42.523 44C43.123 44 43.623 43.5 43.623 42.9V32.5V32.4C43.323 32.4 43.323 32.3 43.323 32.3ZM24.323 42H14.723V32.4V32.1C14.923 29.4 17.223 27.3 19.923 27.3C20.123 27.3 20.223 27.3 20.423 27.3H20.823H22.623V29.6C22.623 30 22.823 30.3 23.223 30.5C23.623 30.7 24.023 30.6 24.323 30.4L24.723 30L25.623 31.6L24.323 42ZM24.723 27.5V25.1C25.423 25.4 26.123 25.7 26.823 25.8L24.723 27.5ZM26.523 42L27.923 31.9L29.323 42H26.523ZM28.523 29.8H27.123L26.423 28.7L27.823 27.6L29.223 28.7L28.523 29.8ZM28.823 25.7C29.623 25.6 30.423 25.3 31.123 25V27.6L28.823 25.7ZM32.223 14.8C32.023 14.8 31.823 14.9 31.723 14.9H31.623C31.323 14.9 30.923 15 30.623 15C28.823 15 27.123 14.4 25.723 13.4L25.323 13.1L25.023 13.4C24.823 13.7 24.523 14 24.223 14.2L23.823 14.6L24.323 15C26.123 16.4 28.423 17.2 30.723 17.2C31.423 17.2 32.023 17.1 32.723 17V18.7C32.723 18.8 32.723 19 32.723 19.1C32.723 19.2 32.723 19.4 32.723 19.5C32.523 21.9 30.523 23.7 28.123 23.7C25.723 23.7 23.723 21.9 23.523 19.5V19.4V19.3V18.9V18.8V18.7V17.5C24.023 17.3 24.523 17.1 24.923 16.8L25.423 16.5L23.823 15L23.223 15.2C22.723 15.5 22.323 15.7 21.823 15.8V13.6C21.823 11.1 24.023 9.00002 26.523 9.00002H29.123C31.723 9.00002 33.823 11.1 33.823 13.7V14.2C33.823 14.2 33.823 14.2 33.723 14.2C33.323 14.5 32.723 14.7 32.223 14.8Z" fill="#1D322B"/>
<path d="M38.123 33.6H33.823C33.223 33.6 32.723 34.1 32.723 34.7C32.723 35.3 33.223 35.8 33.823 35.8H38.123C38.723 35.8 39.223 35.3 39.223 34.7C39.223 34.1 38.623 33.6 38.123 33.6Z" fill="#1D322B"/>
<path d="M38.606 43.9645C39.0295 43.5289 38.9876 42.8013 38.5124 42.3393C38.0372 41.8773 37.3087 41.8559 36.8852 42.2915C36.4617 42.7271 36.5036 43.4547 36.9788 43.9167C37.454 44.3787 38.1825 44.4001 38.606 43.9645Z" fill="#1D322B"/>
</svg>
