<svg width="55" height="44" viewBox="0 0 55 44" fill="none" xmlns="http://www.w3.org/2000/svg">
<path d="M0.470825 40.8674C0.470825 40.1674 0.770813 39.4674 1.27081 38.9674C1.77081 38.4674 2.37082 38.1674 3.17082 38.1674C3.97082 38.1674 4.57082 38.4674 5.07082 38.9674C5.57082 39.4674 5.87082 40.0674 5.87082 40.8674C5.87082 41.6674 5.57082 42.2674 5.07082 42.7674C4.57082 43.2674 3.97082 43.5674 3.17082 43.5674C2.37082 43.5674 1.77081 43.2674 1.27081 42.7674C0.770813 42.2674 0.470825 41.6674 0.470825 40.8674ZM1.27081 40.8674C1.27081 41.4674 1.47082 41.9674 1.87082 42.3674C2.27082 42.7674 2.67081 42.9674 3.27081 42.9674C3.77081 42.9674 4.27082 42.7674 4.67082 42.3674C5.07082 41.9674 5.27081 41.4674 5.27081 40.8674C5.27081 40.2674 5.07082 39.8674 4.67082 39.4674C4.27082 39.0674 3.87081 38.8674 3.27081 38.8674C2.77081 38.8674 2.27082 39.0674 1.87082 39.4674C1.47082 39.8674 1.27081 40.2674 1.27081 40.8674Z" fill="black"/>
<path d="M6.77081 43.4674V39.7674H7.47083V41.2674H9.37082V39.7674H10.0708V43.4674H9.37082V41.8674H7.47083V43.4674H6.77081Z" fill="black"/>
<path d="M10.7708 43.5674V42.9674C11.0708 42.9674 11.2708 42.7674 11.3708 42.4674C11.4708 42.1674 11.5708 41.6674 11.5708 41.0674V39.9674H14.0708V43.6674H13.3708V40.5674H12.2708V40.9674C12.2708 41.8674 12.1708 42.4674 11.8708 42.8674C11.6708 43.2674 11.2708 43.4674 10.7708 43.5674Z" fill="black"/>
<path d="M14.8708 42.4674C14.8708 42.1674 14.9708 41.9674 15.0708 41.7674C15.2708 41.5674 15.4709 41.4674 15.6709 41.3674C15.9709 41.2674 16.1708 41.2674 16.3708 41.1674C16.5708 41.0674 16.7708 41.1674 17.0708 41.1674H17.2708V41.0674C17.2708 40.5674 16.9709 40.2674 16.4709 40.2674C16.0709 40.2674 15.7709 40.3674 15.4709 40.6674L15.1709 40.1674C15.3709 40.0674 15.5708 39.9674 15.7708 39.8674C16.0708 39.7674 16.2708 39.7674 16.5708 39.7674C17.0708 39.7674 17.3709 39.8674 17.6709 40.1674C17.9709 40.4674 18.0708 40.7674 18.0708 41.2674V43.6674H17.3708V43.2674V42.9674C17.2708 43.1674 17.0708 43.3674 16.8708 43.4674C16.6708 43.5674 16.3709 43.6674 16.1709 43.6674C15.8709 43.6674 15.5708 43.5674 15.2708 43.3674C14.9708 43.0674 14.8708 42.8674 14.8708 42.4674ZM15.5708 42.4674C15.5708 42.6674 15.6708 42.7674 15.7708 42.8674C15.8708 42.9674 16.0708 43.0674 16.2708 43.0674C16.5708 43.0674 16.7709 42.9674 16.9709 42.6674C17.1709 42.3674 17.2708 42.1674 17.2708 41.8674V41.7674H17.0708C16.0708 41.6674 15.5708 41.9674 15.5708 42.4674Z" fill="black"/>
<path d="M19.0708 43.4674V39.7674H19.7708V41.9674C19.7708 42.2674 19.7708 42.3674 19.7708 42.4674C19.7708 42.3674 19.8708 42.2674 20.0708 41.9674L21.6708 39.7674H22.3708V43.4674H21.6708V41.2674C21.6708 41.1674 21.6708 41.0674 21.6708 40.9674C21.6708 40.8674 21.6708 40.7674 21.6708 40.7674C21.6708 40.7674 21.5708 40.9674 21.3708 41.2674L19.7708 43.4674H19.0708ZM20.6708 39.3674C20.3708 39.3674 20.0708 39.2674 19.8708 39.0674C19.6708 38.8674 19.5708 38.6674 19.5708 38.3674V38.2674H20.1708V38.3674C20.1708 38.5674 20.2708 38.6674 20.3708 38.7674C20.4708 38.8674 20.5708 38.8674 20.7708 38.8674C20.8708 38.8674 21.0708 38.8674 21.1708 38.7674C21.2708 38.6674 21.3708 38.5674 21.3708 38.3674V38.2674H21.9708V38.3674C21.9708 38.6674 21.8708 38.8674 21.6708 39.0674C21.2708 39.2674 20.9708 39.3674 20.6708 39.3674Z" fill="black"/>
<path d="M23.4708 43.4674V39.7674H24.1708V41.2674H26.0708V39.7674H26.7708V43.4674H26.0708V41.8674H24.1708V43.4674H23.4708Z" fill="black"/>
<path d="M29.6708 43.4674V39.7674H32.9708V43.4674H32.2708V40.3674H30.4708V43.4674H29.6708Z" fill="black"/>
<path d="M33.6708 43.5674V42.9674C33.9708 42.9674 34.1708 42.7674 34.2708 42.4674C34.3708 42.1674 34.4708 41.6674 34.4708 41.0674V39.9674H36.9708V43.6674H36.2708V40.5674H35.1708V40.9674C35.1708 41.8674 35.0708 42.4674 34.7708 42.8674C34.5708 43.2674 34.1708 43.4674 33.6708 43.5674Z" fill="black"/>
<path d="M37.7708 42.4674C37.7708 42.1674 37.8708 41.9674 37.9708 41.7674C38.1708 41.5674 38.3708 41.4674 38.5708 41.3674C38.8708 41.2674 39.0708 41.2674 39.2708 41.1674C39.4708 41.0674 39.6708 41.1674 39.9708 41.1674H40.1708V41.0674C40.1708 40.5674 39.8708 40.2674 39.3708 40.2674C38.9708 40.2674 38.6708 40.3674 38.3708 40.6674L38.0708 40.1674C38.2708 40.0674 38.4708 39.9674 38.6708 39.8674C38.9708 39.7674 39.1708 39.7674 39.4708 39.7674C39.9708 39.7674 40.2708 39.8674 40.5708 40.1674C40.8708 40.4674 40.9708 40.7674 40.9708 41.2674V43.6674H40.2708V43.2674V42.9674C40.1708 43.1674 39.9708 43.3674 39.7708 43.4674C39.5708 43.5674 39.2708 43.6674 39.0708 43.6674C38.7708 43.6674 38.4708 43.5674 38.1708 43.3674C37.8708 43.0674 37.7708 42.8674 37.7708 42.4674ZM38.4708 42.4674C38.4708 42.6674 38.5708 42.7674 38.6708 42.8674C38.7708 42.9674 38.9708 43.0674 39.1708 43.0674C39.4708 43.0674 39.6708 42.9674 39.8708 42.6674C40.0708 42.3674 40.1708 42.1674 40.1708 41.8674V41.7674H39.9708C38.9708 41.6674 38.4708 41.9674 38.4708 42.4674Z" fill="black"/>
<path d="M42.8708 43.4674V40.3674H41.5708V39.7674H44.8708V40.3674H43.5708V43.4674H42.8708Z" fill="black"/>
<path d="M45.3708 41.6674C45.3708 41.0674 45.5708 40.5674 45.8708 40.2674C46.1708 39.9674 46.6709 39.7674 47.1709 39.7674C47.6709 39.7674 48.0708 39.9674 48.3708 40.2674C48.6708 40.5674 48.7708 40.9674 48.7708 41.4674C48.7708 41.5674 48.7708 41.6674 48.7708 41.7674H46.0708C46.0708 42.1674 46.2709 42.4674 46.4709 42.6674C46.6709 42.8674 46.9708 42.9674 47.3708 42.9674C47.7708 42.9674 48.1709 42.8674 48.4709 42.5674L48.7708 43.0674C48.5708 43.2674 48.3708 43.3674 48.0708 43.4674C47.7708 43.5674 47.5708 43.5674 47.2708 43.5674C46.6708 43.5674 46.1708 43.3674 45.8708 42.9674C45.5708 42.6674 45.3708 42.1674 45.3708 41.6674ZM46.0708 41.2674H48.0708C48.0708 40.9674 47.9708 40.7674 47.7708 40.5674C47.5708 40.3674 47.3709 40.2674 47.1709 40.2674C46.8709 40.2674 46.6709 40.3674 46.4709 40.5674C46.2709 40.6674 46.1708 40.9674 46.0708 41.2674ZM46.2708 39.0674V38.3674H46.8708V39.0674H46.2708ZM47.4709 39.0674V38.3674H48.0708V39.0674H47.4709Z" fill="black"/>
<path d="M49.2708 43.4674L50.4708 41.5674L49.3708 39.7674H50.1708L51.0708 41.2674H51.5708V39.7674H52.2708V41.2674H52.7708L53.6708 39.7674H54.4708L53.3708 41.5674L54.5708 43.4674H53.7708L52.7708 41.8674H52.2708V43.4674H51.5708V41.9674H51.0708L50.0708 43.5674H49.2708V43.4674Z" fill="black"/>
<path d="M41.8708 17.2674C41.8708 26.2674 34.5708 33.5674 25.5708 33.5674C16.5708 33.5674 9.27081 26.2674 9.27081 17.2674C9.27081 8.26741 16.5708 0.967407 25.5708 0.967407C34.5708 0.967407 41.8708 8.26741 41.8708 17.2674Z" fill="#BFD6B2"/>
<path d="M31.0708 10.5674C31.6708 10.5674 32.2708 10.5674 32.8708 10.5674C33.0708 10.5674 33.1708 10.6674 33.1708 10.8674C33.1708 11.0674 33.0708 11.1674 32.8708 11.1674C29.3708 11.1674 25.7708 11.1674 22.2708 11.1674C21.6708 11.1674 21.5708 11.2674 21.5708 11.8674C21.5708 13.3674 21.5708 14.9674 21.5708 16.4674C21.5708 16.5674 21.5708 16.6674 21.5708 16.8674C21.6708 16.8674 21.8708 16.8674 21.9708 16.8674C22.9708 16.8674 23.9708 16.8674 24.8708 16.8674C25.7708 16.8674 26.3708 17.4674 26.3708 18.2674C26.3708 19.0674 25.7708 19.6674 24.8708 19.6674C23.7708 19.6674 22.6708 19.6674 21.5708 19.6674C21.3708 20.2674 21.5708 20.5674 22.2708 20.5674C26.9708 20.5674 31.6708 20.5674 36.3708 20.5674C36.9708 20.5674 37.0708 20.3674 37.0708 19.8674C37.0708 17.1674 37.0708 14.4674 37.0708 11.7674C37.0708 11.2674 36.8708 11.0674 36.3708 11.0674C35.9708 11.0674 35.4708 11.0674 35.0708 11.0674C34.8708 11.0674 34.6708 10.9674 34.6708 10.7674C34.6708 10.4674 34.8708 10.4674 35.0708 10.4674C35.5708 10.4674 36.0708 10.4674 36.5708 10.4674C37.1708 10.4674 37.6708 10.9674 37.6708 11.6674C37.6708 14.4674 37.6708 17.2674 37.6708 20.0674C37.6708 20.7674 37.1708 21.2674 36.4708 21.2674C34.7708 21.2674 33.0708 21.2674 31.3708 21.2674C31.2708 21.2674 31.1708 21.2674 30.9708 21.2674C30.9708 21.4674 30.9708 21.5674 30.9708 21.6674C30.9708 23.2674 30.9708 24.9674 30.9708 26.5674C30.9708 27.8674 30.1708 28.6674 28.7708 28.6674C25.8708 28.6674 22.9708 28.6674 20.0708 28.6674C18.7708 28.6674 17.9708 27.8674 17.9708 26.5674C17.9708 21.9674 17.9708 17.2674 17.9708 12.6674C17.9708 12.5674 17.9708 12.4674 17.9708 12.3674C18.0708 12.2674 18.1708 12.1674 18.2708 12.1674C18.3708 12.1674 18.4708 12.2674 18.5708 12.3674C18.6708 12.4674 18.5708 12.6674 18.5708 12.7674C18.5708 17.2674 18.5708 21.8674 18.5708 26.3674C18.5708 26.6674 18.5708 26.9674 18.6708 27.2674C18.8708 27.7674 19.3708 28.0674 19.8708 28.0674C22.8708 28.0674 25.8708 28.0674 28.8708 28.0674C29.6708 28.0674 30.2708 27.4674 30.2708 26.6674C30.2708 24.8674 30.2708 23.1674 30.2708 21.3674V21.2674C30.1708 21.2674 29.9708 21.2674 29.8708 21.2674H29.2708C29.0708 21.2674 28.9708 21.2674 28.8708 21.2674C26.6708 21.2674 24.3708 21.2674 22.1708 21.2674C21.2708 21.2674 20.7708 20.7674 20.8708 19.7674V12.0674C20.7708 11.0674 21.1708 10.5674 22.1708 10.5674C24.3708 10.5674 26.6708 10.5674 28.8708 10.5674C28.9708 10.5674 29.1708 10.5674 29.2708 10.5674H29.8708C30.0708 10.5674 30.1708 10.5674 30.2708 10.5674C30.2708 9.96742 30.3708 9.46742 30.2708 8.86742C30.1708 8.26742 29.5708 7.86742 28.9708 7.86742C25.9708 7.86742 22.9708 7.86742 19.9708 7.86742C19.1708 7.86742 18.5708 8.46742 18.5708 9.36742C18.5708 9.86742 18.5708 10.4674 18.5708 10.9674C18.5708 11.1674 18.5708 11.4674 18.2708 11.3674C17.9708 11.3674 17.9708 11.1674 17.9708 10.8674C17.9708 10.3674 17.9708 9.76742 17.9708 9.26742C17.9708 8.06742 18.8708 7.16742 20.0708 7.16742C22.8708 7.16742 25.5708 7.16742 28.3708 7.16742C28.6708 7.16742 29.0708 7.16742 29.3708 7.16742C30.2708 7.36742 30.9708 8.16742 30.9708 9.06742C31.0708 9.56742 31.0708 10.0674 31.0708 10.5674ZM21.5708 19.0674C22.7708 19.0674 23.8708 19.0674 25.0708 19.0674C25.3708 19.0674 25.6708 18.7674 25.6708 18.4674C25.7708 17.9674 25.3708 17.5674 24.7708 17.5674C23.8708 17.5674 22.8708 17.5674 21.9708 17.5674C21.8708 17.5674 21.6708 17.5674 21.5708 17.5674C21.5708 18.0674 21.5708 18.5674 21.5708 19.0674Z" fill="#1E332E"/>
<path d="M24.3708 29.0674C22.9708 29.0674 21.5708 29.0674 20.1708 29.0674C18.7708 29.0674 17.7708 28.0674 17.7708 26.6674C17.7708 22.3674 17.7708 17.9674 17.7708 13.6674V12.7674C17.7708 12.7674 17.7708 12.7674 17.7708 12.6674C17.7708 12.5674 17.7708 12.3674 17.8708 12.2674C17.8708 12.1674 18.0708 11.9674 18.3708 11.9674C18.5708 11.9674 18.8708 12.1674 18.8708 12.3674C18.9708 12.5674 18.9708 12.6674 18.9708 12.8674V12.9674V16.5674C18.9708 19.8674 18.9708 23.2674 18.9708 26.5674C18.9708 26.8674 18.9708 27.1674 19.0708 27.3674C19.2708 27.8674 19.6708 27.9674 20.0708 27.9674C23.2708 27.9674 26.2708 27.9674 29.0708 27.9674C29.6708 27.9674 30.1708 27.4674 30.1708 26.8674C30.1708 25.5674 30.1708 24.2674 30.1708 22.9674C30.1708 22.5674 30.1708 22.0674 30.1708 21.6674H29.9708H29.3708H26.9708C25.3708 21.6674 23.8708 21.6674 22.2708 21.6674C21.7708 21.6674 21.3708 21.4674 21.0708 21.2674C20.7708 20.9674 20.6708 20.4674 20.6708 19.9674V12.2674C20.5708 11.6674 20.7708 11.1674 20.9708 10.8674C21.2708 10.5674 21.6708 10.3674 22.1708 10.3674C23.7708 10.3674 25.3708 10.3674 26.9708 10.3674H29.2708H30.0708C30.0708 10.2674 30.0708 10.1674 30.0708 10.1674C30.0708 9.76743 30.0708 9.36743 30.0708 9.06743C29.9708 8.56743 29.5708 8.26743 29.0708 8.26743C25.7708 8.26743 22.8708 8.26743 20.0708 8.26743C19.3708 8.26743 18.9708 8.76743 18.9708 9.46743C18.9708 9.76743 18.9708 10.1674 18.9708 10.4674C18.9708 10.6674 18.9708 10.8674 18.9708 11.0674C18.9708 11.2674 18.9708 11.4674 18.7708 11.6674C18.6708 11.7674 18.4708 11.8674 18.3708 11.8674C17.7708 11.8674 17.7708 11.2674 17.7708 11.1674C17.7708 10.9674 17.7708 10.6674 17.7708 10.4674C17.7708 10.1674 17.7708 9.86743 17.7708 9.56743C17.7708 8.16743 18.7708 7.26743 20.1708 7.26743C22.9708 7.26743 25.6708 7.26743 28.4708 7.26743H28.5708C28.8708 7.26743 29.1708 7.26743 29.4708 7.36743C30.5708 7.56743 31.2708 8.46743 31.3708 9.56743C31.3708 9.86743 31.3708 10.1674 31.3708 10.4674C31.3708 10.5674 31.3708 10.5674 31.3708 10.6674H31.6708H32.9708C33.2708 10.6674 33.5708 10.9674 33.5708 11.2674C33.5708 11.4674 33.4708 11.5674 33.3708 11.6674C33.2708 11.7674 33.0708 11.8674 32.9708 11.8674H22.3708C21.9708 11.8674 21.8708 11.8674 21.8708 12.3674V17.0674H22.8708C23.5708 17.0674 24.2708 17.0674 24.8708 17.0674C25.8708 17.0674 26.6708 17.7674 26.6708 18.7674C26.6708 19.7674 25.9708 20.4674 24.8708 20.4674C24.0708 20.4674 23.3708 20.4674 22.5708 20.4674H21.7708C21.7708 20.5674 21.7708 20.6674 21.7708 20.7674C21.8708 20.8674 21.9708 20.8674 22.1708 20.8674C26.8708 20.8674 31.5708 20.8674 36.2708 20.8674C36.6708 20.8674 36.6708 20.8674 36.6708 20.4674C36.6708 17.7674 36.6708 15.0674 36.6708 12.3674C36.6708 11.9674 36.6708 11.9674 36.2708 11.9674C35.8708 11.9674 35.3708 11.9674 34.9708 11.9674C34.3708 11.9674 34.2708 11.4674 34.2708 11.3674C34.2708 11.1674 34.3708 10.9674 34.4708 10.9674C34.5708 10.8674 34.7708 10.7674 34.9708 10.7674H35.0708C35.1708 10.7674 35.3708 10.7674 35.4708 10.7674C35.7708 10.7674 36.1708 10.7674 36.4708 10.7674C37.2708 10.7674 37.8708 11.3674 37.8708 12.1674C37.8708 15.1674 37.8708 17.8674 37.8708 20.5674C37.8708 21.3674 37.2708 21.9674 36.3708 21.9674C35.1708 21.9674 33.9708 21.9674 32.7708 21.9674H31.1708V23.5674C31.1708 24.7674 31.1708 25.8674 31.1708 27.0674C31.1708 28.5674 30.1708 29.4674 28.7708 29.4674C27.3708 29.0674 25.8708 29.0674 24.3708 29.0674ZM18.3708 12.5674C18.3708 12.6674 18.3708 12.6674 18.3708 12.7674V13.6674C18.3708 17.9674 18.3708 22.3674 18.3708 26.6674C18.3708 27.7674 19.0708 28.4674 20.2708 28.4674C23.1708 28.4674 26.0708 28.4674 28.9708 28.4674C30.1708 28.4674 30.8708 27.7674 30.8708 26.5674C30.8708 25.3674 30.8708 24.2674 30.8708 23.0674V20.8674H33.0708C34.2708 20.8674 35.4708 20.8674 36.6708 20.8674C37.1708 20.8674 37.5708 20.4674 37.5708 19.9674C37.5708 17.2674 37.5708 14.4674 37.5708 11.5674C37.5708 11.0674 37.2708 10.6674 36.7708 10.6674C36.4708 10.6674 36.0708 10.6674 35.7708 10.6674C35.5708 10.6674 35.4708 10.6674 35.2708 10.6674C35.1708 10.6674 35.1708 10.6674 35.1708 10.6674C35.1708 10.6674 35.1708 10.6674 35.2708 10.6674C35.6708 10.6674 36.1708 10.6674 36.5708 10.6674C37.2708 10.6674 37.5708 10.9674 37.5708 11.6674C37.5708 14.3674 37.5708 17.0674 37.5708 19.7674C37.5708 20.4674 37.2708 20.7674 36.5708 20.7674C31.8708 20.7674 27.1708 20.7674 22.4708 20.7674C22.0708 20.7674 21.7708 20.6674 21.6708 20.4674C21.4708 20.2674 21.4708 19.9674 21.5708 19.4674L21.6708 19.2674H22.8708C23.6708 19.2674 24.3708 19.2674 25.1708 19.2674C25.8708 19.2674 26.3708 18.7674 26.3708 18.1674C26.3708 17.4674 25.8708 17.0674 25.1708 17.0674C24.4708 17.0674 23.7708 17.0674 23.1708 17.0674H21.5708V11.7674C21.5708 11.0674 21.8708 10.7674 22.5708 10.7674H33.1708H31.8708H31.0708V10.5674C31.0708 10.3674 31.0708 10.2674 31.0708 10.0674C31.0708 9.76743 31.0708 9.46743 31.0708 9.16743C31.0708 8.36743 30.4708 7.66743 29.6708 7.56743C29.3708 7.56743 29.1708 7.56743 28.8708 7.56743H28.7708C25.9708 7.56743 23.2708 7.56743 20.4708 7.56743C19.3708 7.56743 18.6708 8.26742 18.6708 9.36742C18.6708 9.66742 18.6708 9.96743 18.6708 10.2674C18.6708 10.4674 18.6708 10.7674 18.6708 10.9674C18.6708 10.9674 18.6708 11.0674 18.6708 11.1674C18.6708 11.1674 18.6708 11.0674 18.6708 10.9674C18.6708 10.7674 18.6708 10.5674 18.6708 10.3674C18.6708 10.0674 18.6708 9.66742 18.6708 9.36742C18.6708 8.36742 19.3708 7.66743 20.3708 7.66743C23.0708 7.66743 26.0708 7.66743 29.3708 7.66743C30.1708 7.66743 30.8708 8.16743 30.9708 8.96743C31.0708 9.36743 30.9708 9.76743 30.9708 10.1674C30.9708 10.3674 30.9708 10.4674 30.9708 10.6674V10.9674H30.2708H29.6708H29.2708H27.3708C25.7708 10.9674 24.1708 10.9674 22.5708 10.9674C22.1708 10.9674 21.9708 11.0674 21.7708 11.2674C21.5708 11.4674 21.4708 11.7674 21.5708 12.2674V19.9674C21.5708 20.3674 21.5708 20.6674 21.7708 20.8674C21.9708 21.0674 22.1708 21.1674 22.5708 21.1674C24.1708 21.1674 25.6708 21.1674 27.2708 21.1674H29.7708H30.3708H31.0708V21.4674C31.0708 21.5674 31.0708 21.5674 31.0708 21.5674C31.0708 22.0674 31.0708 22.5674 31.0708 22.9674C31.0708 24.2674 31.0708 25.5674 31.0708 26.8674C31.0708 27.7674 30.3708 28.4674 29.3708 28.4674C26.5708 28.4674 23.6708 28.4674 20.3708 28.4674C19.6708 28.4674 19.1708 28.1674 18.8708 27.4674C18.7708 27.1674 18.6708 26.8674 18.6708 26.4674C18.6708 23.1674 18.6708 19.7674 18.6708 16.4674V12.8674V12.7674C18.3708 12.6674 18.3708 12.5674 18.3708 12.5674C18.3708 12.5674 18.3708 12.4674 18.3708 12.5674C18.3708 12.4674 18.3708 12.5674 18.3708 12.5674ZM23.4708 19.3674C23.1708 19.3674 22.8708 19.3674 22.4708 19.3674C22.1708 19.3674 21.7708 19.3674 21.4708 19.3674H21.1708V17.2674H22.6708C23.3708 17.2674 23.9708 17.2674 24.6708 17.2674C25.0708 17.2674 25.4708 17.3674 25.6708 17.6674C25.8708 17.8674 25.9708 18.1674 25.8708 18.5674C25.7708 19.0674 25.3708 19.3674 24.9708 19.3674C24.5708 19.3674 24.0708 19.3674 23.4708 19.3674ZM21.8708 18.7674C22.0708 18.7674 22.3708 18.7674 22.5708 18.7674C23.4708 18.7674 24.2708 18.7674 25.0708 18.7674C25.3708 18.7674 25.3708 18.4674 25.4708 18.3674C25.4708 18.2674 25.4708 18.0674 25.3708 17.9674C25.2708 17.8674 25.0708 17.7674 24.8708 17.7674C24.1708 17.7674 23.5708 17.7674 22.8708 17.7674H21.8708V18.7674Z" fill="#1D322B"/>
<path d="M24.5708 22.5674C25.0708 22.5674 25.6708 22.5674 26.1708 22.5674C26.8708 22.5674 27.3708 23.0674 27.3708 23.7674C27.3708 24.4674 26.9708 24.9674 26.2708 24.9674C25.1708 24.9674 23.9708 24.9674 22.8708 24.9674C22.1708 24.9674 21.7708 24.3674 21.7708 23.6674C21.7708 22.9674 22.2708 22.5674 22.9708 22.5674C23.4708 22.5674 24.0708 22.5674 24.5708 22.5674ZM24.5708 24.2674C25.0708 24.2674 25.6708 24.2674 26.1708 24.2674C26.5708 24.2674 26.7708 24.0674 26.7708 23.6674C26.7708 23.3674 26.5708 23.0674 26.1708 23.0674C25.0708 23.0674 24.0708 23.0674 22.9708 23.0674C22.5708 23.0674 22.3708 23.2674 22.3708 23.6674C22.3708 23.9674 22.5708 24.2674 22.9708 24.2674C23.4708 24.2674 24.0708 24.2674 24.5708 24.2674Z" fill="#1E332E"/>
<path d="M24.5708 25.2674C23.9708 25.2674 23.3708 25.2674 22.8708 25.2674C22.4708 25.2674 22.0708 25.0674 21.8708 24.8674C21.5708 24.5674 21.4708 24.1674 21.4708 23.7674C21.4708 22.9674 22.0708 22.3674 22.9708 22.3674C23.3708 22.3674 23.6708 22.3674 24.0708 22.3674H24.5708H25.0708C25.4708 22.3674 25.7708 22.3674 26.1708 22.3674C27.0708 22.3674 27.6708 22.9674 27.6708 23.7674C27.6708 24.1674 27.5708 24.5674 27.2708 24.8674C26.9708 25.1674 26.6708 25.2674 26.2708 25.2674C25.6708 25.1674 25.1708 25.2674 24.5708 25.2674ZM23.5708 22.8674C23.3708 22.8674 23.1708 22.8674 22.9708 22.8674C22.3708 22.8674 22.0708 23.1674 22.0708 23.7674C22.0708 24.0674 22.1708 24.2674 22.2708 24.4674C22.3708 24.6674 22.6708 24.6674 22.8708 24.7674C23.9708 24.7674 25.1708 24.7674 26.2708 24.7674C26.5708 24.7674 26.7708 24.6674 26.8708 24.4674C27.0708 24.2674 27.0708 24.0674 27.0708 23.7674C27.0708 23.2674 26.6708 22.8674 26.0708 22.8674C25.6708 22.8674 25.3708 22.8674 24.9708 22.8674H24.4708H23.9708C23.8708 22.8674 23.7708 22.8674 23.5708 22.8674ZM23.5708 24.5674C23.3708 24.5674 23.1708 24.5674 22.9708 24.5674C22.6708 24.5674 22.4708 24.4674 22.2708 24.2674C22.0708 24.0674 22.0708 23.8674 22.0708 23.6674C22.0708 23.1674 22.4708 22.8674 22.9708 22.8674C23.9708 22.8674 25.0708 22.8674 26.1708 22.8674C26.6708 22.8674 27.0708 23.1674 27.0708 23.6674C27.0708 23.8674 26.9708 24.0674 26.8708 24.2674C26.6708 24.4674 26.4708 24.5674 26.1708 24.5674C25.7708 24.5674 25.4708 24.5674 25.0708 24.5674H24.5708H24.0708C23.8708 24.5674 23.7708 24.5674 23.5708 24.5674ZM24.5708 23.4674C24.0708 23.4674 23.4708 23.4674 22.9708 23.4674C22.7708 23.4674 22.6708 23.5674 22.6708 23.7674C22.6708 23.8674 22.6708 23.8674 22.7708 23.9674C22.8708 24.0674 22.9708 24.0674 23.0708 24.0674C23.4708 24.0674 23.7708 24.0674 24.1708 24.0674H24.6708H25.1708C25.5708 24.0674 25.8708 24.0674 26.2708 24.0674C26.3708 24.0674 26.4708 24.0674 26.5708 23.9674C26.5708 23.9674 26.6708 23.8674 26.6708 23.7674C26.6708 23.5674 26.4708 23.4674 26.3708 23.4674C25.5708 23.4674 25.0708 23.4674 24.5708 23.4674Z" fill="#1D322B"/>
<path d="M24.6708 14.9674C24.2708 14.9674 23.7708 14.9674 23.3708 14.9674C22.9708 14.9674 22.7708 14.7674 22.7708 14.3674C22.7708 13.8674 22.7708 13.2674 22.7708 12.7674C22.7708 12.3674 22.9708 12.1674 23.3708 12.1674C24.1708 12.1674 25.0708 12.1674 25.8708 12.1674C26.2708 12.1674 26.4708 12.3674 26.4708 12.7674C26.4708 13.2674 26.4708 13.8674 26.4708 14.3674C26.4708 14.7674 26.2708 14.9674 25.8708 14.9674C25.4708 14.9674 25.0708 14.9674 24.6708 14.9674ZM23.4708 12.8674C23.4708 13.3674 23.4708 13.8674 23.4708 14.3674C24.2708 14.3674 25.0708 14.3674 25.9708 14.3674C25.9708 13.8674 25.9708 13.3674 25.9708 12.8674C25.0708 12.8674 24.2708 12.8674 23.4708 12.8674Z" fill="#1E332E"/>
<path d="M23.9708 15.2674C23.7708 15.2674 23.6708 15.2674 23.4708 15.2674C22.9708 15.2674 22.5708 14.9674 22.5708 14.3674C22.5708 13.7674 22.5708 13.2674 22.5708 12.7674C22.5708 12.2674 22.9708 11.8674 23.4708 11.8674C24.2708 11.8674 25.0708 11.8674 25.9708 11.8674C26.5708 11.8674 26.8708 12.1674 26.8708 12.7674C26.8708 13.2674 26.8708 13.8674 26.8708 14.3674C26.8708 14.9674 26.5708 15.2674 25.9708 15.2674C25.6708 15.2674 25.3708 15.2674 25.0708 15.2674H24.6708H24.2708C24.1708 15.2674 24.0708 15.2674 23.9708 15.2674ZM24.6708 12.4674C24.2708 12.4674 23.8708 12.4674 23.4708 12.4674C23.2708 12.4674 23.1708 12.5674 23.1708 12.7674C23.1708 13.2674 23.1708 13.8674 23.1708 14.3674C23.1708 14.5674 23.2708 14.6674 23.4708 14.6674C23.7708 14.6674 24.0708 14.6674 24.3708 14.6674H24.7708H25.1708C25.4708 14.6674 25.7708 14.6674 25.9708 14.6674C26.2708 14.6674 26.3708 14.5674 26.3708 14.3674C26.3708 13.8674 26.3708 13.3674 26.3708 12.7674C26.3708 12.4674 26.2708 12.4674 26.0708 12.4674C25.4708 12.4674 25.0708 12.4674 24.6708 12.4674ZM26.1708 14.6674H23.1708V12.5674H26.1708V14.6674ZM23.7708 14.0674H25.6708V13.0674H23.7708V14.0674Z" fill="#1D322B"/>
</svg>
