<svg width="125" height="49" viewBox="0 0 125 49" fill="none" xmlns="http://www.w3.org/2000/svg">
<path d="M24.1616 0.717285C37.464 0.717285 48.2997 11.553 48.2997 24.8554C48.2997 38.1579 37.464 48.9936 24.1616 48.9936C10.8592 48.9936 0.0234375 38.1579 0.0234375 24.8554C0.0234375 11.553 10.8592 0.717285 24.1616 0.717285Z" fill="#BAD1AE"/>
<path d="M57.4614 25.6485V20.3628H61.69V25.6485H60.9852V20.9795H58.1662V25.6485H57.4614Z" fill="black"/>
<path d="M62.6592 23.7106C62.6592 23.182 62.8354 22.6534 63.2759 22.301C63.7163 21.9487 64.1568 21.7725 64.6854 21.7725C65.302 21.7725 65.7425 21.9487 66.183 22.301C66.5354 22.6534 66.7997 23.182 66.7997 23.7106C66.7997 24.2391 66.6235 24.7677 66.183 25.1201C65.7425 25.4725 65.302 25.6487 64.6854 25.6487C64.0687 25.6487 63.6282 25.4725 63.1878 25.1201C62.8354 24.7677 62.6592 24.2391 62.6592 23.7106ZM63.3639 23.7106C63.3639 24.151 63.452 24.4153 63.7163 24.6796C63.9806 24.9439 64.2449 25.032 64.6854 25.032C65.0378 25.032 65.3901 24.9439 65.6544 24.6796C65.9187 24.4153 66.0068 24.0629 66.0068 23.7106C66.0068 23.3582 65.9187 23.0058 65.6544 22.7415C65.3901 22.4772 65.1259 22.3891 64.6854 22.3891C64.333 22.3891 63.9806 22.4772 63.7163 22.7415C63.5401 23.0058 63.3639 23.2701 63.3639 23.7106Z" fill="black"/>
<path d="M67.416 23.7106C67.416 23.182 67.5922 22.6534 68.0327 22.301C68.3851 21.9487 68.9136 21.7725 69.5303 21.7725C70.147 21.7725 70.5875 21.9487 70.9398 22.301L70.4994 22.7415C70.2351 22.4772 69.8827 22.301 69.4422 22.301C69.0898 22.301 68.7374 22.3891 68.4732 22.6534C68.2089 22.9177 68.1208 23.2701 68.1208 23.6225C68.1208 23.9748 68.2089 24.3272 68.4732 24.5915C68.7374 24.8558 69.0898 24.9439 69.4422 24.9439C69.6184 24.9439 69.8827 24.8558 70.0589 24.7677C70.2351 24.6796 70.4113 24.5915 70.5875 24.4153L70.8517 24.9439C70.6755 25.1201 70.4113 25.2963 70.147 25.3844C69.8827 25.4725 69.6184 25.5606 69.266 25.5606C68.6494 25.5606 68.2089 25.3844 67.7684 25.032C67.5922 24.7677 67.416 24.2391 67.416 23.7106Z" fill="black"/>
<path d="M71.5566 25.6485L71.909 21.8604H72.7019L73.6709 23.9746L73.8471 24.5032C73.9352 24.327 74.0233 24.1508 74.0233 23.9746L74.9924 21.8604H75.7852L76.1376 25.6485H75.4328L75.2567 23.358V22.7413C75.1686 22.9175 75.0805 23.0937 74.9924 23.2699L74.1114 25.208H73.4947L72.6138 23.2699L72.3495 22.7413V23.358L72.2614 25.6485H71.5566Z" fill="black"/>
<path d="M77.0186 23.7106C77.0186 23.182 77.1947 22.6534 77.6352 22.301C78.0757 21.9487 78.5162 21.7725 79.0447 21.7725C79.6614 21.7725 80.1019 21.9487 80.5424 22.301C80.8948 22.6534 81.159 23.182 81.159 23.7106C81.159 24.2391 80.9829 24.7677 80.5424 25.1201C80.1019 25.4725 79.6614 25.6487 79.0447 25.6487C78.4281 25.6487 77.9876 25.4725 77.5471 25.1201C77.1947 24.7677 77.0186 24.2391 77.0186 23.7106ZM77.7233 23.7106C77.7233 24.151 77.8114 24.4153 78.0757 24.6796C78.34 24.9439 78.6043 25.032 79.0447 25.032C79.3971 25.032 79.7495 24.9439 80.0138 24.6796C80.2781 24.4153 80.3662 24.0629 80.3662 23.7106C80.3662 23.3582 80.19 23.0058 79.9257 22.7415C79.6614 22.4772 79.3971 22.3891 78.9567 22.3891C78.6043 22.3891 78.2519 22.4772 77.9876 22.7415C77.8114 23.0058 77.7233 23.2701 77.7233 23.7106Z" fill="black"/>
<path d="M82.921 25.6485V22.477H81.5996V21.8604H84.9472V22.477H83.6258V25.6485H82.921Z" fill="black"/>
<path d="M85.6519 27.1463V21.8606H86.3566V22.2129V22.4772C86.4447 22.2129 86.6209 22.0367 86.8852 21.9487C87.1495 21.8606 87.3257 21.7725 87.6781 21.7725C88.2066 21.7725 88.559 21.9487 88.9114 22.301C89.1757 22.6534 89.3519 23.182 89.3519 23.7106C89.3519 24.3272 89.1757 24.7677 88.9114 25.1201C88.559 25.4725 88.2066 25.6487 87.6781 25.6487C87.1495 25.6487 86.7971 25.4725 86.5328 25.032C86.5328 25.1201 86.5328 25.2082 86.5328 25.3844V27.1463H85.6519ZM86.3566 23.7106C86.3566 24.0629 86.4447 24.4153 86.6209 24.6796C86.7971 24.9439 87.0614 25.1201 87.4138 25.1201C87.7661 25.1201 87.9423 25.032 88.2066 24.7677C88.4709 24.5034 88.559 24.151 88.559 23.7987C88.559 23.3582 88.4709 23.0939 88.2947 22.8296C88.1185 22.5653 87.8542 22.4772 87.5019 22.4772C87.1495 22.4772 86.9733 22.5653 86.709 22.8296C86.4447 22.9177 86.3566 23.2701 86.3566 23.7106Z" fill="black"/>
<path d="M89.9688 23.7106C89.9688 23.0939 90.1449 22.6534 90.4973 22.301C90.8497 21.9487 91.2902 21.7725 91.9069 21.7725C92.4354 21.7725 92.7878 21.9487 93.1402 22.301C93.4045 22.6534 93.5807 23.0939 93.5807 23.5344C93.5807 23.6225 93.5807 23.7106 93.5807 23.8868H90.8497C90.8497 24.3272 91.0259 24.5915 91.2902 24.8558C91.5545 25.1201 91.8188 25.2082 92.1711 25.2082C92.6116 25.2082 92.964 25.032 93.3164 24.7677L93.6688 25.2963C93.4926 25.4725 93.2283 25.5606 92.964 25.6487C92.6997 25.7368 92.4354 25.8249 92.1711 25.8249C91.5545 25.8249 91.114 25.6487 90.6735 25.2963C90.1449 24.7677 89.9688 24.2391 89.9688 23.7106ZM90.6735 23.2701H92.6997C92.6997 22.9177 92.6116 22.7415 92.4354 22.5653C92.2592 22.3891 92.083 22.301 91.8188 22.301C91.5545 22.301 91.2902 22.3891 91.114 22.5653C90.9378 22.7415 90.7616 23.0058 90.6735 23.2701Z" fill="black"/>
<path d="M95.2545 25.6485V22.477H93.9331V21.8604H97.2807V22.477H96.0474V25.6485H95.2545Z" fill="black"/>
<path d="M98.0732 25.6485V21.8604H98.778V23.2699H99.5709C100.011 23.2699 100.364 23.358 100.54 23.5342C100.804 23.7104 100.892 24.0627 100.892 24.4151C100.892 24.7675 100.804 25.1199 100.54 25.2961C100.276 25.4723 99.9232 25.6485 99.4828 25.6485H98.0732ZM98.778 25.1199H99.3947C99.659 25.1199 99.8352 25.0318 99.9232 24.9437C100.011 24.8556 100.099 24.6794 100.099 24.4151C100.099 24.2389 100.011 24.0627 99.9232 23.8865C99.8352 23.7104 99.5709 23.7104 99.3947 23.7104H98.778V25.1199Z" fill="black"/>
<path d="M103.624 25.6485V21.8604H105.209C105.562 21.8604 105.914 21.9484 106.178 22.1246C106.443 22.3008 106.531 22.5651 106.531 22.8294C106.531 23.0056 106.443 23.1818 106.354 23.358C106.266 23.5342 106.09 23.6223 105.914 23.7104C106.178 23.7985 106.354 23.8865 106.443 24.0627C106.531 24.2389 106.619 24.4151 106.619 24.6794C106.619 25.0318 106.531 25.2961 106.266 25.4723C106.002 25.6485 105.65 25.7366 105.209 25.7366H103.624V25.6485ZM104.328 23.4461H105.033C105.209 23.4461 105.385 23.358 105.562 23.2699C105.65 23.1818 105.738 23.0056 105.738 22.8294C105.738 22.477 105.474 22.3008 105.033 22.3008H104.328V23.4461ZM104.328 25.1199H105.121C105.385 25.1199 105.562 25.0318 105.738 24.9437C105.914 24.8556 105.914 24.6794 105.914 24.5032C105.914 24.327 105.826 24.1508 105.738 24.0627C105.562 23.9746 105.385 23.8865 105.121 23.8865H104.328V25.1199Z" fill="black"/>
<path d="M107.5 25.6485V21.8604H108.204V24.1508C108.204 24.4151 108.204 24.5913 108.204 24.6794C108.204 24.5913 108.38 24.4151 108.557 24.1508L110.23 21.8604H110.935V25.6485H110.23V23.358C110.23 23.2699 110.23 23.1818 110.23 23.0937C110.23 23.0056 110.23 22.9175 110.23 22.9175C110.23 22.9175 110.142 23.0937 109.878 23.4461L108.204 25.7366H107.5V25.6485Z" fill="black"/>
<path d="M111.552 25.0318H111.992C112.433 24.5032 112.609 23.6223 112.609 22.5651V21.8604H115.164V25.0318H115.692V26.5294H114.988V25.6485H112.169V26.5294H111.464V25.0318H111.552ZM112.785 25.0318H114.459V22.3889H113.314V22.5651C113.314 23.6223 113.138 24.4151 112.785 25.0318Z" fill="black"/>
<path d="M116.221 23.7106C116.221 23.0939 116.397 22.6534 116.75 22.301C117.102 21.9487 117.543 21.7725 118.159 21.7725C118.688 21.7725 119.04 21.9487 119.393 22.301C119.657 22.6534 119.833 23.0939 119.833 23.5344C119.833 23.6225 119.833 23.7106 119.833 23.8868H117.102C117.102 24.3272 117.278 24.5915 117.543 24.8558C117.807 25.1201 118.071 25.2082 118.424 25.2082C118.864 25.2082 119.216 25.032 119.569 24.7677L119.921 25.2963C119.745 25.4725 119.481 25.5606 119.216 25.6487C118.952 25.7368 118.688 25.8249 118.424 25.8249C117.807 25.8249 117.366 25.6487 116.926 25.2963C116.485 24.7677 116.221 24.2391 116.221 23.7106ZM117.014 23.2701H119.04C119.04 22.9177 118.952 22.7415 118.776 22.5653C118.6 22.3891 118.424 22.301 118.159 22.301C117.895 22.301 117.631 22.3891 117.455 22.5653C117.278 22.7415 117.102 23.0058 117.014 23.2701Z" fill="black"/>
<path d="M120.45 23.7106C120.45 23.182 120.626 22.6534 121.066 22.301C121.507 21.9487 121.947 21.7725 122.476 21.7725C123.093 21.7725 123.533 21.9487 123.974 22.301C124.326 22.6534 124.59 23.182 124.59 23.7106C124.59 24.2391 124.414 24.7677 123.974 25.1201C123.533 25.4725 123.093 25.6487 122.476 25.6487C121.859 25.6487 121.419 25.4725 120.978 25.1201C120.626 24.7677 120.45 24.2391 120.45 23.7106ZM121.154 23.7106C121.154 24.151 121.243 24.4153 121.507 24.6796C121.771 24.9439 122.035 25.032 122.476 25.032C122.828 25.032 123.181 24.9439 123.445 24.6796C123.709 24.4153 123.797 24.0629 123.797 23.7106C123.797 23.3582 123.709 23.0058 123.445 22.7415C123.181 22.4772 122.916 22.3891 122.476 22.3891C122.124 22.3891 121.771 22.4772 121.507 22.7415C121.331 23.0058 121.154 23.2701 121.154 23.7106Z" fill="black"/>
<path d="M14.9116 24.8557V15.958C14.9116 12.6985 18.4354 10.6723 21.2545 12.258L28.9188 16.6628L36.5831 21.0676C39.4022 22.6533 39.4022 26.7938 36.5831 28.3795L28.9188 32.7843L21.2545 37.189C18.4354 38.7747 14.9116 36.7485 14.9116 33.489V24.8557Z" stroke="#1D322B" stroke-width="2" stroke-miterlimit="10"/>
</svg>
