<svg width="83" height="43" viewBox="0 0 83 43" fill="none" xmlns="http://www.w3.org/2000/svg">
<path d="M42.0522 21.4566C42.0522 33.2187 32.6656 42.7044 21.0261 42.7044C9.38666 42.7992 0 33.2187 0 21.4566C0 9.69437 9.38666 0.20874 21.0261 0.20874C32.6656 0.20874 42.0522 9.78923 42.0522 21.4566Z" fill="#C0D7B4"/>
<path d="M20.1813 20.1286H14.8309C15.3002 19.7491 15.8634 19.3697 16.4266 18.8954C18.304 17.5674 20.7445 15.86 20.7445 12.7298C20.7445 9.69437 18.3978 7.41782 15.2064 7.41782C12.9536 7.41782 10.8885 8.7458 9.76212 10.7378L9.57439 11.1172C9.38665 11.4018 9.48052 11.7812 9.76212 12.0658L12.0149 13.5835C12.3904 13.868 12.8597 13.6783 13.0474 13.3938L13.329 12.9195C13.7045 12.1606 14.4554 11.6863 15.0186 11.6863C15.7696 11.6863 16.3328 12.0658 16.3328 12.8246C16.3328 13.6783 15.488 14.3423 13.9861 15.3857C12.0149 16.8086 9.57439 18.516 9.57439 21.9308C9.57439 22.3103 9.57439 22.6897 9.66825 23.164L9.76212 23.6382C9.85598 24.0177 10.1376 24.2074 10.4192 24.2074H20.1813C20.5568 24.2074 20.8384 23.9228 20.8384 23.5434V20.7926C20.9322 20.4131 20.5568 20.1286 20.1813 20.1286ZM19.712 23.0691H10.8885C10.7947 22.6897 10.7947 22.3103 10.7947 22.0257C10.7947 16.9983 17.553 16.2395 17.553 12.9195C17.553 11.4966 16.5205 10.5481 15.0186 10.5481C13.8922 10.5481 12.8597 11.3069 12.2026 12.3503L10.7947 11.4018C11.5456 9.88408 13.1413 8.7458 15.1125 8.7458C17.6469 8.7458 19.4304 10.3584 19.4304 12.8246C19.4304 17.4726 12.8597 18.2314 12.7658 21.4565H19.712V23.0691Z" fill="#1F332E"/>
<path d="M28.0661 10.4532C25.8133 10.4532 25.1562 12.8246 25.1562 15.9549C25.1562 19.0851 25.8133 21.4565 28.0661 21.4565C30.3189 21.4565 30.976 19.0851 30.976 15.9549C30.976 12.9195 30.3189 10.4532 28.0661 10.4532ZM28.0661 20.3183C27.6906 20.3183 26.3765 20.3183 26.3765 16.0497C26.3765 11.7812 27.5968 11.7812 28.0661 11.7812C28.5354 11.7812 29.7557 11.7812 29.7557 16.0497C29.7557 20.3183 28.5354 20.3183 28.0661 20.3183ZM28.0661 7.41782C25.8133 7.41782 21.9648 8.55609 21.9648 15.9549C21.9648 23.4485 25.8133 24.5868 28.0661 24.5868C30.3189 24.5868 34.1674 23.4485 34.1674 15.9549C34.1674 8.55609 30.4128 7.41782 28.0661 7.41782ZM28.0661 23.3537C24.4053 23.3537 23.185 20.1286 23.185 15.9549C23.185 11.8761 24.4053 8.65095 28.0661 8.65095C31.7269 8.65095 32.9472 11.8761 32.9472 15.9549C32.9472 20.1286 31.8208 23.3537 28.0661 23.3537Z" fill="#1F332E"/>
<path d="M11.1701 28.1913C10.9824 28.1913 10.7008 28.1913 10.513 28.1913C6.28904 27.8119 4.03625 24.3971 3.94238 24.2074C3.84851 24.0177 3.84851 23.7331 3.94238 23.5434C4.03625 23.3537 6.28904 19.6543 10.2314 19.6543C10.6069 19.6543 10.7946 19.9388 10.7946 20.2234C10.7946 20.508 10.513 20.7925 10.2314 20.7925C7.60318 20.7925 5.72584 22.8794 5.16264 23.7331C5.81971 24.4919 7.69704 26.5788 10.6069 26.8633C14.6432 27.1479 17.0837 23.9228 17.1776 23.9228C17.3653 23.6382 17.7408 23.6382 18.0224 23.8279C18.304 24.0177 18.3978 24.3971 18.1162 24.6816C18.0224 24.8714 15.488 28.1913 11.1701 28.1913Z" fill="#1F332E"/>
<path d="M17.6469 24.4919H4.50555C4.13009 24.4919 3.94235 24.2074 3.94235 23.9228C3.94235 23.6382 4.22395 23.3537 4.50555 23.3537H17.6469C18.0223 23.3537 18.2101 23.6382 18.2101 23.9228C18.2101 24.2074 17.9285 24.4919 17.6469 24.4919Z" fill="#1F332E"/>
<path d="M10.2315 28.0016C10.0437 28.0016 9.94987 27.9068 9.85601 27.8119C9.57441 27.6222 9.57441 27.1479 9.85601 26.9582L13.2352 23.4485C13.4229 23.164 13.8923 23.164 14.08 23.4485C14.3616 23.6382 14.3616 24.1125 14.08 24.3022L10.7008 27.8119C10.6069 27.9068 10.4192 28.0016 10.2315 28.0016Z" fill="#1F332E"/>
<path d="M7.32159 27.1479C7.13386 27.1479 7.03999 27.0531 6.85226 26.9582C6.66452 26.6736 6.66452 26.2942 6.85226 26.1045L9.57439 23.4485C9.85599 23.2588 10.2315 23.2588 10.4192 23.4485C10.6069 23.7331 10.6069 24.1125 10.4192 24.3022L7.69706 26.9582C7.69706 27.1479 7.50932 27.1479 7.32159 27.1479Z" fill="#1F332E"/>
<path d="M30.7882 28.1914C25.1562 28.1914 24.1237 24.3022 24.0298 24.2074C24.0298 24.1125 23.8421 23.3537 24.6869 22.6897C24.9685 22.5 25.344 22.5 25.5317 22.7845C25.7194 23.0691 25.7194 23.4485 25.4378 23.6382C25.2501 23.828 25.2501 23.9228 25.1562 23.9228C25.344 24.3971 26.3765 27.1479 31.0698 26.9582C33.9797 26.8634 35.857 24.7765 36.4202 23.9228C35.9509 23.164 34.6368 21.2668 32.8533 20.9823C32.4778 20.8874 32.2901 20.6028 32.384 20.3183C32.4778 19.9389 32.7594 19.7491 33.041 19.844C35.857 20.3183 37.5466 23.5434 37.6405 23.7331C37.7343 23.9228 37.7343 24.1125 37.6405 24.3022C37.5466 24.492 35.2938 28.0016 31.0698 28.1914C30.976 28.1914 30.8821 28.1914 30.7882 28.1914Z" fill="#1F332E"/>
<path d="M37.1712 24.5868H25.4378C25.0624 24.5868 24.8746 24.3023 24.8746 24.0177C24.8746 23.7331 25.1562 23.4485 25.4378 23.4485H37.0773C37.4528 23.4485 37.6405 23.7331 37.6405 24.0177C37.6405 24.3023 37.4528 24.5868 37.1712 24.5868Z" fill="#1F332E"/>
<path d="M31.5392 28.1914C31.3514 28.1914 31.2576 28.0965 31.0698 28.0017L27.5968 24.3971C27.409 24.1125 27.409 23.7331 27.5968 23.5434C27.8784 23.3537 28.2538 23.3537 28.4416 23.5434L31.9146 27.1479C32.1024 27.4325 32.1024 27.8119 31.9146 28.0017C31.8208 28.0965 31.7269 28.1914 31.5392 28.1914Z" fill="#1F332E"/>
<path d="M34.1674 27.0531C33.9797 27.0531 33.8858 26.9582 33.792 26.8634L31.1637 24.3971C30.8821 24.2074 30.8821 23.7331 31.1637 23.5434C31.3514 23.2588 31.8208 23.2588 32.0085 23.5434L34.6368 26.0096C34.9184 26.1994 34.9184 26.6736 34.6368 26.8634C34.5429 27.0531 34.3552 27.0531 34.1674 27.0531Z" fill="#1F332E"/>
<path d="M21.3077 38.8152C21.2138 38.8152 21.0261 38.8152 20.9322 38.7203C20.7445 38.6255 17.0837 35.5901 17.0837 32.1753C17.0837 26.2942 21.0261 24.8713 21.1199 24.8713C21.3077 24.7765 21.4954 24.8713 21.5893 24.8713C21.777 24.9662 25.4378 27.053 25.4378 31.9855C25.4378 35.4952 21.777 38.5306 21.6831 38.6255C21.5893 38.7203 21.4954 38.8152 21.3077 38.8152ZM21.3077 26.1045C20.5567 26.4839 18.3039 28.0016 18.3039 32.1753C18.3039 34.357 20.369 36.5386 21.3077 37.3924C22.1525 36.5386 24.3114 34.357 24.3114 31.9855C24.3114 28.381 22.0586 26.5787 21.3077 26.1045Z" fill="#1F332E"/>
<path d="M21.4015 38.5307C21.026 38.5307 20.8383 38.2461 20.8383 37.9615V25.3457C20.8383 24.9662 21.1199 24.7765 21.4015 24.7765C21.6831 24.7765 21.9647 25.0611 21.9647 25.3457V37.8667C21.9647 38.2461 21.6831 38.5307 21.4015 38.5307Z" fill="#1F332E"/>
<path d="M17.7408 32.2702C17.5531 32.2702 17.3653 32.1753 17.2715 32.0804C17.0837 31.7959 17.0837 31.4164 17.3653 31.2267L20.9323 28.0965C21.12 27.9068 21.4955 27.9068 21.6832 28.0965L25.2501 30.6576C25.5317 30.8473 25.6256 31.2267 25.4379 31.5113C25.2501 31.7959 24.8747 31.8907 24.5931 31.701L21.4016 29.4245L18.2101 32.1753C18.0224 32.1753 17.8347 32.2702 17.7408 32.2702Z" fill="#1F332E"/>
<path d="M18.5855 35.4953C18.3978 35.4953 18.3039 35.4004 18.1162 35.3056C17.9285 35.021 17.9285 34.6416 18.1162 34.4519L20.7445 31.9856C20.9322 31.7959 21.3077 31.7959 21.5893 31.9856L24.3114 34.2622C24.593 34.4519 24.593 34.8313 24.4053 35.1159C24.2175 35.4004 23.8421 35.4004 23.5605 35.2107L21.2138 33.3136L19.0549 35.3056C18.961 35.4004 18.7733 35.4953 18.5855 35.4953Z" fill="#1F332E"/>
<path d="M50.0309 15.6702C50.0309 15.5753 50.0309 15.3856 50.0309 15.2908C50.0309 15.101 50.0309 14.8165 50.1248 14.6268C50.2187 14.4371 50.3125 14.2473 50.4064 14.1525C50.5003 14.0576 50.688 13.8679 50.8757 13.7731C51.0635 13.6782 51.1573 13.4885 51.3451 13.3936C51.5328 13.2988 51.6267 13.2039 51.8144 13.0142C51.9083 12.9194 52.096 12.8245 52.096 12.6348C52.1899 12.5399 52.1899 12.3502 52.1899 12.2554C52.1899 12.0656 52.096 11.8759 51.9083 11.6862C51.7205 11.4965 51.5328 11.4965 51.3451 11.4965C51.1573 11.4965 50.9696 11.5914 50.7819 11.6862C50.5941 11.7811 50.5003 11.9708 50.4064 12.1605L49.9371 11.8759C50.0309 11.5914 50.3125 11.4016 50.5003 11.2119C50.7819 11.0222 51.0635 10.9274 51.3451 10.9274C51.8144 10.9274 52.096 11.0222 52.3776 11.3068C52.6592 11.5914 52.7531 11.8759 52.7531 12.2554C52.7531 12.5399 52.6592 12.7296 52.5653 12.9193C52.4715 13.1091 52.2837 13.2988 52.1899 13.3936C52.0021 13.4885 51.8144 13.6782 51.6267 13.7731C51.4389 13.8679 51.2512 14.0576 51.0635 14.1525C50.8757 14.2473 50.7819 14.4371 50.688 14.5319C50.5941 14.6268 50.688 14.9113 50.688 15.101H53.0347V15.6702H50.0309Z" fill="black"/>
<path d="M55.3813 15.6703C55.0997 15.6703 54.8181 15.5755 54.6304 15.4806C54.4427 15.3857 54.2549 15.196 54.1611 14.9115C54.0672 14.7218 53.9733 14.4372 53.8795 14.1526C53.7856 13.868 53.7856 13.5835 53.7856 13.204C53.7856 12.8246 53.7856 12.5401 53.8795 12.2555C53.9733 11.9709 54.0672 11.6863 54.1611 11.4966C54.2549 11.3069 54.4427 11.1172 54.6304 11.0224C54.8181 10.9275 55.0997 10.8326 55.3813 10.8326C56.5077 10.8326 57.0709 11.5915 57.0709 13.204C57.0709 14.9115 56.5077 15.6703 55.3813 15.6703ZM55.3813 15.1012C56.0384 15.1012 56.32 14.532 56.32 13.2989C56.32 12.0658 56.0384 11.4966 55.3813 11.4966C54.7243 11.4966 54.4427 12.0658 54.4427 13.2989C54.4427 14.532 54.8181 15.1012 55.3813 15.1012Z" fill="black"/>
<path d="M59.2299 15.6703V15.1012C59.5115 15.1012 59.6992 14.9115 59.7931 14.6269C59.8869 14.3423 59.9808 13.8681 59.9808 13.2989V12.2555H62.2336V15.5755H61.5765V12.7298H60.6379V13.2041C60.6379 13.9629 60.544 14.532 60.3563 14.9115C60.0747 15.3858 59.6992 15.6703 59.2299 15.6703Z" fill="black"/>
<path d="M62.9845 13.9629C62.9845 13.3938 63.1722 13.0143 63.4538 12.7298C63.7354 12.4452 64.2048 12.2555 64.6741 12.2555C65.1434 12.2555 65.5189 12.4452 65.7066 12.7298C65.8944 13.0143 66.0821 13.3938 66.0821 13.8681C66.0821 13.9629 66.0821 14.0578 66.0821 14.1526H63.6416C63.6416 14.532 63.7354 14.8166 64.017 15.0063C64.2048 15.196 64.4864 15.2909 64.768 15.2909C65.1434 15.2909 65.425 15.196 65.7066 14.9115L65.9882 15.3858C65.8005 15.5755 65.6128 15.6703 65.425 15.7652C65.1434 15.86 64.9557 15.86 64.768 15.86C64.2986 15.86 63.8293 15.6703 63.4538 15.3858C63.1722 14.9115 62.9845 14.4372 62.9845 13.9629ZM63.6416 13.5835H65.425C65.425 13.2989 65.3312 13.1092 65.1434 12.9195C64.9557 12.7298 64.768 12.7298 64.5802 12.7298C64.2986 12.7298 64.1109 12.8246 63.9232 12.9195C63.8293 13.1092 63.7354 13.2989 63.6416 13.5835Z" fill="black"/>
<path d="M67.6778 15.6703V12.8246H66.5515V12.2555H69.4613V12.8246H68.3349V15.6703H67.6778Z" fill="black"/>
<path d="M49.9371 21.9309C49.9371 21.4566 50.1248 20.9823 50.5003 20.6977C50.8757 20.3183 51.2512 20.2234 51.8144 20.2234C52.2837 20.2234 52.7531 20.4132 53.1285 20.6977C53.504 21.0772 53.6917 21.4566 53.6917 21.9309C53.6917 22.4051 53.504 22.8794 53.1285 23.164C52.7531 23.5434 52.3776 23.6383 51.8144 23.6383C51.3451 23.6383 50.8757 23.4486 50.5003 23.164C50.0309 22.8794 49.9371 22.4051 49.9371 21.9309ZM50.5003 21.9309C50.5003 22.3103 50.5941 22.5949 50.8757 22.7846C51.0635 22.9743 51.3451 23.164 51.7205 23.164C52.0021 23.164 52.2837 23.0691 52.5653 22.7846C52.7531 22.5949 52.9408 22.3103 52.9408 21.9309C52.9408 21.5514 52.8469 21.2669 52.5653 21.0772C52.3776 20.8874 52.096 20.6977 51.7205 20.6977C51.4389 20.6977 51.1573 20.7926 50.8757 21.0772C50.688 21.2669 50.5003 21.5514 50.5003 21.9309Z" fill="black"/>
<path d="M54.2549 23.6383V20.3183H57.1647V23.6383H56.5077V20.7926H54.9119V23.6383H54.2549Z" fill="black"/>
<path d="M58.1035 23.6383V20.3183H58.7605V21.5514H59.4176C59.7931 21.5514 60.0746 21.6463 60.2624 21.836C60.4501 22.0257 60.544 22.3103 60.544 22.6897C60.544 22.9743 60.4501 23.2588 60.2624 23.4486C60.0746 23.6383 59.7931 23.7331 59.3237 23.7331H58.1035V23.6383ZM58.7605 23.164H59.3237C59.5115 23.164 59.6992 23.0691 59.7931 22.9743C59.8869 22.8794 59.9808 22.6897 59.9808 22.5C59.9808 22.3103 59.8869 22.1206 59.7931 22.0257C59.6992 21.9309 59.5115 21.836 59.3237 21.836H58.7605V23.164ZM61.1072 23.6383V20.3183H61.7643V23.6383H61.1072Z" fill="black"/>
<path d="M63.5477 23.6383V20.7926H62.4213V20.2234H65.3312V20.7926H64.2048V23.6383H63.5477Z" fill="black"/>
<path d="M65.7067 22.6897C65.7067 22.4051 65.8005 22.2154 65.8944 22.0257C65.9883 21.836 66.176 21.7411 66.4576 21.6462C66.6453 21.5514 66.9269 21.5514 67.1147 21.4565C67.3024 21.4565 67.4901 21.4565 67.7717 21.4565H67.9595V21.3617C67.9595 20.8874 67.6779 20.6028 67.2085 20.6028C66.9269 20.6028 66.5515 20.6977 66.2699 20.8874L65.9883 20.4131C66.0821 20.3183 66.2699 20.2234 66.5515 20.1285C66.7392 20.0337 67.0208 20.0337 67.2085 20.0337C67.584 20.0337 67.9595 20.1285 68.1472 20.4131C68.3349 20.6028 68.5227 20.9823 68.5227 21.3617V23.4485H67.9595V23.0691V22.7845C67.8656 22.9742 67.6779 23.1639 67.4901 23.2588C67.3024 23.3537 67.1147 23.4485 66.8331 23.4485C66.5515 23.4485 66.2699 23.3537 66.0821 23.164C65.8944 22.9742 65.7067 22.9742 65.7067 22.6897ZM66.3637 22.5948C66.3637 22.7845 66.4576 22.8794 66.5515 22.9742C66.6453 23.0691 66.8331 23.164 67.0208 23.164C67.3024 23.164 67.4901 23.0691 67.6779 22.7845C67.8656 22.5948 67.9595 22.3102 67.9595 22.0257V21.9308H67.7717C66.8331 21.9308 66.3637 22.2154 66.3637 22.5948Z" fill="black"/>
<path d="M50.1248 31.6062V28.2862H50.688V30.2782C50.688 30.4679 50.688 30.6576 50.688 30.7525C50.688 30.6576 50.7819 30.5627 50.9696 30.2782L52.3776 28.2862H53.0347V31.6062H52.3776V29.6142C52.3776 29.5193 52.3776 29.4245 52.3776 29.3296C52.3776 29.2348 52.3776 29.1399 52.3776 29.1399C52.3776 29.1399 52.2837 29.3296 52.096 29.6142L50.688 31.6062H50.1248Z" fill="black"/>
<path d="M55.6629 32.9342V28.2862H56.32V28.5708V28.8553C56.4138 28.6656 56.6016 28.4759 56.7893 28.3811C56.977 28.2862 57.1648 28.1913 57.4464 28.1913C57.9157 28.1913 58.2912 28.3811 58.4789 28.6656C58.7605 28.9502 58.8544 29.4245 58.8544 29.8988C58.8544 30.4679 58.7605 30.8473 58.4789 31.1319C58.1973 31.4165 57.8218 31.6062 57.3525 31.6062C56.8832 31.6062 56.6016 31.4165 56.32 31.037C56.32 31.1319 56.32 31.2267 56.32 31.3216V32.8393H55.6629V32.9342ZM56.32 29.8988C56.32 30.1833 56.4138 30.4679 56.6016 30.7525C56.7893 31.037 56.977 31.1319 57.2586 31.1319C57.5402 31.1319 57.728 31.037 57.9157 30.8473C58.1034 30.6576 58.1973 30.373 58.1973 29.9936C58.1973 29.6142 58.1034 29.3296 57.9157 29.1399C57.728 28.9502 57.5402 28.6656 57.2586 28.6656C56.977 28.6656 56.7893 28.7605 56.6016 28.9502C56.4138 29.2348 56.32 29.5193 56.32 29.8988Z" fill="black"/>
<path d="M59.3237 30.6576C59.3237 30.373 59.4176 30.1833 59.5115 29.9936C59.6053 29.8039 59.7931 29.709 60.0747 29.6142C60.2624 29.5193 60.544 29.5193 60.7317 29.4245C60.9195 29.4245 61.1072 29.4245 61.3888 29.4245H61.5765V29.3296C61.5765 28.8553 61.2949 28.5708 60.8256 28.5708C60.544 28.5708 60.1685 28.6656 59.8869 28.8553L59.6053 28.381C59.6992 28.2862 59.8869 28.1913 60.1685 28.0965C60.3563 28.0016 60.6379 28.0016 60.8256 28.0016C61.2011 28.0016 61.5765 28.0965 61.7643 28.381C61.952 28.5708 62.1397 28.9502 62.1397 29.3296V31.4164H61.5765V31.037V30.7525C61.4827 30.9422 61.2949 31.1319 61.1072 31.2267C60.9195 31.3216 60.7317 31.4164 60.4501 31.4164C60.1685 31.4164 59.8869 31.3216 59.6992 31.1319C59.5115 30.9422 59.3237 30.9422 59.3237 30.6576ZM59.9808 30.5627C59.9808 30.7525 60.0747 30.8473 60.1685 30.9422C60.2624 31.037 60.4501 31.1319 60.6379 31.1319C60.9195 31.1319 61.1072 31.037 61.2949 30.7525C61.4827 30.5627 61.5765 30.2782 61.5765 29.9936V29.8987H61.3888C60.4501 29.8987 59.9808 30.1833 59.9808 30.5627Z" fill="black"/>
<path d="M62.7968 31.1319L63.0784 30.7525C63.36 31.037 63.6416 31.1319 63.9232 31.1319C64.1109 31.1319 64.2987 31.037 64.3925 30.9422C64.4864 30.8473 64.5803 30.7525 64.5803 30.5628C64.5803 30.1833 64.3925 30.0885 63.9232 30.0885H63.5477V29.6142H63.9232C64.2987 29.6142 64.5803 29.4245 64.5803 29.1399C64.5803 28.9502 64.4864 28.8553 64.3925 28.7605C64.2987 28.6656 64.1109 28.6656 63.9232 28.6656C63.6416 28.6656 63.36 28.7605 63.0784 28.9502L62.8907 28.4759C63.1723 28.1914 63.6416 28.0965 64.0171 28.0965C64.2987 28.0965 64.5803 28.1914 64.8619 28.3811C65.0496 28.5708 65.1435 28.7605 65.1435 29.0451C65.1435 29.4245 64.9557 29.7091 64.6741 29.8039C65.0496 29.8988 65.2373 30.1833 65.2373 30.5628C65.2373 30.9422 65.1435 31.1319 64.8619 31.3216C64.5803 31.5113 64.2987 31.6062 63.9232 31.6062C63.5477 31.6062 63.0784 31.5113 62.7968 31.1319Z" fill="black"/>
<path d="M65.9883 31.6062V28.2862H67.3963C67.7717 28.2862 68.0533 28.381 68.2411 28.4759C68.4288 28.6656 68.5227 28.8553 68.5227 29.1399C68.5227 29.3296 68.5227 29.4245 68.4288 29.6142C68.3349 29.709 68.2411 29.8039 68.0533 29.8987C68.2411 29.9936 68.4288 30.0885 68.5227 30.1833C68.6165 30.373 68.7104 30.4679 68.7104 30.6576C68.7104 30.9422 68.6165 31.2267 68.3349 31.3216C68.1472 31.5113 67.7717 31.6062 67.4901 31.6062H65.9883ZM66.6453 29.6142H67.3024C67.4901 29.6142 67.6779 29.6142 67.7717 29.5193C67.8656 29.4245 67.9595 29.3296 67.9595 29.1399C67.9595 28.8553 67.7717 28.6656 67.3963 28.6656H66.6453V29.6142ZM66.6453 31.1319H67.3024C67.4901 31.1319 67.6779 31.1319 67.7717 31.037C67.8656 30.9422 67.9595 30.8473 67.9595 30.6576C67.9595 30.4679 67.8656 30.373 67.7717 30.2782C67.6779 30.1833 67.4901 30.1833 67.3024 30.1833H66.6453V31.1319Z" fill="black"/>
<path d="M69.4613 31.6062V28.2862H70.1184V30.2782C70.1184 30.4679 70.1184 30.6576 70.1184 30.7525C70.1184 30.6576 70.2122 30.5627 70.4 30.2782L71.808 28.2862H72.465V31.6062H71.808V29.6142C71.808 29.5193 71.808 29.4245 71.808 29.3296C71.808 29.2348 71.808 29.1399 71.808 29.1399C71.808 29.1399 71.7141 29.3296 71.5264 29.6142L70.1184 31.6062H69.4613Z" fill="black"/>
<path d="M74.1546 31.6062V28.7605H73.0282V28.1913H75.9381V28.7605H74.8117V31.6062H74.1546Z" fill="black"/>
<path d="M76.5952 31.6062V28.2862H77.2522V30.2782C77.2522 30.4679 77.2522 30.6576 77.2522 30.7525C77.2522 30.6576 77.3461 30.5627 77.5338 30.2782L78.9418 28.2862H79.5989V31.6062H78.9418V29.6142C78.9418 29.5193 78.9418 29.4245 78.9418 29.3296C78.9418 29.2348 78.9418 29.1399 78.9418 29.1399C78.9418 29.1399 78.848 29.3296 78.6602 29.6142L77.2522 31.6062H76.5952Z" fill="black"/>
<path d="M80.1621 31.6062L80.913 30.4679L81.1008 30.2782C80.913 30.1833 80.7253 30.0885 80.6314 29.8988C80.5376 29.709 80.4437 29.5193 80.4437 29.2348C80.4437 28.8553 80.5376 28.6656 80.7253 28.4759C80.913 28.2862 81.1946 28.1913 81.5701 28.1913H82.8842V31.5113H82.2272V30.2782H81.664L80.8192 31.5113H80.1621V31.6062ZM81.7578 29.8988H82.321V28.6656H81.7578C81.2885 28.6656 81.1008 28.8553 81.1008 29.2348C81.1008 29.4245 81.1946 29.6142 81.2885 29.709C81.3824 29.8039 81.4762 29.8988 81.7578 29.8988Z" fill="black"/>
</svg>
