<svg width="36" height="43" viewBox="0 0 36 43" fill="none" xmlns="http://www.w3.org/2000/svg">
<path d="M0.870789 42.4674V37.2674H1.57079V39.5674H4.27079V37.2674H4.97079V42.4674H4.27079V40.1674H1.57079V42.4674H0.870789Z" fill="black"/>
<path d="M5.97076 41.4674C5.97076 41.1674 6.07076 40.9674 6.17076 40.7674C6.37076 40.5674 6.57076 40.4674 6.77076 40.3674C7.07076 40.2674 7.27076 40.2674 7.47076 40.1674C7.67076 40.0674 7.87076 40.1674 8.17076 40.1674H8.37076V40.0674C8.37076 39.5674 8.07076 39.2674 7.57076 39.2674C7.17076 39.2674 6.87076 39.3674 6.57076 39.6674L6.27076 39.1674C6.37076 38.9674 6.57076 38.8674 6.87076 38.8674C7.17076 38.7674 7.37076 38.7674 7.67076 38.7674C8.17076 38.7674 8.47076 38.8674 8.77076 39.1674C9.07076 39.4674 9.17076 39.7674 9.17076 40.2674V42.6674H8.37076V42.2674V41.9674C8.27076 42.1674 8.07076 42.3674 7.87076 42.4674C7.67076 42.5674 7.37076 42.6674 7.17076 42.6674C6.87076 42.6674 6.57076 42.5674 6.27076 42.3674C6.07076 42.0674 5.97076 41.8674 5.97076 41.4674ZM6.67076 41.4674C6.67076 41.6674 6.77076 41.7674 6.87076 41.8674C6.97076 41.9674 7.17076 42.0674 7.37076 42.0674C7.67076 42.0674 7.87076 41.9674 8.07076 41.6674C8.27076 41.3674 8.37076 41.1674 8.37076 40.8674V40.7674H8.17076C7.17076 40.6674 6.67076 40.9674 6.67076 41.4674Z" fill="black"/>
<path d="M9.77081 42.5674V41.9674C10.0708 41.9674 10.2708 41.7674 10.3708 41.4674C10.4708 41.1674 10.5708 40.6674 10.5708 40.0674V38.9674H13.0708V42.6674H12.3708V39.5674H11.2708V39.9674C11.2708 40.8674 11.1708 41.4674 10.8708 41.8674C10.6708 42.2674 10.2708 42.4674 9.77081 42.5674Z" fill="black"/>
<path d="M14.1708 42.4674V38.7674H14.8708V40.9674C14.8708 41.2674 14.8708 41.3674 14.8708 41.4674C14.8708 41.3674 14.9708 41.2674 15.1708 40.9674L16.7708 38.7674H17.4708V42.4674H16.7708V40.2674C16.7708 40.1674 16.7708 40.0674 16.7708 39.9674C16.7708 39.8674 16.7708 39.7674 16.7708 39.7674C16.7708 39.7674 16.6708 39.9674 16.4708 40.2674L14.8708 42.4674H14.1708Z" fill="black"/>
<path d="M19.5708 41.1674C19.1708 41.1674 18.8708 41.0674 18.6708 40.8674C18.4708 40.6674 18.3708 40.3674 18.3708 39.9674V38.7674H19.0708V39.8674C19.0708 40.0674 19.1708 40.2674 19.2708 40.3674C19.3708 40.4674 19.5708 40.5674 19.8708 40.5674C20.1708 40.5674 20.4708 40.4674 20.6708 40.2674V38.7674H21.3708V42.4674H20.6708V41.1674V40.9674C20.2708 41.1674 19.9708 41.1674 19.5708 41.1674Z" fill="black"/>
<path d="M22.3708 42.4674V38.7674H23.0708V40.2674H24.9708V38.7674H25.6708V42.4674H24.9708V40.8674H23.0708V42.4674H22.3708Z" fill="black"/>
<path d="M26.8708 42.4674V38.7674H27.5708V40.0674H28.2708C28.6708 40.0674 28.9708 40.1674 29.2708 40.3674C29.4708 40.5674 29.6708 40.8674 29.6708 41.2674C29.6708 41.6674 29.5708 41.9674 29.3708 42.1674C29.1708 42.3674 28.7708 42.4674 28.3708 42.4674H26.8708ZM27.5708 41.9674H28.1708C28.3708 41.9674 28.5708 41.8674 28.7708 41.7674C28.8708 41.6674 28.9708 41.4674 28.9708 41.2674C28.9708 41.0674 28.8708 40.9674 28.7708 40.8674C28.6708 40.7674 28.4708 40.6674 28.1708 40.6674H27.5708V41.9674ZM30.1708 42.4674V38.7674H30.8708V42.4674H30.1708Z" fill="black"/>
<path d="M31.7708 40.6674C31.7708 40.0674 31.9708 39.5674 32.2708 39.2674C32.5708 38.9674 33.0708 38.7674 33.5708 38.7674C34.0708 38.7674 34.4708 38.9674 34.7708 39.2674C35.0708 39.5674 35.1708 39.9674 35.1708 40.4674C35.1708 40.5674 35.1708 40.6674 35.1708 40.7674H32.4708C32.4708 41.1674 32.6708 41.4674 32.8708 41.6674C33.0708 41.8674 33.3708 41.9674 33.7708 41.9674C34.1708 41.9674 34.5708 41.8674 34.8708 41.5674L35.1708 42.0674C34.9708 42.2674 34.7708 42.3674 34.4708 42.4674C34.1708 42.5674 33.9708 42.5674 33.6708 42.5674C33.0708 42.5674 32.5708 42.3674 32.2708 41.9674C31.9708 41.6674 31.7708 41.1674 31.7708 40.6674ZM32.5708 40.2674H34.5708C34.5708 39.9674 34.4708 39.7674 34.2708 39.5674C34.0708 39.3674 33.8708 39.2674 33.6708 39.2674C33.3708 39.2674 33.1708 39.3674 32.9708 39.5674C32.6708 39.6674 32.5708 39.9674 32.5708 40.2674Z" fill="black"/>
<path d="M34.1708 17.0674C34.1708 26.0674 26.8708 33.3674 17.8708 33.3674C8.8708 33.3674 1.5708 26.0674 1.5708 17.0674C1.5708 8.0674 8.8708 0.767395 17.8708 0.767395C26.8708 0.767395 34.1708 8.0674 34.1708 17.0674Z" fill="#BFD6B2"/>
<path d="M15.0708 21.9674C14.5708 21.9674 14.0708 21.9674 13.5708 21.9674C13.1708 21.9674 12.7708 21.6674 12.7708 21.1674C12.7708 20.7674 13.0708 20.3674 13.5708 20.3674C13.8708 20.3674 14.1708 20.3674 14.4708 20.3674C14.6708 20.3674 14.8708 20.3674 15.0708 20.3674C15.0708 19.5674 15.0708 18.8674 15.0708 18.0674C14.8708 18.0674 14.5708 18.0674 14.3708 18.0674C14.0708 18.0674 13.8708 18.0674 13.5708 18.0674C13.0708 18.0674 12.7708 17.7674 12.7708 17.2674C12.7708 16.7674 13.0708 16.4674 13.5708 16.4674C14.0708 16.4674 14.5708 16.4674 15.0708 16.4674C15.0708 16.3674 15.0708 16.2674 15.0708 16.1674C15.0708 13.9674 15.0708 11.7674 15.0708 9.66739C15.0708 9.06739 15.3708 8.7674 15.9708 8.7674C17.1708 8.7674 18.3708 8.7674 19.6708 8.7674C21.9708 8.7674 23.8708 10.3674 24.2708 12.5674C24.7708 15.0674 22.8708 17.6674 20.2708 17.9674C19.9708 17.9674 19.7708 17.9674 19.4708 17.9674C18.4708 17.9674 17.5708 17.9674 16.5708 17.9674C16.5708 18.7674 16.5708 19.4674 16.5708 20.2674C16.6708 20.2674 16.7708 20.2674 16.8708 20.2674C17.5708 20.2674 18.1708 20.2674 18.8708 20.2674C19.3708 20.2674 19.6708 20.5674 19.6708 21.0674C19.6708 21.4674 19.3708 21.8674 18.8708 21.8674C18.0708 21.8674 17.3708 21.8674 16.5708 21.8674C16.5708 21.9674 16.5708 22.0674 16.5708 22.1674C16.5708 23.0674 16.5708 23.9674 16.5708 24.8674C16.5708 25.4674 16.2708 25.7674 15.7708 25.7674C15.2708 25.7674 14.9708 25.3674 14.9708 24.8674C15.0708 23.9674 15.0708 23.0674 15.0708 21.9674C15.0708 22.0674 15.0708 22.0674 15.0708 21.9674ZM16.6708 16.5674C16.7708 16.5674 16.7708 16.5674 16.7708 16.5674C17.7708 16.5674 18.7708 16.5674 19.8708 16.5674C20.0708 16.5674 20.2708 16.5674 20.4708 16.4674C21.9708 16.0674 23.0708 14.6674 22.8708 13.1674C22.6708 11.5674 21.3708 10.3674 19.7708 10.3674C18.7708 10.3674 17.8708 10.3674 16.8708 10.3674C16.7708 10.3674 16.7708 10.3674 16.6708 10.3674C16.6708 12.4674 16.6708 14.4674 16.6708 16.5674Z" fill="#1E332E"/>
</svg>
