<svg width="85" height="43" viewBox="0 0 85 43" fill="none" xmlns="http://www.w3.org/2000/svg">
<path d="M21.469 42.7044C33.0814 42.7044 42.4951 33.1914 42.4951 21.4566C42.4951 9.72171 33.0814 0.20874 21.469 0.20874C9.85658 0.20874 0.442871 9.72171 0.442871 21.4566C0.442871 33.1914 9.85658 42.7044 21.469 42.7044Z" fill="#C0D7B4"/>
<path d="M21.469 32.4599C21.2813 32.4599 21.0935 32.4599 20.9058 32.4599C19.4039 32.365 18.0898 31.037 17.6205 30.373C16.9634 29.2348 16.6818 28.0016 16.8695 26.5788C17.0573 24.5868 17.8082 24.2074 18.5591 23.8279C18.9346 23.6382 19.2162 23.5434 19.4978 23.5434C19.4039 22.4051 20.5303 21.6463 21.1874 21.3617C21.469 21.2668 21.8445 21.3617 21.9383 21.6463C22.0322 21.9308 21.9383 22.3102 21.6567 22.4051C21.6567 22.4051 20.4365 22.9742 20.6242 23.6382C20.8119 24.2074 21.1874 24.3022 21.6567 24.3022C21.7506 24.3022 21.9383 24.3022 21.9383 24.3022C22.0322 24.3022 22.1261 24.3022 22.4077 24.3022C24.0034 24.3971 24.8482 24.5868 25.1298 24.9662L25.2237 25.0611C25.693 25.5354 26.0684 26.0096 25.9746 27.3376C25.9746 28.5708 25.693 29.8987 24.5666 31.1319C23.8156 32.0804 22.7831 32.4599 21.469 32.4599ZM19.9671 24.5868C19.7794 24.5868 19.4039 24.6817 19.0285 24.8714C18.5591 25.0611 18.0898 25.2508 17.9959 26.7685C17.8082 28.4759 18.4653 29.5193 18.653 29.8987C18.9346 30.373 20.061 31.3216 20.9997 31.4165C22.2199 31.5113 23.1586 31.2267 23.9095 30.4679C24.6605 29.709 24.942 28.8553 25.0359 27.4325C25.0359 26.4839 24.8482 26.2942 24.5666 25.9148C24.4727 25.8199 24.4727 25.8199 24.4727 25.7251C24.285 25.5354 22.877 25.4405 22.4077 25.4405C22.1261 25.4405 21.9383 25.4405 21.8445 25.3456C21.8445 25.3456 21.7506 25.3456 21.6567 25.3456C21.2813 25.3456 20.5303 25.3456 19.9671 24.5868Z" fill="#1E332E"/>
<path d="M27.7581 19.0851C26.8194 19.0851 26.444 18.7057 26.3501 18.6109C26.1624 18.3263 26.1623 18.0417 26.4439 17.852C26.6317 17.6623 27.0071 17.6623 27.1949 17.852C27.1949 17.852 27.3826 17.9469 27.7581 17.9469C28.2274 17.9469 28.4151 17.852 28.4151 17.852C28.6029 17.6623 28.9784 17.6623 29.1661 17.852C29.3538 18.0417 29.3538 18.4211 29.1661 18.7057C29.0722 18.7057 28.6968 19.0851 27.7581 19.0851Z" fill="#1E332E"/>
<path d="M16.1187 19.3697C15.18 19.3697 14.8045 18.9903 14.7107 18.8954C14.5229 18.6109 14.5229 18.3263 14.8045 18.1366C14.9923 17.9469 15.3678 17.9469 15.5555 18.1366C15.5555 18.1366 15.7432 18.2314 16.1187 18.2314C16.588 18.2314 16.7757 18.1366 16.7757 18.1366C16.9635 17.9469 17.3389 17.9469 17.5267 18.1366C17.7144 18.3263 17.7144 18.7057 17.5267 18.9903C17.4328 18.9903 17.0573 19.3697 16.1187 19.3697Z" fill="#1E332E"/>
<path d="M21.4691 29.8987C20.5304 29.8987 20.1549 29.5193 20.0611 29.4244C19.8733 29.1399 19.8733 28.8553 20.1549 28.6656C20.3427 28.4759 20.7181 28.4759 20.9059 28.6656C20.9059 28.6656 21.0936 28.7605 21.4691 28.7605C21.9384 28.7605 22.1261 28.6656 22.1261 28.6656C22.3139 28.4759 22.6893 28.4759 22.8771 28.6656C23.0648 28.8553 23.0648 29.2347 22.8771 29.5193C22.7832 29.6142 22.4077 29.8987 21.4691 29.8987Z" fill="#1E332E"/>
<path d="M15.5555 30.7525C14.8984 30.7525 14.3352 30.6576 14.2413 30.5628C13.9597 30.4679 13.772 30.1833 13.8658 29.8988C13.8658 29.8039 14.2413 28.4759 14.9923 27.5274C15.8371 26.5788 17.3389 26.6736 17.5266 26.7685C17.8082 26.7685 18.0898 27.0531 17.996 27.4325C17.996 27.7171 17.7144 28.0016 17.3389 27.9068C17.0573 27.9068 16.2125 27.9068 15.7432 28.2862C15.4616 28.6656 15.18 29.1399 15.0861 29.5193C15.3677 29.5193 15.7432 29.5193 16.1186 29.5193C16.588 29.4245 17.1512 28.8553 17.3389 28.7605C17.5267 28.5708 17.9021 28.4759 18.0898 28.6656C18.2776 28.8553 18.3715 29.2348 18.1837 29.4245C18.0899 29.5193 17.3389 30.373 16.4003 30.5628C16.1187 30.7525 15.8371 30.7525 15.5555 30.7525Z" fill="#1E332E"/>
<path d="M27.5703 30.8473C27.1949 30.8473 26.8194 30.8473 26.5378 30.7525C25.693 30.4679 24.9421 29.4245 24.8482 29.3296C24.6605 29.045 24.7543 28.7605 25.0359 28.5708C25.3175 28.381 25.5992 28.4759 25.7869 28.7605C26.0685 29.1399 26.5378 29.709 26.8194 29.8039C27.101 29.8988 27.5703 29.8988 27.9458 29.8988C27.8519 29.709 27.7581 29.4245 27.5703 29.045C27.0071 27.8119 25.7869 28.0965 25.5991 28.0965C25.3175 28.1913 25.036 28.0016 24.9421 27.7171C24.8482 27.4325 25.036 27.1479 25.3176 27.0531C26.0685 26.8633 27.7581 26.8633 28.509 28.5708C29.0722 29.709 29.1661 30.1833 29.1661 30.1833C29.1661 30.373 29.1661 30.4679 29.0722 30.6576C28.9784 30.7525 28.8845 30.8473 28.6968 30.9422C28.7906 30.7525 28.2274 30.8473 27.5703 30.8473Z" fill="#1E332E"/>
<path d="M14.8045 35.2107C14.429 35.2107 14.2413 34.9261 14.2413 34.5467C14.2413 34.4518 14.7106 31.3216 21.469 31.3216C28.1335 31.3216 28.509 34.1673 28.6029 34.4518C28.6029 34.7364 28.4151 35.021 28.1335 35.021C27.8519 35.021 27.5703 34.8312 27.5703 34.5467C27.5703 34.5467 27.1949 32.4598 21.5629 32.4598C15.837 32.4598 15.3677 34.6415 15.3677 34.7364C15.3677 35.021 15.0861 35.2107 14.8045 35.2107Z" fill="#1E332E"/>
<path d="M26.444 27.9068C26.3501 27.9068 26.2562 27.9067 26.2562 27.8119C25.9746 27.717 25.8808 27.3376 25.9746 27.053C25.9746 27.053 26.7256 25.2508 26.0685 23.5434C25.5053 22.1205 23.9096 20.6977 21.5629 20.6977C19.3101 20.6977 17.9021 21.5514 17.0573 23.4485C16.3064 25.2508 17.1512 27.053 17.1512 27.053C17.245 27.3376 17.1512 27.717 16.8696 27.8119C16.588 27.9067 16.3064 27.8119 16.1186 27.5273C16.1186 27.4325 15.0861 25.2508 16.0248 22.9742C17.0573 20.6028 18.8408 19.4645 21.5629 19.4645C24.4728 19.4645 26.5378 21.2668 27.1949 23.0691C28.0397 25.2508 27.101 27.3376 27.101 27.4325C26.9133 27.717 26.7256 27.9068 26.444 27.9068Z" fill="#1E332E"/>
<path d="M13.8658 27.0531C13.772 27.0531 13.6781 27.0531 13.5842 26.9582C13.3965 26.8633 13.3026 26.7685 13.3026 26.5788L12.364 23.164C12.2701 22.8794 12.4578 22.5948 12.7394 22.5C13.021 22.4051 13.3026 22.5948 13.3965 22.8794L14.1474 25.6302L15.7432 24.9662C16.0248 24.8714 16.4002 24.9662 16.4941 25.2508C16.588 25.5354 16.4941 25.9148 16.2125 26.0096L13.9597 26.9582C14.0536 27.0531 13.9597 27.0531 13.8658 27.0531Z" fill="#1E332E"/>
<path d="M16.0248 25.1559C15.8371 25.1559 15.7432 25.0611 15.6493 24.9662L13.9597 23.2588C13.8659 23.1639 13.772 22.9742 13.772 22.8794V20.6028C13.772 20.3183 14.0536 20.0337 14.3352 20.0337C14.6168 20.0337 14.8984 20.3183 14.8984 20.6028V22.6897L16.4003 24.2074C16.588 24.3971 16.588 24.7765 16.4003 24.9662C16.3064 25.1559 16.2125 25.1559 16.0248 25.1559Z" fill="#1E332E"/>
<path d="M18.8408 35.2107H8.04612C7.76452 35.2107 7.48291 34.9261 7.48291 34.6416V28.1913C7.48291 27.9068 7.29517 26.0096 8.79704 24.3971C10.3928 22.6897 14.1474 22.3102 14.2413 22.3102C14.5229 22.3102 14.8045 22.5 14.8984 22.7845C14.8984 23.0691 14.7106 23.3537 14.429 23.4485C13.4904 23.5434 10.7682 24.1125 9.64183 25.2508C8.42157 26.5788 8.60929 28.0965 8.60929 28.0965V28.1913V34.0724H18.8408C19.1224 34.0724 19.404 34.357 19.404 34.6416C19.404 34.9261 19.1224 35.2107 18.8408 35.2107Z" fill="#1E332E"/>
<path d="M27.7581 21.172C25.1298 21.172 24.0034 19.18 23.7218 18.4211C23.6279 17.9469 23.4402 16.0497 23.7218 14.532C23.9095 13.2989 24.942 12.54 25.5052 12.1606C25.5052 12.0658 25.4114 11.9709 25.4114 11.876C25.3175 11.5915 25.5053 11.3069 25.7869 11.2121C26.0685 11.1172 26.35 11.3069 26.4439 11.5915C26.5378 11.876 26.8194 12.7298 27.1949 13.1092C27.5703 13.4886 28.6967 13.6783 28.8844 13.6783C28.8844 13.6783 28.9783 13.6783 29.0722 13.6783C29.4477 13.6783 30.2925 13.5835 30.9495 13.868C31.7005 14.2475 31.7943 15.0063 31.7943 15.3857V18.0417C31.7943 18.1366 31.7943 18.2314 31.7943 18.2314C31.7005 18.4211 30.5741 21.172 27.7581 21.172ZM25.9746 13.204C25.5991 13.4886 24.9421 13.9629 24.8482 14.7217C24.5666 16.0497 24.7543 17.852 24.8482 18.0417C24.8482 18.0417 25.5053 19.9388 27.7581 19.9388C29.5415 19.9388 30.4802 18.3263 30.6679 17.852V15.3857V15.2909C30.6679 15.196 30.6679 15.0063 30.4802 14.9114C30.1047 14.7217 29.5415 14.8166 29.2599 14.8166C29.166 14.8166 29.0722 14.8166 28.9783 14.8166C28.6967 14.8166 27.1949 14.6269 26.5378 13.868C26.3501 13.7732 26.1623 13.4886 25.9746 13.204Z" fill="#1E332E"/>
<path d="M29.6354 23.0691C29.3538 23.0691 29.1661 22.8794 29.0722 22.5948L28.509 20.4131C28.4152 20.1285 28.6029 19.844 28.8845 19.7491C29.1661 19.6542 29.4477 19.844 29.5416 20.1285L30.1048 22.3102C30.1986 22.5948 30.0109 22.8794 29.7293 22.9742C29.7293 23.0691 29.6354 23.0691 29.6354 23.0691Z" fill="#1E332E"/>
<path d="M34.9858 35.2107H23.7218C23.4402 35.2107 23.1586 34.9261 23.1586 34.6415C23.1586 34.357 23.4402 34.0724 23.7218 34.0724H34.4226V26.4839C34.4226 26.389 34.3288 24.7765 32.733 23.8279C31.325 22.9742 30.1986 22.9742 29.8232 23.0691C29.5416 23.3536 28.6968 23.9228 27.7581 23.9228C26.5379 23.9228 25.5992 22.6896 25.4115 22.4999C25.3176 22.4051 25.2237 22.2154 25.3176 22.0257L25.7869 20.1285C25.8808 19.844 26.1624 19.6542 26.444 19.7491C26.7256 19.844 26.9133 20.1285 26.8194 20.4131L26.3501 22.0257C26.6317 22.3102 27.101 22.7845 27.5704 22.7845C28.3213 22.7845 28.9784 22.1205 28.9784 22.1205C29.0722 22.0257 29.1661 22.0257 29.26 21.9308C29.3538 21.9308 31.0434 21.5514 33.1085 22.8794C35.2674 24.2073 35.2674 26.389 35.2674 26.4839V34.6415C35.549 34.9261 35.2674 35.2107 34.9858 35.2107Z" fill="#1E332E"/>
<path d="M33.2023 23.6382C32.9207 23.6382 32.6391 23.3537 32.6391 23.0691V13.6783C32.5453 13.3937 32.076 10.8326 30.0109 10.1686C27.7581 9.40978 26.6317 10.4532 26.6317 10.4532C26.5378 10.5481 26.444 10.5481 26.2562 10.6429C25.8808 10.6429 24.7543 10.8326 24.1911 11.3069C23.7218 11.6863 23.0648 12.4452 23.0648 13.2989V19.9388C23.0648 20.2234 22.7832 20.508 22.5016 20.508C22.22 20.508 21.9384 20.2234 21.9384 19.9388V13.2989C21.9384 12.2555 22.5016 11.3069 23.4402 10.4532C24.1912 9.7892 25.5053 9.59949 25.9746 9.50463C26.4439 9.12521 27.9458 8.2715 30.2925 9.03035C33.2023 9.97892 33.7656 13.3937 33.7656 13.4886V13.5835V22.9742C33.7656 23.4485 33.4839 23.6382 33.2023 23.6382Z" fill="#1E332E"/>
<path d="M16.1186 21.5514C13.2087 21.5514 12.0823 19.18 11.9885 17.852C11.9885 17.852 11.9885 17.852 11.9885 17.7572V13.6783C11.9885 13.3938 12.2701 13.1092 12.5517 13.1092C12.8333 13.1092 13.1149 13.3938 13.1149 13.6783V17.7572C13.2087 18.0417 13.5842 20.4131 16.1186 20.4131C18.653 20.4131 19.1223 18.0417 19.2162 17.7572V14.9115C18.653 14.532 17.245 13.3938 17.1511 13.2989C16.8695 13.1092 16.8695 12.7298 17.0573 12.5401C17.245 12.2555 17.6205 12.2555 17.8082 12.4452C17.9959 12.5401 20.1549 14.2475 20.1549 14.2475C20.2487 14.3423 20.3426 14.532 20.3426 14.7218V17.852V17.9469C20.1549 19.18 19.0285 21.5514 16.1186 21.5514Z" fill="#1E332E"/>
<path d="M13.0211 14.3423C12.8333 14.3423 12.6456 14.3423 12.4579 14.3423C12.1763 14.3423 11.8947 14.0577 11.8947 13.7732C11.8947 13.4886 12.1763 13.204 12.4579 13.204C14.9923 13.2989 17.1512 12.3503 17.1512 12.3503C17.4328 12.2555 17.8083 12.3503 17.9021 12.6349C17.996 12.9195 17.9021 13.2989 17.6205 13.3937C17.6205 13.4886 15.5555 14.3423 13.0211 14.3423Z" fill="#1E332E"/>
<path d="M12.2701 17.852C12.1762 17.852 11.9885 17.852 11.8946 17.7571C11.8007 17.6623 9.17249 15.4806 9.17249 12.4452C9.17249 10.7378 10.6744 9.88406 11.0498 9.5995C11.3314 9.40978 11.5191 9.31493 11.5191 9.31493C11.8007 8.84065 13.021 7.22809 15.6493 7.22809H15.7431C18.0898 7.22809 20.6242 7.51266 20.9997 9.5995C21.0935 9.88406 20.9058 10.1686 20.5303 10.2635C20.2487 10.3583 19.9671 10.1686 19.8733 9.78921C19.6855 8.74579 18.5591 8.36636 15.6493 8.27151H15.5554C13.3026 8.27151 12.3639 9.88406 12.3639 9.88406L12.2701 9.97892C12.1762 10.0738 11.8946 10.2635 11.4253 10.4532C11.1437 10.6429 10.1112 11.2121 10.1112 12.2555C10.1112 14.8166 12.3639 16.7137 12.4578 16.7137C12.7394 16.9034 12.7394 17.2829 12.5517 17.4726C12.6456 17.7571 12.4578 17.852 12.2701 17.852Z" fill="#1E332E"/>
<path d="M20.1549 17.2828C20.0611 17.2828 19.8733 17.188 19.7795 17.0931C19.5917 16.9034 19.4979 16.524 19.7795 16.3343C20.812 15.196 21.9384 13.6783 21.9384 13.1092C21.9384 12.3503 21.4691 11.4966 21.1875 11.0223L21.0936 10.8326C20.9997 10.6429 20.6242 10.3583 20.3426 10.1686C20.061 9.97891 20.0611 9.59949 20.1549 9.40977C20.3427 9.1252 20.7181 9.12521 20.9059 9.22006C20.9997 9.31492 21.7507 9.7892 21.9384 10.2635L22.0323 10.4532C22.3139 11.0223 22.8771 11.9709 22.9709 13.0143C23.0648 14.2474 21.0936 16.4291 20.5304 16.9983C20.4365 17.188 20.3427 17.2828 20.1549 17.2828Z" fill="#1E332E"/>
<path d="M10.7684 30.6576H8.0463C7.7647 30.6576 7.48309 30.373 7.48309 30.0885C7.48309 29.8039 7.7647 29.5193 8.0463 29.5193H10.7684C11.05 29.5193 11.3316 29.8039 11.3316 30.0885C11.3316 30.373 11.05 30.6576 10.7684 30.6576Z" fill="#1E332E"/>
<path d="M34.9858 30.6576H32.2637C31.9821 30.6576 31.7005 30.373 31.7005 30.0885C31.7005 29.8039 31.9821 29.5193 32.2637 29.5193H34.9858C35.2674 29.5193 35.549 29.8039 35.549 30.0885C35.549 30.373 35.3613 30.6576 34.9858 30.6576Z" fill="#1E332E"/>
<path d="M10.7682 35.2107C10.4866 35.2107 10.205 34.9261 10.205 34.6415V27.9068C10.205 27.6222 10.4866 27.3376 10.7682 27.3376C11.0498 27.3376 11.3314 27.6222 11.3314 27.9068V34.6415C11.3314 34.9261 11.0498 35.2107 10.7682 35.2107Z" fill="#1E332E"/>
<path d="M32.2637 35.2107C31.9821 35.2107 31.7005 34.9261 31.7005 34.6415V27.9068C31.7005 27.6222 31.9821 27.3376 32.2637 27.3376C32.5453 27.3376 32.8269 27.6222 32.8269 27.9068V34.6415C32.8269 34.9261 32.5453 35.2107 32.2637 35.2107Z" fill="#1E332E"/>
<path d="M21.2813 35.2107C21.5923 35.2107 21.8445 34.9559 21.8445 34.6416C21.8445 34.3272 21.5923 34.0724 21.2813 34.0724C20.9702 34.0724 20.7181 34.3272 20.7181 34.6416C20.7181 34.9559 20.9702 35.2107 21.2813 35.2107Z" fill="#1E332E"/>
<path d="M50.286 15.2909V14.7217L52.6327 13.6783L50.286 12.6349V12.0658L53.3836 13.4886V13.9629L50.286 15.2909Z" fill="black"/>
<path d="M55.6365 15.6703V15.1011H56.669V12.0657V11.7812C56.669 11.876 56.5751 11.9709 56.4813 12.0657L56.0119 12.4452L55.6365 12.0657L56.7629 11.0223H57.3261V15.1011H58.3586V15.6703H55.6365Z" fill="black"/>
<path d="M59.1095 15.6703L60.893 11.9709C60.893 11.876 60.9869 11.7812 60.9869 11.7812C60.9869 11.7812 61.0807 11.6863 61.0807 11.5914C60.9869 11.5914 60.893 11.5914 60.7991 11.5914H58.7341V11.0223H61.8317V11.4966L59.7666 15.7651H59.1095V15.6703Z" fill="black"/>
<path d="M62.3948 15.1011L62.7703 14.6268C63.0519 15.0063 63.4274 15.1011 63.8028 15.1011C64.0844 15.1011 64.366 15.0063 64.5538 14.8166C64.7415 14.6268 64.8354 14.4371 64.8354 14.1526C64.8354 13.868 64.7415 13.6783 64.5538 13.4886C64.366 13.2989 64.0844 13.204 63.8028 13.204C63.5212 13.204 63.2396 13.2989 63.0519 13.3937L62.6764 13.2989L62.8642 11.0223H65.2108V11.5914H63.4274L63.3335 12.54V12.8246C63.5212 12.7297 63.709 12.7297 63.8967 12.7297C64.366 12.7297 64.7415 12.9194 65.0231 13.204C65.3047 13.4886 65.4924 13.868 65.4924 14.3423C65.4924 14.8166 65.3047 15.196 65.0231 15.4806C64.7415 15.7651 64.2722 15.9548 63.8967 15.9548C63.6151 15.9548 63.3335 15.86 63.1458 15.7651C62.7703 15.3857 62.5826 15.2908 62.3948 15.1011Z" fill="black"/>
<path d="M69.4349 15.6703C69.1533 15.6703 68.8716 15.5754 68.6839 15.4806C68.4962 15.3857 68.3084 15.196 68.2146 14.9114C68.1207 14.7217 68.0269 14.4372 67.933 14.1526C67.8391 13.868 67.8391 13.5834 67.8391 13.204C67.8391 12.8246 67.8391 12.54 67.933 12.2555C68.0269 11.9709 68.1207 11.6863 68.2146 11.4966C68.3084 11.3069 68.4962 11.1172 68.6839 11.0223C68.8716 10.9275 69.1533 10.8326 69.4349 10.8326C70.5613 10.8326 71.1244 11.5915 71.1244 13.204C71.1244 14.9114 70.5613 15.6703 69.4349 15.6703ZM69.4349 15.1011C70.0919 15.1011 70.3735 14.532 70.3735 13.2989C70.3735 12.0657 70.0919 11.4966 69.4349 11.4966C68.7778 11.4966 68.4962 12.0657 68.4962 13.2989C68.4962 14.532 68.7778 15.1011 69.4349 15.1011Z" fill="black"/>
<path d="M73.565 15.6703C73.2834 15.6703 73.0018 15.5754 72.8141 15.4806C72.6263 15.3857 72.4386 15.196 72.3447 14.9114C72.2509 14.7217 72.157 14.4372 72.0631 14.1526C71.9692 13.868 71.9692 13.5834 71.9692 13.204C71.9692 12.8246 71.9692 12.54 72.0631 12.2555C72.157 11.9709 72.2509 11.6863 72.3447 11.4966C72.4386 11.3069 72.6263 11.1172 72.8141 11.0223C73.0018 10.9275 73.2834 10.8326 73.565 10.8326C74.6914 10.8326 75.2546 11.5915 75.2546 13.204C75.1607 14.9114 74.5975 15.6703 73.565 15.6703ZM73.565 15.1011C74.222 15.1011 74.5036 14.532 74.5036 13.2989C74.5036 12.0657 74.222 11.4966 73.565 11.4966C72.9079 11.4966 72.6263 12.0657 72.6263 13.2989C72.5324 14.532 72.9079 15.1011 73.565 15.1011Z" fill="black"/>
<path d="M77.6012 15.6703C77.3196 15.6703 77.038 15.5754 76.8503 15.4806C76.6626 15.3857 76.4748 15.196 76.381 14.9114C76.2871 14.7217 76.1932 14.4372 76.0994 14.1526C76.0055 13.868 76.0055 13.5834 76.0055 13.204C76.0055 12.8246 76.0055 12.54 76.0994 12.2555C76.1932 11.9709 76.2871 11.6863 76.381 11.4966C76.4748 11.3069 76.6626 11.1172 76.8503 11.0223C77.038 10.9275 77.3196 10.8326 77.6012 10.8326C78.7276 10.8326 79.2908 11.5915 79.2908 13.204C79.2908 14.9114 78.7276 15.6703 77.6012 15.6703ZM77.6012 15.1011C78.2583 15.1011 78.5399 14.532 78.5399 13.2989C78.5399 12.0657 78.2583 11.4966 77.6012 11.4966C76.9441 11.4966 76.6625 12.0657 76.6625 13.2989C76.6625 14.532 76.9441 15.1011 77.6012 15.1011Z" fill="black"/>
<path d="M49.9106 23.0691H50.2861C50.6615 22.5948 50.8492 21.836 50.8492 20.8874V20.2234H53.1021V23.0691H53.5714V24.3971H53.0082V23.6382H50.5677V24.3971H50.0045V23.0691H49.9106ZM51.037 23.0691H52.5389V20.7926H51.5063V20.9823C51.5063 21.836 51.3186 22.5948 51.037 23.0691Z" fill="black"/>
<path d="M54.0408 21.9308C54.0408 21.4566 54.2285 20.9823 54.6039 20.6977C54.9794 20.3183 55.3549 20.2234 55.9181 20.2234C56.3874 20.2234 56.8568 20.4131 57.2322 20.6977C57.6077 21.0771 57.7954 21.4566 57.7954 21.9308C57.7954 22.4051 57.6077 22.8794 57.2322 23.164C56.8568 23.5434 56.4813 23.6382 55.9181 23.6382C55.3549 23.6382 54.9794 23.4485 54.6039 23.164C54.2285 22.8794 54.0408 22.4051 54.0408 21.9308ZM54.6978 21.9308C54.6978 22.3103 54.7917 22.5948 55.0733 22.7845C55.261 22.9743 55.5426 23.164 55.9181 23.164C56.1997 23.164 56.4813 23.0691 56.7629 22.7845C56.9506 22.5948 57.1384 22.3103 57.1384 21.9308C57.1384 21.5514 57.0445 21.2668 56.7629 21.0771C56.5752 20.8874 56.2936 20.6977 55.9181 20.6977C55.6365 20.6977 55.3549 20.7926 55.0733 21.0771C54.7917 21.2668 54.6978 21.5514 54.6978 21.9308Z" fill="black"/>
<path d="M58.3585 23.6382V20.3183H59.7665C60.142 20.3183 60.4236 20.4131 60.6113 20.508C60.7991 20.6977 60.8929 20.8874 60.8929 21.172C60.8929 21.3617 60.8929 21.4565 60.7991 21.6463C60.7052 21.836 60.6113 21.836 60.4236 21.9308C60.6113 22.0257 60.7991 22.1205 60.8929 22.2154C60.9868 22.4051 61.0807 22.5 61.0807 22.6897C61.0807 22.9742 60.9868 23.2588 60.7052 23.3537C60.5175 23.5434 60.142 23.6382 59.8604 23.6382H58.3585ZM59.0156 21.6463H59.6727C59.8604 21.6463 60.0481 21.6463 60.142 21.5514C60.2359 21.4565 60.3297 21.3617 60.3297 21.172C60.3297 20.8874 60.142 20.6977 59.7665 20.6977H59.2033V21.6463H59.0156ZM59.0156 23.164H59.6727C59.8604 23.164 60.0481 23.164 60.142 23.0691C60.2359 22.9742 60.3297 22.8794 60.3297 22.6897C60.3297 22.5 60.2359 22.4051 60.142 22.3102C60.0481 22.2154 59.8604 22.2154 59.6727 22.2154H59.0156V23.164Z" fill="black"/>
<path d="M61.55 21.9308C61.55 21.4566 61.7378 20.9823 62.1132 20.6977C62.4887 20.3183 62.8642 20.2234 63.4274 20.2234C63.8967 20.2234 64.366 20.4131 64.7415 20.6977C65.117 21.0771 65.3047 21.4566 65.3047 21.9308C65.3047 22.4051 65.117 22.8794 64.7415 23.164C64.366 23.5434 63.9906 23.6382 63.4274 23.6382C62.8642 23.6382 62.4887 23.4485 62.1132 23.164C61.7378 22.8794 61.55 22.4051 61.55 21.9308ZM62.2071 21.9308C62.2071 22.3103 62.301 22.5948 62.5826 22.7845C62.7703 22.9743 63.0519 23.164 63.4274 23.164C63.709 23.164 63.9906 23.0691 64.2722 22.7845C64.4599 22.5948 64.6476 22.3103 64.6476 21.9308C64.6476 21.5514 64.5538 21.2668 64.2722 21.0771C64.0844 20.8874 63.8028 20.6977 63.4274 20.6977C63.1458 20.6977 62.8642 20.7926 62.5826 21.0771C62.3948 21.2668 62.2071 21.5514 62.2071 21.9308Z" fill="black"/>
<path d="M65.5863 23.6382V23.0691C65.8679 23.0691 66.0556 22.8794 66.1495 22.5948C66.2434 22.3103 66.3372 21.836 66.3372 21.2668V20.2234H68.59V23.5434H67.933V20.6977H66.9943V21.172C66.9943 21.9308 66.9004 22.5 66.7127 22.8794C66.4311 23.3537 66.0556 23.6382 65.5863 23.6382Z" fill="black"/>
<path d="M69.5287 23.6382V20.3183H70.1858V21.5514H70.8429C71.2183 21.5514 71.4999 21.6463 71.6877 21.836C71.8754 22.0257 71.9693 22.3103 71.9693 22.6897C71.9693 22.9742 71.8754 23.2588 71.6877 23.4485C71.4999 23.6382 71.2183 23.7331 70.749 23.7331H69.5287V23.6382ZM70.1858 23.164H70.749C70.9367 23.164 71.1245 23.0691 71.2183 22.9742C71.3122 22.8794 71.4061 22.6897 71.4061 22.5C71.4061 22.3102 71.3122 22.1205 71.2183 22.0257C71.1245 21.9308 70.9367 21.836 70.749 21.836H70.1858V23.164Z" fill="black"/>
<path d="M72.7202 23.6382V20.3183H73.3773V21.6463H75.0669V20.3183H75.7239V23.6382H75.0669V22.2154H73.3773V23.6382H72.7202Z" fill="black"/>
<path d="M76.6625 23.6382V20.3183H77.3196V21.5514H77.9767C78.3522 21.5514 78.6338 21.6463 78.8215 21.836C79.0092 22.0257 79.1031 22.3103 79.1031 22.6897C79.1031 22.9742 79.0092 23.2588 78.8215 23.4485C78.6338 23.6382 78.3522 23.7331 77.8828 23.7331H76.6625V23.6382ZM77.3196 23.164H77.8828C78.0706 23.164 78.2583 23.0691 78.3522 22.9742C78.446 22.8794 78.5399 22.6897 78.5399 22.5C78.5399 22.3102 78.446 22.1205 78.3522 22.0257C78.2583 21.9308 78.0706 21.836 77.8828 21.836H77.3196V23.164ZM79.6663 23.6382V20.3183H80.3234V23.6382H79.6663Z" fill="black"/>
<path d="M80.9804 23.6382L82.1068 21.9308L81.0743 20.3183H81.8252L82.4823 21.3617L82.5762 21.5514C82.5762 21.4565 82.67 21.4565 82.67 21.3617L83.3271 20.3183H84.078L83.0455 21.9308L84.1719 23.6382H83.4209L82.7639 22.5L82.67 22.3102C82.67 22.4051 82.5762 22.4051 82.5762 22.5L81.9191 23.6382H80.9804Z" fill="black"/>
<path d="M50.3799 31.6061V28.2862H51.037V29.6142H51.5063L52.445 28.2862H53.1959L52.0695 29.8987L53.2898 31.6061H52.5388L51.5063 30.1833H51.037V31.6061H50.3799Z" fill="black"/>
<path d="M53.3837 31.6061V31.037C53.6653 31.037 53.853 30.8473 53.9469 30.5627C54.0407 30.2782 54.1346 29.8039 54.1346 29.2347V28.1913H56.3874V31.5113H55.7303V28.6656H54.7917V29.1399C54.7917 29.8987 54.6978 30.4679 54.5101 30.8473C54.2285 31.3216 53.9469 31.6061 53.3837 31.6061Z" fill="black"/>
<path d="M57.4199 31.6061V28.2862H58.077V30.2781C58.077 30.4679 58.077 30.6576 58.077 30.7524C58.077 30.6576 58.1709 30.5627 58.3586 30.2781L59.7666 28.2862H60.4237V31.6061H59.7666V29.6142C59.7666 29.5193 59.7666 29.4244 59.7666 29.3296C59.7666 29.2347 59.7666 29.1399 59.7666 29.1399C59.7666 29.1399 59.6727 29.3296 59.485 29.6142L58.077 31.6061H57.4199Z" fill="black"/>
<path d="M61.0807 29.8987C61.0807 29.3296 61.2684 28.9502 61.55 28.6656C61.8316 28.381 62.3009 28.1913 62.7703 28.1913C63.2396 28.1913 63.6151 28.381 63.8028 28.6656C63.9905 28.9502 64.1783 29.3296 64.1783 29.8039C64.1783 29.8987 64.1783 29.9936 64.1783 30.0884H61.7377C61.7377 30.4679 61.8316 30.7524 62.1132 30.9421C62.3009 31.1319 62.5825 31.2267 62.8641 31.2267C63.2396 31.2267 63.5212 31.1319 63.8028 30.8473L64.0844 31.3216C63.8967 31.5113 63.7089 31.6061 63.5212 31.701C63.2396 31.7959 63.0519 31.7959 62.8641 31.7959C62.3009 31.7959 61.9255 31.6061 61.55 31.3216C61.2684 30.8473 61.0807 30.373 61.0807 29.8987ZM61.7377 29.5193H63.5212C63.5212 29.2347 63.4273 29.045 63.2396 28.8553C63.0519 28.6656 62.8641 28.6656 62.6764 28.6656C62.3948 28.6656 62.2071 28.7605 62.0194 28.8553C61.9255 29.045 61.8316 29.2347 61.7377 29.5193Z" fill="black"/>
<path d="M64.9293 31.6061V28.2862H65.5863V29.6142H67.2759V28.2862H67.933V31.6061H67.2759V30.1833H65.5863V31.6061H64.9293Z" fill="black"/>
<path d="M69.7164 31.6061V28.7605H68.59V28.1913H71.4999V28.7605H70.3735V31.6061H69.7164Z" fill="black"/>
<path d="M71.8754 29.8987C71.8754 29.4244 72.0631 28.9502 72.4385 28.6656C72.814 28.2862 73.1895 28.1913 73.7527 28.1913C74.222 28.1913 74.6914 28.381 75.0668 28.6656C75.4423 29.045 75.63 29.4244 75.63 29.8987C75.63 30.373 75.4423 30.8473 75.0668 31.1319C74.6914 31.5113 74.3159 31.6061 73.7527 31.6061C73.1895 31.6061 72.814 31.4164 72.4385 31.1319C72.0631 30.8473 71.8754 30.373 71.8754 29.8987ZM72.5324 29.8987C72.5324 30.2782 72.6263 30.5627 72.9079 30.7524C73.0956 30.9421 73.3772 31.1319 73.7527 31.1319C74.0343 31.1319 74.3159 31.037 74.5975 30.7524C74.7852 30.5627 74.973 30.2782 74.973 29.8987C74.973 29.5193 74.8791 29.2347 74.5975 29.045C74.4098 28.8553 74.1282 28.6656 73.7527 28.6656C73.4711 28.6656 73.1895 28.7605 72.9079 29.045C72.7201 29.2347 72.5324 29.5193 72.5324 29.8987Z" fill="black"/>
<path d="M76.287 31.6061V28.2862H77.695C78.0705 28.2862 78.3521 28.381 78.5398 28.4759C78.7276 28.6656 78.8215 28.8553 78.8215 29.1399C78.8215 29.3296 78.8215 29.4244 78.7276 29.6142C78.6337 29.8039 78.5399 29.8039 78.3521 29.8987C78.5399 29.9936 78.7276 30.0884 78.8215 30.1833C78.9153 30.373 79.0092 30.4679 79.0092 30.6576C79.0092 30.9421 78.9153 31.2267 78.6337 31.3216C78.446 31.5113 78.0705 31.6061 77.7889 31.6061H76.287ZM76.9441 29.6142H77.6012C77.7889 29.6142 77.9766 29.6142 78.0705 29.5193C78.1644 29.4244 78.2583 29.3296 78.2583 29.1399C78.2583 28.8553 78.0705 28.6656 77.695 28.6656H77.1318V29.6142H76.9441ZM76.9441 31.1319H77.6012C77.7889 31.1319 77.9766 31.1319 78.0705 31.037C78.1644 30.9421 78.2583 30.8473 78.2583 30.6576C78.2583 30.4679 78.1644 30.373 78.0705 30.2781C77.9766 30.1833 77.7889 30.1833 77.6012 30.1833H76.9441V31.1319Z" fill="black"/>
</svg>
