<svg width="116" height="49" viewBox="0 0 116 49" fill="none" xmlns="http://www.w3.org/2000/svg">
<path d="M24.2832 0.709259C37.2435 0.709259 47.8006 11.3856 47.8006 24.4923C47.8006 37.5989 37.2435 48.2753 24.2832 48.2753C11.3229 48.2753 0.765869 37.5989 0.765869 24.4923C0.765869 11.3856 11.3229 0.709259 24.2832 0.709259Z" fill="#BAD1AE"/>
<path d="M36.3853 39.2481H12.1813C11.7522 39.2481 11.4088 38.901 11.4088 38.467V10.4308C11.4088 9.99679 11.7522 9.6496 12.1813 9.6496H36.3853C36.8144 9.6496 37.1577 9.99679 37.1577 10.4308V38.467C37.1577 38.901 36.8144 39.2481 36.3853 39.2481ZM12.9538 37.6858H35.6987V11.212H12.9538V37.6858Z" fill="#1E332E"/>
<path d="M24.2832 39.2481C23.8541 39.2481 23.5107 38.9009 23.5107 38.4669V25.881C23.5107 25.4471 23.8541 25.0999 24.2832 25.0999C24.7124 25.0999 25.0557 25.4471 25.0557 25.881V38.4669C25.0557 38.9009 24.7124 39.2481 24.2832 39.2481Z" fill="#1E332E"/>
<path d="M24.2832 22.5827C23.8541 22.5827 23.5107 22.2355 23.5107 21.8015V10.4308C23.5107 9.99679 23.8541 9.6496 24.2832 9.6496C24.7124 9.6496 25.0557 9.99679 25.0557 10.4308V21.8015C25.0557 22.2355 24.7124 22.5827 24.2832 22.5827Z" fill="#1E332E"/>
<path d="M26.7724 26.8358C26.6007 26.8358 26.429 26.749 26.2574 26.5754L23.8541 24.1451C23.5966 23.8847 23.5966 23.3639 23.8541 23.1035C24.1116 22.8431 24.6266 22.8431 24.8841 23.1035L27.2873 25.5339C27.5448 25.7942 27.5448 26.315 27.2873 26.5754C27.1157 26.749 26.944 26.8358 26.7724 26.8358Z" fill="#1E332E"/>
<path d="M55.5253 24.8395V19.6315H59.6451V24.8395H58.9585V20.2391H56.2977V24.8395H55.5253Z" fill="black"/>
<path d="M60.8467 26.3151V21.1071H61.5333V21.4543V21.7147C61.6192 21.4543 61.7908 21.2807 62.0483 21.1939C62.3058 21.1071 62.4775 21.0203 62.8208 21.0203C63.3358 21.0203 63.6791 21.1939 64.0224 21.5411C64.2799 21.8883 64.4515 22.4091 64.4515 22.9299C64.4515 23.5375 64.2799 23.9715 64.0224 24.3187C63.6791 24.6659 63.3358 24.8395 62.8208 24.8395C62.3058 24.8395 61.9625 24.6659 61.705 24.2319C61.705 24.3187 61.705 24.4055 61.705 24.5791V26.3151H60.8467ZM61.5333 22.9299C61.5333 23.2771 61.6192 23.6243 61.7908 23.8847C61.9625 24.1451 62.22 24.3187 62.5633 24.3187C62.9066 24.3187 63.0782 24.2319 63.3357 23.9715C63.5932 23.7111 63.6791 23.3639 63.6791 23.0167C63.6791 22.5827 63.5932 22.3223 63.4216 22.0619C63.2499 21.8015 62.9924 21.7147 62.6491 21.7147C62.3058 21.7147 62.1341 21.8015 61.8766 22.0619C61.6192 22.1487 61.5333 22.4959 61.5333 22.9299Z" fill="black"/>
<path d="M65.3098 24.8395V21.1071H65.9964V23.3639C65.9964 23.6243 65.9964 23.7979 65.9964 23.8847C65.9964 23.7979 66.1681 23.6243 66.3398 23.3639L67.9705 21.1071H68.6572V24.8395H67.9705V22.5827C67.9705 22.4959 67.9705 22.4091 67.9705 22.3223C67.9705 22.2355 67.9705 22.1487 67.9705 22.1487C67.9705 22.1487 67.8847 22.3223 67.6272 22.6695L65.9964 24.9263H65.3098V24.8395Z" fill="black"/>
<path d="M69.5155 24.8395L69.8588 21.1071H70.6313L71.5754 23.1903L71.7471 23.7111C71.8329 23.5375 71.9187 23.3639 71.9187 23.1903L72.8629 21.1071H73.6353L73.9787 24.8395H73.292L73.1204 22.5827V21.9751C73.0345 22.1487 72.9487 22.3223 72.8629 22.4959L72.0046 24.4055H71.4038L70.5455 22.4959L70.288 21.9751V22.5827L70.1163 24.8395H69.5155Z" fill="black"/>
<path d="M74.7511 22.9299C74.7511 22.3223 74.9228 21.8883 75.2661 21.5411C75.6094 21.1939 76.0385 21.0203 76.6393 21.0203C77.1543 21.0203 77.4977 21.1939 77.841 21.5411C78.0985 21.8883 78.2701 22.3223 78.2701 22.7563C78.2701 22.8431 78.2701 22.9299 78.2701 23.1035H75.5236C75.5236 23.5375 75.6952 23.7979 75.9527 24.0583C76.2102 24.3187 76.4677 24.4055 76.811 24.4055C77.2402 24.4055 77.5835 24.2319 77.9268 23.9715L78.2701 24.4923C78.0985 24.6659 77.841 24.7527 77.5835 24.8395C77.326 24.9263 77.0685 25.0131 76.811 25.0131C76.2102 25.0131 75.781 24.8395 75.3519 24.4923C74.9227 23.9715 74.7511 23.5375 74.7511 22.9299ZM75.5236 22.4959H77.4976C77.4976 22.1487 77.4118 21.9751 77.2402 21.8015C77.0685 21.6279 76.8968 21.5411 76.6393 21.5411C76.3818 21.5411 76.1244 21.6279 75.9527 21.8015C75.7811 21.9751 75.6094 22.2355 75.5236 22.4959Z" fill="black"/>
<path d="M79.1284 26.3151V21.1071H79.815V21.4543V21.7147C79.9009 21.4543 80.0725 21.2807 80.33 21.1939C80.5875 21.1071 80.7592 21.0203 81.1025 21.0203C81.6175 21.0203 81.9608 21.1939 82.3041 21.5411C82.5616 21.8883 82.7333 22.4091 82.7333 22.9299C82.7333 23.5375 82.5616 23.9715 82.3041 24.3187C81.9608 24.6659 81.6175 24.8395 81.1025 24.8395C80.5875 24.8395 80.2442 24.6659 79.9867 24.2319C79.9867 24.3187 79.9867 24.4055 79.9867 24.5791V26.3151H79.1284ZM79.815 22.9299C79.815 23.2771 79.9009 23.6243 80.0725 23.8847C80.2442 24.1451 80.5017 24.3187 80.845 24.3187C81.1883 24.3187 81.36 24.2319 81.6175 23.9715C81.875 23.7111 81.9608 23.3639 81.9608 23.0167C81.9608 22.5827 81.875 22.3223 81.7033 22.0619C81.5317 21.8015 81.2741 21.7147 80.9308 21.7147C80.5875 21.7147 80.4158 21.8015 80.1584 22.0619C79.9009 22.1487 79.815 22.4959 79.815 22.9299Z" fill="black"/>
<path d="M83.5057 24.8395V21.1071H84.1924V22.4959H84.879C85.3082 22.4959 85.6515 22.5827 85.8232 22.7563C86.0806 22.9299 86.1665 23.2771 86.1665 23.6243C86.1665 23.9715 86.0806 24.3187 85.8232 24.4923C85.5657 24.6659 85.2223 24.8395 84.7932 24.8395H83.5057ZM84.1924 24.3187H84.7932C85.0507 24.3187 85.2223 24.2319 85.3082 24.1451C85.394 24.0583 85.4798 23.8847 85.4798 23.6243C85.4798 23.3639 85.394 23.2771 85.3082 23.1035C85.2223 23.0167 84.9648 22.9299 84.7932 22.9299H84.1924V24.3187ZM86.8531 24.8395V21.1071H87.5397V24.8395H86.8531Z" fill="black"/>
<path d="M90.5437 24.8395V21.1071H91.2303V22.6695H93.1186V21.1071H93.8052V24.8395H93.1186V23.1903H91.2303V24.8395H90.5437Z" fill="black"/>
<path d="M94.5778 23.7979C94.5778 23.5375 94.6636 23.2771 94.8352 23.1035C95.0069 22.9299 95.1786 22.7563 95.4361 22.6695C95.6935 22.5827 95.951 22.4959 96.1227 22.4959C96.2943 22.4959 96.5518 22.4091 96.8093 22.4091H96.981V22.3223C96.981 21.8015 96.7235 21.5411 96.2085 21.5411C95.8652 21.5411 95.5219 21.6279 95.1786 21.8883L94.9211 21.3675C95.0927 21.2807 95.2644 21.1071 95.5219 21.0203C95.7794 20.9335 96.0369 20.9335 96.2944 20.9335C96.7235 20.9335 97.1526 21.0203 97.4101 21.2807C97.6676 21.5411 97.7534 21.8883 97.7534 22.4091V24.7527H97.0668V24.4055V24.1451C96.981 24.4055 96.8093 24.5791 96.5518 24.6659C96.2943 24.8395 96.1227 24.8395 95.8652 24.8395C95.5219 24.8395 95.2644 24.7527 95.0069 24.4923C94.7494 24.4055 94.5778 24.1451 94.5778 23.7979ZM95.3502 23.7111C95.3502 23.8847 95.436 24.0583 95.5219 24.1451C95.6077 24.2319 95.7794 24.3187 96.0368 24.3187C96.2943 24.3187 96.5518 24.2319 96.7235 23.9715C96.8952 23.7111 96.981 23.4507 96.981 23.1903V23.0167H96.8093C95.8652 23.0167 95.3502 23.2771 95.3502 23.7111Z" fill="black"/>
<path d="M98.7834 24.8395V21.1071H99.4701V24.2319H100.843V21.1071H101.53V24.2319H102.903V21.1071H103.59V24.8395H98.7834Z" fill="black"/>
<path d="M104.448 22.9299C104.448 22.3223 104.62 21.8883 104.963 21.5411C105.307 21.1939 105.736 21.0203 106.336 21.0203C106.851 21.0203 107.195 21.1939 107.538 21.5411C107.796 21.8883 107.967 22.3223 107.967 22.7563C107.967 22.8431 107.967 22.9299 107.967 23.1035H105.307C105.307 23.5375 105.478 23.7979 105.736 24.0583C105.993 24.3187 106.251 24.4055 106.594 24.4055C107.023 24.4055 107.366 24.2319 107.71 23.9715L108.053 24.4923C107.881 24.6659 107.624 24.7527 107.366 24.8395C107.109 24.9263 106.851 25.0131 106.594 25.0131C105.993 25.0131 105.564 24.8395 105.135 24.4923C104.62 23.9715 104.448 23.5375 104.448 22.9299ZM105.221 22.4959H107.195C107.195 22.1487 107.109 21.9751 106.937 21.8015C106.766 21.6279 106.594 21.5411 106.336 21.5411C106.079 21.5411 105.822 21.6279 105.65 21.8015C105.478 21.9751 105.221 22.2355 105.221 22.4959Z" fill="black"/>
<path d="M108.74 24.8395V21.1071H111.057V21.7147H109.426V24.8395H108.74Z" fill="black"/>
<path d="M111.572 22.9299C111.572 22.4091 111.744 21.8883 112.173 21.5411C112.602 21.1939 113.031 21.0203 113.546 21.0203C114.147 21.0203 114.576 21.1939 115.005 21.5411C115.349 21.8883 115.606 22.4091 115.606 22.9299C115.606 23.4507 115.434 23.9715 115.005 24.3187C114.576 24.6659 114.147 24.8395 113.546 24.8395C112.945 24.8395 112.516 24.6659 112.087 24.3187C111.744 23.9715 111.572 23.5375 111.572 22.9299ZM112.259 22.9299C112.259 23.3639 112.344 23.6243 112.602 23.8847C112.859 24.1451 113.117 24.2319 113.546 24.2319C113.889 24.2319 114.233 24.1451 114.49 23.8847C114.748 23.6243 114.834 23.2771 114.834 22.9299C114.834 22.5827 114.748 22.2355 114.49 21.9751C114.233 21.7147 113.975 21.6279 113.546 21.6279C113.203 21.6279 112.859 21.7147 112.602 21.9751C112.43 22.2355 112.259 22.5827 112.259 22.9299Z" fill="black"/>
<path d="M55.1819 31.8702C55.1819 31.3494 55.3536 30.8286 55.7827 30.4814C56.2119 30.1342 56.641 29.9606 57.156 29.9606C57.7568 29.9606 58.1859 30.1342 58.6151 30.4814C58.9584 30.8286 59.2159 31.3494 59.2159 31.8702C59.2159 32.391 59.0442 32.9118 58.6151 33.259C58.1859 33.6062 57.7568 33.7798 57.156 33.7798C56.5552 33.7798 56.126 33.6062 55.6969 33.259C55.3535 32.9118 55.1819 32.391 55.1819 31.8702ZM55.8685 31.8702C55.8685 32.3042 55.9544 32.5646 56.2119 32.825C56.4693 33.0854 56.7268 33.1722 57.156 33.1722C57.4993 33.1722 57.8426 33.0854 58.1001 32.825C58.3576 32.5646 58.4434 32.2174 58.4434 31.8702C58.4434 31.523 58.3576 31.1758 58.1001 30.9154C57.8426 30.655 57.5851 30.5682 57.156 30.5682C56.8127 30.5682 56.4693 30.655 56.2119 30.9154C56.0402 31.1758 55.8685 31.4362 55.8685 31.8702Z" fill="black"/>
<path d="M59.8168 31.8702C59.8168 31.3494 59.9884 30.8286 60.4176 30.4814C60.7609 30.1342 61.2759 29.9606 61.8767 29.9606C62.4775 29.9606 62.9066 30.1342 63.25 30.4814L62.9066 31.0022C62.6491 30.7418 62.3058 30.5682 61.8767 30.5682C61.5334 30.5682 61.19 30.655 60.9325 30.9154C60.6751 31.1758 60.5892 31.523 60.5892 31.8702C60.5892 32.2174 60.6751 32.5646 60.9325 32.825C61.19 33.0854 61.5334 33.1722 61.8767 33.1722C62.0483 33.1722 62.3058 33.0854 62.4775 32.9986C62.6491 32.9118 62.8208 32.825 62.9925 32.6514L63.25 33.1722C63.0783 33.3458 62.8208 33.5194 62.5633 33.6062C62.3058 33.693 62.0483 33.7798 61.705 33.7798C61.1042 33.7798 60.6751 33.6062 60.2459 33.259C59.9884 32.9118 59.8168 32.391 59.8168 31.8702Z" fill="black"/>
<path d="M64.8807 33.693V30.5682H63.5933V29.9606H66.8548V30.5682H65.5673V33.693H64.8807Z" fill="black"/>
<path d="M67.3698 31.8702C67.3698 31.2626 67.5414 30.8286 67.8847 30.4814C68.2281 30.1342 68.6572 29.9606 69.258 29.9606C69.773 29.9606 70.1163 30.1342 70.4596 30.4814C70.7171 30.8286 70.8888 31.2626 70.8888 31.6966C70.8888 31.7834 70.8888 31.8702 70.8888 32.0438H68.228C68.228 32.4778 68.3997 32.7382 68.6572 32.9986C68.9147 33.259 69.1722 33.3458 69.5155 33.3458C69.9446 33.3458 70.288 33.1722 70.6313 32.9118L70.9746 33.4326C70.803 33.6062 70.5454 33.693 70.288 33.7798C70.0305 33.8666 69.773 33.9534 69.5155 33.9534C68.9147 33.9534 68.4855 33.7798 68.0564 33.4326C67.5414 32.9118 67.3698 32.391 67.3698 31.8702ZM68.1422 31.4362H70.1163C70.1163 31.089 70.0305 30.9154 69.8588 30.7418C69.6871 30.5682 69.5155 30.4814 69.258 30.4814C69.0005 30.4814 68.743 30.5682 68.5714 30.7418C68.3997 30.9154 68.228 31.089 68.1422 31.4362Z" fill="black"/>
<path d="M71.7471 33.693V29.9606H72.4337V31.4362H72.9487L73.9786 29.9606H74.7511L73.5495 31.7834L74.9228 33.693H74.0645L72.9487 32.0438H72.4337V33.693H71.7471Z" fill="black"/>
<path d="M75.0944 33.7798V33.1722C75.3518 33.0854 75.6093 32.9118 75.6952 32.6514C75.8668 32.3042 75.8668 31.8702 75.8668 31.1758V30.0474H78.3559V33.7798H77.6693V30.655H76.5535V31.1758C76.5535 32.0438 76.4676 32.6514 76.2101 33.0854C76.0385 33.5194 75.6952 33.7798 75.0944 33.7798Z" fill="black"/>
<path d="M79.3 31.8702C79.3 31.2626 79.4717 30.8286 79.815 30.4814C80.1584 30.1342 80.5875 29.9606 81.1883 29.9606C81.7033 29.9606 82.0466 30.1342 82.3899 30.4814C82.6474 30.8286 82.8191 31.2626 82.8191 31.6966C82.8191 31.7834 82.8191 31.8702 82.8191 32.0438H80.1583C80.1583 32.4778 80.33 32.7382 80.5875 32.9986C80.845 33.259 81.1025 33.3458 81.4458 33.3458C81.8749 33.3458 82.2183 33.1722 82.5616 32.9118L82.9049 33.4326C82.7333 33.6062 82.4757 33.693 82.2183 33.7798C81.9608 33.8666 81.7033 33.9534 81.4458 33.9534C80.845 33.9534 80.4159 33.7798 79.9867 33.4326C79.4717 32.9118 79.3 32.391 79.3 31.8702ZM80.0725 31.4362H82.0466C82.0466 31.089 81.9608 30.9154 81.7891 30.7418C81.6174 30.5682 81.4458 30.4814 81.1883 30.4814C80.9308 30.4814 80.6733 30.5682 80.5017 30.7418C80.33 30.9154 80.1583 31.089 80.0725 31.4362Z" fill="black"/>
<path d="M83.6774 33.693V29.9606H84.364V31.523H86.2523V29.9606H86.9389V33.693H86.2523V32.0438H84.364V33.693H83.6774Z" fill="black"/>
<path d="M88.0547 33.693V29.9606H88.7413V32.2174C88.7413 32.4778 88.7413 32.6514 88.7413 32.7382C88.7413 32.6514 88.913 32.4778 89.0846 32.2174L90.7154 29.9606H91.402V33.693H90.7154V31.4362C90.7154 31.3494 90.7154 31.2626 90.7154 31.1758C90.7154 31.089 90.7154 31.0022 90.7154 31.0022C90.7154 31.0022 90.6296 31.1758 90.3721 31.523L88.7413 33.7798H88.0547V33.693Z" fill="black"/>
<path d="M92.0886 33.693L92.9469 32.4778L93.1186 32.2174C92.8611 32.1306 92.6894 32.0438 92.5178 31.8702C92.3461 31.6966 92.2603 31.4362 92.2603 31.1758C92.2603 30.8286 92.3461 30.4814 92.6036 30.3078C92.8611 30.1342 93.2044 29.9606 93.5477 29.9606H95.0069V33.693H94.406V32.3042H93.8052L92.8611 33.693H92.0886ZM93.8052 31.8702H94.406V30.4814H93.8052C93.2902 30.4814 93.0328 30.7418 93.0328 31.1758C93.0328 31.4362 93.1186 31.6098 93.2044 31.6966C93.2903 31.7834 93.5477 31.8702 93.8052 31.8702Z" fill="black"/>
</svg>
