<svg width="94" height="49" viewBox="0 0 94 49" fill="none" xmlns="http://www.w3.org/2000/svg">
<path d="M24.2951 0.362061C37.4271 0.362061 47.9841 11.1252 47.9841 24.4055C47.9841 37.6857 37.3412 48.3621 24.2951 48.3621C11.1632 48.3621 0.520264 37.5989 0.520264 24.4055C0.520264 11.212 11.1632 0.362061 24.2951 0.362061Z" fill="#BAD1AE"/>
<path d="M12.6223 37.4254H7.72999C7.30084 37.4254 6.95752 37.0782 6.95752 36.6442V13.1216C6.95752 12.6876 7.30084 12.3404 7.72999 12.3404H12.6223C13.0514 12.3404 13.3948 12.6876 13.3948 13.1216V36.6442C13.3948 37.0782 13.0514 37.4254 12.6223 37.4254ZM8.41663 35.863H11.8498V13.9027H8.41663V35.863Z" fill="#1E332E"/>
<path d="M34.0798 37.4254H12.6223C12.1932 37.4254 11.8499 37.0782 11.8499 36.6442V21.1071C11.8499 20.6731 12.1932 20.3259 12.6223 20.3259H34.1656C34.5947 20.3259 34.9381 20.6731 34.9381 21.1071V36.6442C34.8522 37.0782 34.5089 37.4254 34.0798 37.4254ZM13.3948 35.863H33.3931V21.8883H13.3948V35.863Z" fill="#1E332E"/>
<path d="M41.0319 37.4253H33.7363C33.3072 37.4253 32.9639 37.0781 32.9639 36.6441C32.9639 36.2102 33.3072 35.863 33.7363 35.863H40.2594V16.5067L36.1396 14.4235V15.9859C36.1396 16.2463 35.9679 16.5067 35.7963 16.5935C35.5388 16.7671 35.2813 16.7671 35.0238 16.5935L30.389 14.2499V15.9859C30.389 16.2463 30.2173 16.5067 30.0457 16.6803C29.7882 16.8539 29.5307 16.8539 29.2732 16.6803L24.9817 14.4235V21.1939C24.9817 21.6279 24.6384 21.9751 24.2092 21.9751C23.7801 21.9751 23.4368 21.6279 23.4368 21.1939V13.2083C23.4368 12.9479 23.6084 12.6875 23.7801 12.6007C24.0376 12.4272 24.2951 12.4272 24.5526 12.6007L28.844 14.8575V13.2951C28.844 13.0347 29.0157 12.7743 29.1874 12.6875C29.4449 12.5139 29.7023 12.5139 29.9598 12.6875L34.5946 15.0311V13.3819C34.5946 13.1215 34.7663 12.8611 34.938 12.7743C35.1954 12.6007 35.4529 12.6007 35.7104 12.7743L41.3752 15.6387C41.6327 15.7255 41.8043 16.0727 41.8043 16.3331V36.9913C41.8043 37.0781 41.461 37.4253 41.0319 37.4253Z" fill="#1E332E"/>
<path d="M18.3728 31.1758H15.283C14.8538 31.1758 14.5105 30.8286 14.5105 30.3946V27.2698C14.5105 26.8358 14.8538 26.4886 15.283 26.4886H18.3728C18.802 26.4886 19.1453 26.8358 19.1453 27.2698V30.3946C19.1453 30.8286 18.802 31.1758 18.3728 31.1758ZM15.9696 29.7002H17.6004V28.051H15.9696V29.7002Z" fill="#1E332E"/>
<path d="M24.8959 31.1758H21.806C21.3769 31.1758 21.0336 30.8286 21.0336 30.3946V27.2698C21.0336 26.8358 21.3769 26.4886 21.806 26.4886H24.8959C25.3251 26.4886 25.6684 26.8358 25.6684 27.2698V30.3946C25.6684 30.8286 25.3251 31.1758 24.8959 31.1758ZM22.5785 29.7002H24.2093V28.051H22.5785V29.7002Z" fill="#1E332E"/>
<path d="M31.2473 31.1758H28.1575C27.7283 31.1758 27.385 30.8286 27.385 30.3946V27.2698C27.385 26.8358 27.7283 26.4886 28.1575 26.4886H31.2473C31.6765 26.4886 32.0198 26.8358 32.0198 27.2698V30.3946C32.0198 30.8286 31.6765 31.1758 31.2473 31.1758ZM28.9299 29.7002H30.5607V28.051H28.9299V29.7002Z" fill="#1E332E"/>
<path d="M19.317 24.6659H12.6223C12.1932 24.6659 11.8499 24.3187 11.8499 23.8847C11.8499 23.4507 12.1932 23.1035 12.6223 23.1035H19.317C19.7462 23.1035 20.0895 23.4507 20.0895 23.8847C20.0895 24.3187 19.7462 24.6659 19.317 24.6659Z" fill="#1E332E"/>
<path d="M12.6223 16.5935H7.72999C7.30084 16.5935 6.95752 16.2463 6.95752 15.8123C6.95752 15.3783 7.30084 15.0311 7.72999 15.0311H12.6223C13.0514 15.0311 13.3948 15.3783 13.3948 15.8123C13.3948 16.2463 13.0514 16.5935 12.6223 16.5935Z" fill="#1E332E"/>
<path d="M12.6223 34.6478H7.72999C7.30084 34.6478 6.95752 34.3006 6.95752 33.8666C6.95752 33.4326 7.30084 33.0854 7.72999 33.0854H12.6223C13.0514 33.0854 13.3948 33.4326 13.3948 33.8666C13.3948 34.3006 13.0514 34.6478 12.6223 34.6478Z" fill="#1E332E"/>
<path d="M57.8545 28.051V22.8431H58.5411V25.1867H61.2018V22.8431H61.8885V28.051H61.2018V25.7943H58.5411V28.051H57.8545Z" fill="black"/>
<path d="M62.9185 27.0095C62.9185 26.7491 63.0043 26.4887 63.1759 26.3151C63.3476 26.1415 63.5193 25.9679 63.7768 25.8811C64.0342 25.7943 64.2917 25.7075 64.4634 25.7075C64.6351 25.7075 64.8925 25.6207 65.15 25.6207H65.3217V25.5339C65.3217 25.0131 65.0642 24.7527 64.5492 24.7527C64.2059 24.7527 63.8626 24.8395 63.5193 25.0999L63.1759 24.6659C63.3476 24.5791 63.5193 24.4055 63.7768 24.3187C64.0342 24.2319 64.2917 24.2319 64.5492 24.2319C64.9784 24.2319 65.4075 24.3187 65.665 24.5791C65.9225 24.8395 66.0083 25.1867 66.0083 25.7075V28.051H65.3217V27.7038V27.4434C65.2359 27.7038 65.0642 27.8774 64.8067 27.9642C64.5492 28.1378 64.3776 28.1378 64.1201 28.1378C63.7768 28.1378 63.5193 28.051 63.2618 27.7906C63.0901 27.617 62.9185 27.3566 62.9185 27.0095ZM63.6909 27.0095C63.6909 27.183 63.7768 27.3566 63.8626 27.4434C63.9484 27.5302 64.1201 27.617 64.3776 27.617C64.6351 27.617 64.8925 27.5302 65.0642 27.2698C65.2359 27.0094 65.3217 26.7491 65.3217 26.4887V26.3151H65.15C64.1201 26.2283 63.6909 26.4887 63.6909 27.0095Z" fill="black"/>
<path d="M67.1241 28.051V24.3187H67.8108V27.4434H69.1841V24.3187H69.8707V27.4434H71.244V24.3187H71.9306V28.051H67.1241Z" fill="black"/>
<path d="M74.5055 27.617L74.8488 27.183C75.1063 27.4434 75.4496 27.617 75.7929 27.617C76.0504 27.617 76.2221 27.5302 76.3079 27.4434C76.4796 27.3566 76.5654 27.183 76.5654 27.0095C76.5654 26.6623 76.3079 26.4019 75.7929 26.4019H75.3638V25.8811H75.7929C76.2221 25.8811 76.4796 25.7075 76.4796 25.3603C76.4796 25.1867 76.3938 25.0131 76.3079 24.9263C76.2221 24.8395 76.0504 24.7527 75.7929 24.7527C75.4496 24.7527 75.1921 24.8395 74.8488 25.0999L74.5913 24.6659C74.9346 24.4055 75.3638 24.2319 75.8788 24.2319C76.2221 24.2319 76.5654 24.3187 76.8229 24.4923C77.0804 24.6659 77.1662 24.9263 77.1662 25.2735C77.1662 25.7075 76.9946 25.9679 76.6512 26.1415C77.0804 26.3151 77.3379 26.5755 77.3379 27.0095C77.3379 27.3566 77.1662 27.7038 76.9087 27.8774C76.6512 28.051 76.3079 28.2246 75.8788 28.2246C75.278 28.1378 74.8488 27.9642 74.5055 27.617Z" fill="black"/>
<path d="M77.8528 27.0095C77.8528 26.7491 77.9386 26.4887 78.1103 26.3151C78.2819 26.1415 78.4536 25.9679 78.7111 25.8811C78.9686 25.7943 79.2261 25.7075 79.3977 25.7075C79.5694 25.7075 79.8269 25.6207 80.0844 25.6207H80.256V25.5339C80.256 25.0131 79.9985 24.7527 79.4836 24.7527C79.1402 24.7527 78.7969 24.8395 78.4536 25.0999L78.1103 24.6659C78.2819 24.5791 78.4536 24.4055 78.7111 24.3187C78.9686 24.2319 79.2261 24.2319 79.4836 24.2319C79.9127 24.2319 80.3419 24.3187 80.5993 24.5791C80.8568 24.8395 80.9427 25.1867 80.9427 25.7075V28.051H80.256V27.7038V27.4434C80.1702 27.7038 79.9985 27.8774 79.741 27.9642C79.4836 28.1378 79.3119 28.1378 79.0544 28.1378C78.7111 28.1378 78.4536 28.051 78.1961 27.7906C77.9386 27.617 77.8528 27.3566 77.8528 27.0095ZM78.5394 27.0095C78.5394 27.183 78.6253 27.3566 78.7111 27.4434C78.7969 27.5302 78.9686 27.617 79.2261 27.617C79.4835 27.617 79.741 27.5302 79.9127 27.2698C80.0844 27.0094 80.1702 26.7491 80.1702 26.4887V26.3151H79.9985C79.0544 26.2283 78.5394 26.4887 78.5394 27.0095Z" fill="black"/>
<path d="M81.9727 28.051V24.3187H83.5176C83.8609 24.3187 84.2042 24.4055 84.4617 24.5791C84.7192 24.7527 84.805 25.0131 84.805 25.2735C84.805 25.4471 84.7192 25.6207 84.6334 25.7943C84.5475 25.9678 84.3759 26.0547 84.2042 26.1414C84.4617 26.2282 84.6334 26.315 84.7192 26.4886C84.805 26.6622 84.8909 26.8358 84.8909 27.0962C84.8909 27.4434 84.805 27.7038 84.5475 27.8774C84.2901 28.051 83.9467 28.1378 83.5176 28.1378H81.9727V28.051ZM82.6593 25.8811H83.3459C83.5176 25.8811 83.6892 25.7943 83.8609 25.7075C83.9467 25.6207 84.0326 25.4471 84.0326 25.2735C84.0326 24.9263 83.7751 24.7527 83.3459 24.7527H82.6593V25.8811ZM82.6593 27.5302H83.4318C83.6892 27.5302 83.8609 27.4434 84.0326 27.3566C84.2042 27.2698 84.2042 27.0962 84.2042 26.9226C84.2042 26.749 84.1184 26.5754 84.0326 26.4886C83.8609 26.4018 83.6892 26.4018 83.4318 26.4018H82.6593V27.5302Z" fill="black"/>
<path d="M85.5775 26.1415C85.5775 25.6207 85.7492 25.0999 86.1783 24.7527C86.6075 24.4055 87.0366 24.2319 87.5516 24.2319C88.1524 24.2319 88.5816 24.4055 89.0107 24.7527C89.354 25.0999 89.6115 25.6207 89.6115 26.1415C89.6115 26.6623 89.4399 27.183 89.0107 27.5302C88.5816 27.8774 88.1524 28.051 87.5516 28.051C86.9508 28.051 86.5216 27.8774 86.0925 27.5302C85.7492 27.183 85.5775 26.7491 85.5775 26.1415ZM86.2642 26.1415C86.2642 26.5755 86.35 26.8359 86.6075 27.0962C86.865 27.3566 87.1225 27.4434 87.5516 27.4434C87.8949 27.4434 88.2382 27.3566 88.4957 27.0962C88.7532 26.8359 88.839 26.4887 88.839 26.1415C88.839 25.7943 88.7532 25.4471 88.4957 25.1867C88.2382 24.9263 87.9808 24.8395 87.5516 24.8395C87.2083 24.8395 86.865 24.9263 86.6075 25.1867C86.4358 25.4471 86.2642 25.7943 86.2642 26.1415Z" fill="black"/>
<path d="M89.9548 27.4434H90.384C90.8131 26.9226 90.9848 26.0546 90.9848 25.0131V24.3187H93.4739V27.4434H93.9888V28.919H93.3022V28.051H90.6415V28.919H89.9548V27.4434ZM91.1565 27.4434H92.7872V24.8395H91.6714V25.0131C91.6714 26.1414 91.4998 26.9226 91.1565 27.4434Z" fill="black"/>
</svg>
