<svg width="109" height="43" viewBox="0 0 109 43" fill="none" xmlns="http://www.w3.org/2000/svg">
<path d="M21.6548 42.7044C33.2672 42.7044 42.681 33.1914 42.681 21.4566C42.681 9.72171 33.2672 0.20874 21.6548 0.20874C10.0424 0.20874 0.628723 9.72171 0.628723 21.4566C0.628723 33.1914 10.0424 42.7044 21.6548 42.7044Z" fill="#C0D7B4"/>
<path d="M31.417 26.1994C31.1354 26.1994 30.8538 25.9148 30.8538 25.6302V8.65094H12.4559V25.6302C12.4559 25.9148 12.1743 26.1994 11.8927 26.1994C11.6111 26.1994 11.3295 25.9148 11.3295 25.6302V8.0818C11.3295 7.79723 11.6111 7.51266 11.8927 7.51266H31.417C31.6986 7.51266 31.9802 7.79723 31.9802 8.0818V25.6302C31.9802 25.9148 31.7924 26.1994 31.417 26.1994Z" fill="#1E332E"/>
<path d="M20.3407 26.2942C20.0591 26.2942 19.7776 26.0096 19.7776 25.7251V11.0223H14.9903V25.6302C14.9903 25.9148 14.7088 26.1993 14.4272 26.1993C14.1456 26.1993 13.864 25.9148 13.864 25.6302V10.4532C13.864 10.1686 14.1456 9.88406 14.4272 9.88406H20.3407C20.6223 9.88406 20.9039 10.1686 20.9039 10.4532V25.6302C20.9039 26.0096 20.6223 26.2942 20.3407 26.2942Z" fill="#1E332E"/>
<path d="M28.9764 26.1994C28.6948 26.1994 28.4132 25.9148 28.4132 25.6302V10.9275H23.4383V25.5354C23.4383 25.8199 23.1567 26.1045 22.8751 26.1045C22.5935 26.1045 22.3119 25.8199 22.3119 25.5354V10.3584C22.3119 10.0738 22.5935 9.78922 22.8751 9.78922H28.9764C29.258 9.78922 29.5396 10.0738 29.5396 10.3584V25.5354C29.5396 25.9148 29.258 26.1994 28.9764 26.1994Z" fill="#1E332E"/>
<path d="M34.6084 34.8313H23.9076C23.626 34.8313 23.3445 34.5467 23.3445 34.2622C23.3445 33.9776 23.626 33.693 23.9076 33.693H34.0452V28.0016H9.26446L9.35832 33.693H19.2143C19.4959 33.693 19.7775 33.9776 19.7775 34.2622C19.7775 34.5467 19.4959 34.8313 19.2143 34.8313H8.79512C8.51352 34.8313 8.23193 34.5467 8.23193 34.2622L8.13806 27.5274C8.13806 27.3376 8.23193 27.2428 8.32579 27.1479C8.41966 27.0531 8.60739 26.9582 8.70126 26.9582H34.6084C34.89 26.9582 35.1716 27.2428 35.1716 27.5274V34.2622C35.1716 34.6416 34.89 34.8313 34.6084 34.8313Z" fill="#1E332E"/>
<path d="M11.1418 32.0805C10.8602 32.0805 10.5786 31.7959 10.5786 31.5113V27.5274C10.5786 27.2428 10.8602 26.9582 11.1418 26.9582C11.4234 26.9582 11.705 27.2428 11.705 27.5274V31.5113C11.705 31.7959 11.5173 32.0805 11.1418 32.0805Z" fill="#1E332E"/>
<path d="M16.3983 32.0805C16.1167 32.0805 15.8351 31.7959 15.8351 31.5113V27.5274C15.8351 27.2428 16.1167 26.9582 16.3983 26.9582C16.6799 26.9582 16.9615 27.2428 16.9615 27.5274V31.5113C16.9615 31.7959 16.6799 32.0805 16.3983 32.0805Z" fill="#1E332E"/>
<path d="M21.6549 32.0805C21.3733 32.0805 21.0917 31.7959 21.0917 31.5113V27.5274C21.0917 27.2428 21.3733 26.9582 21.6549 26.9582C21.9365 26.9582 22.2181 27.2428 22.2181 27.5274V31.5113C22.2181 31.7959 22.0303 32.0805 21.6549 32.0805Z" fill="#1E332E"/>
<path d="M26.9114 32.0805C26.6298 32.0805 26.3482 31.7959 26.3482 31.5113V27.5274C26.3482 27.2428 26.6298 26.9582 26.9114 26.9582C27.193 26.9582 27.4746 27.2428 27.4746 27.5274V31.5113C27.4746 31.7959 27.193 32.0805 26.9114 32.0805Z" fill="#1E332E"/>
<path d="M32.2618 32.0805C31.9802 32.0805 31.6985 31.7959 31.6985 31.5113V27.5274C31.6985 27.2428 31.9802 26.9582 32.2618 26.9582C32.5434 26.9582 32.8249 27.2428 32.8249 27.5274V31.5113C32.8249 31.7959 32.5434 32.0805 32.2618 32.0805Z" fill="#1E332E"/>
<path d="M13.77 30.2782C13.4884 30.2782 13.2068 29.9936 13.2068 29.7091V27.5274C13.2068 27.2428 13.4884 26.9582 13.77 26.9582C14.0516 26.9582 14.3332 27.2428 14.3332 27.5274V29.7091C14.3332 30.0885 14.0516 30.2782 13.77 30.2782Z" fill="#1E332E"/>
<path d="M19.0266 30.2782C18.745 30.2782 18.4634 29.9936 18.4634 29.7091V27.5274C18.4634 27.2428 18.745 26.9582 19.0266 26.9582C19.3082 26.9582 19.5899 27.2428 19.5899 27.5274V29.7091C19.5899 30.0885 19.3082 30.2782 19.0266 30.2782Z" fill="#1E332E"/>
<path d="M24.2831 30.2782C24.0015 30.2782 23.7199 29.9936 23.7199 29.7091V27.5274C23.7199 27.2428 24.0015 26.9582 24.2831 26.9582C24.5647 26.9582 24.8463 27.2428 24.8463 27.5274V29.7091C24.8463 30.0885 24.5647 30.2782 24.2831 30.2782Z" fill="#1E332E"/>
<path d="M29.6335 30.2782C29.3519 30.2782 29.0703 29.9936 29.0703 29.7091V27.5274C29.0703 27.2428 29.3519 26.9582 29.6335 26.9582C29.9151 26.9582 30.1967 27.2428 30.1967 27.5274V29.7091C30.1028 30.0885 29.9151 30.2782 29.6335 30.2782Z" fill="#1E332E"/>
<path d="M21.5609 34.9261C21.9238 34.9261 22.218 34.6289 22.218 34.2621C22.218 33.8954 21.9238 33.5981 21.5609 33.5981C21.198 33.5981 20.9039 33.8954 20.9039 34.2621C20.9039 34.6289 21.198 34.9261 21.5609 34.9261Z" fill="#1E332E"/>
<path d="M51.1287 15.6701V11.0221H53.8509V11.5913H51.7858V12.9193H52.8183C53.1938 12.9193 53.5693 13.0141 53.8509 13.2987C54.1325 13.5832 54.2263 13.8678 54.2263 14.3421C54.2263 14.7215 54.1325 15.1009 53.8509 15.3855C53.5693 15.6701 53.2877 15.7649 52.8183 15.7649H51.1287V15.6701ZM51.7858 15.1009H52.7245C53.0061 15.1009 53.1938 15.0061 53.2877 14.9112C53.3815 14.8164 53.4754 14.5318 53.4754 14.3421C53.4754 14.0575 53.3815 13.8678 53.2877 13.773C53.0999 13.5832 52.9122 13.5832 52.6306 13.5832H51.6919V15.1009H51.7858Z" fill="black"/>
<path d="M54.7897 13.9629C54.7897 13.3938 54.9775 13.0143 55.2591 12.7298C55.5407 12.4452 56.01 12.2555 56.4793 12.2555C56.9487 12.2555 57.3241 12.4452 57.5119 12.7298C57.6996 13.0143 57.8873 13.3938 57.8873 13.8681C57.8873 13.9629 57.8873 14.0578 57.8873 14.1526H55.4468C55.4468 14.532 55.5407 14.8166 55.8223 15.0063C56.01 15.196 56.2916 15.2909 56.5732 15.2909C56.9487 15.2909 57.2303 15.196 57.5119 14.9115L57.7935 15.3858C57.6057 15.5755 57.418 15.6703 57.2303 15.7652C56.9487 15.86 56.7609 15.86 56.5732 15.86C56.01 15.86 55.6345 15.6703 55.2591 15.3858C54.8836 14.9115 54.7897 14.4372 54.7897 13.9629ZM55.4468 13.5835H57.2303C57.2303 13.2989 57.1364 13.1092 56.9487 12.9195C56.7609 12.7298 56.5732 12.7298 56.3855 12.7298C56.1039 12.7298 55.9161 12.8246 55.7284 12.9195C55.6345 13.1092 55.4468 13.2989 55.4468 13.5835Z" fill="black"/>
<path d="M58.4505 13.9629C58.4505 13.4886 58.6382 13.0143 58.9198 12.7298C59.2953 12.3503 59.6708 12.2555 60.234 12.2555C60.7972 12.2555 61.1726 12.4452 61.4542 12.7298L61.1726 13.2041C60.891 12.9195 60.6094 12.8246 60.234 12.8246C59.8585 12.8246 59.6708 12.9195 59.3892 13.2041C59.2014 13.3938 59.1076 13.6783 59.1076 14.0578C59.1076 14.4372 59.2014 14.7218 59.483 14.9115C59.6708 15.1012 59.9524 15.2909 60.3278 15.2909C60.5156 15.2909 60.7033 15.2909 60.891 15.196C61.0788 15.1012 61.2665 15.0063 61.3604 14.9115L61.642 15.3858C61.4542 15.5755 61.2665 15.6703 61.0788 15.7652C60.891 15.86 60.6094 15.9549 60.3278 15.9549C59.7646 15.9549 59.3892 15.7652 59.0137 15.4806C58.5444 14.9115 58.4505 14.4372 58.4505 13.9629Z" fill="black"/>
<path d="M62.2052 15.6703V12.3503H65.1151V15.6703H64.458V12.8246H62.8623V15.6703H62.2052Z" fill="black"/>
<path d="M65.7722 15.6703V15.1012C66.0538 15.1012 66.2415 14.9115 66.3353 14.6269C66.4292 14.3423 66.5231 13.8681 66.5231 13.2989V12.2555H68.7759V15.5755H68.1188V12.7298H67.1802V13.2041C67.1802 13.9629 67.0863 14.532 66.8986 14.9115C66.617 15.3858 66.2415 15.6703 65.7722 15.6703Z" fill="black"/>
<path d="M69.4329 14.7218C69.4329 14.4372 69.5268 14.2475 69.6207 14.0578C69.7145 13.8681 69.9023 13.7732 70.1839 13.6783C70.3716 13.5835 70.6532 13.5835 70.8409 13.4886C71.0287 13.4886 71.2164 13.4886 71.498 13.4886H71.6857C71.6857 13.0144 71.4041 12.7298 70.9348 12.7298C70.6532 12.7298 70.2777 12.8246 69.9961 13.0144L69.7145 12.5401C69.8084 12.4452 69.9961 12.3504 70.2777 12.2555C70.4655 12.1606 70.7471 12.1606 70.9348 12.1606C71.3103 12.1606 71.6857 12.2555 71.8735 12.5401C72.0612 12.7298 72.2489 13.1092 72.2489 13.4886V15.5755H71.5919V15.196V14.9115C71.498 15.1012 71.3103 15.2909 71.1225 15.3858C70.9348 15.4806 70.7471 15.5755 70.4655 15.5755C70.1839 15.5755 69.9023 15.4806 69.7145 15.2909C69.5268 15.2909 69.4329 15.0063 69.4329 14.7218ZM70.09 14.6269C70.09 14.8166 70.1839 14.9115 70.2777 15.0063C70.3716 15.1012 70.5593 15.196 70.7471 15.196C71.0287 15.196 71.2164 15.1012 71.4041 14.8166C71.5919 14.6269 71.6857 14.3423 71.6857 14.0578V13.9629H71.498C70.5593 13.9629 70.09 14.2475 70.09 14.6269Z" fill="black"/>
<path d="M73.9385 15.6703V12.8246H72.8121V12.2555H75.722V12.8246H74.5956V15.6703H73.9385Z" fill="black"/>
<path d="M76.379 15.6703V12.3503H77.0361V13.6783H78.7257V12.3503H79.3828V15.6703H78.7257V14.2475H77.0361V15.6703H76.379Z" fill="black"/>
<path d="M80.3215 15.6703V12.3503H80.9785V13.4886H81.6356C82.0111 13.4886 82.2927 13.5835 82.4804 13.7732C82.6681 13.9629 82.762 14.2475 82.762 14.6269C82.762 14.9115 82.6681 15.196 82.4804 15.3857C82.2927 15.5755 82.0111 15.6703 81.5417 15.6703H80.3215ZM80.9785 15.196H81.5417C81.7295 15.196 81.9172 15.1012 82.0111 15.0063C82.1049 14.9115 82.1988 14.7217 82.1988 14.532C82.1988 14.3423 82.1049 14.1526 82.0111 14.0578C81.9172 13.9629 81.7295 13.868 81.5417 13.868H80.9785V15.196ZM83.3252 15.6703V12.3503H83.9823V15.6703H83.3252Z" fill="black"/>
<path d="M84.9209 15.6703V12.3503H85.578V14.3423C85.578 14.532 85.578 14.7217 85.578 14.8166C85.578 14.7217 85.6718 14.6269 85.8596 14.3423L87.2676 12.3503H87.9246V15.6703H87.2676V13.6783C87.2676 13.5835 87.2676 13.4886 87.2676 13.3938C87.2676 13.2989 87.2676 13.204 87.2676 13.204C87.2676 13.204 87.1737 13.3938 86.986 13.6783L85.578 15.6703H84.9209ZM86.4228 11.8761C86.1412 11.8761 85.9534 11.7812 85.7657 11.6863C85.578 11.5915 85.4841 11.3069 85.4841 11.0223V10.9275H85.9534V11.0223C85.9534 11.1172 85.9534 11.3069 86.0473 11.3069C86.1412 11.4018 86.235 11.4018 86.3289 11.4018C86.4228 11.4018 86.6105 11.4018 86.6105 11.3069C86.7044 11.2121 86.7044 11.1172 86.7044 11.0223V10.9275H87.1737V11.0223C87.1737 11.3069 87.0798 11.4966 86.8921 11.6863C86.8921 11.7812 86.7044 11.8761 86.4228 11.8761Z" fill="black"/>
<path d="M90.1775 15.196L90.4591 14.8166C90.7407 15.1012 91.0223 15.196 91.3039 15.196C91.4916 15.196 91.6794 15.1012 91.7732 15.0063C91.8671 14.9115 91.9609 14.8166 91.9609 14.6269C91.9609 14.2475 91.7732 14.1526 91.3039 14.1526H90.9284V13.6783H91.3039C91.6794 13.6783 91.9609 13.4886 91.9609 13.2041C91.9609 13.0144 91.8671 12.9195 91.7732 12.8246C91.6794 12.7298 91.4916 12.7298 91.3039 12.7298C91.0223 12.7298 90.7407 12.8246 90.4591 13.0144L90.1775 12.5401C90.4591 12.2555 90.9284 12.1606 91.3039 12.1606C91.5855 12.1606 91.8671 12.2555 92.1487 12.4452C92.3364 12.6349 92.4303 12.8246 92.4303 13.1092C92.4303 13.4886 92.2425 13.7732 91.9609 13.8681C92.3364 13.9629 92.5242 14.2475 92.5242 14.6269C92.5242 15.0063 92.4303 15.196 92.1487 15.3858C91.8671 15.5755 91.5855 15.6703 91.21 15.6703C90.9284 15.6703 90.553 15.5755 90.1775 15.196Z" fill="black"/>
<path d="M93.1812 14.7218C93.1812 14.4372 93.2751 14.2475 93.3689 14.0578C93.4628 13.8681 93.6505 13.7732 93.9321 13.6783C94.1199 13.5835 94.4015 13.5835 94.5892 13.4886C94.7769 13.4886 94.9647 13.4886 95.2463 13.4886H95.434C95.434 13.0144 95.1524 12.7298 94.6831 12.7298C94.4015 12.7298 94.026 12.8246 93.7444 13.0144L93.4628 12.5401C93.5567 12.4452 93.7444 12.3504 94.026 12.2555C94.2137 12.1606 94.4954 12.1606 94.6831 12.1606C95.0586 12.1606 95.434 12.2555 95.6218 12.5401C95.8095 12.7298 95.9972 13.1092 95.9972 13.4886V15.5755H95.434V15.196V14.9115C95.3401 15.1012 95.1524 15.2909 94.9647 15.3858C94.7769 15.4806 94.5892 15.5755 94.3076 15.5755C94.026 15.5755 93.7444 15.4806 93.5567 15.2909C93.2751 15.2909 93.1812 15.0063 93.1812 14.7218ZM93.8383 14.6269C93.8383 14.8166 93.9321 14.9115 94.026 15.0063C94.1199 15.1012 94.3076 15.196 94.4953 15.196C94.7769 15.196 94.9647 15.1012 95.1524 14.8166C95.3402 14.6269 95.434 14.3423 95.434 14.0578V13.9629H95.2463C94.3076 13.9629 93.8383 14.2475 93.8383 14.6269Z" fill="black"/>
<path d="M96.7481 15.6703L97.0297 12.3503H97.7806L98.6254 14.2475L98.8132 14.7217C98.907 14.532 98.907 14.4372 99.0009 14.2475L99.8457 12.3503H100.503L100.784 15.6703H100.127L99.9396 13.6783V13.1092C99.8457 13.2989 99.8457 13.3938 99.7518 13.5835L99.0009 15.2909H98.4377L97.6868 13.5835L97.499 13.1092V13.6783L97.3113 15.6703H96.7481Z" fill="black"/>
<path d="M101.535 13.9629C101.535 13.3938 101.723 13.0143 102.005 12.7298C102.286 12.4452 102.756 12.2555 103.225 12.2555C103.694 12.2555 104.07 12.4452 104.257 12.7298C104.445 13.0143 104.633 13.3938 104.633 13.8681C104.633 13.9629 104.633 14.0578 104.633 14.1526H102.192C102.192 14.532 102.286 14.8166 102.568 15.0063C102.756 15.196 103.037 15.2909 103.319 15.2909C103.694 15.2909 103.976 15.196 104.257 14.9115L104.539 15.3858C104.351 15.5755 104.164 15.6703 103.976 15.7652C103.694 15.86 103.506 15.86 103.319 15.86C102.756 15.86 102.38 15.6703 102.005 15.3858C101.723 14.9115 101.535 14.4372 101.535 13.9629ZM102.192 13.5835H103.976C103.976 13.2989 103.882 13.1092 103.694 12.9195C103.506 12.7298 103.319 12.7298 103.131 12.7298C102.849 12.7298 102.662 12.8246 102.474 12.9195C102.38 13.1092 102.286 13.2989 102.192 13.5835Z" fill="black"/>
<path d="M105.384 16.9983V12.3504H105.947V12.5401V12.8246C106.041 12.6349 106.229 12.4452 106.416 12.3504C106.604 12.2555 106.792 12.1606 107.073 12.1606C107.543 12.1606 107.918 12.3504 108.106 12.6349C108.388 12.9195 108.481 13.3938 108.481 13.8681C108.481 14.4372 108.388 14.8166 108.106 15.1012C107.824 15.3858 107.449 15.5755 106.98 15.5755C106.51 15.5755 106.229 15.3858 105.947 15.0063C105.947 15.1012 105.947 15.196 105.947 15.2909V16.8086H105.384V16.9983ZM106.041 13.9629C106.041 14.2475 106.135 14.5321 106.323 14.8166C106.51 15.1012 106.698 15.196 106.98 15.196C107.261 15.196 107.449 15.1012 107.637 14.9115C107.824 14.7218 107.918 14.4372 107.918 14.0578C107.918 13.6783 107.824 13.3938 107.637 13.2041C107.449 13.0144 107.261 12.9195 106.98 12.9195C106.698 12.9195 106.51 13.0144 106.323 13.2041C106.135 13.2989 106.041 13.5835 106.041 13.9629Z" fill="black"/>
<path d="M51.0351 23.6383V20.3183H51.6922V22.3103C51.6922 22.5 51.6922 22.6897 51.6922 22.7846C51.6922 22.6897 51.786 22.5948 51.9738 22.3103L53.3818 20.3183H54.0388V23.6383H53.3818V21.6463C53.3818 21.5514 53.3818 21.4566 53.3818 21.3617C53.3818 21.2669 53.3818 21.172 53.3818 21.172C53.3818 21.172 53.2879 21.3617 53.1002 21.6463L51.6922 23.6383H51.0351Z" fill="black"/>
<path d="M56.5732 24.9662V20.3183H57.1364V20.6028V20.8874C57.2303 20.6977 57.418 20.508 57.6057 20.4131C57.7935 20.3183 57.9812 20.2234 58.2628 20.2234C58.7321 20.2234 59.1076 20.4131 59.2953 20.6977C59.5769 20.9823 59.6708 21.4566 59.6708 21.9308C59.6708 22.5 59.5769 22.8794 59.2953 23.164C59.0137 23.4485 58.6382 23.6382 58.1689 23.6382C57.6996 23.6382 57.418 23.4485 57.1364 23.0691C57.1364 23.164 57.1364 23.2588 57.1364 23.3537V24.8714H56.5732V24.9662ZM57.2302 21.9308C57.2302 22.2154 57.3241 22.5 57.5118 22.7845C57.6996 23.0691 57.8873 23.164 58.1689 23.164C58.4505 23.164 58.6382 23.0691 58.826 22.8794C59.0137 22.6897 59.1076 22.4051 59.1076 22.0257C59.1076 21.6463 59.0137 21.3617 58.826 21.172C58.6382 20.9823 58.4505 20.8874 58.1689 20.8874C57.8873 20.8874 57.6996 20.9823 57.5118 21.172C57.3241 21.2668 57.2302 21.5514 57.2302 21.9308Z" fill="black"/>
<path d="M60.234 22.6897C60.234 22.4051 60.3279 22.2154 60.4218 22.0257C60.5156 21.836 60.7033 21.7411 60.9849 21.6463C61.1727 21.5514 61.4543 21.5514 61.642 21.4566C61.8297 21.4566 62.0175 21.4566 62.2991 21.4566H62.4868V21.3617C62.4868 20.8874 62.2052 20.6029 61.7359 20.6029C61.4543 20.6029 61.0788 20.6977 60.7972 20.8874L60.5156 20.4131C60.6095 20.3183 60.7972 20.2234 61.0788 20.1286C61.2665 20.0337 61.5481 20.0337 61.7359 20.0337C62.1113 20.0337 62.4868 20.1286 62.6745 20.4131C62.8623 20.6029 63.05 20.9823 63.05 21.3617V23.4485H62.4868V23.0691V22.7846C62.3929 22.9743 62.2052 23.164 62.0175 23.2588C61.8297 23.3537 61.642 23.4485 61.3604 23.4485C61.0788 23.4485 60.7972 23.3537 60.6095 23.164C60.4218 22.9743 60.234 22.9743 60.234 22.6897ZM60.8911 22.5948C60.8911 22.7846 60.985 22.8794 61.0788 22.9743C61.1727 23.0691 61.3604 23.164 61.5481 23.164C61.8297 23.164 62.0175 23.0691 62.2052 22.7846C62.3929 22.5948 62.4868 22.3103 62.4868 22.0257V21.9308H62.2052C61.3604 21.9308 60.8911 22.2154 60.8911 22.5948Z" fill="black"/>
<path d="M63.6132 23.164L63.8948 22.7845C64.1764 23.0691 64.458 23.164 64.7396 23.164C64.9273 23.164 65.1151 23.0691 65.2089 22.9743C65.3028 22.8794 65.3967 22.7845 65.3967 22.5948C65.3967 22.2154 65.2089 22.1206 64.7396 22.1206H64.3642V21.6463H64.7396C65.1151 21.6463 65.3967 21.4566 65.3967 21.172C65.3967 20.9823 65.3028 20.8874 65.2089 20.7926C65.1151 20.6977 64.9273 20.6977 64.7396 20.6977C64.458 20.6977 64.1764 20.7926 63.8948 20.9823L63.6132 20.508C63.8948 20.2234 64.3642 20.1286 64.7396 20.1286C65.0212 20.1286 65.3028 20.2234 65.5844 20.4131C65.7722 20.6029 65.866 20.7926 65.866 21.0771C65.866 21.4566 65.6783 21.7411 65.3967 21.836C65.7721 21.9308 65.9599 22.2154 65.9599 22.5948C65.9599 22.9743 65.866 23.164 65.5844 23.3537C65.3028 23.5434 65.0212 23.6383 64.6458 23.6383C64.3642 23.6383 63.9887 23.5434 63.6132 23.164Z" fill="black"/>
<path d="M66.8986 24.9662V20.3183H67.4618V20.6028V20.8874C67.5556 20.6977 67.7434 20.508 67.9311 20.4131C68.1188 20.3183 68.3066 20.2234 68.5882 20.2234C69.0575 20.2234 69.433 20.4131 69.6207 20.6977C69.9023 20.9823 69.9962 21.4566 69.9962 21.9308C69.9962 22.5 69.9023 22.8794 69.6207 23.164C69.3391 23.4485 68.9636 23.6382 68.4943 23.6382C68.025 23.6382 67.7434 23.4485 67.4618 23.0691C67.4618 23.164 67.4618 23.2588 67.4618 23.3537V24.8714H66.8986V24.9662ZM67.5556 21.9308C67.5556 22.2154 67.6495 22.5 67.8372 22.7845C68.025 23.0691 68.2127 23.164 68.4943 23.164C68.7759 23.164 68.9636 23.0691 69.1514 22.8794C69.3391 22.6897 69.433 22.4051 69.433 22.0257C69.433 21.6463 69.3391 21.3617 69.1514 21.172C68.9636 20.9823 68.7759 20.8874 68.4943 20.8874C68.2127 20.8874 68.025 20.9823 67.8372 21.172C67.6495 21.2668 67.5556 21.5514 67.5556 21.9308Z" fill="black"/>
<path d="M70.5593 22.6897C70.5593 22.4051 70.6532 22.2154 70.7471 22.0257C70.8409 21.836 71.0287 21.7411 71.3103 21.6463C71.498 21.5514 71.7796 21.5514 71.9673 21.4566C72.1551 21.4566 72.3428 21.4566 72.6244 21.4566H72.8121V21.3617C72.8121 20.8874 72.5305 20.6029 72.0612 20.6029C71.7796 20.6029 71.4041 20.6977 71.1225 20.8874L70.8409 20.4131C70.9348 20.3183 71.1225 20.2234 71.4041 20.1286C71.5919 20.0337 71.8735 20.0337 72.0612 20.0337C72.4367 20.0337 72.8121 20.1286 72.9999 20.4131C73.1876 20.6029 73.3753 20.9823 73.3753 21.3617V23.4485H72.8121V23.0691V22.7846C72.7183 22.9743 72.5305 23.164 72.3428 23.2588C72.1551 23.3537 71.9673 23.4485 71.6857 23.4485C71.4041 23.4485 71.1225 23.3537 70.9348 23.164C70.7471 22.9743 70.5593 22.9743 70.5593 22.6897ZM71.2164 22.5948C71.2164 22.7846 71.3103 22.8794 71.4041 22.9743C71.498 23.0691 71.6857 23.164 71.8735 23.164C72.1551 23.164 72.3428 23.0691 72.5305 22.7846C72.7183 22.5948 72.8121 22.3103 72.8121 22.0257V21.9308H72.6244C71.6857 21.9308 71.2164 22.2154 71.2164 22.5948Z" fill="black"/>
<path d="M74.2201 21.6463C74.2201 20.9823 74.314 20.508 74.5017 20.1286C74.6894 19.7491 75.0649 19.4646 75.6281 19.18L76.8484 18.7057L77.0361 19.2749L75.7219 19.844C75.3465 20.0337 75.1588 20.2234 74.971 20.4131C74.7833 20.6028 74.6894 20.8874 74.6894 21.172C74.971 20.7926 75.3465 20.6028 75.9097 20.6028C76.2852 20.6028 76.6606 20.6977 76.9422 20.9823C77.2238 21.2668 77.3177 21.6463 77.3177 22.1205C77.3177 22.5948 77.13 22.9743 76.8484 23.2588C76.5668 23.5434 76.1913 23.7331 75.7219 23.7331C75.1587 23.7331 74.7833 23.5434 74.5017 23.164C74.314 22.7845 74.2201 22.3103 74.2201 21.6463ZM74.8772 22.1205C74.8772 22.4051 74.971 22.6897 75.1588 22.8794C75.3465 23.0691 75.5342 23.164 75.8158 23.164C76.0974 23.164 76.2852 23.0691 76.4729 22.8794C76.6606 22.6897 76.7545 22.4051 76.7545 22.1205C76.7545 21.836 76.6606 21.5514 76.4729 21.3617C76.2852 21.172 76.0974 21.0771 75.8158 21.0771C75.5342 21.0771 75.3465 21.172 75.1588 21.3617C74.971 21.5514 74.8772 21.7411 74.8772 22.1205Z" fill="black"/>
<path d="M77.9748 21.9308C77.9748 21.4566 78.1625 20.9823 78.538 20.6977C78.9134 20.3183 79.2889 20.2234 79.8521 20.2234C80.3215 20.2234 80.7908 20.4131 81.1663 20.6977C81.5417 21.0771 81.7295 21.4566 81.7295 21.9308C81.7295 22.4051 81.5417 22.8794 81.1663 23.164C80.7908 23.5434 80.4153 23.6382 79.8521 23.6382C79.2889 23.6382 78.9134 23.4485 78.538 23.164C78.1625 22.8794 77.9748 22.4051 77.9748 21.9308ZM78.6319 21.9308C78.6319 22.3103 78.7257 22.5948 79.0073 22.7845C79.195 22.9743 79.4767 23.164 79.8521 23.164C80.1337 23.164 80.4153 23.0691 80.6969 22.7845C80.8847 22.5948 81.0724 22.3103 81.0724 21.9308C81.0724 21.5514 80.9785 21.2668 80.6969 21.0771C80.5092 20.8874 80.2276 20.6977 79.8521 20.6977C79.5705 20.6977 79.2889 20.7926 79.0073 21.0771C78.7257 21.2668 78.6319 21.5514 78.6319 21.9308Z" fill="black"/>
<path d="M83.1375 23.6382V20.7926H81.9172V20.2234H84.8271V20.7926H83.7007V23.6382H83.1375Z" fill="black"/>
<path d="M85.578 23.6383V20.3183H86.2351V21.6463H86.7044L87.6431 20.3183H88.394L87.2676 21.9309L88.4879 23.6383H87.7369L86.7044 22.2154H86.2351V23.6383H85.578Z" fill="black"/>
<path d="M88.6755 22.6897C88.6755 22.4051 88.7694 22.2154 88.8633 22.0257C88.9571 21.836 89.1449 21.7411 89.4265 21.6463C89.6142 21.5514 89.8958 21.5514 90.0835 21.4566C90.2713 21.4566 90.459 21.4566 90.7406 21.4566H90.9283V21.3617C90.9283 20.8874 90.6467 20.6029 90.1774 20.6029C89.8958 20.6029 89.5203 20.6977 89.2387 20.8874L88.9571 20.4131C89.051 20.3183 89.2387 20.2234 89.5203 20.1286C89.7081 20.0337 89.9897 20.0337 90.1774 20.0337C90.5529 20.0337 90.9283 20.1286 91.1161 20.4131C91.3038 20.6029 91.4915 20.9823 91.4915 21.3617V23.4485H90.9283V23.0691V22.7846C90.8345 22.9743 90.6467 23.164 90.459 23.2588C90.2713 23.3537 90.0835 23.4485 89.8019 23.4485C89.5203 23.4485 89.2387 23.3537 89.051 23.164C88.8633 22.9743 88.6755 22.9743 88.6755 22.6897ZM89.3326 22.5948C89.3326 22.7846 89.4265 22.8794 89.5203 22.9743C89.6142 23.0691 89.8019 23.164 89.9897 23.164C90.2713 23.164 90.459 23.0691 90.6467 22.7846C90.8345 22.5948 90.9283 22.3103 90.9283 22.0257V21.9308H90.7406C89.8019 21.9308 89.3326 22.2154 89.3326 22.5948Z" fill="black"/>
<path d="M51.0351 31.6062V28.2862H53.945V31.6062H53.2879V28.7605H51.6922V31.6062H51.0351Z" fill="black"/>
<path d="M54.8837 32.9342V28.2862H55.4469V28.5708V28.8553C55.5407 28.6656 55.7285 28.4759 55.9162 28.3811C56.1039 28.2862 56.2917 28.1913 56.5733 28.1913C57.0426 28.1913 57.4181 28.3811 57.6058 28.6656C57.8874 28.9502 57.9813 29.4245 57.9813 29.8988C57.9813 30.4679 57.8874 30.8473 57.6058 31.1319C57.3242 31.4165 56.9487 31.6062 56.4794 31.6062C56.0101 31.6062 55.7285 31.4165 55.4469 31.037C55.4469 31.1319 55.4469 31.2267 55.4469 31.3216V32.8393H54.8837V32.9342ZM55.5407 29.8988C55.5407 30.1833 55.6346 30.4679 55.8223 30.7525C56.0101 31.037 56.1978 31.1319 56.4794 31.1319C56.761 31.1319 56.9487 31.037 57.1365 30.8473C57.3242 30.6576 57.4181 30.373 57.4181 29.9936C57.4181 29.6142 57.3242 29.3296 57.1365 29.1399C56.9487 28.9502 56.761 28.8553 56.4794 28.8553C56.1978 28.8553 56.0101 28.9502 55.8223 29.1399C55.6346 29.2348 55.5407 29.5193 55.5407 29.8988Z" fill="black"/>
<path d="M58.6383 29.8988C58.6383 29.4245 58.826 28.9502 59.2015 28.6656C59.577 28.2862 59.9524 28.1913 60.5156 28.1913C60.985 28.1913 61.4543 28.3811 61.8298 28.6656C62.2052 29.0451 62.393 29.4245 62.393 29.8988C62.393 30.373 62.2052 30.8473 61.8298 31.1319C61.4543 31.5113 61.0788 31.6062 60.5156 31.6062C59.9524 31.6062 59.577 31.4165 59.2015 31.1319C58.826 30.8473 58.6383 30.373 58.6383 29.8988ZM59.2954 29.8988C59.2954 30.2782 59.3892 30.5628 59.6708 30.7525C59.8586 30.9422 60.1402 31.1319 60.5156 31.1319C60.7972 31.1319 61.0788 31.037 61.3604 30.7525C61.5482 30.5628 61.7359 30.2782 61.7359 29.8988C61.7359 29.5193 61.642 29.2348 61.3604 29.0451C61.1727 28.8553 60.8911 28.6656 60.5156 28.6656C60.234 28.6656 59.9524 28.7605 59.6708 29.0451C59.3892 29.2348 59.2954 29.5193 59.2954 29.8988Z" fill="black"/>
<path d="M62.7684 29.8988C62.7684 29.3296 62.9562 28.9502 63.2378 28.6656C63.5194 28.3811 63.9887 28.1913 64.458 28.1913C64.9274 28.1913 65.3028 28.3811 65.4906 28.6656C65.6783 28.9502 65.866 29.3296 65.866 29.8039C65.866 29.8988 65.866 29.9936 65.866 30.0885H63.4255C63.4255 30.4679 63.5194 30.7525 63.801 30.9422C63.9887 31.1319 64.2703 31.2267 64.5519 31.2267C64.9274 31.2267 65.209 31.1319 65.4906 30.8473L65.7722 31.3216C65.5844 31.5113 65.3967 31.6062 65.209 31.701C64.9274 31.7959 64.7396 31.7959 64.5519 31.7959C63.9887 31.7959 63.6132 31.6062 63.2378 31.3216C62.9562 30.8473 62.7684 30.373 62.7684 29.8988ZM63.4255 29.5193H65.209C65.209 29.2348 65.1151 29.0451 64.9274 28.8553C64.7396 28.6656 64.5519 28.6656 64.3642 28.6656C64.0826 28.6656 63.8948 28.7605 63.7071 28.8553C63.6132 29.0451 63.5194 29.2348 63.4255 29.5193Z" fill="black"/>
<path d="M66.6169 31.6062V28.2862H67.274V29.6142H67.7433L68.682 28.2862H69.4329L68.3065 29.8987L69.5268 31.6062H68.7759L67.7433 30.1833H67.274V31.6062H66.6169Z" fill="black"/>
<path d="M70.8409 31.6062V28.7605H69.7145V28.1913H72.6244V28.7605H71.498V31.6062H70.8409Z" fill="black"/>
<path d="M72.9999 30.6576C72.9999 30.373 73.0937 30.1833 73.1876 29.9936C73.2815 29.8039 73.4692 29.709 73.7508 29.6142C73.9385 29.5193 74.2201 29.5193 74.4079 29.4245C74.5956 29.4245 74.7833 29.4245 75.0649 29.4245H75.2527V29.3296C75.2527 28.8553 74.9711 28.5708 74.5017 28.5708C74.2201 28.5708 73.8447 28.6656 73.5631 28.8553L73.2815 28.381C73.3753 28.2862 73.5631 28.1913 73.8447 28.0965C74.0324 28.0016 74.314 28.0016 74.5017 28.0016C74.8772 28.0016 75.2527 28.0965 75.4404 28.381C75.6281 28.5708 75.8159 28.9502 75.8159 29.3296V31.4164H75.2527V31.037V30.7525C75.1588 30.9422 74.9711 31.1319 74.7833 31.2267C74.5956 31.3216 74.4079 31.4164 74.1263 31.4164C73.8447 31.4164 73.5631 31.3216 73.3753 31.1319C73.1876 30.9422 72.9999 30.9422 72.9999 30.6576ZM73.6569 30.5627C73.6569 30.7525 73.7508 30.8473 73.8447 30.9422C73.9385 31.037 74.1263 31.1319 74.314 31.1319C74.5956 31.1319 74.7833 31.037 74.9711 30.7525C75.1588 30.5627 75.2527 30.2782 75.2527 29.9936V29.8987H75.0649C74.1263 29.8987 73.6569 30.1833 73.6569 30.5627Z" fill="black"/>
</svg>
