<svg width="108" height="49" viewBox="0 0 108 49" fill="none" xmlns="http://www.w3.org/2000/svg">
<path d="M23.7183 0.709259C36.6786 0.709259 47.2356 11.3856 47.2356 24.4923C47.2356 37.5989 36.6786 48.2753 23.7183 48.2753C10.758 48.2753 0.200928 37.5989 0.200928 24.4923C0.200928 11.3856 10.6722 0.709259 23.7183 0.709259Z" fill="#BAD1AE"/>
<path d="M57.0203 24.9262V19.7183H61.1401V24.9262H60.4535V20.3259H57.7927V24.9262H57.0203Z" fill="black"/>
<path d="M62.3417 26.4018V21.1939H63.0283V21.5411V21.8015C63.1141 21.5411 63.2858 21.3675 63.5433 21.2807C63.8008 21.1939 63.9724 21.1071 64.3158 21.1071C64.8307 21.1071 65.1741 21.2807 65.5174 21.6279C65.7749 21.9751 65.9465 22.4959 65.9465 23.0167C65.9465 23.6243 65.7749 24.0583 65.5174 24.4055C65.1741 24.7527 64.8307 24.9263 64.3158 24.9263C63.8008 24.9263 63.4575 24.7527 63.2 24.3187C63.2 24.4055 63.2 24.4923 63.2 24.6659V26.4018H62.3417ZM63.0283 23.1035C63.0283 23.4507 63.1141 23.7979 63.2858 24.0583C63.4575 24.3187 63.715 24.4923 64.0583 24.4923C64.4016 24.4923 64.5732 24.4055 64.8307 24.1451C65.0882 23.8847 65.1741 23.5375 65.1741 23.1903C65.1741 22.7563 65.0882 22.4959 64.9166 22.2355C64.7449 21.9751 64.4874 21.8883 64.1441 21.8883C63.8008 21.8883 63.6291 21.9751 63.3716 22.2355C63.1141 22.3223 63.0283 22.5827 63.0283 23.1035Z" fill="black"/>
<path d="M66.4615 23.0167C66.4615 22.4959 66.6332 21.9751 67.0624 21.6279C67.4915 21.2807 67.9207 21.1071 68.4356 21.1071C69.0364 21.1071 69.4656 21.2807 69.8947 21.6279C70.2381 21.9751 70.4955 22.4959 70.4955 23.0167C70.4955 23.5375 70.3239 24.0583 69.8947 24.4055C69.4656 24.7527 69.0364 24.9263 68.4356 24.9263C67.8348 24.9263 67.4057 24.7527 66.9765 24.4055C66.719 24.0583 66.4615 23.6243 66.4615 23.0167ZM67.234 23.0167C67.234 23.4507 67.3198 23.7111 67.5773 23.9715C67.8348 24.2319 68.0923 24.3187 68.5215 24.3187C68.8648 24.3187 69.2081 24.2319 69.4656 23.9715C69.7231 23.7111 69.8089 23.3639 69.8089 23.0167C69.8089 22.6695 69.7231 22.3223 69.4656 22.0619C69.2081 21.8015 68.9506 21.7147 68.5215 21.7147C68.1781 21.7147 67.8348 21.8015 67.5773 22.0619C67.3198 22.3223 67.234 22.6695 67.234 23.0167Z" fill="black"/>
<path d="M71.3539 24.9262V21.1939H72.0405V23.4507C72.0405 23.7111 72.0405 23.8847 72.0405 23.9715C72.0405 23.8847 72.2122 23.7111 72.3838 23.4507L73.9288 21.1939H74.6154V24.9262H73.9288V22.6695C73.9288 22.5827 73.9288 22.4959 73.9288 22.4091C73.9288 22.3223 73.9288 22.2355 73.9288 22.2355C73.9288 22.2355 73.843 22.4091 73.5855 22.7563L71.9547 25.013H71.3539V24.9262Z" fill="black"/>
<path d="M75.3878 24.4923L75.7311 24.0583C75.9886 24.3187 76.3319 24.4923 76.6753 24.4923C76.9328 24.4923 77.1044 24.4055 77.1902 24.3187C77.3619 24.2319 77.4477 24.0583 77.4477 23.8847C77.4477 23.5375 77.1902 23.2771 76.6753 23.2771H76.2461V22.7563H76.6753C77.1044 22.7563 77.3619 22.5827 77.3619 22.2355C77.3619 22.0619 77.2761 21.8883 77.1902 21.8015C77.1044 21.7147 76.9328 21.6279 76.6753 21.6279C76.3319 21.6279 76.0745 21.7147 75.7311 21.9751L75.4737 21.4543C75.817 21.1939 76.2461 21.0203 76.7611 21.0203C77.1044 21.0203 77.4477 21.1071 77.7052 21.2807C77.9627 21.4543 78.0485 21.7147 78.0485 22.0619C78.0485 22.4959 77.8769 22.7563 77.5336 22.9299C77.9627 23.1035 78.2202 23.3639 78.2202 23.7979C78.2202 24.1451 78.0485 24.4923 77.7911 24.6659C77.5336 24.8395 77.1902 25.0131 76.7611 25.0131C76.2461 25.0131 75.7311 24.8395 75.3878 24.4923Z" fill="black"/>
<path d="M78.9927 24.9262V21.1939H80.5376C80.8809 21.1939 81.2243 21.2807 81.4817 21.4543C81.7392 21.6279 81.8251 21.8883 81.8251 22.1487C81.8251 22.3223 81.7392 22.4959 81.6534 22.6695C81.5676 22.8431 81.3959 22.9299 81.2243 23.0167C81.4817 23.1035 81.6534 23.1903 81.7392 23.3639C81.8251 23.5375 81.9109 23.7111 81.9109 23.9715C81.9109 24.3187 81.8251 24.5791 81.5676 24.7526C81.3101 24.9262 80.9668 25.013 80.5376 25.013H78.9927V24.9262ZM79.7652 22.7563H80.4518C80.6235 22.7563 80.7951 22.6695 80.9668 22.5827C81.0526 22.4959 81.1384 22.3223 81.1384 22.1487C81.1384 21.8015 80.8809 21.6279 80.4518 21.6279H79.7652V22.7563ZM79.7652 24.4055H80.5376C80.7951 24.4055 80.9668 24.3187 81.1384 24.2319C81.3101 24.1451 81.3101 23.9715 81.3101 23.7979C81.3101 23.6243 81.2242 23.4507 81.1384 23.3639C80.9668 23.2771 80.7951 23.1903 80.5376 23.1903H79.7652V24.4055Z" fill="black"/>
<path d="M82.5975 23.0167C82.5975 22.4959 82.7692 21.9751 83.1983 21.6279C83.6275 21.2807 84.0566 21.1071 84.5716 21.1071C85.1724 21.1071 85.6016 21.2807 86.0307 21.6279C86.374 21.9751 86.6315 22.4959 86.6315 23.0167C86.6315 23.5375 86.4599 24.0583 86.0307 24.4055C85.6016 24.7527 85.1724 24.9263 84.5716 24.9263C83.9708 24.9263 83.5417 24.7527 83.1125 24.4055C82.7692 24.0583 82.5975 23.6243 82.5975 23.0167ZM83.37 23.0167C83.37 23.4507 83.4558 23.7111 83.7133 23.9715C83.9708 24.2319 84.2283 24.3187 84.6574 24.3187C85.0008 24.3187 85.3441 24.2319 85.6016 23.9715C85.8591 23.7111 85.9449 23.3639 85.9449 23.0167C85.9449 22.6695 85.8591 22.3223 85.6016 22.0619C85.3441 21.8015 85.0866 21.7147 84.6574 21.7147C84.3141 21.7147 83.9708 21.8015 83.7133 22.0619C83.4558 22.3223 83.37 22.6695 83.37 23.0167Z" fill="black"/>
<path d="M86.9749 24.3187H87.404C87.8332 23.7979 88.0048 22.9299 88.0048 21.8883V21.1939H90.4939V24.3187H91.0088V25.7942H90.3222V24.9262H87.6615V25.7942H86.9749V24.3187ZM88.1765 24.3187H89.8072V21.7147H88.6914V21.8883C88.6914 23.0167 88.5198 23.7979 88.1765 24.3187Z" fill="black"/>
<path d="M91.6096 23.0167C91.6096 22.4959 91.7813 21.9751 92.2104 21.6279C92.5537 21.2807 93.0687 21.1071 93.6695 21.1071C94.2703 21.1071 94.6995 21.2807 95.0428 21.6279L94.6995 22.1487C94.442 21.8883 94.0987 21.7147 93.6695 21.7147C93.3262 21.7147 92.9829 21.8015 92.7254 22.0619C92.4679 22.3223 92.3821 22.6695 92.3821 23.0167C92.3821 23.3639 92.4679 23.7111 92.7254 23.9715C92.9829 24.2319 93.3262 24.3187 93.6695 24.3187C93.8412 24.3187 94.0987 24.2319 94.2703 24.1451C94.442 24.0583 94.6137 23.9715 94.7853 23.7979L95.0428 24.3187C94.8712 24.4923 94.6137 24.6659 94.3562 24.7527C94.0987 24.8395 93.8412 24.9263 93.4979 24.9263C92.8971 24.9263 92.4679 24.7527 92.0388 24.4055C91.7813 24.0583 91.6096 23.6243 91.6096 23.0167Z" fill="black"/>
<path d="M96.6736 24.9262V21.8015H95.3861V21.1939H98.6476V21.8015H97.3602V24.9262H96.6736Z" fill="black"/>
<path d="M99.4202 24.9262V21.1939H100.965C101.308 21.1939 101.652 21.2807 101.909 21.4543C102.167 21.6279 102.253 21.8883 102.253 22.1487C102.253 22.3223 102.167 22.4959 102.081 22.6695C101.995 22.8431 101.823 22.9299 101.652 23.0167C101.909 23.1035 102.081 23.1903 102.167 23.3639C102.253 23.5375 102.338 23.7111 102.338 23.9715C102.338 24.3187 102.253 24.5791 101.995 24.7526C101.738 24.9262 101.394 25.013 100.965 25.013H99.4202V24.9262ZM100.107 22.7563H100.793C100.965 22.7563 101.137 22.6695 101.308 22.5827C101.394 22.4959 101.48 22.3223 101.48 22.1487C101.48 21.8015 101.223 21.6279 100.793 21.6279H100.107V22.7563ZM100.107 24.4055H100.879C101.137 24.4055 101.308 24.3187 101.48 24.2319C101.652 24.1451 101.652 23.9715 101.652 23.7979C101.652 23.6243 101.566 23.4507 101.48 23.3639C101.308 23.2771 101.137 23.1903 100.879 23.1903H100.107V24.4055Z" fill="black"/>
<path d="M103.025 23.0167C103.025 22.4959 103.197 21.9751 103.626 21.6279C104.055 21.2807 104.484 21.1071 104.999 21.1071C105.6 21.1071 106.029 21.2807 106.458 21.6279C106.802 21.9751 107.059 22.4959 107.059 23.0167C107.059 23.5375 106.887 24.0583 106.458 24.4055C106.029 24.7527 105.6 24.9263 104.999 24.9263C104.398 24.9263 103.969 24.7527 103.54 24.4055C103.197 24.0583 103.025 23.6243 103.025 23.0167ZM103.712 23.0167C103.712 23.4507 103.798 23.7111 104.055 23.9715C104.312 24.2319 104.57 24.3187 104.999 24.3187C105.342 24.3187 105.686 24.2319 105.943 23.9715C106.201 23.7111 106.287 23.3639 106.287 23.0167C106.287 22.6695 106.201 22.3223 105.943 22.0619C105.686 21.8015 105.428 21.7147 104.999 21.7147C104.656 21.7147 104.312 21.8015 104.055 22.0619C103.798 22.3223 103.712 22.6695 103.712 23.0167Z" fill="black"/>
<path d="M56.6769 33.0854C56.6769 32.5646 56.8485 32.0438 57.2777 31.6966C57.7068 31.3494 58.136 31.1758 58.651 31.1758C59.2518 31.1758 59.6809 31.3494 60.1101 31.6966C60.4534 32.0438 60.7109 32.5646 60.7109 33.0854C60.7109 33.6062 60.5392 34.127 60.1101 34.4742C59.6809 34.8214 59.2518 34.995 58.651 34.995C58.0502 34.995 57.621 34.8214 57.1919 34.4742C56.8485 34.127 56.6769 33.693 56.6769 33.0854ZM57.3635 33.0854C57.3635 33.5194 57.4494 33.7798 57.7068 34.0402C57.9643 34.3006 58.2218 34.3874 58.651 34.3874C58.9943 34.3874 59.3376 34.3006 59.5951 34.0402C59.8526 33.7798 59.9384 33.4326 59.9384 33.0854C59.9384 32.7382 59.8526 32.391 59.5951 32.1306C59.3376 31.8702 59.0801 31.7834 58.651 31.7834C58.3076 31.7834 57.9643 31.8702 57.7068 32.1306C57.5352 32.391 57.3635 32.7382 57.3635 33.0854Z" fill="black"/>
<path d="M61.4834 34.995V31.2626H62.17V32.7382H62.685L63.715 31.2626H64.4874L63.2858 33.0854L64.6591 34.995H63.8008L62.7708 33.3458H62.2559V34.995H61.4834Z" fill="black"/>
<path d="M65.0883 33.0854C65.0883 32.5646 65.2599 32.0438 65.6891 31.6966C66.1182 31.3494 66.5474 31.1758 67.0623 31.1758C67.6632 31.1758 68.0923 31.3494 68.5214 31.6966C68.8648 32.0438 69.1223 32.5646 69.1223 33.0854C69.1223 33.6062 68.9506 34.127 68.5214 34.4742C68.0923 34.8214 67.6632 34.995 67.0623 34.995C66.4615 34.995 66.0324 34.8214 65.6032 34.4742C65.2599 34.127 65.0883 33.693 65.0883 33.0854ZM65.8607 33.0854C65.8607 33.5194 65.9466 33.7798 66.204 34.0402C66.4615 34.3006 66.719 34.3874 67.1482 34.3874C67.4915 34.3874 67.8348 34.3006 68.0923 34.0402C68.3498 33.7798 68.4356 33.4326 68.4356 33.0854C68.4356 32.7382 68.3498 32.391 68.0923 32.1306C67.8348 31.8702 67.5773 31.7834 67.1482 31.7834C66.8049 31.7834 66.4615 31.8702 66.204 32.1306C65.9466 32.391 65.8607 32.7382 65.8607 33.0854Z" fill="black"/>
<path d="M69.9805 34.995V31.2626H70.6671V32.825H72.5554V31.2626H73.242V34.995H72.5554V33.3458H70.6671V34.995H69.9805Z" fill="black"/>
<path d="M76.3319 34.995V29.787H80.4517V34.995H79.7651V30.3946H77.1044V34.995H76.3319Z" fill="black"/>
<path d="M81.7391 34.995V29.787H83.5416C83.9707 29.787 84.314 29.8738 84.6573 30.1342C84.9148 30.3946 85.0865 30.7418 85.0865 31.089C85.0865 31.3494 85.0007 31.523 84.9148 31.7834C84.829 31.957 84.6573 32.1306 84.3999 32.2174C84.6573 32.3042 84.9148 32.4778 85.0007 32.6514C85.1723 32.9118 85.2581 33.1722 85.2581 33.4326C85.2581 33.8666 85.0865 34.3006 84.7432 34.561C84.3999 34.8214 84.0565 34.9082 83.5416 34.9082H81.7391V34.995ZM82.5116 31.957H83.6274C83.8849 31.957 84.0565 31.8702 84.1424 31.6966C84.2282 31.523 84.314 31.3494 84.314 31.089C84.314 30.8286 84.2282 30.655 84.1424 30.5682C83.9707 30.3946 83.799 30.3946 83.5416 30.3946H82.5116V31.957ZM82.5116 34.3874H83.7132C83.9707 34.3874 84.2282 34.3006 84.3999 34.127C84.5715 33.9534 84.6573 33.7798 84.6573 33.4326C84.6573 33.1722 84.5715 32.9118 84.3999 32.825C84.2282 32.6514 84.0565 32.5646 83.7132 32.5646H82.5116V34.3874Z" fill="black"/>
<path d="M85.7732 34.995L87.404 32.3042L85.859 29.787H86.7173L87.4898 31.1758L87.8331 31.7834C87.9189 31.6098 88.0048 31.3494 88.1764 31.1758L89.0347 29.787H89.893L88.3481 32.3042L89.9788 34.995H89.2064L88.2623 33.3458L87.9189 32.7382C87.8331 32.9118 87.7473 33.1722 87.5756 33.3458L86.6315 34.995H85.7732Z" fill="black"/>
<path d="M29.4689 34.6478H19.0835V19.6315H29.4689V34.6478ZM20.6284 33.1722H28.0098V21.1939H20.6284V33.1722Z" fill="#1D322B"/>
<path d="M24.3191 34.6478C23.8899 34.6478 23.5466 34.3006 23.5466 33.8666V20.4127C23.5466 19.9787 23.8899 19.6315 24.3191 19.6315C24.7482 19.6315 25.0916 19.9787 25.0916 20.4127V33.9534C25.0057 34.3006 24.6624 34.6478 24.3191 34.6478Z" fill="#1D322B"/>
<path d="M36.6786 10.2572H11.788C11.3588 10.2572 11.0155 9.90998 11.0155 9.47599C11.0155 9.04199 11.3588 8.69479 11.788 8.69479H36.6786C37.1078 8.69479 37.4511 9.04199 37.4511 9.47599C37.4511 9.90998 37.1078 10.2572 36.6786 10.2572Z" fill="#1D322B"/>
<path d="M36.6786 38.467H11.788C11.3588 38.467 11.0155 38.1198 11.0155 37.6858C11.0155 37.2518 11.3588 36.9046 11.788 36.9046H36.6786C37.1078 36.9046 37.4511 37.2518 37.4511 37.6858C37.4511 38.1198 37.1078 38.467 36.6786 38.467Z" fill="#1D322B"/>
<path d="M24.2333 12.4272C23.8041 12.4272 23.4608 12.08 23.4608 11.646V9.47599C23.4608 9.04199 23.8041 8.69479 24.2333 8.69479C24.6624 8.69479 25.0058 9.04199 25.0058 9.47599V11.646C25.0058 12.08 24.6624 12.4272 24.2333 12.4272Z" fill="#1D322B"/>
<path d="M24.2333 16.5935C22.7742 16.5935 21.6584 15.3783 21.6584 13.9895C21.6584 12.6007 22.8601 11.3856 24.2333 11.3856C25.6066 11.3856 26.8082 12.6007 26.8082 13.9895C26.8082 15.3783 25.6924 16.5935 24.2333 16.5935ZM24.2333 12.8611C23.6325 12.8611 23.1176 13.3819 23.1176 13.9895C23.1176 14.5971 23.6325 15.1179 24.2333 15.1179C24.8341 15.1179 25.3491 14.5971 25.3491 13.9895C25.3491 13.3819 24.8341 12.8611 24.2333 12.8611Z" fill="#1D322B"/>
<path d="M19.5984 24.9263C19.5126 24.9263 19.4268 24.9263 19.3409 24.8395L15.7361 23.3639V17.7219L22.9458 14.7707C23.2891 14.5971 23.8041 14.7707 23.8899 15.2047C24.0616 15.5519 23.8899 16.0727 23.4608 16.1595L17.1952 18.6767V22.2355L19.8559 23.3639C20.1992 23.5375 20.4567 23.9715 20.2851 24.3187C20.1992 24.7527 19.9417 24.9263 19.5984 24.9263Z" fill="#1D322B"/>
<path d="M28.9539 24.9263C28.6964 24.9263 28.3531 24.7527 28.2673 24.4923C28.0956 24.1451 28.2673 23.6243 28.6964 23.5375L31.3571 22.4091V18.8503L25.0916 16.3331C24.7483 16.1595 24.4908 15.7255 24.6624 15.3784C24.8341 15.0312 25.2632 14.7708 25.6065 14.9444L32.8163 17.8955V23.5375L29.2114 25.0131C29.1256 24.9263 29.0397 24.9263 28.9539 24.9263Z" fill="#1D322B"/>
</svg>
